<?xml version="1.0" encoding="utf-8"?>
<!-- Generator: Adobe Illustrator 19.0.0, SVG Export Plug-In . SVG Version: 6.00 Build 0)  -->
<svg version="1.1" id="Layer_1" xmlns="http://www.w3.org/2000/svg" xmlns:xlink="http://www.w3.org/1999/xlink" x="0px" y="0px"
	 viewBox="0 0 32.1 32" style="enable-background:new 0 0 32.1 32;" xml:space="preserve">
<style type="text/css">
	.st0{fill:#FEB737;}
	.st1{fill:#E191E5;}
	.st2{fill:#A6C3FD;}
</style>
<path class="st0" d="M20.3,32c-0.5,0-0.9-0.2-1.3-0.5c-0.3-0.3-0.5-0.8-0.5-1.3c0-0.5,0.2-0.9,0.5-1.3c0.7-0.7,1.8-0.7,2.5,0
	c0.3,0.3,0.5,0.8,0.5,1.3c0,0.5-0.2,0.9-0.5,1.3C21.2,31.8,20.8,32,20.3,32z"/>
<path class="st0" d="M15.7,28c-1.2,0-2.4-0.4-3.3-1.3c-1.8-1.8-1.8-4.7,0-6.6c0.7-0.7,1.8-0.7,2.5,0c0.7,0.7,0.7,1.8,0.1,2.5
	c-0.4,0.5-0.3,1.2,0.2,1.7c0.2,0.2-0.1,0.3,0.9,0.3v0c0,0,0.3-0.1,0.5-0.3c0.7-0.7,1.7-0.7,2.4-0.1c0.7,0.7,0.7,1.7,0,2.4
	C18.2,27.6,17,28,15.7,28C15.7,28,15.7,28,15.7,28z"/>
<path class="st1" d="M17.7,27.4c-0.4,0-0.9-0.2-1.2-0.5c-0.7-0.7-0.7-1.8,0-2.5c0.4-0.5,0.4-1.2,0-1.7c-0.7-0.7-0.7-1.8,0-2.5
	c0.7-0.7,1.8-0.7,2.5,0c1.8,1.8,1.8,4.8,0,6.6C18.6,27.2,18.2,27.4,17.7,27.4z"/>
<path class="st0" d="M18.7,17h-5.3c-1,0-1.8-1-1.8-2c0-1,0.8-2,1.8-2h5.3c1,0,1.8,1,1.8,2C20.5,16,19.7,17,18.7,17z"/>
<path class="st2" d="M18.7,12h-5.3c-1,0-1.8-1-1.8-2c0-1,0.8-2,1.8-2h5.3c1,0,1.8,1,1.8,2C20.5,11,19.7,12,18.7,12z"/>
<path class="st1" d="M5.2,15.7c-1,0-1.8-0.8-1.8-1.8c0-1,0.3-1.9,0.9-2.7C4.9,10.5,6,10.3,6.8,11c0.8,0.6,0.9,1.7,0.3,2.5
	c-0.1,0.1-0.1,0.2-0.1,0.4C6.9,14.9,6.1,15.7,5.2,15.7z"/>
<path class="st0" d="M7.2,13.4c-1,0-1.8-0.8-1.8-1.8C5.5,5.2,10.2,0,16,0c4.9,0,9.1,3.7,10.3,8.9c0.2,1-0.4,1.9-1.4,2.1
	c-1,0.2-1.9-0.4-2.1-1.4C22,6.1,19.3,3.6,16,3.6c-3.9,0-7,3.6-7,8C9,12.6,8.2,13.4,7.2,13.4z"/>
<path class="st2" d="M24.8,23.1c-1,0-1.8-0.8-1.8-1.8c0-1,0.8-1.8,1.8-1.8c2,0,3.7-1.9,3.7-4.3c0-2.4-1.6-4.3-3.7-4.3l-0.2,0
	c-1,0-1.8-0.7-1.9-1.7c-0.1-1,0.7-1.8,1.7-1.9c0.1,0,0.2,0,0.3,0c4,0,7.2,3.5,7.2,7.8C32,19.6,28.8,23.1,24.8,23.1z"/>
<path class="st1" d="M24.8,23.1H5.2c-2.8,0-5.1-2.5-5.1-5.5c0-3,2.3-5.5,5.1-5.5c1,0,1.8,0.8,1.8,1.8c0,1-0.8,1.8-1.8,1.8
	c-0.9,0-1.6,0.9-1.6,2c0,1.1,0.7,2,1.6,2h19.7c1,0,1.8,0.8,1.8,1.8C26.6,22.3,25.8,23.1,24.8,23.1z"/>
<path class="st1" d="M5.2,15.7c-1,0-1.8-0.8-1.8-1.8c0-1,0.3-1.9,0.9-2.7C4.5,11,5.7,9.6,7.5,9.8c1,0.1,1.7,1,1.5,2
	c-0.1,0.9-0.9,1.6-1.8,1.5c0,0-0.1,0.1-0.1,0.1c0,0.1-0.1,0.2-0.1,0.4C6.9,14.9,6.1,15.7,5.2,15.7z"/>
</svg>
