<?xml version="1.0" encoding="UTF-8" standalone="no"?>
<svg width="14px" height="16px" viewBox="0 0 14 16" version="1.1" xmlns="http://www.w3.org/2000/svg" xmlns:xlink="http://www.w3.org/1999/xlink" xmlns:sketch="http://www.bohemiancoding.com/sketch/ns">
    <!-- Generator: Sketch 3.2.2 (9983) - http://www.bohemiancoding.com/sketch -->
    <title>ico1</title>
    <desc>Created with Sketch.</desc>
    <defs></defs>
    <g id="Page-1" stroke="none" stroke-width="1" fill="none" fill-rule="evenodd" sketch:type="MSPage">
        <g id="ico1" sketch:type="MSLayerGroup" fill="#FDB737">
            <g id="Group" sketch:type="MSShapeGroup">
                <path d="M4,1 C4.3,1 4.9,1.4 5.6,2 C4.9,2.6 4.3,3 4,3 C3.4,3 3,2.6 3,2 C3,1.4 3.4,1 4,1 L4,1 Z M4,0 C2.9,0 2,0.9 2,2 C2,3.1 2.9,4 4,4 C5.1,4 7,2 7,2 C7,2 5.1,0 4,0 L4,0 L4,0 Z" id="Shape"></path>
                <path d="M10,1 C10.6,1 11,1.4 11,2 C11,2.6 10.6,3 10,3 C9.7,3 9.1,2.6 8.4,2 C9.1,1.4 9.7,1 10,1 L10,1 Z M10,0 C8.9,0 7,2 7,2 C7,2 8.9,4 10,4 C11.1,4 12,3.1 12,2 C12,0.9 11.1,0 10,0 L10,0 L10,0 Z" id="Shape"></path>
                <g transform="translate(0.000000, 4.000000)" id="Shape">
                    <path d="M13.9,3 C13.5,1.3 11.9,0 10,0 L4,0 C2.1,0 0.6,1.3 0.1,3 L13.9,3 L13.9,3 Z"></path>
                    <path d="M0,5 L0,8 C0,10.2 1.8,12 4,12 L10,12 C12.2,12 14,10.2 14,8 L14,5 L0,5 L0,5 Z"></path>
                </g>
            </g>
        </g>
    </g>
</svg>