<?xml version="1.0" encoding="utf-8"?>
<!-- Generator: Adobe Illustrator 19.0.0, SVG Export Plug-In . SVG Version: 6.00 Build 0)  -->
<svg version="1.1" id="Layer_1" xmlns="http://www.w3.org/2000/svg" xmlns:xlink="http://www.w3.org/1999/xlink" x="0px" y="0px"
	 viewBox="0 0 419.2 152.4" style="enable-background:new 0 0 419.2 152.4;" xml:space="preserve">
<style type="text/css">
	.st0{fill:#A7C3FE;}
	.st1{fill:#FEB737;}
	.st2{fill:#E8D6AD;}
	.st3{fill:#E192E5;}
	.st4{fill:#8E5BB4;}
	.st5{fill:#FFFFFF;}
</style>
<path class="st0" d="M0,14.2c0-3.8,1.4-7.1,4.2-10C6.9,1.4,10.3,0,14.2,0c1.8,0,3.6,0.4,5.4,1.1c1.7,0.8,3.3,1.8,4.6,3.1
	c1.3,1.3,2.4,2.9,3.1,4.6c0.8,1.7,1.1,3.5,1.1,5.4c0,3.9-1.4,7.3-4.2,10.1c-2.8,2.8-6.2,4.2-10,4.2c-3.9,0-7.3-1.4-10.1-4.2
	C1.4,21.5,0,18.1,0,14.2 M0,48.4c0-5.8,1.4-10,4.1-12.7c2.7-2.7,6.1-4,10.1-4c3.9,0,7.2,1.3,10,4c2.7,2.7,4.1,6.9,4.1,12.7v54.2
	c0,5.8-1.4,10-4.1,12.6c-2.7,2.6-6,3.9-10,3.9c-4,0-7.4-1.3-10.1-3.9c-2.7-2.6-4.1-6.8-4.1-12.6V48.4z"/>
<path class="st1" d="M38.5,48.3c0-4.9,1.3-8.7,3.8-11.6c2.5-2.9,6-4.4,10.3-4.5c3.7,0,7,1.4,9.7,4.1c2.9-1.4,6.1-2.5,9.4-3.3
	c3.3-0.9,7-1.3,11-1.3c6,0,11.6,1.1,16.9,3.4c5.3,2.3,9.9,5.4,13.8,9.3c4,4,7.1,8.6,9.4,13.9c2.3,5.3,3.5,11,3.5,17
	c0,6-1.2,11.7-3.5,17c-2.3,5.3-5.5,10-9.4,13.9c-4,4-8.6,7.1-13.8,9.3c-5.3,2.3-10.9,3.4-16.9,3.4c-3.1,0-5.9-0.2-8.6-0.7
	c-2.7-0.5-5.3-1.2-7.9-2.4v20.4c0,5.7-1.3,9.8-4,12.4c-2.7,2.6-5.9,3.9-9.6,3.9c-5,0-8.6-1.4-10.8-4.3c-2.2-2.9-3.3-6.9-3.3-12V48.3
	z M98.8,75.3c0-4.8-1.6-8.7-4.7-11.7C91,60.5,87.2,59,82.7,59c-4.8,0-8.7,1.5-11.7,4.6c-3.1,3.1-4.6,7-4.6,11.7S67.9,84,71,87
	c3.1,3.1,7,4.6,11.7,4.6c4.5,0,8.3-1.5,11.5-4.6C97.3,84,98.8,80.1,98.8,75.3"/>
<path class="st2" d="M136.4,75.1c0-6,1.1-11.7,3.4-17c2.3-5.3,5.4-10,9.3-13.9c4-4,8.6-7.1,13.9-9.3c5.3-2.3,11-3.4,17.1-3.4
	c6,0,11.7,1.1,17,3.4c5.3,2.3,10,5.4,13.9,9.3c4,4,7.1,8.6,9.3,13.9c2.3,5.3,3.4,11,3.4,17c0,6.1-1.1,11.8-3.4,17.1
	c-2.3,5.3-5.4,10-9.3,14c-4,4-8.6,7.2-13.9,9.4c-5.3,2.3-11,3.4-17,3.4c-6.1,0-11.8-1.1-17.1-3.4c-5.3-2.3-10-5.4-13.9-9.4
	c-4-4-7.1-8.7-9.3-14C137.6,87,136.4,81.2,136.4,75.1 M164.3,75.1c0,4.5,1.5,8.4,4.6,11.5c3.1,3.1,6.8,4.7,11.4,4.7
	c2.2,0,4.2-0.4,6.2-1.3c2-0.8,3.7-2,5.1-3.4c1.4-1.4,2.5-3.1,3.4-5.1c0.8-2,1.3-4.1,1.3-6.4c0-2.1-0.4-4.2-1.3-6.2
	c-0.8-2-2-3.7-3.4-5.1c-1.4-1.4-3.1-2.5-5.1-3.4c-2-0.9-4-1.3-6.2-1.3c-4.5,0-8.3,1.6-11.4,4.7C165.8,67,164.3,70.7,164.3,75.1"/>
<path class="st3" d="M234,48.2c0-4.9,1.3-8.7,3.8-11.6c2.5-2.9,6-4.4,10.3-4.5c3.7,0,7,1.4,9.7,4.1c2.9-1.4,6.1-2.5,9.4-3.3
	c3.3-0.9,7-1.3,11-1.3c6,0,11.6,1.1,16.9,3.4c5.3,2.3,9.9,5.4,13.8,9.3c4,4,7.1,8.6,9.4,13.9c2.3,5.3,3.5,11,3.5,17
	c0,6-1.2,11.7-3.5,17c-2.3,5.3-5.5,10-9.4,13.9c-4,4-8.6,7.1-13.8,9.3c-5.3,2.3-10.9,3.4-16.9,3.4c-3.1,0-5.9-0.2-8.6-0.7
	c-2.7-0.5-5.3-1.2-7.9-2.4v20.4c0,5.7-1.3,9.8-4,12.4c-2.7,2.6-5.9,3.9-9.6,3.9c-5,0-8.6-1.4-10.8-4.3c-2.2-2.9-3.3-6.9-3.3-12V48.2
	z M294.3,75.2c0-4.8-1.6-8.7-4.7-11.7c-3.1-3.1-6.9-4.6-11.5-4.6c-4.8,0-8.7,1.5-11.7,4.6c-3.1,3.1-4.6,7-4.6,11.7s1.5,8.7,4.6,11.7
	c3.1,3.1,7,4.6,11.7,4.6c4.5,0,8.3-1.5,11.5-4.6C292.7,83.8,294.3,79.9,294.3,75.2"/>
<path class="st4" d="M331.8,75.1c0-6,1.1-11.7,3.4-17c2.3-5.3,5.4-10,9.3-13.9c4-4,8.6-7.1,13.9-9.3c5.3-2.3,11-3.4,17.1-3.4
	c6,0,11.7,1.1,17,3.4c5.3,2.3,10,5.4,13.9,9.3c4,4,7.1,8.6,9.3,13.9c2.3,5.3,3.4,11,3.4,17c0,6.1-1.1,11.8-3.4,17.1
	c-2.3,5.3-5.4,10-9.3,14c-4,4-8.6,7.2-13.9,9.4c-5.3,2.3-11,3.4-17,3.4c-6.1,0-11.8-1.1-17.1-3.4c-5.3-2.3-10-5.4-13.9-9.4
	c-4-4-7.1-8.7-9.3-14C332.9,87,331.8,81.2,331.8,75.1"/>
<path class="st5" d="M369.1,60c2.6,0.3,4.8-0.9,6.7-2.4c1.8,1.4,3.8,2.5,6.3,2.5c2.8,0,4.9-2.2,5.1-4.9c0.2-2.5-2.3-4.5-4.5-4.8
	c-2.6-0.3-4.8,0.9-6.7,2.4c-1.8-1.4-3.8-2.5-6.3-2.5c-2.8,0-4.9,2.2-5.1,4.9C364.3,57.7,366.8,59.7,369.1,60 M380.4,53.7
	c1.3-0.5,3.4-0.2,3.6,1.5c0.1,1.6-2.1,1.8-3.2,1.6c-1.1-0.2-2.1-0.8-3-1.5C378.6,54.6,379.5,54,380.4,53.7 M370.8,53.6
	c1.1,0.2,2.1,0.8,3,1.5c-0.8,0.7-1.6,1.3-2.6,1.6c-1.3,0.5-3.4,0.2-3.6-1.5C367.6,53.6,369.8,53.4,370.8,53.6"/>
<path class="st5" d="M355.7,89.2c0,4.8,4.5,8.7,10,8.7H386c5.5,0,10-3.9,10-8.7v-14h-40.3V89.2z"/>
<path class="st5" d="M386,61.9h-20.4c-5.5,0-10,2.8-10,6.4V72H396v-3.8C396,64.7,391.5,61.9,386,61.9"/>
</svg>
