<?xml version="1.0" encoding="UTF-8" standalone="no"?>
<svg width="267px" height="27px" viewBox="0 0 267 27" version="1.1" xmlns="http://www.w3.org/2000/svg" xmlns:xlink="http://www.w3.org/1999/xlink" xmlns:sketch="http://www.bohemiancoding.com/sketch/ns">
    <!-- Generator: Sketch 3.2.2 (9983) - http://www.bohemiancoding.com/sketch -->
    <title>ПЕРЕЙТИ В ВИШЛИСТ</title>
    <desc>Created with Sketch.</desc>
    <defs></defs>
    <g id="Page-1" stroke="none" stroke-width="1" fill="none" fill-rule="evenodd" sketch:type="MSPage">
        <path d="M0.763671875,24.4277344 L0.763671875,8.04882812 C0.763671875,7.56575279 0.955076211,7.14192891 1.33789062,6.77734375 C1.72070504,6.41275859 2.18098689,6.23046875 2.71875,6.23046875 L12.6035156,6.23046875 C13.1230495,6.23046875 13.5810527,6.41275859 13.9775391,6.77734375 C14.3740254,7.14192891 14.5722656,7.56575279 14.5722656,8.04882812 L14.5722656,24.4277344 C14.5722656,24.9108097 14.376304,25.3346336 13.984375,25.6992188 C13.592446,26.0638039 13.1344427,26.2460938 12.6103516,26.2460938 C12.0862604,26.2460938 11.6282572,26.0660825 11.2363281,25.7060547 C10.8443991,25.3460268 10.6484375,24.9199243 10.6484375,24.4277344 L10.6484375,9.78515625 L4.6875,9.78515625 L4.6875,24.4277344 C4.6875,24.9108097 4.49153842,25.3346336 4.09960938,25.6992188 C3.70768033,26.0638039 3.24739848,26.2460938 2.71875,26.2460938 C2.18098689,26.2460938 1.72070504,26.0660825 1.33789062,25.7060547 C0.955076211,25.3460268 0.763671875,24.9199243 0.763671875,24.4277344 L0.763671875,24.4277344 Z M18.0859375,24.0175781 L18.0859375,8.25390625 C18.0859375,7.75260166 18.2955708,7.29459843 18.7148438,6.87988281 C19.1341167,6.4651672 19.6445282,6.2578125 20.2460938,6.2578125 L27.8339844,6.2578125 C28.3535182,6.2578125 28.8092428,6.44010234 29.2011719,6.8046875 C29.5931009,7.16927266 29.7890625,7.59309654 29.7890625,8.07617188 C29.7890625,8.57747646 29.5976582,8.99218586 29.2148438,9.3203125 C28.8320293,9.64843914 28.3717475,9.8125 27.8339844,9.8125 L22.0097656,9.8125 L22.0097656,14.3242188 L27.3007812,14.3242188 C27.8020858,14.3242188 28.248696,14.4973941 28.640625,14.84375 C29.032554,15.1901059 29.2285156,15.6048153 29.2285156,16.0878906 C29.2285156,16.5891952 29.0416685,17.0130191 28.6679688,17.359375 C28.294269,17.7057309 27.8385444,17.8789062 27.3007812,17.8789062 L22.0097656,17.8789062 L22.0097656,22.4453125 L28.1074219,22.4453125 C28.6269557,22.4453125 29.084959,22.6184879 29.4814453,22.9648438 C29.8779317,23.3111996 30.0761719,23.7167946 30.0761719,24.1816406 C30.0761719,24.6829452 29.8847675,25.1113263 29.5019531,25.4667969 C29.1191387,25.8222674 28.6542996,26 28.1074219,26 L20.6835938,26 C18.9518143,26 18.0859375,25.3391993 18.0859375,24.0175781 L18.0859375,24.0175781 Z M32.46875,24.4003906 L32.46875,8.28125 C32.46875,7.74348689 32.6829406,7.27181192 33.1113281,6.86621094 C33.5397157,6.46060995 34.0546845,6.2578125 34.65625,6.2578125 L38.7714844,6.2578125 C40.0384178,6.2578125 41.14355,6.4355451 42.0869141,6.79101562 C43.0302782,7.14648615 43.7731093,7.63639011 44.3154297,8.26074219 C44.8577501,8.88509427 45.2587878,9.57551705 45.5185547,10.3320312 C45.7783216,11.0885454 45.9082031,11.913407 45.9082031,12.8066406 C45.9082031,14.8574321 45.2701887,16.447911 43.9941406,17.578125 C42.7180926,18.708339 40.9772246,19.2734375 38.7714844,19.2734375 L36.3925781,19.2734375 L36.3925781,24.4003906 C36.3925781,24.883466 36.1966165,25.3118471 35.8046875,25.6855469 C35.4127585,26.0592467 34.9547552,26.2460938 34.4306641,26.2460938 C33.9065729,26.2460938 33.4485697,26.0660825 33.0566406,25.7060547 C32.6647116,25.3460268 32.46875,24.9108098 32.46875,24.4003906 L32.46875,24.4003906 Z M36.3925781,15.71875 L38.7714844,15.71875 C40.9225368,15.71875 41.9934896,14.7389421 41.984375,12.7792969 C41.984375,10.8014224 40.9134222,9.8125 38.7714844,9.8125 L36.3925781,9.8125 L36.3925781,15.71875 Z M48.4238281,24.0175781 L48.4238281,8.25390625 C48.4238281,7.75260166 48.6334614,7.29459843 49.0527344,6.87988281 C49.4720073,6.4651672 49.9824189,6.2578125 50.5839844,6.2578125 L58.171875,6.2578125 C58.6914088,6.2578125 59.1471335,6.44010234 59.5390625,6.8046875 C59.9309915,7.16927266 60.1269531,7.59309654 60.1269531,8.07617188 C60.1269531,8.57747646 59.9355488,8.99218586 59.5527344,9.3203125 C59.16992,9.64843914 58.7096381,9.8125 58.171875,9.8125 L52.3476562,9.8125 L52.3476562,14.3242188 L57.6386719,14.3242188 C58.1399765,14.3242188 58.5865866,14.4973941 58.9785156,14.84375 C59.3704447,15.1901059 59.5664062,15.6048153 59.5664062,16.0878906 C59.5664062,16.5891952 59.3795592,17.0130191 59.0058594,17.359375 C58.6321596,17.7057309 58.176435,17.8789062 57.6386719,17.8789062 L52.3476562,17.8789062 L52.3476562,22.4453125 L58.4453125,22.4453125 C58.9648463,22.4453125 59.4228496,22.6184879 59.8193359,22.9648438 C60.2158223,23.3111996 60.4140625,23.7167946 60.4140625,24.1816406 C60.4140625,24.6829452 60.2226582,25.1113263 59.8398438,25.4667969 C59.4570293,25.8222674 58.9921902,26 58.4453125,26 L51.0214844,26 C49.2897049,26 48.4238281,25.3391993 48.4238281,24.0175781 L48.4238281,24.0175781 Z M62.8066406,7.83007812 C62.8066406,7.32877354 62.9934877,6.9003924 63.3671875,6.54492188 C63.7408873,6.18945135 64.1988905,6.01171875 64.7412109,6.01171875 C65.2835314,6.01171875 65.7506491,6.19400859 66.1425781,6.55859375 C66.5345072,6.92317891 66.7304688,7.34700279 66.7304688,7.83007812 L66.7304688,18.4121094 L73.2246094,7.05078125 C73.6712262,6.35806945 74.3046834,6.01171875 75.125,6.01171875 C75.7083363,6.01171875 76.1959616,6.19400859 76.5878906,6.55859375 C76.9798197,6.92317891 77.1757812,7.37434627 77.1757812,7.91210938 L77.1757812,24.4277344 C77.1757812,24.9381536 76.9889342,25.3688133 76.6152344,25.7197266 C76.2415346,26.0706398 75.7835314,26.2460938 75.2412109,26.2460938 C74.6988905,26.2460938 74.2317728,26.0638039 73.8398438,25.6992188 C73.4479147,25.3346336 73.2519531,24.9108097 73.2519531,24.4277344 L73.2519531,13.9550781 L66.7578125,25.2753906 C66.3476542,25.9225293 65.7233115,26.2460938 64.8847656,26.2460938 C64.2832001,26.2460938 63.7864603,26.0592467 63.3945312,25.6855469 C63.0026022,25.3118471 62.8066406,24.865237 62.8066406,24.3457031 L62.8066406,7.83007812 Z M65.6640625,2.40234375 C65.5364577,1.90103916 65.6025378,1.51367324 65.8623047,1.24023438 C66.1220716,0.966795508 66.4661437,0.830078125 66.8945312,0.830078125 C67.4505236,0.830078125 67.8697903,1.04426869 68.1523438,1.47265625 C68.73568,2.04687787 69.2962213,2.33398438 69.8339844,2.33398438 C70.3899767,2.33398438 70.9414035,2.04687787 71.4882812,1.47265625 C71.8072933,1.04426869 72.2356744,0.830078125 72.7734375,0.830078125 C73.2018251,0.830078125 73.5481758,0.964516885 73.8125,1.23339844 C74.0768242,1.50227999 74.1406257,1.89192453 74.0039062,2.40234375 C73.7942698,3.14974332 73.2565147,3.75585705 72.390625,4.22070312 C71.5247353,4.6855492 70.6725302,4.91796875 69.8339844,4.91796875 C68.9954385,4.91796875 68.152348,4.69010645 67.3046875,4.234375 C66.457027,3.77864355 65.9101575,3.16797258 65.6640625,2.40234375 L65.6640625,2.40234375 Z M79.0761719,8.04882812 C79.0761719,7.63866982 79.2721335,7.23763217 79.6640625,6.84570312 C80.0559915,6.45377408 80.5117162,6.2578125 81.03125,6.2578125 L90.8886719,6.2578125 C91.4082057,6.2578125 91.8684876,6.4355451 92.2695312,6.79101562 C92.6705749,7.14648615 92.8710938,7.56575279 92.8710938,8.04882812 C92.8710938,8.5136742 92.6751322,8.92382635 92.2832031,9.27929688 C91.8912741,9.6347674 91.426435,9.8125 90.8886719,9.8125 L87.921875,9.8125 L87.921875,24.4550781 C87.921875,24.9381535 87.7259134,25.3574201 87.3339844,25.7128906 C86.9420553,26.0683612 86.4863307,26.2460938 85.9667969,26.2460938 C85.4290338,26.2460938 84.9664733,26.0683612 84.5791016,25.7128906 C84.1917298,25.3574201 83.9980469,24.9381535 83.9980469,24.4550781 L83.9980469,9.8125 L81.03125,9.8125 C80.4752576,9.8125 80.0104185,9.63932465 79.6367188,9.29296875 C79.263019,8.94661285 79.0761719,8.53190346 79.0761719,8.04882812 L79.0761719,8.04882812 Z M95.0585938,24.3457031 L95.0585938,7.83007812 C95.0585938,7.32877354 95.2454408,6.9003924 95.6191406,6.54492188 C95.9928404,6.18945135 96.4508436,6.01171875 96.9931641,6.01171875 C97.5354845,6.01171875 98.0026022,6.19400859 98.3945312,6.55859375 C98.7864603,6.92317891 98.9824219,7.34700279 98.9824219,7.83007812 L98.9824219,18.4121094 L105.476562,7.05078125 C105.923179,6.35806945 106.556637,6.01171875 107.376953,6.01171875 C107.951175,6.01171875 108.436521,6.19400859 108.833008,6.55859375 C109.229494,6.92317891 109.427734,7.37434627 109.427734,7.91210938 L109.427734,24.4277344 C109.427734,24.929039 109.240887,25.3574201 108.867188,25.7128906 C108.493488,26.0683612 108.035484,26.2460938 107.493164,26.2460938 C106.950844,26.2460938 106.483726,26.0660825 106.091797,25.7060547 C105.699868,25.3460268 105.503906,24.9199243 105.503906,24.4277344 L105.503906,13.9550781 L99.0097656,25.2753906 C98.5996073,25.9225293 97.9752646,26.2460938 97.1367188,26.2460938 C96.5351532,26.2460938 96.0384134,26.0615253 95.6464844,25.6923828 C95.2545553,25.3232403 95.0585938,24.8743516 95.0585938,24.3457031 L95.0585938,24.3457031 Z M121.363281,23.9902344 L121.363281,8.28125 C121.363281,7.72525764 121.577472,7.24902542 122.005859,6.85253906 C122.434247,6.45605271 122.949216,6.2578125 123.550781,6.2578125 L128.28125,6.2578125 C130.277354,6.2578125 131.826817,6.79556754 132.929688,7.87109375 C134.032558,8.94661996 134.583984,10.2408779 134.583984,11.7539062 C134.583984,13.4492272 133.604176,14.7708286 131.644531,15.71875 C133.959647,16.6484421 135.117188,18.1158754 135.117188,20.1210938 C135.117188,21.7981855 134.486009,23.19726 133.223633,24.3183594 C131.961257,25.4394587 130.277354,26 128.171875,26 L123.550781,26 C122.930986,26 122.41146,25.8040384 121.992188,25.4121094 C121.572915,25.0201803 121.363281,24.5462267 121.363281,23.9902344 L121.363281,23.9902344 Z M125.287109,22.4453125 L128.417969,22.4453125 C129.329432,22.4453125 130.019854,22.2356792 130.489258,21.8164062 C130.958661,21.3971333 131.193359,20.8138058 131.193359,20.0664062 C131.193359,19.2825482 130.949547,18.6718772 130.461914,18.234375 C129.974281,17.7968728 129.34766,17.578125 128.582031,17.578125 L125.287109,17.578125 L125.287109,22.4453125 Z M125.287109,13.9824219 L128.5,13.9824219 C129.055992,13.9824219 129.555011,13.7910175 129.99707,13.4082031 C130.43913,13.0253887 130.660156,12.4921909 130.660156,11.8085938 C130.660156,11.2070282 130.500653,10.7194029 130.181641,10.3457031 C129.862629,9.97200334 129.370446,9.78515625 128.705078,9.78515625 L125.287109,9.78515625 L125.287109,13.9824219 Z M146.041016,23.9902344 L146.041016,8.28125 C146.041016,7.72525764 146.255206,7.24902542 146.683594,6.85253906 C147.111981,6.45605271 147.62695,6.2578125 148.228516,6.2578125 L152.958984,6.2578125 C154.955088,6.2578125 156.504552,6.79556754 157.607422,7.87109375 C158.710292,8.94661996 159.261719,10.2408779 159.261719,11.7539062 C159.261719,13.4492272 158.281911,14.7708286 156.322266,15.71875 C158.637381,16.6484421 159.794922,18.1158754 159.794922,20.1210938 C159.794922,21.7981855 159.163743,23.19726 157.901367,24.3183594 C156.638991,25.4394587 154.955089,26 152.849609,26 L148.228516,26 C147.608721,26 147.089195,25.8040384 146.669922,25.4121094 C146.250649,25.0201803 146.041016,24.5462267 146.041016,23.9902344 L146.041016,23.9902344 Z M149.964844,22.4453125 L153.095703,22.4453125 C154.007166,22.4453125 154.697589,22.2356792 155.166992,21.8164062 C155.636396,21.3971333 155.871094,20.8138058 155.871094,20.0664062 C155.871094,19.2825482 155.627281,18.6718772 155.139648,18.234375 C154.652016,17.7968728 154.025394,17.578125 153.259766,17.578125 L149.964844,17.578125 L149.964844,22.4453125 Z M149.964844,13.9824219 L153.177734,13.9824219 C153.733727,13.9824219 154.232745,13.7910175 154.674805,13.4082031 C155.116864,13.0253887 155.337891,12.4921909 155.337891,11.8085938 C155.337891,11.2070282 155.178387,10.7194029 154.859375,10.3457031 C154.540363,9.97200334 154.04818,9.78515625 153.382812,9.78515625 L149.964844,9.78515625 L149.964844,13.9824219 Z M162.324219,24.3457031 L162.324219,7.83007812 C162.324219,7.32877354 162.511066,6.9003924 162.884766,6.54492188 C163.258465,6.18945135 163.716469,6.01171875 164.258789,6.01171875 C164.801109,6.01171875 165.268227,6.19400859 165.660156,6.55859375 C166.052085,6.92317891 166.248047,7.34700279 166.248047,7.83007812 L166.248047,18.4121094 L172.742188,7.05078125 C173.188804,6.35806945 173.822262,6.01171875 174.642578,6.01171875 C175.2168,6.01171875 175.702146,6.19400859 176.098633,6.55859375 C176.495119,6.92317891 176.693359,7.37434627 176.693359,7.91210938 L176.693359,24.4277344 C176.693359,24.929039 176.506512,25.3574201 176.132812,25.7128906 C175.759113,26.0683612 175.301109,26.2460938 174.758789,26.2460938 C174.216469,26.2460938 173.749351,26.0660825 173.357422,25.7060547 C172.965493,25.3460268 172.769531,24.9199243 172.769531,24.4277344 L172.769531,13.9550781 L166.275391,25.2753906 C165.865232,25.9225293 165.24089,26.2460938 164.402344,26.2460938 C163.800778,26.2460938 163.304038,26.0615253 162.912109,25.6923828 C162.52018,25.3232403 162.324219,24.8743516 162.324219,24.3457031 L162.324219,24.3457031 Z M180.234375,24.1816406 L180.234375,7.83007812 C180.234375,7.34700279 180.425779,6.92317891 180.808594,6.55859375 C181.191408,6.19400859 181.65169,6.01171875 182.189453,6.01171875 C182.708987,6.01171875 183.16699,6.19400859 183.563477,6.55859375 C183.959963,6.92317891 184.158203,7.34700279 184.158203,7.83007812 L184.158203,22.4453125 L187.685547,22.4453125 L187.685547,7.80273438 C187.685547,7.31965904 187.876951,6.9003924 188.259766,6.54492188 C188.64258,6.18945135 189.102862,6.01171875 189.640625,6.01171875 C190.160159,6.01171875 190.618162,6.18945135 191.014648,6.54492188 C191.411135,6.9003924 191.609375,7.31965904 191.609375,7.80273438 L191.609375,22.4453125 L195.164062,22.4453125 L195.164062,7.83007812 C195.164062,7.34700279 195.360024,6.92317891 195.751953,6.55859375 C196.143882,6.19400859 196.599607,6.01171875 197.119141,6.01171875 C197.638674,6.01171875 198.094399,6.19400859 198.486328,6.55859375 C198.878257,6.92317891 199.074219,7.34700279 199.074219,7.83007812 L199.074219,24.1816406 C199.074219,24.664716 198.878257,25.0885398 198.486328,25.453125 C198.094399,25.8177102 197.638674,26 197.119141,26 L182.189453,26 C181.65169,26 181.191408,25.8177102 180.808594,25.453125 C180.425779,25.0885398 180.234375,24.664716 180.234375,24.1816406 L180.234375,24.1816406 Z M201.289062,24.4003906 C201.289062,23.7988251 201.471352,23.3408219 201.835938,23.0263672 C202.200523,22.7119125 202.642576,22.5546875 203.162109,22.5546875 C203.235026,22.5546875 203.333007,22.5683592 203.456055,22.5957031 C203.579102,22.623047 203.686197,22.6367188 203.777344,22.6367188 L203.941406,22.6367188 C204.360679,22.6367188 204.615885,22.0761775 204.707031,20.9550781 L205.677734,8.28125 C205.714193,7.72525764 205.944334,7.24902542 206.368164,6.85253906 C206.791994,6.45605271 207.291013,6.2578125 207.865234,6.2578125 L215.507812,6.2578125 C216.109378,6.2578125 216.624347,6.45833133 217.052734,6.859375 C217.481122,7.26041867 217.695312,7.73437227 217.695312,8.28125 L217.695312,24.4550781 C217.677083,24.9381535 217.476564,25.3483056 217.09375,25.6855469 C216.710936,26.0227881 216.255211,26.1914062 215.726562,26.1914062 C215.17057,26.1914062 214.705731,26.0250668 214.332031,25.6923828 C213.958331,25.3596989 213.771484,24.9381536 213.771484,24.4277344 L213.771484,9.78515625 L209.410156,9.78515625 L208.589844,20.9003906 C208.270832,24.427752 206.826185,26.1914062 204.255859,26.1914062 C203.772784,26.1914062 203.394533,26.1777345 203.121094,26.1503906 C202.847655,26.1230467 202.546877,26.0592453 202.21875,25.9589844 C201.890623,25.8587235 201.653647,25.6809909 201.507812,25.4257812 C201.361978,25.1705716 201.289062,24.8287782 201.289062,24.4003906 L201.289062,24.4003906 Z M221.236328,24.3457031 L221.236328,7.83007812 C221.236328,7.32877354 221.423175,6.9003924 221.796875,6.54492188 C222.170575,6.18945135 222.628578,6.01171875 223.170898,6.01171875 C223.713219,6.01171875 224.180337,6.19400859 224.572266,6.55859375 C224.964195,6.92317891 225.160156,7.34700279 225.160156,7.83007812 L225.160156,18.4121094 L231.654297,7.05078125 C232.100914,6.35806945 232.734371,6.01171875 233.554688,6.01171875 C234.128909,6.01171875 234.614256,6.19400859 235.010742,6.55859375 C235.407229,6.92317891 235.605469,7.37434627 235.605469,7.91210938 L235.605469,24.4277344 C235.605469,24.929039 235.418622,25.3574201 235.044922,25.7128906 C234.671222,26.0683612 234.213219,26.2460938 233.670898,26.2460938 C233.128578,26.2460938 232.66146,26.0660825 232.269531,25.7060547 C231.877602,25.3460268 231.681641,24.9199243 231.681641,24.4277344 L231.681641,13.9550781 L225.1875,25.2753906 C224.777342,25.9225293 224.152999,26.2460938 223.314453,26.2460938 C222.712888,26.2460938 222.216148,26.0615253 221.824219,25.6923828 C221.43229,25.3232403 221.236328,24.8743516 221.236328,24.3457031 L221.236328,24.3457031 Z M238.367188,18.890625 L238.367188,13.3398438 C238.367188,11.0429573 238.964187,9.2474023 240.158203,7.953125 C241.35222,6.6588477 243.134103,6.01171875 245.503906,6.01171875 C247.016935,6.01171875 248.361322,6.31021837 249.537109,6.90722656 C250.712897,7.50423476 251.300781,8.20377203 251.300781,9.00585938 C251.300781,9.45247619 251.123049,9.84439936 250.767578,10.1816406 C250.412108,10.5188819 249.974612,10.6875 249.455078,10.6875 C249.099608,10.6875 248.69857,10.5462254 248.251953,10.2636719 L247.964844,10.0996094 C247.253903,9.65299256 246.479171,9.4296875 245.640625,9.4296875 C244.428379,9.4296875 243.564781,9.76464509 243.049805,10.4345703 C242.534828,11.1044955 242.277344,12.0729103 242.277344,13.3398438 L242.277344,18.890625 C242.277344,20.1575584 242.534828,21.1282518 243.049805,21.8027344 C243.564781,22.4772169 244.428379,22.8144531 245.640625,22.8144531 C246.479171,22.8144531 247.253903,22.5865908 247.964844,22.1308594 L248.251953,21.9667969 C248.69857,21.6842434 249.099608,21.5429688 249.455078,21.5429688 C249.974612,21.5429688 250.412108,21.7115869 250.767578,22.0488281 C251.123049,22.3860694 251.300781,22.7779926 251.300781,23.2246094 C251.300781,24.0266967 250.712897,24.726234 249.537109,25.3232422 C248.361322,25.9202504 247.016935,26.21875 245.503906,26.21875 C243.134103,26.21875 241.35222,25.5716211 240.158203,24.2773438 C238.964187,22.9830664 238.367188,21.1875115 238.367188,18.890625 L238.367188,18.890625 Z M253.119141,8.04882812 C253.119141,7.63866982 253.315102,7.23763217 253.707031,6.84570312 C254.09896,6.45377408 254.554685,6.2578125 255.074219,6.2578125 L264.931641,6.2578125 C265.451174,6.2578125 265.911456,6.4355451 266.3125,6.79101562 C266.713544,7.14648615 266.914062,7.56575279 266.914062,8.04882812 C266.914062,8.5136742 266.718101,8.92382635 266.326172,9.27929688 C265.934243,9.6347674 265.469404,9.8125 264.931641,9.8125 L261.964844,9.8125 L261.964844,24.4550781 C261.964844,24.9381535 261.768882,25.3574201 261.376953,25.7128906 C260.985024,26.0683612 260.529299,26.2460938 260.009766,26.2460938 C259.472003,26.2460938 259.009442,26.0683612 258.62207,25.7128906 C258.234699,25.3574201 258.041016,24.9381535 258.041016,24.4550781 L258.041016,9.8125 L255.074219,9.8125 C254.518226,9.8125 254.053387,9.63932465 253.679688,9.29296875 C253.305988,8.94661285 253.119141,8.53190346 253.119141,8.04882812 L253.119141,8.04882812 Z" id="ПЕРЕЙТИ-В-ВИШЛИСТ" fill="#FFFFFF" sketch:type="MSShapeGroup"></path>
    </g>
</svg>