<?xml version="1.0" encoding="UTF-8" standalone="no"?>
<svg width="332px" height="30px" viewBox="0 0 332 30" version="1.1" xmlns="http://www.w3.org/2000/svg" xmlns:xlink="http://www.w3.org/1999/xlink" xmlns:sketch="http://www.bohemiancoding.com/sketch/ns">
    <!-- Generator: Sketch 3.2.2 (9983) - http://www.bohemiancoding.com/sketch -->
    <title>Type something</title>
    <desc>Created with Sketch.</desc>
    <defs></defs>
    <g id="Page-1" stroke="none" stroke-width="1" fill="none" fill-rule="evenodd" sketch:type="MSPage">
        <path d="M0.015625,20.703125 L0.015625,2.75 C0.015625,2.11458016 0.260414219,1.57031477 0.75,1.1171875 C1.23958578,0.664060234 1.82812156,0.4375 2.515625,0.4375 L7.921875,0.4375 C10.2031364,0.4375 11.973952,1.05207719 13.234375,2.28125 C14.494798,3.51042281 15.125,4.98957469 15.125,6.71875 C15.125,8.65625969 14.0052195,10.1666613 11.765625,11.25 C14.4114716,12.3125053 15.734375,13.9895719 15.734375,16.28125 C15.734375,18.1979263 15.013028,19.7968686 13.5703125,21.078125 C12.127597,22.3593814 10.203137,23 7.796875,23 L2.515625,23 C1.80728813,23 1.21354406,22.7760439 0.734375,22.328125 C0.255205938,21.8802061 0.015625,21.3385448 0.015625,20.703125 L0.015625,20.703125 Z M4.5,18.9375 L8.078125,18.9375 C9.11979688,18.9375 9.90885148,18.6979191 10.4453125,18.21875 C10.9817735,17.7395809 11.25,17.0729209 11.25,16.21875 C11.25,15.3229122 10.971357,14.6250025 10.4140625,14.125 C9.85676805,13.6249975 9.14062938,13.375 8.265625,13.375 L4.5,13.375 L4.5,18.9375 Z M4.5,9.265625 L8.171875,9.265625 C8.80729484,9.265625 9.37760164,9.04687719 9.8828125,8.609375 C10.3880234,8.17187281 10.640625,7.56250391 10.640625,6.78125 C10.640625,6.09374656 10.4583352,5.53646047 10.09375,5.109375 C9.72916484,4.68228953 9.16667047,4.46875 8.40625,4.46875 L4.5,4.46875 L4.5,9.265625 Z M18.625,21.171875 L18.625,8.65625 C18.625,8.10416391 18.8333313,7.63021031 19.25,7.234375 C19.6666687,6.83853969 20.1822886,6.640625 20.796875,6.640625 C21.390628,6.640625 21.9140602,6.83853969 22.3671875,7.234375 C22.8203148,7.63021031 23.046875,8.10416391 23.046875,8.65625 L23.046875,15.984375 L28.390625,7.734375 C28.8177105,7.00520469 29.5208284,6.640625 30.5,6.640625 C31.1875034,6.640625 31.7421854,6.83853969 32.1640625,7.234375 C32.5859396,7.63021031 32.796875,8.14062188 32.796875,8.765625 L32.796875,21.234375 C32.796875,21.7864611 32.5833355,22.265623 32.15625,22.671875 C31.7291645,23.078127 31.2083364,23.28125 30.59375,23.28125 C29.9791636,23.28125 29.4583355,23.0807312 29.03125,22.6796875 C28.6041645,22.2786438 28.390625,21.7968778 28.390625,21.234375 L28.390625,14.046875 L23.078125,22.234375 C22.5468723,22.9322952 21.8541709,23.28125 21,23.28125 C20.3124966,23.28125 19.7447939,23.0807312 19.296875,22.6796875 C18.8489561,22.2786438 18.625,21.7760447 18.625,21.171875 L18.625,21.171875 Z M36.859375,21.015625 L36.859375,8.625 C36.859375,8.07291391 37.0729145,7.61198102 37.5,7.2421875 C37.9270855,6.87239398 38.4505177,6.6875 39.0703125,6.6875 C39.6901073,6.6875 40.2135395,6.87239398 40.640625,7.2421875 C41.0677105,7.61198102 41.28125,8.07291391 41.28125,8.625 L41.28125,19.390625 L44.546875,19.390625 L44.546875,8.625 C44.546875,8.09374734 44.7578104,7.63802273 45.1796875,7.2578125 C45.6015646,6.87760227 46.1223927,6.6875 46.7421875,6.6875 C47.3619823,6.6875 47.8854145,6.87760227 48.3125,7.2578125 C48.7395855,7.63802273 48.953125,8.09374734 48.953125,8.625 L48.953125,19.390625 L52.21875,19.390625 L52.21875,8.625 C52.21875,8.07291391 52.4322895,7.61198102 52.859375,7.2421875 C53.2864605,6.87239398 53.8098927,6.6875 54.4296875,6.6875 C55.0494823,6.6875 55.5729145,6.87239398 56,7.2421875 C56.4270855,7.61198102 56.640625,8.07291391 56.640625,8.625 L56.640625,21.015625 C56.640625,21.5677111 56.4244813,22.0364564 55.9921875,22.421875 C55.5598937,22.8072936 55.0364614,23 54.421875,23 L39.0625,23 C38.4479136,23 37.9270855,22.8072936 37.5,22.421875 C37.0729145,22.0364564 36.859375,21.5677111 36.859375,21.015625 L36.859375,21.015625 Z M59.15625,21.265625 C59.15625,20.6093717 59.3802061,20.0989602 59.828125,19.734375 C60.2760439,19.3697898 60.7656223,19.2447911 61.296875,19.359375 C61.5052094,19.4010419 61.645833,19.421875 61.71875,19.421875 C62.2083358,19.421875 62.4947912,18.8125061 62.578125,17.59375 L63.40625,8.765625 C63.4479169,8.25520578 63.6406233,7.80729359 63.984375,7.421875 C64.3281267,7.03645641 64.7552058,6.84375 65.265625,6.84375 L73.265625,6.84375 C73.9218783,6.84375 74.4010402,7.05728953 74.703125,7.484375 C75.0052098,7.91146047 75.15625,8.35937266 75.15625,8.828125 L75.15625,21.234375 C75.15625,21.7864611 74.9427105,22.2552064 74.515625,22.640625 C74.0885395,23.0260436 73.5651073,23.21875 72.9453125,23.21875 C72.3255177,23.21875 71.8020855,23.0286477 71.375,22.6484375 C70.9479145,22.2682273 70.734375,21.7968778 70.734375,21.234375 L70.734375,10.453125 L67.46875,10.453125 L66.859375,17.53125 C66.4947898,21.2604353 64.8958475,23.125 62.0625,23.125 C60.1249903,23.125 59.15625,22.5052145 59.15625,21.265625 L59.15625,21.265625 Z M79.171875,21.171875 L79.171875,8.65625 C79.171875,8.10416391 79.3802063,7.63021031 79.796875,7.234375 C80.2135437,6.83853969 80.7291636,6.640625 81.34375,6.640625 C81.937503,6.640625 82.4609352,6.83853969 82.9140625,7.234375 C83.3671898,7.63021031 83.59375,8.10416391 83.59375,8.65625 L83.59375,15.984375 L88.9375,7.734375 C89.3645855,7.00520469 90.0677034,6.640625 91.046875,6.640625 C91.7343784,6.640625 92.2890604,6.83853969 92.7109375,7.234375 C93.1328146,7.63021031 93.34375,8.14062188 93.34375,8.765625 L93.34375,21.234375 C93.34375,21.7864611 93.1302105,22.265623 92.703125,22.671875 C92.2760395,23.078127 91.7552114,23.28125 91.140625,23.28125 C90.5260386,23.28125 90.0052105,23.0807312 89.578125,22.6796875 C89.1510395,22.2786438 88.9375,21.7968778 88.9375,21.234375 L88.9375,14.046875 L83.625,22.234375 C83.0937473,22.9322952 82.4010459,23.28125 81.546875,23.28125 C80.8593716,23.28125 80.2916689,23.0807312 79.84375,22.6796875 C79.3958311,22.2786438 79.171875,21.7760447 79.171875,21.171875 L79.171875,21.171875 Z M96.828125,17.109375 L96.828125,12.796875 C96.828125,10.9843659 97.382807,9.51302648 98.4921875,8.3828125 C99.601568,7.25259852 101.255197,6.6875 103.453125,6.6875 C104.005211,6.6875 104.559893,6.72395797 105.117188,6.796875 C105.674482,6.86979203 106.257809,6.99739492 106.867188,7.1796875 C107.476566,7.36198008 107.971352,7.64843555 108.351562,8.0390625 C108.731773,8.42968945 108.921875,8.90624719 108.921875,9.46875 C108.921875,10.5520887 108.260423,11.09375 106.9375,11.09375 C106.593748,11.09375 106.244793,11.0312506 105.890625,10.90625 C104.932287,10.5416648 104.203127,10.359375 103.703125,10.359375 C102.057283,10.359375 101.239583,11.1718669 101.25,12.796875 L101.25,17.109375 C101.25,18.7343831 102.0677,19.546875 103.703125,19.546875 C104.255211,19.546875 104.98437,19.3645852 105.890625,19 C106.213543,18.8749994 106.541665,18.8125 106.875,18.8125 C108.23959,18.8125 108.921875,19.3541613 108.921875,20.4375 C108.921875,20.9687527 108.731773,21.4322897 108.351562,21.828125 C107.971352,22.2239603 107.476566,22.5182282 106.867188,22.7109375 C106.257809,22.9036468 105.669274,23.036458 105.101562,23.109375 C104.533851,23.182292 103.973961,23.21875 103.421875,23.21875 C101.265614,23.21875 99.6276098,22.6536515 98.5078125,21.5234375 C97.3880152,20.3932235 96.828125,18.9218841 96.828125,17.109375 L96.828125,17.109375 Z M110.96875,8.7578125 C110.96875,8.22135148 111.171873,7.76823102 111.578125,7.3984375 C111.984377,7.02864398 112.484372,6.84375 113.078125,6.84375 L122.234375,6.84375 C122.828128,6.84375 123.328123,7.02864398 123.734375,7.3984375 C124.140627,7.76823102 124.34375,8.22135148 124.34375,8.7578125 C124.34375,9.29427352 124.140627,9.74999812 123.734375,10.125 C123.328123,10.5000019 122.828128,10.6875 122.234375,10.6875 L119.859375,10.6875 L119.859375,21.234375 C119.859375,21.7864611 119.645835,22.2552064 119.21875,22.640625 C118.791665,23.0260436 118.268232,23.21875 117.648438,23.21875 C117.028643,23.21875 116.50521,23.0286477 116.078125,22.6484375 C115.65104,22.2682273 115.4375,21.7968778 115.4375,21.234375 L115.4375,10.6875 L113.078125,10.6875 C112.484372,10.6875 111.984377,10.5000019 111.578125,10.125 C111.171873,9.74999812 110.96875,9.29427352 110.96875,8.7578125 L110.96875,8.7578125 Z M136.421875,21.234375 L136.421875,8.734375 C136.421875,8.14062203 136.640623,7.65104359 137.078125,7.265625 C137.515627,6.88020641 138.062497,6.6875 138.71875,6.6875 C139.635421,6.6875 140.343748,7.07812109 140.84375,7.859375 L145.25,15.390625 L149.671875,7.859375 C150.161461,7.06770438 150.864579,6.67708328 151.78125,6.6875 C152.437503,6.6875 152.986977,6.87760227 153.429688,7.2578125 C153.872398,7.63802273 154.09375,8.13020531 154.09375,8.734375 L154.09375,21.234375 C154.09375,21.7656277 153.875002,22.2291647 153.4375,22.625 C152.999998,23.0208353 152.489586,23.21875 151.90625,23.21875 C151.291664,23.21875 150.770835,23.0286477 150.34375,22.6484375 C149.916665,22.2682273 149.703125,21.7968778 149.703125,21.234375 L149.703125,15.03125 L147.328125,19.484375 C146.880206,20.2447955 146.197921,20.625 145.28125,20.625 L145.21875,20.625 C144.302079,20.625 143.619794,20.2447955 143.171875,19.484375 L140.8125,15.03125 L140.8125,21.234375 C140.8125,21.7656277 140.593752,22.2291647 140.15625,22.625 C139.718748,23.0208353 139.200524,23.21875 138.601562,23.21875 C138.002601,23.21875 137.489585,23.0286477 137.0625,22.6484375 C136.635415,22.2682273 136.421875,21.7968778 136.421875,21.234375 L136.421875,21.234375 Z M157.59375,17.625 L157.59375,12.28125 C157.59375,10.5937416 158.192702,9.22135945 159.390625,8.1640625 C160.588548,7.10676555 162.260406,6.578125 164.40625,6.578125 C166.458344,6.578125 168.018224,7.07030758 169.085938,8.0546875 C170.153651,9.03906742 170.6875,10.364575 170.6875,12.03125 C170.677083,15.2708495 168.604187,16.890625 164.46875,16.890625 C163.73958,16.890625 162.92188,16.8281256 162.015625,16.703125 L162.015625,17.75 C162.015625,18.9479227 162.869783,19.546875 164.578125,19.546875 C165.432296,19.546875 166.39062,19.3125023 167.453125,18.84375 C167.713543,18.7187494 168.031248,18.6510417 168.40625,18.640625 C169.114587,18.640625 169.622394,18.8229148 169.929688,19.1875 C170.236981,19.5520852 170.390625,19.9583311 170.390625,20.40625 C170.390625,20.9375027 170.171877,21.3958314 169.734375,21.78125 C169.296873,22.1666686 168.742191,22.4609365 168.070312,22.6640625 C167.398434,22.8671885 166.742191,23.0104162 166.101562,23.09375 C165.460934,23.1770838 164.843753,23.21875 164.25,23.21875 C162.177073,23.21875 160.549485,22.6927136 159.367188,21.640625 C158.18489,20.5885364 157.59375,19.2500081 157.59375,17.625 L157.59375,17.625 Z M162.015625,13.46875 C162.932296,13.5520838 163.697914,13.59375 164.3125,13.59375 C165.635423,13.59375 166.296875,12.9974018 166.296875,11.8046875 C166.296875,10.6119732 165.656256,10.015625 164.375,10.015625 C163.604163,10.015625 163.018231,10.200519 162.617188,10.5703125 C162.216144,10.940106 162.015625,11.4479134 162.015625,12.09375 L162.015625,13.46875 Z M173.015625,9.046875 C173.015625,8.47395547 173.234373,8.00521016 173.671875,7.640625 C174.109377,7.27603984 174.593747,7.09375 175.125,7.09375 C175.739586,7.09375 176.296873,7.39062203 176.796875,7.984375 C178.46355,7.04687031 179.963535,6.578125 181.296875,6.578125 C183.109384,6.578125 184.533849,7.15624422 185.570312,8.3125 C186.606776,9.46875578 187.125,10.9843656 187.125,12.859375 L187.125,16.5625 C187.125,20.9791887 185.088562,23.1875 181.015625,23.1875 C180.057287,23.1875 179.130213,22.9739605 178.234375,22.546875 L178.234375,27.828125 C178.234375,28.3802111 178.03646,28.8437481 177.640625,29.21875 C177.24479,29.5937519 176.705733,29.78125 176.023438,29.78125 C175.341142,29.78125 174.802085,29.5937519 174.40625,29.21875 C174.010415,28.8437481 173.8125,28.3802111 173.8125,27.828125 L173.8125,11.578125 C173.8125,10.9218717 173.697918,10.4218767 173.46875,10.078125 C173.166665,9.69270641 173.015625,9.34895984 173.015625,9.046875 L173.015625,9.046875 Z M178.171875,10.96875 C178.213542,11.2708348 178.234375,11.4739578 178.234375,11.578125 L178.234375,19.125 C179.151046,19.4062514 179.92708,19.546875 180.5625,19.546875 C181.333337,19.546875 181.885415,19.3072941 182.21875,18.828125 C182.552085,18.3489559 182.71875,17.5937552 182.71875,16.5625 L182.71875,12.859375 C182.71875,11.1510331 182.02084,10.296875 180.625,10.296875 C179.98958,10.296875 179.17188,10.5208311 178.171875,10.96875 L178.171875,10.96875 Z M190,17.265625 L190,12.5 C190,10.7499912 190.609369,9.32031805 191.828125,8.2109375 C193.046881,7.10155695 194.755197,6.546875 196.953125,6.546875 C199.151053,6.546875 200.856765,7.10155695 202.070312,8.2109375 C203.28386,9.32031805 203.890625,10.7499912 203.890625,12.5 L203.890625,17.265625 C203.890625,19.0156338 203.28386,20.445307 202.070312,21.5546875 C200.856765,22.664068 199.151053,23.21875 196.953125,23.21875 C194.755197,23.21875 193.046881,22.664068 191.828125,21.5546875 C190.609369,20.445307 190,19.0156338 190,17.265625 L190,17.265625 Z M194.421875,17.265625 C194.421875,17.9531284 194.640623,18.4895814 195.078125,18.875 C195.515627,19.2604186 196.138017,19.453125 196.945312,19.453125 C197.752608,19.453125 198.374998,19.2604186 198.8125,18.875 C199.250002,18.4895814 199.46875,17.9531284 199.46875,17.265625 L199.46875,12.46875 C199.46875,11.8124967 199.250002,11.2916686 198.8125,10.90625 C198.374998,10.5208314 197.752608,10.328125 196.945312,10.328125 C196.138017,10.328125 195.515627,10.5208314 195.078125,10.90625 C194.640623,11.2916686 194.421875,11.8124967 194.421875,12.46875 L194.421875,17.265625 Z M207.34375,21.234375 L207.34375,8.828125 C207.34375,8.27603891 207.55729,7.80729359 207.984375,7.421875 C208.41146,7.03645641 208.932289,6.84375 209.546875,6.84375 L218.515625,6.84375 C219.130211,6.84375 219.65104,7.03385227 220.078125,7.4140625 C220.50521,7.79427273 220.71875,8.26562219 220.71875,8.828125 L220.71875,21.234375 C220.71875,21.7864611 220.50521,22.2552064 220.078125,22.640625 C219.65104,23.0260436 219.127607,23.21875 218.507812,23.21875 C217.888018,23.21875 217.364585,23.0286477 216.9375,22.6484375 C216.510415,22.2682273 216.296875,21.7968778 216.296875,21.234375 L216.296875,10.453125 L211.765625,10.453125 L211.765625,21.234375 C211.765625,21.7864611 211.552085,22.2552064 211.125,22.640625 C210.697915,23.0260436 210.174482,23.21875 209.554688,23.21875 C208.934893,23.21875 208.41146,23.0286477 207.984375,22.6484375 C207.55729,22.2682273 207.34375,21.7968778 207.34375,21.234375 L207.34375,21.234375 Z M224.078125,9.046875 C224.078125,8.47395547 224.296873,8.00521016 224.734375,7.640625 C225.171877,7.27603984 225.656247,7.09375 226.1875,7.09375 C226.802086,7.09375 227.359373,7.39062203 227.859375,7.984375 C229.52605,7.04687031 231.026035,6.578125 232.359375,6.578125 C234.171884,6.578125 235.596349,7.15624422 236.632812,8.3125 C237.669276,9.46875578 238.1875,10.9843656 238.1875,12.859375 L238.1875,16.5625 C238.1875,20.9791887 236.151062,23.1875 232.078125,23.1875 C231.119787,23.1875 230.192713,22.9739605 229.296875,22.546875 L229.296875,27.828125 C229.296875,28.3802111 229.09896,28.8437481 228.703125,29.21875 C228.30729,29.5937519 227.768233,29.78125 227.085938,29.78125 C226.403642,29.78125 225.864585,29.5937519 225.46875,29.21875 C225.072915,28.8437481 224.875,28.3802111 224.875,27.828125 L224.875,11.578125 C224.875,10.9218717 224.760418,10.4218767 224.53125,10.078125 C224.229165,9.69270641 224.078125,9.34895984 224.078125,9.046875 L224.078125,9.046875 Z M229.234375,10.96875 C229.276042,11.2708348 229.296875,11.4739578 229.296875,11.578125 L229.296875,19.125 C230.213546,19.4062514 230.98958,19.546875 231.625,19.546875 C232.395837,19.546875 232.947915,19.3072941 233.28125,18.828125 C233.614585,18.3489559 233.78125,17.5937552 233.78125,16.5625 L233.78125,12.859375 C233.78125,11.1510331 233.08334,10.296875 231.6875,10.296875 C231.05208,10.296875 230.23438,10.5208311 229.234375,10.96875 L229.234375,10.96875 Z M241.640625,21.171875 L241.640625,8.65625 C241.640625,8.10416391 241.848956,7.63021031 242.265625,7.234375 C242.682294,6.83853969 243.197914,6.640625 243.8125,6.640625 C244.406253,6.640625 244.929685,6.83853969 245.382812,7.234375 C245.83594,7.63021031 246.0625,8.10416391 246.0625,8.65625 L246.0625,15.984375 L251.40625,7.734375 C251.833335,7.00520469 252.536453,6.640625 253.515625,6.640625 C254.203128,6.640625 254.75781,6.83853969 255.179688,7.234375 C255.601565,7.63021031 255.8125,8.14062188 255.8125,8.765625 L255.8125,21.234375 C255.8125,21.7864611 255.59896,22.265623 255.171875,22.671875 C254.74479,23.078127 254.223961,23.28125 253.609375,23.28125 C252.994789,23.28125 252.47396,23.0807312 252.046875,22.6796875 C251.61979,22.2786438 251.40625,21.7968778 251.40625,21.234375 L251.40625,14.046875 L246.09375,22.234375 C245.562497,22.9322952 244.869796,23.28125 244.015625,23.28125 C243.328122,23.28125 242.760419,23.0807312 242.3125,22.6796875 C241.864581,22.2786438 241.640625,21.7760447 241.640625,21.171875 L241.640625,21.171875 Z M259.140625,21.46875 C259.140625,21.0208311 259.255207,20.6250017 259.484375,20.28125 L262.28125,16.5625 C260.270823,15.8333297 259.265625,14.2760536 259.265625,11.890625 C259.265625,10.3281172 259.799474,9.09635867 260.867188,8.1953125 C261.934901,7.29426633 263.494781,6.84375 265.546875,6.84375 L270.46875,6.84375 C271.083336,6.84375 271.604165,7.04166469 272.03125,7.4375 C272.458335,7.83333531 272.671875,8.29687234 272.671875,8.828125 L272.671875,21.234375 C272.671875,21.7864611 272.458335,22.2552064 272.03125,22.640625 C271.604165,23.0260436 271.083336,23.21875 270.46875,23.21875 C269.854164,23.21875 269.333335,23.0286477 268.90625,22.6484375 C268.479165,22.2682273 268.265625,21.7968778 268.265625,21.234375 L268.265625,17.109375 L266.921875,17.109375 L263.109375,22.328125 C262.640623,22.921878 262.031254,23.21875 261.28125,23.21875 C260.666664,23.21875 260.16146,23.0598974 259.765625,22.7421875 C259.36979,22.4244776 259.161458,22.0000027 259.140625,21.46875 L259.140625,21.46875 Z M263.65625,11.9921875 C263.65625,12.9974009 264.421867,13.5 265.953125,13.5 L268.265625,13.5 L268.265625,10.484375 L265.609375,10.484375 C264.307285,10.484375 263.65625,10.9869741 263.65625,11.9921875 L263.65625,11.9921875 Z M275.203125,8.7578125 C275.203125,8.22135148 275.406248,7.76823102 275.8125,7.3984375 C276.218752,7.02864398 276.718747,6.84375 277.3125,6.84375 L286.46875,6.84375 C287.062503,6.84375 287.562498,7.02864398 287.96875,7.3984375 C288.375002,7.76823102 288.578125,8.22135148 288.578125,8.7578125 C288.578125,9.29427352 288.375002,9.74999812 287.96875,10.125 C287.562498,10.5000019 287.062503,10.6875 286.46875,10.6875 L284.09375,10.6875 L284.09375,21.234375 C284.09375,21.7864611 283.88021,22.2552064 283.453125,22.640625 C283.02604,23.0260436 282.502607,23.21875 281.882812,23.21875 C281.263018,23.21875 280.739585,23.0286477 280.3125,22.6484375 C279.885415,22.2682273 279.671875,21.7968778 279.671875,21.234375 L279.671875,10.6875 L277.3125,10.6875 C276.718747,10.6875 276.218752,10.5000019 275.8125,10.125 C275.406248,9.74999812 275.203125,9.29427352 275.203125,8.7578125 L275.203125,8.7578125 Z M291.0625,21.171875 L291.0625,8.65625 C291.0625,8.10416391 291.270831,7.63021031 291.6875,7.234375 C292.104169,6.83853969 292.619789,6.640625 293.234375,6.640625 C293.828128,6.640625 294.35156,6.83853969 294.804688,7.234375 C295.257815,7.63021031 295.484375,8.10416391 295.484375,8.65625 L295.484375,15.984375 L300.828125,7.734375 C301.25521,7.00520469 301.958328,6.640625 302.9375,6.640625 C303.625003,6.640625 304.179685,6.83853969 304.601562,7.234375 C305.02344,7.63021031 305.234375,8.14062188 305.234375,8.765625 L305.234375,21.234375 C305.234375,21.7864611 305.020835,22.265623 304.59375,22.671875 C304.166665,23.078127 303.645836,23.28125 303.03125,23.28125 C302.416664,23.28125 301.895835,23.0807312 301.46875,22.6796875 C301.041665,22.2786438 300.828125,21.7968778 300.828125,21.234375 L300.828125,14.046875 L295.515625,22.234375 C294.984372,22.9322952 294.291671,23.28125 293.4375,23.28125 C292.749997,23.28125 292.182294,23.0807312 291.734375,22.6796875 C291.286456,22.2786438 291.0625,21.7760447 291.0625,21.171875 L291.0625,21.171875 Z M308.5625,21.46875 C308.5625,21.0208311 308.677082,20.6250017 308.90625,20.28125 L311.703125,16.5625 C309.692698,15.8333297 308.6875,14.2760536 308.6875,11.890625 C308.6875,10.3281172 309.221349,9.09635867 310.289062,8.1953125 C311.356776,7.29426633 312.916656,6.84375 314.96875,6.84375 L319.890625,6.84375 C320.505211,6.84375 321.02604,7.04166469 321.453125,7.4375 C321.88021,7.83333531 322.09375,8.29687234 322.09375,8.828125 L322.09375,21.234375 C322.09375,21.7864611 321.88021,22.2552064 321.453125,22.640625 C321.02604,23.0260436 320.505211,23.21875 319.890625,23.21875 C319.276039,23.21875 318.75521,23.0286477 318.328125,22.6484375 C317.90104,22.2682273 317.6875,21.7968778 317.6875,21.234375 L317.6875,17.109375 L316.34375,17.109375 L312.53125,22.328125 C312.062498,22.921878 311.453129,23.21875 310.703125,23.21875 C310.088539,23.21875 309.583335,23.0598974 309.1875,22.7421875 C308.791665,22.4244776 308.583333,22.0000027 308.5625,21.46875 L308.5625,21.46875 Z M313.078125,11.9921875 C313.078125,12.9974009 313.843742,13.5 315.375,13.5 L317.6875,13.5 L317.6875,10.484375 L315.03125,10.484375 C313.72916,10.484375 313.078125,10.9869741 313.078125,11.9921875 L313.078125,11.9921875 Z M325.765625,20.7890625 C325.765625,20.1067674 326.028643,19.5260441 326.554688,19.046875 C327.080732,18.5677059 327.713538,18.328125 328.453125,18.328125 C329.182295,18.328125 329.807289,18.5755184 330.328125,19.0703125 C330.848961,19.5651066 331.109375,20.1406217 331.109375,20.796875 C331.109375,21.4843784 330.848961,22.0703101 330.328125,22.5546875 C329.807289,23.0390649 329.182295,23.28125 328.453125,23.28125 C327.703121,23.28125 327.067711,23.0364608 326.546875,22.546875 C326.026039,22.0572892 325.765625,21.4713576 325.765625,20.7890625 L325.765625,20.7890625 Z M325.765625,11.1953125 C325.765625,10.5130174 326.028643,9.93229406 326.554688,9.453125 C327.080732,8.97395594 327.713538,8.734375 328.453125,8.734375 C329.182295,8.734375 329.807289,8.98176836 330.328125,9.4765625 C330.848961,9.97135664 331.109375,10.5468717 331.109375,11.203125 C331.109375,11.8906284 330.848961,12.4765601 330.328125,12.9609375 C329.807289,13.4453149 329.182295,13.6875 328.453125,13.6875 C327.703121,13.6875 327.067711,13.4427108 326.546875,12.953125 C326.026039,12.4635392 325.765625,11.8776076 325.765625,11.1953125 L325.765625,11.1953125 Z" id="Type-something" fill="#FEB737" sketch:type="MSShapeGroup"></path>
    </g>
</svg>