<?xml version="1.0" encoding="UTF-8" standalone="no"?>
<svg width="476px" height="30px" viewBox="0 0 476 30" version="1.1" xmlns="http://www.w3.org/2000/svg" xmlns:xlink="http://www.w3.org/1999/xlink" xmlns:sketch="http://www.bohemiancoding.com/sketch/ns">
    <!-- Generator: Sketch 3.2.2 (9983) - http://www.bohemiancoding.com/sketch -->
    <title>Type something</title>
    <desc>Created with Sketch.</desc>
    <defs></defs>
    <g id="Page-1" stroke="none" stroke-width="1" fill="none" fill-rule="evenodd" sketch:type="MSPage">
        <path d="M0.015625,20.703125 L0.015625,2.75 C0.015625,2.11458016 0.260414219,1.57031477 0.75,1.1171875 C1.23958578,0.664060234 1.82812156,0.4375 2.515625,0.4375 L7.921875,0.4375 C10.2031364,0.4375 11.973952,1.05207719 13.234375,2.28125 C14.494798,3.51042281 15.125,4.98957469 15.125,6.71875 C15.125,8.65625969 14.0052195,10.1666613 11.765625,11.25 C14.4114716,12.3125053 15.734375,13.9895719 15.734375,16.28125 C15.734375,18.1979263 15.013028,19.7968686 13.5703125,21.078125 C12.127597,22.3593814 10.203137,23 7.796875,23 L2.515625,23 C1.80728813,23 1.21354406,22.7760439 0.734375,22.328125 C0.255205937,21.8802061 0.015625,21.3385448 0.015625,20.703125 L0.015625,20.703125 Z M4.5,18.9375 L8.078125,18.9375 C9.11979688,18.9375 9.90885148,18.6979191 10.4453125,18.21875 C10.9817735,17.7395809 11.25,17.0729209 11.25,16.21875 C11.25,15.3229122 10.971357,14.6250025 10.4140625,14.125 C9.85676805,13.6249975 9.14062938,13.375 8.265625,13.375 L4.5,13.375 L4.5,18.9375 Z M4.5,9.265625 L8.171875,9.265625 C8.80729484,9.265625 9.37760164,9.04687719 9.8828125,8.609375 C10.3880234,8.17187281 10.640625,7.56250391 10.640625,6.78125 C10.640625,6.09374656 10.4583352,5.53646047 10.09375,5.109375 C9.72916484,4.68228953 9.16667047,4.46875 8.40625,4.46875 L4.5,4.46875 L4.5,9.265625 Z M17.734375,18.171875 L17.734375,18.078125 C17.734375,14.817692 19.8437289,13.1822917 24.0625,13.171875 C25.062505,13.171875 25.9062466,13.2812489 26.59375,13.5 L26.59375,12.46875 C26.59375,10.9999927 25.7812581,10.265625 24.15625,10.265625 C23.5416636,10.265625 22.8489622,10.4374983 22.078125,10.78125 C21.5052055,10.9895844 21.0989595,11.09375 20.859375,11.09375 C20.2447886,11.09375 19.7838557,10.9010436 19.4765625,10.515625 C19.1692693,10.1302064 19.015625,9.70312734 19.015625,9.234375 C19.015625,8.35937062 19.552078,7.69791891 20.625,7.25 C21.697922,6.80208109 22.9843675,6.578125 24.484375,6.578125 C26.7656364,6.578125 28.424474,7.12759867 29.4609375,8.2265625 C30.497401,9.32552633 31.015625,10.9843639 31.015625,13.203125 L31.015625,19.15625 C31.015625,19.3958345 31.0468747,19.5833327 31.109375,19.71875 C31.1718753,19.8541673 31.2343747,19.940104 31.296875,19.9765625 C31.3593753,20.013021 31.4817699,20.0624997 31.6640625,20.125 C31.8463551,20.1875003 31.9687497,20.2291666 32.03125,20.25 C32.5208358,20.4375009 32.765625,20.8437469 32.765625,21.46875 C32.765625,22.5729222 32.0000077,23.125 30.46875,23.125 C29.2916608,23.125 28.3854198,22.6770878 27.75,21.78125 C26.5520773,22.7395881 25.1093834,23.21875 23.421875,23.21875 C21.6093659,23.21875 20.2083383,22.7656295 19.21875,21.859375 C18.2291617,20.9531205 17.734375,19.7239661 17.734375,18.171875 L17.734375,18.171875 Z M22.109375,18.203125 C22.109375,18.7343777 22.2656234,19.111978 22.578125,19.3359375 C22.8906266,19.559897 23.3958298,19.671875 24.09375,19.671875 C25.0312547,19.671875 25.8645797,19.3958361 26.59375,18.84375 L26.59375,16.53125 C25.7395791,16.3645825 24.9843783,16.28125 24.328125,16.28125 C23.4739541,16.28125 22.8906266,16.4453109 22.578125,16.7734375 C22.2656234,17.1015641 22.109375,17.5468722 22.109375,18.109375 L22.109375,18.203125 Z M34.75,17.109375 L34.75,12.796875 C34.75,10.9843659 35.304682,9.51302648 36.4140625,8.3828125 C37.523443,7.25259852 39.1770723,6.6875 41.375,6.6875 C41.9270861,6.6875 42.481768,6.72395797 43.0390625,6.796875 C43.596357,6.86979203 44.1796845,6.99739492 44.7890625,7.1796875 C45.3984405,7.36198008 45.8932273,7.64843555 46.2734375,8.0390625 C46.6536477,8.42968945 46.84375,8.90624719 46.84375,9.46875 C46.84375,10.5520887 46.1822983,11.09375 44.859375,11.09375 C44.5156233,11.09375 44.1666684,11.0312506 43.8125,10.90625 C42.8541619,10.5416648 42.1250025,10.359375 41.625,10.359375 C39.9791584,10.359375 39.1614583,11.1718669 39.171875,12.796875 L39.171875,17.109375 C39.171875,18.7343831 39.9895752,19.546875 41.625,19.546875 C42.1770861,19.546875 42.9062455,19.3645852 43.8125,19 C44.1354183,18.8749994 44.46354,18.8125 44.796875,18.8125 C46.1614652,18.8125 46.84375,19.3541613 46.84375,20.4375 C46.84375,20.9687527 46.6536477,21.4322897 46.2734375,21.828125 C45.8932273,22.2239603 45.3984405,22.5182282 44.7890625,22.7109375 C44.1796845,22.9036468 43.5911487,23.036458 43.0234375,23.109375 C42.4557263,23.182292 41.8958361,23.21875 41.34375,23.21875 C39.1874892,23.21875 37.5494848,22.6536515 36.4296875,21.5234375 C35.3098902,20.3932235 34.75,18.9218841 34.75,17.109375 L34.75,17.109375 Z M59.09375,21.234375 L59.09375,8.828125 C59.09375,8.27603891 59.3072895,7.80729359 59.734375,7.421875 C60.1614605,7.03645641 60.6822886,6.84375 61.296875,6.84375 L70.265625,6.84375 C70.8802114,6.84375 71.4010395,7.03385227 71.828125,7.4140625 C72.2552105,7.79427273 72.46875,8.26562219 72.46875,8.828125 L72.46875,21.234375 C72.46875,21.7864611 72.2552105,22.2552064 71.828125,22.640625 C71.4010395,23.0260436 70.8776073,23.21875 70.2578125,23.21875 C69.6380177,23.21875 69.1145855,23.0286477 68.6875,22.6484375 C68.2604145,22.2682273 68.046875,21.7968778 68.046875,21.234375 L68.046875,10.453125 L63.515625,10.453125 L63.515625,21.234375 C63.515625,21.7864611 63.3020855,22.2552064 62.875,22.640625 C62.4479145,23.0260436 61.9244823,23.21875 61.3046875,23.21875 C60.6848927,23.21875 60.1614605,23.0286477 59.734375,22.6484375 C59.3072895,22.2682273 59.09375,21.7968778 59.09375,21.234375 L59.09375,21.234375 Z M75.828125,9.046875 C75.828125,8.47395547 76.0468728,8.00521016 76.484375,7.640625 C76.9218772,7.27603984 77.4062473,7.09375 77.9375,7.09375 C78.5520864,7.09375 79.1093725,7.39062203 79.609375,7.984375 C81.27605,7.04687031 82.776035,6.578125 84.109375,6.578125 C85.9218841,6.578125 87.346349,7.15624422 88.3828125,8.3125 C89.419276,9.46875578 89.9375,10.9843656 89.9375,12.859375 L89.9375,16.5625 C89.9375,20.9791887 87.901062,23.1875 83.828125,23.1875 C82.8697869,23.1875 81.9427128,22.9739605 81.046875,22.546875 L81.046875,27.828125 C81.046875,28.3802111 80.8489603,28.8437481 80.453125,29.21875 C80.0572897,29.5937519 79.5182326,29.78125 78.8359375,29.78125 C78.1536424,29.78125 77.6145853,29.5937519 77.21875,29.21875 C76.8229147,28.8437481 76.625,28.3802111 76.625,27.828125 L76.625,11.578125 C76.625,10.9218717 76.5104178,10.4218767 76.28125,10.078125 C75.9791652,9.69270641 75.828125,9.34895984 75.828125,9.046875 L75.828125,9.046875 Z M80.984375,10.96875 C81.0260419,11.2708348 81.046875,11.4739578 81.046875,11.578125 L81.046875,19.125 C81.9635462,19.4062514 82.7395802,19.546875 83.375,19.546875 C84.1458372,19.546875 84.697915,19.3072941 85.03125,18.828125 C85.364585,18.3489559 85.53125,17.5937552 85.53125,16.5625 L85.53125,12.859375 C85.53125,11.1510331 84.8333403,10.296875 83.4375,10.296875 C82.8020802,10.296875 81.98438,10.5208311 80.984375,10.96875 L80.984375,10.96875 Z M93.390625,21.171875 L93.390625,8.65625 C93.390625,8.10416391 93.5989563,7.63021031 94.015625,7.234375 C94.4322937,6.83853969 94.9479136,6.640625 95.5625,6.640625 C96.156253,6.640625 96.6796852,6.83853969 97.1328125,7.234375 C97.5859398,7.63021031 97.8125,8.10416391 97.8125,8.65625 L97.8125,15.984375 L103.15625,7.734375 C103.583335,7.00520469 104.286453,6.640625 105.265625,6.640625 C105.953128,6.640625 106.50781,6.83853969 106.929688,7.234375 C107.351565,7.63021031 107.5625,8.14062188 107.5625,8.765625 L107.5625,21.234375 C107.5625,21.7864611 107.34896,22.265623 106.921875,22.671875 C106.49479,23.078127 105.973961,23.28125 105.359375,23.28125 C104.744789,23.28125 104.22396,23.0807312 103.796875,22.6796875 C103.36979,22.2786438 103.15625,21.7968778 103.15625,21.234375 L103.15625,14.046875 L97.84375,22.234375 C97.3124973,22.9322952 96.6197959,23.28125 95.765625,23.28125 C95.0781216,23.28125 94.5104189,23.0807312 94.0625,22.6796875 C93.6145811,22.2786438 93.390625,21.7760447 93.390625,21.171875 L93.390625,21.171875 Z M111.625,21.234375 L111.625,8.703125 C111.625,8.17187234 111.828123,7.72916844 112.234375,7.375 C112.640627,7.02083156 113.140622,6.84375 113.734375,6.84375 L120.9375,6.84375 C121.51042,6.84375 122.005206,7.0234357 122.421875,7.3828125 C122.838544,7.7421893 123.046875,8.18228906 123.046875,8.703125 C123.046875,9.23437766 122.843752,9.67447742 122.4375,10.0234375 C122.031248,10.3723976 121.531253,10.546875 120.9375,10.546875 L116.046875,10.546875 L116.046875,21.234375 C116.046875,21.7864611 115.833335,22.2552064 115.40625,22.640625 C114.979165,23.0260436 114.455732,23.21875 113.835938,23.21875 C113.216143,23.21875 112.69271,23.0286477 112.265625,22.6484375 C111.83854,22.2682273 111.625,21.7968778 111.625,21.234375 L111.625,21.234375 Z M122.6875,21.265625 C122.6875,20.6093717 122.911456,20.0989602 123.359375,19.734375 C123.807294,19.3697898 124.296872,19.2447911 124.828125,19.359375 C125.036459,19.4010419 125.177083,19.421875 125.25,19.421875 C125.739586,19.421875 126.026041,18.8125061 126.109375,17.59375 L126.9375,8.765625 C126.979167,8.25520578 127.171873,7.80729359 127.515625,7.421875 C127.859377,7.03645641 128.286456,6.84375 128.796875,6.84375 L136.796875,6.84375 C137.453128,6.84375 137.93229,7.05728953 138.234375,7.484375 C138.53646,7.91146047 138.6875,8.35937266 138.6875,8.828125 L138.6875,21.234375 C138.6875,21.7864611 138.47396,22.2552064 138.046875,22.640625 C137.61979,23.0260436 137.096357,23.21875 136.476562,23.21875 C135.856768,23.21875 135.333335,23.0286477 134.90625,22.6484375 C134.479165,22.2682273 134.265625,21.7968778 134.265625,21.234375 L134.265625,10.453125 L131,10.453125 L130.390625,17.53125 C130.02604,21.2604353 128.427098,23.125 125.59375,23.125 C123.65624,23.125 122.6875,22.5052145 122.6875,21.265625 L122.6875,21.265625 Z M141.8125,18.171875 L141.8125,18.078125 C141.8125,14.817692 143.921854,13.1822917 148.140625,13.171875 C149.14063,13.171875 149.984372,13.2812489 150.671875,13.5 L150.671875,12.46875 C150.671875,10.9999927 149.859383,10.265625 148.234375,10.265625 C147.619789,10.265625 146.927087,10.4374983 146.15625,10.78125 C145.58333,10.9895844 145.177085,11.09375 144.9375,11.09375 C144.322914,11.09375 143.861981,10.9010436 143.554688,10.515625 C143.247394,10.1302064 143.09375,9.70312734 143.09375,9.234375 C143.09375,8.35937062 143.630203,7.69791891 144.703125,7.25 C145.776047,6.80208109 147.062493,6.578125 148.5625,6.578125 C150.843761,6.578125 152.502599,7.12759867 153.539062,8.2265625 C154.575526,9.32552633 155.09375,10.9843639 155.09375,13.203125 L155.09375,19.15625 C155.09375,19.3958345 155.125,19.5833327 155.1875,19.71875 C155.25,19.8541673 155.3125,19.940104 155.375,19.9765625 C155.4375,20.013021 155.559895,20.0624997 155.742188,20.125 C155.92448,20.1875003 156.046875,20.2291666 156.109375,20.25 C156.598961,20.4375009 156.84375,20.8437469 156.84375,21.46875 C156.84375,22.5729222 156.078133,23.125 154.546875,23.125 C153.369786,23.125 152.463545,22.6770878 151.828125,21.78125 C150.630202,22.7395881 149.187508,23.21875 147.5,23.21875 C145.687491,23.21875 144.286463,22.7656295 143.296875,21.859375 C142.307287,20.9531205 141.8125,19.7239661 141.8125,18.171875 L141.8125,18.171875 Z M146.1875,18.203125 C146.1875,18.7343777 146.343748,19.111978 146.65625,19.3359375 C146.968752,19.559897 147.473955,19.671875 148.171875,19.671875 C149.10938,19.671875 149.942705,19.3958361 150.671875,18.84375 L150.671875,16.53125 C149.817704,16.3645825 149.062503,16.28125 148.40625,16.28125 C147.552079,16.28125 146.968752,16.4453109 146.65625,16.7734375 C146.343748,17.1015641 146.1875,17.5468722 146.1875,18.109375 L146.1875,18.203125 Z M158.828125,17.109375 L158.828125,12.796875 C158.828125,10.9843659 159.382807,9.51302648 160.492188,8.3828125 C161.601568,7.25259852 163.255197,6.6875 165.453125,6.6875 C166.005211,6.6875 166.559893,6.72395797 167.117188,6.796875 C167.674482,6.86979203 168.257809,6.99739492 168.867188,7.1796875 C169.476566,7.36198008 169.971352,7.64843555 170.351562,8.0390625 C170.731773,8.42968945 170.921875,8.90624719 170.921875,9.46875 C170.921875,10.5520887 170.260423,11.09375 168.9375,11.09375 C168.593748,11.09375 168.244793,11.0312506 167.890625,10.90625 C166.932287,10.5416648 166.203127,10.359375 165.703125,10.359375 C164.057283,10.359375 163.239583,11.1718669 163.25,12.796875 L163.25,17.109375 C163.25,18.7343831 164.0677,19.546875 165.703125,19.546875 C166.255211,19.546875 166.98437,19.3645852 167.890625,19 C168.213543,18.8749994 168.541665,18.8125 168.875,18.8125 C170.23959,18.8125 170.921875,19.3541613 170.921875,20.4375 C170.921875,20.9687527 170.731773,21.4322897 170.351562,21.828125 C169.971352,22.2239603 169.476566,22.5182282 168.867188,22.7109375 C168.257809,22.9036468 167.669274,23.036458 167.101562,23.109375 C166.533851,23.182292 165.973961,23.21875 165.421875,23.21875 C163.265614,23.21875 161.62761,22.6536515 160.507812,21.5234375 C159.388015,20.3932235 158.828125,18.9218841 158.828125,17.109375 L158.828125,17.109375 Z M173.578125,21.171875 L173.578125,8.65625 C173.578125,8.10416391 173.786456,7.63021031 174.203125,7.234375 C174.619794,6.83853969 175.135414,6.640625 175.75,6.640625 C176.343753,6.640625 176.867185,6.83853969 177.320312,7.234375 C177.77344,7.63021031 178,8.10416391 178,8.65625 L178,15.984375 L183.34375,7.734375 C183.770835,7.00520469 184.473953,6.640625 185.453125,6.640625 C186.140628,6.640625 186.69531,6.83853969 187.117188,7.234375 C187.539065,7.63021031 187.75,8.14062188 187.75,8.765625 L187.75,21.234375 C187.75,21.7864611 187.53646,22.265623 187.109375,22.671875 C186.68229,23.078127 186.161461,23.28125 185.546875,23.28125 C184.932289,23.28125 184.41146,23.0807312 183.984375,22.6796875 C183.55729,22.2786438 183.34375,21.7968778 183.34375,21.234375 L183.34375,14.046875 L178.03125,22.234375 C177.499997,22.9322952 176.807296,23.28125 175.953125,23.28125 C175.265622,23.28125 174.697919,23.0807312 174.25,22.6796875 C173.802081,22.2786438 173.578125,21.7760447 173.578125,21.171875 L173.578125,21.171875 Z M190.28125,21.265625 C190.28125,20.6093717 190.505206,20.0989602 190.953125,19.734375 C191.401044,19.3697898 191.890622,19.2447911 192.421875,19.359375 C192.630209,19.4010419 192.770833,19.421875 192.84375,19.421875 C193.333336,19.421875 193.619791,18.8125061 193.703125,17.59375 L194.53125,8.765625 C194.572917,8.25520578 194.765623,7.80729359 195.109375,7.421875 C195.453127,7.03645641 195.880206,6.84375 196.390625,6.84375 L204.390625,6.84375 C205.046878,6.84375 205.52604,7.05728953 205.828125,7.484375 C206.13021,7.91146047 206.28125,8.35937266 206.28125,8.828125 L206.28125,21.234375 C206.28125,21.7864611 206.06771,22.2552064 205.640625,22.640625 C205.21354,23.0260436 204.690107,23.21875 204.070312,23.21875 C203.450518,23.21875 202.927085,23.0286477 202.5,22.6484375 C202.072915,22.2682273 201.859375,21.7968778 201.859375,21.234375 L201.859375,10.453125 L198.59375,10.453125 L197.984375,17.53125 C197.61979,21.2604353 196.020848,23.125 193.1875,23.125 C191.24999,23.125 190.28125,22.5052145 190.28125,21.265625 L190.28125,21.265625 Z M210.296875,21.171875 L210.296875,8.65625 C210.296875,8.10416391 210.505206,7.63021031 210.921875,7.234375 C211.338544,6.83853969 211.854164,6.640625 212.46875,6.640625 C213.062503,6.640625 213.585935,6.83853969 214.039062,7.234375 C214.49219,7.63021031 214.71875,8.10416391 214.71875,8.65625 L214.71875,15.984375 L220.0625,7.734375 C220.489585,7.00520469 221.192703,6.640625 222.171875,6.640625 C222.859378,6.640625 223.41406,6.83853969 223.835938,7.234375 C224.257815,7.63021031 224.46875,8.14062188 224.46875,8.765625 L224.46875,21.234375 C224.46875,21.7864611 224.25521,22.265623 223.828125,22.671875 C223.40104,23.078127 222.880211,23.28125 222.265625,23.28125 C221.651039,23.28125 221.13021,23.0807312 220.703125,22.6796875 C220.27604,22.2786438 220.0625,21.7968778 220.0625,21.234375 L220.0625,14.046875 L214.75,22.234375 C214.218747,22.9322952 213.526046,23.28125 212.671875,23.28125 C211.984372,23.28125 211.416669,23.0807312 210.96875,22.6796875 C210.520831,22.2786438 210.296875,21.7760447 210.296875,21.171875 L210.296875,21.171875 Z M238.125,21.234375 L238.125,8.625 C238.125,8.09374734 238.33854,7.63802273 238.765625,7.2578125 C239.19271,6.87760227 239.716143,6.6875 240.335938,6.6875 C240.955732,6.6875 241.479165,6.87760227 241.90625,7.2578125 C242.333335,7.63802273 242.546875,8.09374734 242.546875,8.625 L242.546875,12.890625 L247.40625,12.890625 L247.40625,8.625 C247.40625,8.09374734 247.61979,7.63802273 248.046875,7.2578125 C248.47396,6.87760227 248.997393,6.6875 249.617188,6.6875 C250.236982,6.6875 250.760415,6.87760227 251.1875,7.2578125 C251.614585,7.63802273 251.828125,8.09374734 251.828125,8.625 L251.828125,21.234375 C251.828125,21.7864611 251.614585,22.2552064 251.1875,22.640625 C250.760415,23.0260436 250.236982,23.21875 249.617188,23.21875 C248.997393,23.21875 248.47396,23.0286477 248.046875,22.6484375 C247.61979,22.2682273 247.40625,21.7968778 247.40625,21.234375 L247.40625,16.46875 L242.546875,16.46875 L242.546875,21.234375 C242.546875,21.7864611 242.333335,22.2552064 241.90625,22.640625 C241.479165,23.0260436 240.955732,23.21875 240.335938,23.21875 C239.716143,23.21875 239.19271,23.0286477 238.765625,22.6484375 C238.33854,22.2682273 238.125,21.7968778 238.125,21.234375 L238.125,21.234375 Z M254.953125,18.171875 L254.953125,18.078125 C254.953125,14.817692 257.062479,13.1822917 261.28125,13.171875 C262.281255,13.171875 263.124997,13.2812489 263.8125,13.5 L263.8125,12.46875 C263.8125,10.9999927 263.000008,10.265625 261.375,10.265625 C260.760414,10.265625 260.067712,10.4374983 259.296875,10.78125 C258.723955,10.9895844 258.31771,11.09375 258.078125,11.09375 C257.463539,11.09375 257.002606,10.9010436 256.695313,10.515625 C256.388019,10.1302064 256.234375,9.70312734 256.234375,9.234375 C256.234375,8.35937062 256.770828,7.69791891 257.84375,7.25 C258.916672,6.80208109 260.203118,6.578125 261.703125,6.578125 C263.984386,6.578125 265.643224,7.12759867 266.679688,8.2265625 C267.716151,9.32552633 268.234375,10.9843639 268.234375,13.203125 L268.234375,19.15625 C268.234375,19.3958345 268.265625,19.5833327 268.328125,19.71875 C268.390625,19.8541673 268.453125,19.940104 268.515625,19.9765625 C268.578125,20.013021 268.70052,20.0624997 268.882813,20.125 C269.065105,20.1875003 269.1875,20.2291666 269.25,20.25 C269.739586,20.4375009 269.984375,20.8437469 269.984375,21.46875 C269.984375,22.5729222 269.218758,23.125 267.6875,23.125 C266.510411,23.125 265.60417,22.6770878 264.96875,21.78125 C263.770827,22.7395881 262.328133,23.21875 260.640625,23.21875 C258.828116,23.21875 257.427088,22.7656295 256.4375,21.859375 C255.447912,20.9531205 254.953125,19.7239661 254.953125,18.171875 L254.953125,18.171875 Z M259.328125,18.203125 C259.328125,18.7343777 259.484373,19.111978 259.796875,19.3359375 C260.109377,19.559897 260.61458,19.671875 261.3125,19.671875 C262.250005,19.671875 263.08333,19.3958361 263.8125,18.84375 L263.8125,16.53125 C262.958329,16.3645825 262.203128,16.28125 261.546875,16.28125 C260.692704,16.28125 260.109377,16.4453109 259.796875,16.7734375 C259.484373,17.1015641 259.328125,17.5468722 259.328125,18.109375 L259.328125,18.203125 Z M282.140625,21.234375 L282.140625,8.734375 C282.140625,8.14062203 282.359373,7.65104359 282.796875,7.265625 C283.234377,6.88020641 283.781247,6.6875 284.4375,6.6875 C285.354171,6.6875 286.062498,7.07812109 286.5625,7.859375 L290.96875,15.390625 L295.390625,7.859375 C295.880211,7.06770438 296.583329,6.67708328 297.5,6.6875 C298.156253,6.6875 298.705727,6.87760227 299.148438,7.2578125 C299.591148,7.63802273 299.8125,8.13020531 299.8125,8.734375 L299.8125,21.234375 C299.8125,21.7656277 299.593752,22.2291647 299.15625,22.625 C298.718748,23.0208353 298.208336,23.21875 297.625,23.21875 C297.010414,23.21875 296.489585,23.0286477 296.0625,22.6484375 C295.635415,22.2682273 295.421875,21.7968778 295.421875,21.234375 L295.421875,15.03125 L293.046875,19.484375 C292.598956,20.2447955 291.916671,20.625 291,20.625 L290.9375,20.625 C290.020829,20.625 289.338544,20.2447955 288.890625,19.484375 L286.53125,15.03125 L286.53125,21.234375 C286.53125,21.7656277 286.312502,22.2291647 285.875,22.625 C285.437498,23.0208353 284.919274,23.21875 284.320312,23.21875 C283.721351,23.21875 283.208335,23.0286477 282.78125,22.6484375 C282.354165,22.2682273 282.140625,21.7968778 282.140625,21.234375 L282.140625,21.234375 Z M303.3125,17.625 L303.3125,12.28125 C303.3125,10.5937416 303.911452,9.22135945 305.109375,8.1640625 C306.307298,7.10676555 307.979156,6.578125 310.125,6.578125 C312.177094,6.578125 313.736974,7.07030758 314.804688,8.0546875 C315.872401,9.03906742 316.40625,10.364575 316.40625,12.03125 C316.395833,15.2708495 314.322937,16.890625 310.1875,16.890625 C309.45833,16.890625 308.64063,16.8281256 307.734375,16.703125 L307.734375,17.75 C307.734375,18.9479227 308.588533,19.546875 310.296875,19.546875 C311.151046,19.546875 312.10937,19.3125023 313.171875,18.84375 C313.432293,18.7187494 313.749998,18.6510417 314.125,18.640625 C314.833337,18.640625 315.341144,18.8229148 315.648438,19.1875 C315.955731,19.5520852 316.109375,19.9583311 316.109375,20.40625 C316.109375,20.9375027 315.890627,21.3958314 315.453125,21.78125 C315.015623,22.1666686 314.460941,22.4609365 313.789062,22.6640625 C313.117184,22.8671885 312.460941,23.0104162 311.820312,23.09375 C311.179684,23.1770838 310.562503,23.21875 309.96875,23.21875 C307.895823,23.21875 306.268235,22.6927136 305.085938,21.640625 C303.90364,20.5885364 303.3125,19.2500081 303.3125,17.625 L303.3125,17.625 Z M307.734375,13.46875 C308.651046,13.5520838 309.416664,13.59375 310.03125,13.59375 C311.354173,13.59375 312.015625,12.9974018 312.015625,11.8046875 C312.015625,10.6119732 311.375006,10.015625 310.09375,10.015625 C309.322913,10.015625 308.736981,10.200519 308.335938,10.5703125 C307.934894,10.940106 307.734375,11.4479134 307.734375,12.09375 L307.734375,13.46875 Z M318.734375,9.046875 C318.734375,8.47395547 318.953123,8.00521016 319.390625,7.640625 C319.828127,7.27603984 320.312497,7.09375 320.84375,7.09375 C321.458336,7.09375 322.015623,7.39062203 322.515625,7.984375 C324.1823,7.04687031 325.682285,6.578125 327.015625,6.578125 C328.828134,6.578125 330.252599,7.15624422 331.289062,8.3125 C332.325526,9.46875578 332.84375,10.9843656 332.84375,12.859375 L332.84375,16.5625 C332.84375,20.9791887 330.807312,23.1875 326.734375,23.1875 C325.776037,23.1875 324.848963,22.9739605 323.953125,22.546875 L323.953125,27.828125 C323.953125,28.3802111 323.75521,28.8437481 323.359375,29.21875 C322.96354,29.5937519 322.424483,29.78125 321.742188,29.78125 C321.059892,29.78125 320.520835,29.5937519 320.125,29.21875 C319.729165,28.8437481 319.53125,28.3802111 319.53125,27.828125 L319.53125,11.578125 C319.53125,10.9218717 319.416668,10.4218767 319.1875,10.078125 C318.885415,9.69270641 318.734375,9.34895984 318.734375,9.046875 L318.734375,9.046875 Z M323.890625,10.96875 C323.932292,11.2708348 323.953125,11.4739578 323.953125,11.578125 L323.953125,19.125 C324.869796,19.4062514 325.64583,19.546875 326.28125,19.546875 C327.052087,19.546875 327.604165,19.3072941 327.9375,18.828125 C328.270835,18.3489559 328.4375,17.5937552 328.4375,16.5625 L328.4375,12.859375 C328.4375,11.1510331 327.73959,10.296875 326.34375,10.296875 C325.70833,10.296875 324.89063,10.5208311 323.890625,10.96875 L323.890625,10.96875 Z M335.71875,17.265625 L335.71875,12.5 C335.71875,10.7499912 336.328119,9.32031805 337.546875,8.2109375 C338.765631,7.10155695 340.473947,6.546875 342.671875,6.546875 C344.869803,6.546875 346.575515,7.10155695 347.789062,8.2109375 C349.00261,9.32031805 349.609375,10.7499912 349.609375,12.5 L349.609375,17.265625 C349.609375,19.0156338 349.00261,20.445307 347.789062,21.5546875 C346.575515,22.664068 344.869803,23.21875 342.671875,23.21875 C340.473947,23.21875 338.765631,22.664068 337.546875,21.5546875 C336.328119,20.445307 335.71875,19.0156338 335.71875,17.265625 L335.71875,17.265625 Z M340.140625,17.265625 C340.140625,17.9531284 340.359373,18.4895814 340.796875,18.875 C341.234377,19.2604186 341.856767,19.453125 342.664062,19.453125 C343.471358,19.453125 344.093748,19.2604186 344.53125,18.875 C344.968752,18.4895814 345.1875,17.9531284 345.1875,17.265625 L345.1875,12.46875 C345.1875,11.8124967 344.968752,11.2916686 344.53125,10.90625 C344.093748,10.5208314 343.471358,10.328125 342.664062,10.328125 C341.856767,10.328125 341.234377,10.5208314 340.796875,10.90625 C340.359373,11.2916686 340.140625,11.8124967 340.140625,12.46875 L340.140625,17.265625 Z M353.0625,21.234375 L353.0625,8.828125 C353.0625,8.27603891 353.27604,7.80729359 353.703125,7.421875 C354.13021,7.03645641 354.651039,6.84375 355.265625,6.84375 L364.234375,6.84375 C364.848961,6.84375 365.36979,7.03385227 365.796875,7.4140625 C366.22396,7.79427273 366.4375,8.26562219 366.4375,8.828125 L366.4375,21.234375 C366.4375,21.7864611 366.22396,22.2552064 365.796875,22.640625 C365.36979,23.0260436 364.846357,23.21875 364.226562,23.21875 C363.606768,23.21875 363.083335,23.0286477 362.65625,22.6484375 C362.229165,22.2682273 362.015625,21.7968778 362.015625,21.234375 L362.015625,10.453125 L357.484375,10.453125 L357.484375,21.234375 C357.484375,21.7864611 357.270835,22.2552064 356.84375,22.640625 C356.416665,23.0260436 355.893232,23.21875 355.273438,23.21875 C354.653643,23.21875 354.13021,23.0286477 353.703125,22.6484375 C353.27604,22.2682273 353.0625,21.7968778 353.0625,21.234375 L353.0625,21.234375 Z M369.796875,9.046875 C369.796875,8.47395547 370.015623,8.00521016 370.453125,7.640625 C370.890627,7.27603984 371.374997,7.09375 371.90625,7.09375 C372.520836,7.09375 373.078123,7.39062203 373.578125,7.984375 C375.2448,7.04687031 376.744785,6.578125 378.078125,6.578125 C379.890634,6.578125 381.315099,7.15624422 382.351562,8.3125 C383.388026,9.46875578 383.90625,10.9843656 383.90625,12.859375 L383.90625,16.5625 C383.90625,20.9791887 381.869812,23.1875 377.796875,23.1875 C376.838537,23.1875 375.911463,22.9739605 375.015625,22.546875 L375.015625,27.828125 C375.015625,28.3802111 374.81771,28.8437481 374.421875,29.21875 C374.02604,29.5937519 373.486983,29.78125 372.804688,29.78125 C372.122392,29.78125 371.583335,29.5937519 371.1875,29.21875 C370.791665,28.8437481 370.59375,28.3802111 370.59375,27.828125 L370.59375,11.578125 C370.59375,10.9218717 370.479168,10.4218767 370.25,10.078125 C369.947915,9.69270641 369.796875,9.34895984 369.796875,9.046875 L369.796875,9.046875 Z M374.953125,10.96875 C374.994792,11.2708348 375.015625,11.4739578 375.015625,11.578125 L375.015625,19.125 C375.932296,19.4062514 376.70833,19.546875 377.34375,19.546875 C378.114587,19.546875 378.666665,19.3072941 379,18.828125 C379.333335,18.3489559 379.5,17.5937552 379.5,16.5625 L379.5,12.859375 C379.5,11.1510331 378.80209,10.296875 377.40625,10.296875 C376.77083,10.296875 375.95313,10.5208311 374.953125,10.96875 L374.953125,10.96875 Z M387.359375,21.171875 L387.359375,8.65625 C387.359375,8.10416391 387.567706,7.63021031 387.984375,7.234375 C388.401044,6.83853969 388.916664,6.640625 389.53125,6.640625 C390.125003,6.640625 390.648435,6.83853969 391.101562,7.234375 C391.55469,7.63021031 391.78125,8.10416391 391.78125,8.65625 L391.78125,15.984375 L397.125,7.734375 C397.552085,7.00520469 398.255203,6.640625 399.234375,6.640625 C399.921878,6.640625 400.47656,6.83853969 400.898438,7.234375 C401.320315,7.63021031 401.53125,8.14062188 401.53125,8.765625 L401.53125,21.234375 C401.53125,21.7864611 401.31771,22.265623 400.890625,22.671875 C400.46354,23.078127 399.942711,23.28125 399.328125,23.28125 C398.713539,23.28125 398.19271,23.0807312 397.765625,22.6796875 C397.33854,22.2786438 397.125,21.7968778 397.125,21.234375 L397.125,14.046875 L391.8125,22.234375 C391.281247,22.9322952 390.588546,23.28125 389.734375,23.28125 C389.046872,23.28125 388.479169,23.0807312 388.03125,22.6796875 C387.583331,22.2786438 387.359375,21.7760447 387.359375,21.171875 L387.359375,21.171875 Z M404.859375,21.46875 C404.859375,21.0208311 404.973957,20.6250017 405.203125,20.28125 L408,16.5625 C405.989573,15.8333297 404.984375,14.2760536 404.984375,11.890625 C404.984375,10.3281172 405.518224,9.09635867 406.585938,8.1953125 C407.653651,7.29426633 409.213531,6.84375 411.265625,6.84375 L416.1875,6.84375 C416.802086,6.84375 417.322915,7.04166469 417.75,7.4375 C418.177085,7.83333531 418.390625,8.29687234 418.390625,8.828125 L418.390625,21.234375 C418.390625,21.7864611 418.177085,22.2552064 417.75,22.640625 C417.322915,23.0260436 416.802086,23.21875 416.1875,23.21875 C415.572914,23.21875 415.052085,23.0286477 414.625,22.6484375 C414.197915,22.2682273 413.984375,21.7968778 413.984375,21.234375 L413.984375,17.109375 L412.640625,17.109375 L408.828125,22.328125 C408.359373,22.921878 407.750004,23.21875 407,23.21875 C406.385414,23.21875 405.88021,23.0598974 405.484375,22.7421875 C405.08854,22.4244776 404.880208,22.0000027 404.859375,21.46875 L404.859375,21.46875 Z M409.375,11.9921875 C409.375,12.9974009 410.140617,13.5 411.671875,13.5 L413.984375,13.5 L413.984375,10.484375 L411.328125,10.484375 C410.026035,10.484375 409.375,10.9869741 409.375,11.9921875 L409.375,11.9921875 Z M420.921875,8.7578125 C420.921875,8.22135148 421.124998,7.76823102 421.53125,7.3984375 C421.937502,7.02864398 422.437497,6.84375 423.03125,6.84375 L432.1875,6.84375 C432.781253,6.84375 433.281248,7.02864398 433.6875,7.3984375 C434.093752,7.76823102 434.296875,8.22135148 434.296875,8.7578125 C434.296875,9.29427352 434.093752,9.74999812 433.6875,10.125 C433.281248,10.5000019 432.781253,10.6875 432.1875,10.6875 L429.8125,10.6875 L429.8125,21.234375 C429.8125,21.7864611 429.59896,22.2552064 429.171875,22.640625 C428.74479,23.0260436 428.221357,23.21875 427.601562,23.21875 C426.981768,23.21875 426.458335,23.0286477 426.03125,22.6484375 C425.604165,22.2682273 425.390625,21.7968778 425.390625,21.234375 L425.390625,10.6875 L423.03125,10.6875 C422.437497,10.6875 421.937502,10.5000019 421.53125,10.125 C421.124998,9.74999812 420.921875,9.29427352 420.921875,8.7578125 L420.921875,8.7578125 Z M436.78125,21.171875 L436.78125,8.65625 C436.78125,8.10416391 436.989581,7.63021031 437.40625,7.234375 C437.822919,6.83853969 438.338539,6.640625 438.953125,6.640625 C439.546878,6.640625 440.07031,6.83853969 440.523438,7.234375 C440.976565,7.63021031 441.203125,8.10416391 441.203125,8.65625 L441.203125,15.984375 L446.546875,7.734375 C446.97396,7.00520469 447.677078,6.640625 448.65625,6.640625 C449.343753,6.640625 449.898435,6.83853969 450.320312,7.234375 C450.74219,7.63021031 450.953125,8.14062188 450.953125,8.765625 L450.953125,21.234375 C450.953125,21.7864611 450.739585,22.265623 450.3125,22.671875 C449.885415,23.078127 449.364586,23.28125 448.75,23.28125 C448.135414,23.28125 447.614585,23.0807312 447.1875,22.6796875 C446.760415,22.2786438 446.546875,21.7968778 446.546875,21.234375 L446.546875,14.046875 L441.234375,22.234375 C440.703122,22.9322952 440.010421,23.28125 439.15625,23.28125 C438.468747,23.28125 437.901044,23.0807312 437.453125,22.6796875 C437.005206,22.2786438 436.78125,21.7760447 436.78125,21.171875 L436.78125,21.171875 Z M454.4375,17.625 L454.4375,12.28125 C454.4375,10.5937416 455.036452,9.22135945 456.234375,8.1640625 C457.432298,7.10676555 459.104156,6.578125 461.25,6.578125 C463.302094,6.578125 464.861974,7.07030758 465.929688,8.0546875 C466.997401,9.03906742 467.53125,10.364575 467.53125,12.03125 C467.520833,15.2708495 465.447937,16.890625 461.3125,16.890625 C460.58333,16.890625 459.76563,16.8281256 458.859375,16.703125 L458.859375,17.75 C458.859375,18.9479227 459.713533,19.546875 461.421875,19.546875 C462.276046,19.546875 463.23437,19.3125023 464.296875,18.84375 C464.557293,18.7187494 464.874998,18.6510417 465.25,18.640625 C465.958337,18.640625 466.466144,18.8229148 466.773438,19.1875 C467.080731,19.5520852 467.234375,19.9583311 467.234375,20.40625 C467.234375,20.9375027 467.015627,21.3958314 466.578125,21.78125 C466.140623,22.1666686 465.585941,22.4609365 464.914062,22.6640625 C464.242184,22.8671885 463.585941,23.0104162 462.945312,23.09375 C462.304684,23.1770838 461.687503,23.21875 461.09375,23.21875 C459.020823,23.21875 457.393235,22.6927136 456.210938,21.640625 C455.02864,20.5885364 454.4375,19.2500081 454.4375,17.625 L454.4375,17.625 Z M458.859375,13.46875 C459.776046,13.5520838 460.541664,13.59375 461.15625,13.59375 C462.479173,13.59375 463.140625,12.9974018 463.140625,11.8046875 C463.140625,10.6119732 462.500006,10.015625 461.21875,10.015625 C460.447913,10.015625 459.861981,10.200519 459.460938,10.5703125 C459.059894,10.940106 458.859375,11.4479134 458.859375,12.09375 L458.859375,13.46875 Z M470.140625,20.7890625 C470.140625,20.1067674 470.403643,19.5260441 470.929688,19.046875 C471.455732,18.5677059 472.088538,18.328125 472.828125,18.328125 C473.557295,18.328125 474.182289,18.5755184 474.703125,19.0703125 C475.223961,19.5651066 475.484375,20.1406217 475.484375,20.796875 C475.484375,21.4843784 475.223961,22.0703101 474.703125,22.5546875 C474.182289,23.0390649 473.557295,23.28125 472.828125,23.28125 C472.078121,23.28125 471.442711,23.0364608 470.921875,22.546875 C470.401039,22.0572892 470.140625,21.4713576 470.140625,20.7890625 L470.140625,20.7890625 Z M470.53125,2.234375 C470.53125,1.68228891 470.749998,1.19791875 471.1875,0.78125 C471.625002,0.36458125 472.151039,0.15625 472.765625,0.15625 C473.359378,0.15625 473.88281,0.36458125 474.335938,0.78125 C474.789065,1.19791875 475.015625,1.68228891 475.015625,2.234375 L474.6875,15.703125 C474.666667,16.1718773 474.463544,16.5885398 474.078125,16.953125 C473.692706,17.3177102 473.255211,17.5 472.765625,17.5 C472.234372,17.5 471.783856,17.3229184 471.414062,16.96875 C471.044269,16.6145816 470.859375,16.1927108 470.859375,15.703125 L470.53125,2.234375 Z" id="Type-something" fill="#FEB737" sketch:type="MSShapeGroup"></path>
    </g>
</svg>