<?xml version="1.0" encoding="UTF-8" standalone="no"?>
<svg width="323px" height="30px" viewBox="0 0 323 30" version="1.1" xmlns="http://www.w3.org/2000/svg" xmlns:xlink="http://www.w3.org/1999/xlink" xmlns:sketch="http://www.bohemiancoding.com/sketch/ns">
    <!-- Generator: Sketch 3.2.2 (9983) - http://www.bohemiancoding.com/sketch -->
    <title>Type something</title>
    <desc>Created with Sketch.</desc>
    <defs></defs>
    <g id="Page-1" stroke="none" stroke-width="1" fill="none" fill-rule="evenodd" sketch:type="MSPage">
        <path d="M0.015625,21.203125 L0.015625,2.484375 C0.015625,1.93228891 0.234372812,1.44791875 0.671875,1.03125 C1.10937719,0.61458125 1.63541359,0.40625 2.25,0.40625 L13.546875,0.40625 C14.140628,0.40625 14.6640602,0.61458125 15.1171875,1.03125 C15.5703148,1.44791875 15.796875,1.93228891 15.796875,2.484375 L15.796875,21.203125 C15.796875,21.7552111 15.5729189,22.2395813 15.125,22.65625 C14.6770811,23.0729187 14.1536488,23.28125 13.5546875,23.28125 C12.9557262,23.28125 12.4322939,23.0755229 11.984375,22.6640625 C11.5364561,22.2526021 11.3125,21.7656278 11.3125,21.203125 L11.3125,4.46875 L4.5,4.46875 L4.5,21.203125 C4.5,21.7552111 4.27604391,22.2395813 3.828125,22.65625 C3.38020609,23.0729187 2.85416969,23.28125 2.25,23.28125 C1.63541359,23.28125 1.10937719,23.0755229 0.671875,22.6640625 C0.234372812,22.2526021 0.015625,21.7656278 0.015625,21.203125 L0.015625,21.203125 Z M19.140625,9.046875 C19.140625,8.47395547 19.3593728,8.00521016 19.796875,7.640625 C20.2343772,7.27603984 20.7187473,7.09375 21.25,7.09375 C21.8645864,7.09375 22.4218725,7.39062203 22.921875,7.984375 C24.58855,7.04687031 26.088535,6.578125 27.421875,6.578125 C29.2343841,6.578125 30.658849,7.15624422 31.6953125,8.3125 C32.731776,9.46875578 33.25,10.9843656 33.25,12.859375 L33.25,16.5625 C33.25,20.9791887 31.213562,23.1875 27.140625,23.1875 C26.1822869,23.1875 25.2552128,22.9739605 24.359375,22.546875 L24.359375,27.828125 C24.359375,28.3802111 24.1614603,28.8437481 23.765625,29.21875 C23.3697897,29.5937519 22.8307326,29.78125 22.1484375,29.78125 C21.4661424,29.78125 20.9270853,29.5937519 20.53125,29.21875 C20.1354147,28.8437481 19.9375,28.3802111 19.9375,27.828125 L19.9375,11.578125 C19.9375,10.9218717 19.8229178,10.4218767 19.59375,10.078125 C19.2916652,9.69270641 19.140625,9.34895984 19.140625,9.046875 L19.140625,9.046875 Z M24.296875,10.96875 C24.3385419,11.2708348 24.359375,11.4739578 24.359375,11.578125 L24.359375,19.125 C25.2760462,19.4062514 26.0520802,19.546875 26.6875,19.546875 C27.4583372,19.546875 28.010415,19.3072941 28.34375,18.828125 C28.677085,18.3489559 28.84375,17.5937552 28.84375,16.5625 L28.84375,12.859375 C28.84375,11.1510331 28.1458403,10.296875 26.75,10.296875 C26.1145802,10.296875 25.29688,10.5208311 24.296875,10.96875 L24.296875,10.96875 Z M35.8125,18.171875 L35.8125,18.078125 C35.8125,14.817692 37.9218539,13.1822917 42.140625,13.171875 C43.14063,13.171875 43.9843716,13.2812489 44.671875,13.5 L44.671875,12.46875 C44.671875,10.9999927 43.8593831,10.265625 42.234375,10.265625 C41.6197886,10.265625 40.9270872,10.4374983 40.15625,10.78125 C39.5833305,10.9895844 39.1770845,11.09375 38.9375,11.09375 C38.3229136,11.09375 37.8619807,10.9010436 37.5546875,10.515625 C37.2473943,10.1302064 37.09375,9.70312734 37.09375,9.234375 C37.09375,8.35937062 37.630203,7.69791891 38.703125,7.25 C39.776047,6.80208109 41.0624925,6.578125 42.5625,6.578125 C44.8437614,6.578125 46.502599,7.12759867 47.5390625,8.2265625 C48.575526,9.32552633 49.09375,10.9843639 49.09375,13.203125 L49.09375,19.15625 C49.09375,19.3958345 49.1249997,19.5833327 49.1875,19.71875 C49.2500003,19.8541673 49.3124997,19.940104 49.375,19.9765625 C49.4375003,20.013021 49.5598949,20.0624997 49.7421875,20.125 C49.9244801,20.1875003 50.0468747,20.2291666 50.109375,20.25 C50.5989608,20.4375009 50.84375,20.8437469 50.84375,21.46875 C50.84375,22.5729222 50.0781327,23.125 48.546875,23.125 C47.3697858,23.125 46.4635448,22.6770878 45.828125,21.78125 C44.6302023,22.7395881 43.1875084,23.21875 41.5,23.21875 C39.6874909,23.21875 38.2864633,22.7656295 37.296875,21.859375 C36.3072867,20.9531205 35.8125,19.7239661 35.8125,18.171875 L35.8125,18.171875 Z M40.1875,18.203125 C40.1875,18.7343777 40.3437484,19.111978 40.65625,19.3359375 C40.9687516,19.559897 41.4739548,19.671875 42.171875,19.671875 C43.1093797,19.671875 43.9427047,19.3958361 44.671875,18.84375 L44.671875,16.53125 C43.8177041,16.3645825 43.0625033,16.28125 42.40625,16.28125 C41.5520791,16.28125 40.9687516,16.4453109 40.65625,16.7734375 C40.3437484,17.1015641 40.1875,17.5468722 40.1875,18.109375 L40.1875,18.203125 Z M53.046875,20.59375 C53.046875,20.1249977 53.2083317,19.6953145 53.53125,19.3046875 C53.8541683,18.9140605 54.2604142,18.71875 54.75,18.71875 C55.2395858,18.71875 55.6770814,18.8124991 56.0625,19 C57.0416716,19.4687523 57.9791622,19.703125 58.875,19.703125 C59.5833369,19.703125 60.1171857,19.591147 60.4765625,19.3671875 C60.8359393,19.143228 61.015625,18.7239614 61.015625,18.109375 C61.015625,17.848957 60.9739588,17.6276051 60.890625,17.4453125 C60.8072912,17.2630199 60.5416689,17.0703135 60.09375,16.8671875 C59.6458311,16.6640615 59.0052125,16.5416669 58.171875,16.5 C57.6614558,16.4791666 57.2682305,16.4427086 56.9921875,16.390625 C56.7161445,16.3385414 56.4322931,16.1796888 56.140625,15.9140625 C55.8489569,15.6484362 55.703125,15.2812523 55.703125,14.8125 C55.703125,13.9374956 56.1979117,13.4218758 57.1875,13.265625 C57.2708338,13.2447916 57.5677058,13.2135419 58.078125,13.171875 C59.8281338,13.0052075 60.703125,12.4322966 60.703125,11.453125 C60.703125,10.5572872 60.0520898,10.109375 58.75,10.109375 C58.1145802,10.109375 57.481774,10.2473945 56.8515625,10.5234375 C56.221351,10.7994805 55.7447933,10.9375 55.421875,10.9375 C54.8489555,10.9375 54.3645853,10.7447936 53.96875,10.359375 C53.5729147,9.97395641 53.375,9.53646078 53.375,9.046875 C53.375,8.2135375 53.9505151,7.59375203 55.1015625,7.1875 C56.2526099,6.78124797 57.5208264,6.578125 58.90625,6.578125 C60.8645931,6.578125 62.3775988,7.00520406 63.4453125,7.859375 C64.5130262,8.71354594 65.046875,9.81249328 65.046875,11.15625 C65.046875,12.7395912 64.1614672,13.9374959 62.390625,14.75 C63.4322969,15.1354186 64.1901018,15.6145805 64.6640625,16.1875 C65.1380232,16.7604195 65.375,17.4947872 65.375,18.390625 C65.375,19.8385489 64.8255263,21.0052039 63.7265625,21.890625 C62.6275987,22.7760461 61.041677,23.21875 58.96875,23.21875 C58.3958305,23.21875 57.8046905,23.182292 57.1953125,23.109375 C56.5859345,23.036458 55.9505241,22.9140634 55.2890625,22.7421875 C54.6276009,22.5703116 54.0885437,22.299481 53.671875,21.9296875 C53.2552063,21.559894 53.046875,21.1145859 53.046875,20.59375 L53.046875,20.59375 Z M66.875,21.375 C66.875,20.9270811 67.0182277,20.4843772 67.3046875,20.046875 C67.5911473,19.6093728 68.0729133,19.390625 68.75,19.390625 C69.7083381,18.6197878 70.2552077,17.0156372 70.390625,14.578125 L70.671875,8.765625 C70.6927084,8.27603922 70.8802066,7.83333531 71.234375,7.4375 C71.5885434,7.04166469 72.0208308,6.84375 72.53125,6.84375 L80.53125,6.84375 C81.1875033,6.84375 81.6666652,7.05728953 81.96875,7.484375 C82.2708348,7.91146047 82.421875,8.35937266 82.421875,8.828125 L82.421875,19.390625 L82.640625,19.390625 C83.2968783,19.390625 83.7760402,19.6015604 84.078125,20.0234375 C84.3802098,20.4453146 84.53125,20.8958309 84.53125,21.375 L84.53125,25.5 C84.53125,26.0520861 84.3177105,26.5208314 83.890625,26.90625 C83.4635395,27.2916686 82.9401073,27.484375 82.3203125,27.484375 C81.7005177,27.484375 81.1770855,27.2916686 80.75,26.90625 C80.3229145,26.5208314 80.109375,26.0520861 80.109375,25.5 L80.109375,23 L71.28125,23 L71.28125,25.5 C71.28125,26.0520861 71.0677105,26.5208314 70.640625,26.90625 C70.2135395,27.2916686 69.6927114,27.484375 69.078125,27.484375 C68.4635386,27.484375 67.9427105,27.2916686 67.515625,26.90625 C67.0885395,26.5208314 66.875,26.0520861 66.875,25.5 L66.875,21.375 Z M73.65625,19.390625 L78,19.390625 L78,10.453125 L74.8125,10.453125 L74.640625,14.640625 C74.5364578,16.5573013 74.2083361,18.1406187 73.65625,19.390625 L73.65625,19.390625 Z M86.953125,21.234375 L86.953125,8.625 C86.953125,8.09374734 87.1666645,7.63802273 87.59375,7.2578125 C88.0208355,6.87760227 88.5442677,6.6875 89.1640625,6.6875 C89.7838573,6.6875 90.3072895,6.87760227 90.734375,7.2578125 C91.1614605,7.63802273 91.375,8.09374734 91.375,8.625 L91.375,12.890625 L96.234375,12.890625 L96.234375,8.625 C96.234375,8.09374734 96.4479145,7.63802273 96.875,7.2578125 C97.3020855,6.87760227 97.8255177,6.6875 98.4453125,6.6875 C99.0651073,6.6875 99.5885395,6.87760227 100.015625,7.2578125 C100.44271,7.63802273 100.65625,8.09374734 100.65625,8.625 L100.65625,21.234375 C100.65625,21.7864611 100.44271,22.2552064 100.015625,22.640625 C99.5885395,23.0260436 99.0651073,23.21875 98.4453125,23.21875 C97.8255177,23.21875 97.3020855,23.0286477 96.875,22.6484375 C96.4479145,22.2682273 96.234375,21.7968778 96.234375,21.234375 L96.234375,16.46875 L91.375,16.46875 L91.375,21.234375 C91.375,21.7864611 91.1614605,22.2552064 90.734375,22.640625 C90.3072895,23.0260436 89.7838573,23.21875 89.1640625,23.21875 C88.5442677,23.21875 88.0208355,23.0286477 87.59375,22.6484375 C87.1666645,22.2682273 86.953125,21.7968778 86.953125,21.234375 L86.953125,21.234375 Z M103.171875,8.5625 C103.171875,8.03124734 103.385415,7.5859393 103.8125,7.2265625 C104.239585,6.8671857 104.760414,6.6875 105.375,6.6875 C106.375005,6.6875 107.046873,7.13541219 107.390625,8.03125 L109.40625,13.40625 C109.572918,13.8541689 109.770832,14.5260372 110,15.421875 C110.229168,16.3177128 110.375,16.8697906 110.4375,17.078125 L111.328125,13.40625 L113.0625,8.03125 C113.187501,7.58333109 113.447915,7.24739695 113.84375,7.0234375 C114.239585,6.79947805 114.671873,6.6875 115.140625,6.6875 C115.713545,6.6875 116.223956,6.87239398 116.671875,7.2421875 C117.119794,7.61198102 117.34375,8.07291391 117.34375,8.625 C117.34375,8.86458453 117.3125,9.05729094 117.25,9.203125 L113.34375,20.59375 C113.041665,21.4687544 112.822917,22.0989564 112.6875,22.484375 C112.552083,22.8697936 112.343751,23.4244755 112.0625,24.1484375 C111.781249,24.8723995 111.546876,25.3958317 111.359375,25.71875 C111.171874,26.0416683 110.916668,26.4583308 110.59375,26.96875 C110.270832,27.4791692 109.955731,27.846353 109.648438,28.0703125 C109.341144,28.294272 108.97396,28.5390612 108.546875,28.8046875 C108.11979,29.0703138 107.656252,29.2526037 107.15625,29.3515625 C106.656248,29.4505213 106.10417,29.5 105.5,29.5 C104.86458,29.5 104.333335,29.3177102 103.90625,28.953125 C103.479165,28.5885398 103.265625,28.1302111 103.265625,27.578125 C103.265625,27.0885392 103.458331,26.6510436 103.84375,26.265625 C104.229169,25.8802064 104.73958,25.6770834 105.375,25.65625 C106.062503,25.6354166 106.61979,25.3515652 107.046875,24.8046875 C107.47396,24.2578098 107.874998,23.3489647 108.25,22.078125 L103.328125,9.375 C103.223958,9.09374859 103.171875,8.82291797 103.171875,8.5625 L103.171875,8.5625 Z M119.40625,17.625 L119.40625,12.28125 C119.40625,10.5937416 120.005202,9.22135945 121.203125,8.1640625 C122.401048,7.10676555 124.072906,6.578125 126.21875,6.578125 C128.270844,6.578125 129.830724,7.07030758 130.898438,8.0546875 C131.966151,9.03906742 132.5,10.364575 132.5,12.03125 C132.489583,15.2708495 130.416687,16.890625 126.28125,16.890625 C125.55208,16.890625 124.73438,16.8281256 123.828125,16.703125 L123.828125,17.75 C123.828125,18.9479227 124.682283,19.546875 126.390625,19.546875 C127.244796,19.546875 128.20312,19.3125023 129.265625,18.84375 C129.526043,18.7187494 129.843748,18.6510417 130.21875,18.640625 C130.927087,18.640625 131.434894,18.8229148 131.742188,19.1875 C132.049481,19.5520852 132.203125,19.9583311 132.203125,20.40625 C132.203125,20.9375027 131.984377,21.3958314 131.546875,21.78125 C131.109373,22.1666686 130.554691,22.4609365 129.882812,22.6640625 C129.210934,22.8671885 128.554691,23.0104162 127.914062,23.09375 C127.273434,23.1770838 126.656253,23.21875 126.0625,23.21875 C123.989573,23.21875 122.361985,22.6927136 121.179688,21.640625 C119.99739,20.5885364 119.40625,19.2500081 119.40625,17.625 L119.40625,17.625 Z M123.828125,13.46875 C124.744796,13.5520838 125.510414,13.59375 126.125,13.59375 C127.447923,13.59375 128.109375,12.9974018 128.109375,11.8046875 C128.109375,10.6119732 127.468756,10.015625 126.1875,10.015625 C125.416663,10.015625 124.830731,10.200519 124.429688,10.5703125 C124.028644,10.940106 123.828125,11.4479134 123.828125,12.09375 L123.828125,13.46875 Z M135.5,21.234375 L135.5,8.734375 C135.5,8.14062203 135.718748,7.65104359 136.15625,7.265625 C136.593752,6.88020641 137.140622,6.6875 137.796875,6.6875 C138.713546,6.6875 139.421873,7.07812109 139.921875,7.859375 L144.328125,15.390625 L148.75,7.859375 C149.239586,7.06770438 149.942704,6.67708328 150.859375,6.6875 C151.515628,6.6875 152.065102,6.87760227 152.507812,7.2578125 C152.950523,7.63802273 153.171875,8.13020531 153.171875,8.734375 L153.171875,21.234375 C153.171875,21.7656277 152.953127,22.2291647 152.515625,22.625 C152.078123,23.0208353 151.567711,23.21875 150.984375,23.21875 C150.369789,23.21875 149.84896,23.0286477 149.421875,22.6484375 C148.99479,22.2682273 148.78125,21.7968778 148.78125,21.234375 L148.78125,15.03125 L146.40625,19.484375 C145.958331,20.2447955 145.276046,20.625 144.359375,20.625 L144.296875,20.625 C143.380204,20.625 142.697919,20.2447955 142.25,19.484375 L139.890625,15.03125 L139.890625,21.234375 C139.890625,21.7656277 139.671877,22.2291647 139.234375,22.625 C138.796873,23.0208353 138.278649,23.21875 137.679688,23.21875 C137.080726,23.21875 136.56771,23.0286477 136.140625,22.6484375 C135.71354,22.2682273 135.5,21.7968778 135.5,21.234375 L135.5,21.234375 Z M166.84375,21.203125 L166.84375,2.203125 C166.84375,1.65103891 167.062498,1.17187703 167.5,0.765625 C167.937502,0.359372969 168.463539,0.15625 169.078125,0.15625 C169.671878,0.15625 170.19531,0.359372969 170.648438,0.765625 C171.101565,1.17187703 171.328125,1.65103891 171.328125,2.203125 L171.328125,9.65625 L178.140625,9.65625 L178.140625,2.203125 C178.140625,1.67187234 178.364581,1.19791875 178.8125,0.78125 C179.260419,0.36458125 179.783851,0.15625 180.382812,0.15625 C180.981774,0.15625 181.505206,0.36458125 181.953125,0.78125 C182.401044,1.19791875 182.625,1.67187234 182.625,2.203125 L182.625,21.203125 C182.625,21.7552111 182.401044,22.2395813 181.953125,22.65625 C181.505206,23.0729187 180.981774,23.28125 180.382812,23.28125 C179.783851,23.28125 179.260419,23.0755229 178.8125,22.6640625 C178.364581,22.2526021 178.140625,21.7656278 178.140625,21.203125 L178.140625,13.75 L171.328125,13.75 L171.328125,21.203125 C171.328125,21.7552111 171.104169,22.2395813 170.65625,22.65625 C170.208331,23.0729187 169.682295,23.28125 169.078125,23.28125 C168.463539,23.28125 167.937502,23.0755229 167.5,22.6640625 C167.062498,22.2526021 166.84375,21.7656278 166.84375,21.203125 L166.84375,21.203125 Z M186.09375,17.265625 L186.09375,12.5 C186.09375,10.7499912 186.703119,9.32031805 187.921875,8.2109375 C189.140631,7.10155695 190.848947,6.546875 193.046875,6.546875 C195.244803,6.546875 196.950515,7.10155695 198.164062,8.2109375 C199.37761,9.32031805 199.984375,10.7499912 199.984375,12.5 L199.984375,17.265625 C199.984375,19.0156338 199.37761,20.445307 198.164062,21.5546875 C196.950515,22.664068 195.244803,23.21875 193.046875,23.21875 C190.848947,23.21875 189.140631,22.664068 187.921875,21.5546875 C186.703119,20.445307 186.09375,19.0156338 186.09375,17.265625 L186.09375,17.265625 Z M190.515625,17.265625 C190.515625,17.9531284 190.734373,18.4895814 191.171875,18.875 C191.609377,19.2604186 192.231767,19.453125 193.039062,19.453125 C193.846358,19.453125 194.468748,19.2604186 194.90625,18.875 C195.343752,18.4895814 195.5625,17.9531284 195.5625,17.265625 L195.5625,12.46875 C195.5625,11.8124967 195.343752,11.2916686 194.90625,10.90625 C194.468748,10.5208314 193.846358,10.328125 193.039062,10.328125 C192.231767,10.328125 191.609377,10.5208314 191.171875,10.90625 C190.734373,11.2916686 190.515625,11.8124967 190.515625,12.46875 L190.515625,17.265625 Z M203.4375,21.015625 L203.4375,8.828125 C203.4375,8.29687234 203.65104,7.83333531 204.078125,7.4375 C204.50521,7.04166469 205.026039,6.84375 205.640625,6.84375 L209.9375,6.84375 C211.96876,6.84375 213.520828,7.25780836 214.59375,8.0859375 C215.666672,8.91406664 216.203125,9.98957672 216.203125,11.3125 C216.203125,12.1041706 215.973961,12.778643 215.515625,13.3359375 C215.057289,13.893232 214.307297,14.3854145 213.265625,14.8125 C214.421881,15.2604189 215.255206,15.7760387 215.765625,16.359375 C216.276044,16.9427113 216.53125,17.6614541 216.53125,18.515625 C216.53125,19.8385483 215.992193,20.9166625 214.914062,21.75 C213.835932,22.5833375 212.28126,23 210.25,23 L205.640625,23 C205.026039,23 204.50521,22.8020853 204.078125,22.40625 C203.65104,22.0104147 203.4375,21.5468777 203.4375,21.015625 L203.4375,21.015625 Z M207.859375,19.671875 L210.1875,19.671875 C211.48959,19.671875 212.140625,19.1197972 212.140625,18.015625 C212.140625,16.8802027 211.395841,16.3125 209.90625,16.3125 L207.859375,16.3125 L207.859375,19.671875 Z M207.859375,13.34375 L209.9375,13.34375 C211.197923,13.34375 211.828125,12.8385467 211.828125,11.828125 C211.828125,10.7239528 211.17709,10.171875 209.875,10.171875 L207.859375,10.171875 L207.859375,13.34375 Z M219.109375,17.265625 L219.109375,12.5 C219.109375,10.7499912 219.718744,9.32031805 220.9375,8.2109375 C222.156256,7.10155695 223.864572,6.546875 226.0625,6.546875 C228.260428,6.546875 229.96614,7.10155695 231.179688,8.2109375 C232.393235,9.32031805 233,10.7499912 233,12.5 L233,17.265625 C233,19.0156338 232.393235,20.445307 231.179688,21.5546875 C229.96614,22.664068 228.260428,23.21875 226.0625,23.21875 C223.864572,23.21875 222.156256,22.664068 220.9375,21.5546875 C219.718744,20.445307 219.109375,19.0156338 219.109375,17.265625 L219.109375,17.265625 Z M223.53125,17.265625 C223.53125,17.9531284 223.749998,18.4895814 224.1875,18.875 C224.625002,19.2604186 225.247392,19.453125 226.054688,19.453125 C226.861983,19.453125 227.484373,19.2604186 227.921875,18.875 C228.359377,18.4895814 228.578125,17.9531284 228.578125,17.265625 L228.578125,12.46875 C228.578125,11.8124967 228.359377,11.2916686 227.921875,10.90625 C227.484373,10.5208314 226.861983,10.328125 226.054688,10.328125 C225.247392,10.328125 224.625002,10.5208314 224.1875,10.90625 C223.749998,11.2916686 223.53125,11.8124967 223.53125,12.46875 L223.53125,17.265625 Z M235.875,17.109375 L235.875,12.796875 C235.875,10.9843659 236.429682,9.51302648 237.539063,8.3828125 C238.648443,7.25259852 240.302072,6.6875 242.5,6.6875 C243.052086,6.6875 243.606768,6.72395797 244.164063,6.796875 C244.721357,6.86979203 245.304684,6.99739492 245.914063,7.1796875 C246.523441,7.36198008 247.018227,7.64843555 247.398438,8.0390625 C247.778648,8.42968945 247.96875,8.90624719 247.96875,9.46875 C247.96875,10.5520887 247.307298,11.09375 245.984375,11.09375 C245.640623,11.09375 245.291668,11.0312506 244.9375,10.90625 C243.979162,10.5416648 243.250002,10.359375 242.75,10.359375 C241.104158,10.359375 240.286458,11.1718669 240.296875,12.796875 L240.296875,17.109375 C240.296875,18.7343831 241.114575,19.546875 242.75,19.546875 C243.302086,19.546875 244.031245,19.3645852 244.9375,19 C245.260418,18.8749994 245.58854,18.8125 245.921875,18.8125 C247.286465,18.8125 247.96875,19.3541613 247.96875,20.4375 C247.96875,20.9687527 247.778648,21.4322897 247.398438,21.828125 C247.018227,22.2239603 246.523441,22.5182282 245.914063,22.7109375 C245.304684,22.9036468 244.716149,23.036458 244.148438,23.109375 C243.580726,23.182292 243.020836,23.21875 242.46875,23.21875 C240.312489,23.21875 238.674485,22.6536515 237.554688,21.5234375 C236.43489,20.3932235 235.875,18.9218841 235.875,17.109375 L235.875,17.109375 Z M250.046875,17.625 L250.046875,12.28125 C250.046875,10.5937416 250.645827,9.22135945 251.84375,8.1640625 C253.041673,7.10676555 254.713531,6.578125 256.859375,6.578125 C258.911469,6.578125 260.471349,7.07030758 261.539062,8.0546875 C262.606776,9.03906742 263.140625,10.364575 263.140625,12.03125 C263.130208,15.2708495 261.057312,16.890625 256.921875,16.890625 C256.192705,16.890625 255.375005,16.8281256 254.46875,16.703125 L254.46875,17.75 C254.46875,18.9479227 255.322908,19.546875 257.03125,19.546875 C257.885421,19.546875 258.843745,19.3125023 259.90625,18.84375 C260.166668,18.7187494 260.484373,18.6510417 260.859375,18.640625 C261.567712,18.640625 262.075519,18.8229148 262.382812,19.1875 C262.690106,19.5520852 262.84375,19.9583311 262.84375,20.40625 C262.84375,20.9375027 262.625002,21.3958314 262.1875,21.78125 C261.749998,22.1666686 261.195316,22.4609365 260.523438,22.6640625 C259.851559,22.8671885 259.195316,23.0104162 258.554688,23.09375 C257.914059,23.1770838 257.296878,23.21875 256.703125,23.21875 C254.630198,23.21875 253.00261,22.6927136 251.820312,21.640625 C250.638015,20.5885364 250.046875,19.2500081 250.046875,17.625 L250.046875,17.625 Z M254.46875,13.46875 C255.385421,13.5520838 256.151039,13.59375 256.765625,13.59375 C258.088548,13.59375 258.75,12.9974018 258.75,11.8046875 C258.75,10.6119732 258.109381,10.015625 256.828125,10.015625 C256.057288,10.015625 255.471356,10.200519 255.070312,10.5703125 C254.669269,10.940106 254.46875,11.4479134 254.46875,12.09375 L254.46875,13.46875 Z M265.1875,21.265625 C265.1875,20.6093717 265.411456,20.0989602 265.859375,19.734375 C266.307294,19.3697898 266.796872,19.2447911 267.328125,19.359375 C267.536459,19.4010419 267.677083,19.421875 267.75,19.421875 C268.239586,19.421875 268.526041,18.8125061 268.609375,17.59375 L269.4375,8.765625 C269.479167,8.25520578 269.671873,7.80729359 270.015625,7.421875 C270.359377,7.03645641 270.786456,6.84375 271.296875,6.84375 L279.296875,6.84375 C279.953128,6.84375 280.43229,7.05728953 280.734375,7.484375 C281.03646,7.91146047 281.1875,8.35937266 281.1875,8.828125 L281.1875,21.234375 C281.1875,21.7864611 280.97396,22.2552064 280.546875,22.640625 C280.11979,23.0260436 279.596357,23.21875 278.976562,23.21875 C278.356768,23.21875 277.833335,23.0286477 277.40625,22.6484375 C276.979165,22.2682273 276.765625,21.7968778 276.765625,21.234375 L276.765625,10.453125 L273.5,10.453125 L272.890625,17.53125 C272.52604,21.2604353 270.927097,23.125 268.09375,23.125 C266.15624,23.125 265.1875,22.5052145 265.1875,21.265625 L265.1875,21.265625 Z M285.203125,21.015625 L285.203125,8.625 C285.203125,8.09374734 285.416665,7.63802273 285.84375,7.2578125 C286.270835,6.87760227 286.794268,6.6875 287.414062,6.6875 C288.033857,6.6875 288.55729,6.87760227 288.984375,7.2578125 C289.41146,7.63802273 289.625,8.09374734 289.625,8.625 L289.625,12.734375 L292.25,12.734375 C296.500021,12.734375 298.619792,14.4687327 298.609375,17.9375 C298.609375,19.5000078 298.104172,20.7343705 297.09375,21.640625 C296.083328,22.5468795 294.604176,23 292.65625,23 L287.40625,23 C286.791664,23 286.270835,22.8020853 285.84375,22.40625 C285.416665,22.0104147 285.203125,21.5468777 285.203125,21.015625 L285.203125,21.015625 Z M289.625,19.359375 L292.59375,19.359375 C293.677089,19.359375 294.221354,18.8567759 294.226562,17.8515625 C294.231771,16.8463491 293.572923,16.34375 292.25,16.34375 L289.625,16.34375 L289.625,19.359375 Z M301.21875,17.625 L301.21875,12.28125 C301.21875,10.5937416 301.817702,9.22135945 303.015625,8.1640625 C304.213548,7.10676555 305.885406,6.578125 308.03125,6.578125 C310.083344,6.578125 311.643224,7.07030758 312.710938,8.0546875 C313.778651,9.03906742 314.3125,10.364575 314.3125,12.03125 C314.302083,15.2708495 312.229187,16.890625 308.09375,16.890625 C307.36458,16.890625 306.54688,16.8281256 305.640625,16.703125 L305.640625,17.75 C305.640625,18.9479227 306.494783,19.546875 308.203125,19.546875 C309.057296,19.546875 310.01562,19.3125023 311.078125,18.84375 C311.338543,18.7187494 311.656248,18.6510417 312.03125,18.640625 C312.739587,18.640625 313.247394,18.8229148 313.554688,19.1875 C313.861981,19.5520852 314.015625,19.9583311 314.015625,20.40625 C314.015625,20.9375027 313.796877,21.3958314 313.359375,21.78125 C312.921873,22.1666686 312.367191,22.4609365 311.695312,22.6640625 C311.023434,22.8671885 310.367191,23.0104162 309.726562,23.09375 C309.085934,23.1770838 308.468753,23.21875 307.875,23.21875 C305.802073,23.21875 304.174485,22.6927136 302.992188,21.640625 C301.80989,20.5885364 301.21875,19.2500081 301.21875,17.625 L301.21875,17.625 Z M305.640625,13.46875 C306.557296,13.5520838 307.322914,13.59375 307.9375,13.59375 C309.260423,13.59375 309.921875,12.9974018 309.921875,11.8046875 C309.921875,10.6119732 309.281256,10.015625 308,10.015625 C307.229163,10.015625 306.643231,10.200519 306.242188,10.5703125 C305.841144,10.940106 305.640625,11.4479134 305.640625,12.09375 L305.640625,13.46875 Z M316.921875,20.7890625 C316.921875,20.1067674 317.184893,19.5260441 317.710938,19.046875 C318.236982,18.5677059 318.869788,18.328125 319.609375,18.328125 C320.338545,18.328125 320.963539,18.5755184 321.484375,19.0703125 C322.005211,19.5651066 322.265625,20.1406217 322.265625,20.796875 C322.265625,21.4843784 322.005211,22.0703101 321.484375,22.5546875 C320.963539,23.0390649 320.338545,23.28125 319.609375,23.28125 C318.859371,23.28125 318.223961,23.0364608 317.703125,22.546875 C317.182289,22.0572892 316.921875,21.4713576 316.921875,20.7890625 L316.921875,20.7890625 Z M317.3125,2.234375 C317.3125,1.68228891 317.531248,1.19791875 317.96875,0.78125 C318.406252,0.36458125 318.932289,0.15625 319.546875,0.15625 C320.140628,0.15625 320.66406,0.36458125 321.117188,0.78125 C321.570315,1.19791875 321.796875,1.68228891 321.796875,2.234375 L321.46875,15.703125 C321.447917,16.1718773 321.244794,16.5885398 320.859375,16.953125 C320.473956,17.3177102 320.036461,17.5 319.546875,17.5 C319.015622,17.5 318.565106,17.3229184 318.195312,16.96875 C317.825519,16.6145816 317.640625,16.1927108 317.640625,15.703125 L317.3125,2.234375 Z" id="Type-something" fill="#8D5BB4" sketch:type="MSShapeGroup"></path>
    </g>
</svg>