<?xml version="1.0" encoding="utf-8"?>
<!-- Generator: Adobe Illustrator 16.0.0, SVG Export Plug-In . SVG Version: 6.00 Build 0)  -->
<!DOCTYPE svg PUBLIC "-//W3C//DTD SVG 1.1//EN" "http://www.w3.org/Graphics/SVG/1.1/DTD/svg11.dtd">
<svg version="1.1" id="Layer_1" xmlns="http://www.w3.org/2000/svg" xmlns:xlink="http://www.w3.org/1999/xlink" x="0px" y="0px"
	 width="40px" height="40px" viewBox="0 0 40 40" enable-background="new 0 0 40 40" xml:space="preserve">
<g>
	<g>
		<g>
			
				<line fill="none" stroke="#A6C3FD" stroke-width="6" stroke-linecap="round" stroke-miterlimit="10" x1="3" y1="3" x2="37" y2="3"/>
			
				<line fill="none" stroke="#FEB737" stroke-width="6" stroke-linecap="round" stroke-miterlimit="10" x1="3" y1="37" x2="37" y2="37"/>
			
				<line fill="none" stroke="#E191E5" stroke-width="6" stroke-linecap="round" stroke-miterlimit="10" x1="3" y1="37" x2="3" y2="3"/>
			
				<line fill="none" stroke="#8D5BB4" stroke-width="6" stroke-linecap="round" stroke-miterlimit="10" x1="37" y1="37" x2="37" y2="3"/>
			
				<line fill="none" stroke="#A6C3FD" stroke-width="6" stroke-linecap="round" stroke-miterlimit="10" x1="19" y1="3" x2="37" y2="3"/>
		</g>
		
			<line fill="none" stroke="#FEB737" stroke-width="6" stroke-linecap="round" stroke-miterlimit="10" x1="3" y1="37" x2="19" y2="37"/>
	</g>
	<g>
		<g>
			<path fill-rule="evenodd" clip-rule="evenodd" fill="#8D5BB4" d="M30.842,24.148c-0.705-0.845-1.532-1.565-2.316-2.329
				c-0.707-0.69-0.752-1.09-0.184-1.887c0.621-0.869,1.287-1.704,1.914-2.568c0.585-0.81,1.182-1.616,1.489-2.583
				c0.194-0.614,0.022-0.888-0.609-0.996c-0.11-0.019-0.221-0.019-0.332-0.019l-3.746-0.005c-0.461-0.007-0.717,0.194-0.878,0.604
				c-0.223,0.553-0.45,1.105-0.712,1.638c-0.595,1.209-1.26,2.379-2.192,3.368c-0.205,0.218-0.432,0.494-0.776,0.38
				c-0.43-0.156-0.555-0.865-0.55-1.104l-0.004-4.324c-0.082-0.617-0.219-0.894-0.833-1.013l-3.892,0.001
				c-0.518,0-0.779,0.2-1.057,0.525c-0.161,0.188-0.209,0.311,0.12,0.373c0.646,0.123,1.01,0.54,1.108,1.188
				c0.153,1.035,0.143,2.073,0.054,3.111c-0.026,0.304-0.078,0.607-0.199,0.89c-0.188,0.446-0.492,0.535-0.889,0.262
				c-0.364-0.248-0.618-0.597-0.866-0.95c-0.933-1.317-1.679-2.74-2.284-4.234c-0.176-0.433-0.479-0.694-0.936-0.7
				c-1.123-0.018-2.248-0.021-3.372,0c-0.677,0.013-0.878,0.341-0.602,0.955c1.224,2.723,2.586,5.371,4.363,7.781
				c0.915,1.238,1.963,2.331,3.317,3.105c1.534,0.877,3.187,1.141,4.927,1.06c0.815-0.038,1.06-0.25,1.097-1.063
				c0.026-0.555,0.09-1.108,0.364-1.607c0.269-0.49,0.677-0.583,1.146-0.278c0.233,0.153,0.432,0.346,0.619,0.551
				c0.459,0.502,0.9,1.02,1.377,1.504c0.597,0.607,1.305,0.966,2.193,0.893h3.444c0.555-0.035,0.841-0.716,0.523-1.335
				C31.448,24.907,31.152,24.521,30.842,24.148L30.842,24.148z M30.842,24.148"/>
		</g>
	</g>
</g>
</svg>
