<?xml version="1.0" encoding="utf-8"?>
<!-- Generator: Adobe Illustrator 18.0.0, SVG Export Plug-In . SVG Version: 6.00 Build 0)  -->
<!DOCTYPE svg PUBLIC "-//W3C//DTD SVG 1.1//EN" "http://www.w3.org/Graphics/SVG/1.1/DTD/svg11.dtd">
<svg version="1.1" id="Layer_1" xmlns="http://www.w3.org/2000/svg" xmlns:xlink="http://www.w3.org/1999/xlink" x="0px" y="0px"
	 viewBox="0 0 960 560" enable-background="new 0 0 960 560" xml:space="preserve">
<path fill="#674089" d="M593.9,273.6c-0.6-0.9-1.7-0.9-2.5-0.4c0.1,4.6-0.9,9.3-3,13.7c-2.6,5.6-8.8,8.7-14.7,7.1
	c0,0.1-0.1,0.1-0.1,0.2c-0.4,0.1-0.8,0.2-1.1,0.6c-5.5,6.3,11,40,16.6,35.4C602.2,319.4,602.4,286.9,593.9,273.6z"/>
<path fill="#674089" d="M523.5,472.9c6-3.2,7.3-10.1,5-15.6c0.5-2.7,0.2-5.7,0.3-7.4c0.6-9.5,3.7-18.8,7.8-27.4c1.5-3,3.2-5.9,5-8.6
	c7.4-9.6,17.5-16.6,27.5-23.7c4.1-2.1,7.5-5.4,10.3-9.1c2-2.6,3.3-5.7,4.4-8.8l0-0.1c0.1-0.3,0.2-0.5,0.3-0.8c0.2-0.5,0.4-1,0.6-1.5
	c0.3-0.9,0.5-1.7,0.7-2.6c5.7-25.3-15.4-49.8-42.8-50.3c-6.7-0.1-12.9,1.2-18.5,3.5c-10.5,3.1-19.6,9.4-26.5,18.6
	c-0.2,0.2-0.4,0.5-0.5,0.8c-11.2,12.7-16.3,31.9-11.8,48.2c2.1,13.7,7.6,27.7,12.8,39.6c4.2,9.7,9.7,18.8,15.6,27.4
	c1.7,2.5,3.4,4.8,5.6,6.1c-2.5,2.3-4.8,5-4.5,8.2C515.1,474.2,519.9,474.8,523.5,472.9z"/>
<path fill="#674089" d="M503.7,453.6c-0.1-0.3-0.3-0.6-0.4-0.9c0.1-0.1,0.2-0.1,0.2-0.2c-1.5-5.3-2.7-10.8-3.7-16.3
	c-1.9-7.2-3.7-14.4-5.2-21.8c-2.8-14-3.1-28.5-5-42.6c-2.4-18.9-8.6-40.6-27.8-48.5c-1.1-0.5-2.3-0.8-3.5-1.1
	c-10.4-3.9-22.3-3-32.8,3.4c-3.9,2.3-6.8,5.2-9,8.4c-5.8,5.8-8.5,14.3-8.1,22.6c0.2,4.2,1.2,8.1,2.9,11.7c1.4,4.5,3.6,8.8,6.3,12.5
	c5.1,8.6,12.3,16,19,23.3c17.8,19.4,38,36.6,59.6,51.7c-2.6,5.6-6.1,14.4,1.5,16.4C506.5,474.7,505.1,457.9,503.7,453.6z"/>
<path fill="#8E5BB4" d="M562.2,265.3c-14.3-12.7-28-23.1-37.7-39.9c-10.3-17.7-20.4-37.1-22.6-57.8c-2.2-21.4,0-43.1-6.3-64
	C492,91.4,481.1,81,469.3,78.8c-1-0.2-2-0.4-3-0.4c-62.4-3.1-72.6,77.9-78.6,123c-4,30-4.9,59.5-0.8,89.5
	c3.6,27,12.8,56.7,28.7,79.1c15.5,21.9,42.9,34.4,68.5,40.1c26,5.7,54.3,2.2,76-13.9c20.7-15.4,32.6-38.2,33.9-63.8
	C595.3,305.8,581.4,282.3,562.2,265.3z"/>
<path fill="#674089" d="M455.3,54.6c-0.9-0.6-2.2-0.5-3.1,0.2c-9.7,8-4.3,21.1,5.9,25.3c2.1,0.9,10.4,2.6,9-2.5
	c-0.9-3.2-2.9-6.2-4.3-9.2c-2.1-4.2-4.2-8.5-6.3-12.7C456.1,55.1,455.7,54.8,455.3,54.6z"/>
<path fill="#674089" d="M498.2,68.1c1.2,0,2.3,0.8,2.6,2c3.4,12.3-10,20.3-21.7,17.9c-2.4-0.5-11-3.9-6.4-7.3
	c2.9-2.2,6.6-3.6,9.9-5.2c4.6-2.4,9.3-4.7,13.9-7.1C497.1,68.1,497.7,68.1,498.2,68.1z"/>
<g>
	<path fill="#674089" d="M478.9,118.1c-1.4-6.6-9-9.5-14.5-5.5c-1.6,1.2,0,3.8,1.6,2.7c3.9-2.9,8.9-1.1,9.9,3.6
		C476.4,120.9,479.4,120,478.9,118.1z"/>
	<path fill="#674089" d="M445.1,106c-1.3-5.9-8.1-8.6-13-4.9c-1.4,1.1,0,3.5,1.4,2.4c3.5-2.6,8-1,8.9,3.3
		C442.8,108.5,445.5,107.8,445.1,106z"/>
</g>
<g>
	<path fill="#8E5BB4" d="M561.5,266.3c-14.3-12.7-28-23.1-37.7-39.9c-10.3-17.7-20.4-37.1-22.6-57.8c-2.2-21.4,0-43.1-6.3-64
		c-3.6-12.2-14.5-22.6-26.2-24.8c-1-0.2-2-0.4-3-0.4c-62.4-3.1-72.6,77.9-78.6,123c-4,30-4.9,59.5-0.8,89.5
		c3.6,27,12.8,56.7,28.7,79.1c15.5,21.9,42.9,34.4,68.5,40.1c26,5.7,54.3,2.2,76-13.9c20.7-15.4,32.6-38.2,33.9-63.8
		C594.7,306.8,580.8,283.3,561.5,266.3z"/>
	<path fill="#674089" d="M564.1,266.5c-14.5-12.9-28.3-23.4-38.2-40.4c-10.4-18-20.7-37.5-22.9-58.5c-2.2-21.7,0-43.6-6.3-64.8
		C493,90.5,482,79.9,470.1,77.7c-1-0.2-2-0.4-3.1-0.4c-11.6-0.6-21.3,1.7-29.7,6.1c0.3,0,0.6-0.1,0.9-0.1
		c-10.4,5.3-18.7,13.6-25,23.7c8.1,1.8,28.8,10,37,15.4c-16.7-11.1-23-15.1-21.6-22.6c2-10.3,10.4-15.4,21.6-18.4
		c6.2-0.8,12.4-0.6,20.9,4.2c21,12,25,34.8,23.1,55.5c-1.8,19.8-9.6,39.3-9.3,59.2c0.3,21.1,17.3,32.1,34,41.6
		c19.3,10.9,36.7,22.1,44.3,44.1c11.5,33.2,2.2,77.7-32.7,92.7c-23.8,10.2-50.3,11.2-74.2,3.3c-18.7-8.4-30.4-20.5-39.8-32.9
		c-10.1-13.5-15.1-28.4-20.2-45.7c-2.4-7.8-4.4-15.5-5.6-23.5c-1.8-7.9-2.4-16.1-3-24.3c-0.5-6.4-0.9-12.6-0.8-18.9
		c-1.6-16.8,0.5-34.2,3.5-50.6l-1.4-0.1c0,0.2-0.4,4.4-0.4,4.6c-0.3,3.6-1.5,9.3-2.1,13.8c-4.1,30.3-4.2,58.4-0.1,88.8
		c3.7,27.4,13,57.4,29,80.1c8.5,12,20.5,21.2,33.8,28c0.1-0.3,0.1-0.6,0.2-0.8c11.3,5.8,23.5,9.8,35.3,12.4
		c26.3,5.8,55,2.3,76.9-14.1c20.9-15.6,33-38.6,34.4-64.6C597.6,307.5,583.5,283.8,564.1,266.5z"/>
</g>
<path fill="#674089" d="M388.1,187.2"/>
<path fill="#A775D3" d="M427.5,294c15-9.2,32.3-13.2,49-13.4c12.3-0.2,27.5,3.6,34.5,17.3c7.6,14.4,2.1,34.7-7.3,46.4
	c-10.5,13-28.2,18.8-42.5,19c-15.6,0.2-31.7-7-43.1-19.7C403.8,327.4,412.5,303.2,427.5,294z"/>
<path fill="#674089" d="M446.9,301.8c1.8-1,3.8-1.4,5.8-1.4c1.5,0,3.3,0.4,4.1,1.8c0.9,1.5,0.3,3.7-0.9,4.9c-1.2,1.4-3.3,2-5,2
	c-1.9,0-3.8-0.7-5.1-2.1C444.1,305.3,445.2,302.8,446.9,301.8z"/>
<g>
	<path fill="#674089" d="M480.3,117.2c-1.4-6.6-9-9.5-14.5-5.5c-1.6,1.2,0,3.8,1.6,2.7c3.9-2.9,8.9-1.1,9.9,3.6
		C477.7,119.9,480.7,119.1,480.3,117.2z"/>
	<path fill="#674089" d="M446.4,105.1c-1.3-5.9-8.1-8.6-13-4.9c-1.4,1.1,0,3.5,1.4,2.4c3.5-2.6,8-1,8.9,3.3
		C444.2,107.6,446.8,106.8,446.4,105.1z"/>
</g>
<g>
	<path fill="#674089" d="M474.8,156.7c-0.6-4.3-3.2-8-7.1-10c-1.6-0.8-2.6,1.7-1,2.6c3,1.6,4.9,4.5,5.4,7.9
		C472.3,158.9,475.1,158.5,474.8,156.7z"/>
	<path fill="#674089" d="M450.4,194.7c-5.8,3.9-12.9,3.9-18.7,0c-1.5-1-2.9,1.4-1.4,2.4c6.5,4.4,15,4.4,21.5,0
		C453.3,196.1,451.9,193.7,450.4,194.7z"/>
</g>
<g>
	<g>
		<path fill="#674089" d="M427.8,228.2c-5.3,2.6-12.7,4.4-12.5-4.6c0.4-4.1,2.1-7.1,6.6-5.2c1.9,0.8,3.5,1.8,5.6,2.3
			c0.2,0.1,0.4,0.1,0.5,0.2c0.2,0.1,0.4,0.1,0.6,0.2c0.7,0.1,1.2-0.4,1.5-1c0,0,0,0,0,0c0.1-0.2,0.2-0.5,0.2-0.8
			c-0.2-2.2-1.8-4-2.7-5.1c-1-1.2-2.7-2.8-4.1-3.8c-2.4-1.7-4.9-2.6-7.6-3.3c-4.7-0.3-8.4-1.2-11.7,2.8c-3.6,4.4-4.4,18.7-3.3,22.2
			c0.6,2.1,1.6,5.1,4.4,6.5c3.4,1.9,7.5,0.9,10,0.5c4.9-0.7,13.9-3.8,14.3-9.7C429.6,228.5,428.7,227.8,427.8,228.2z"/>
		<path fill="#674089" d="M438.8,219l-2.2-0.2c-2.5-0.2-4.7,1.6-4.9,4.1l-0.4,4.4c-0.2,2.5,1.6,4.7,4.1,4.9l2.2,0.2
			c2.5,0.2,4.7-1.6,4.9-4.1l0.4-4.4C443.1,221.4,441.2,219.2,438.8,219z"/>
		<path fill="#674089" d="M472.2,216c-2.5-4.4-6.3-4.3-11-4.8c-2.8,0.2-5.4,0.6-8,1.9c-1.6,0.7-3.5,2-4.7,3c-1.1,0.9-3,2.4-3.6,4.5
			c-0.1,0.3-0.1,0.5,0,0.8c0,0,0,0,0,0c0.2,0.6,0.6,1.2,1.3,1.2c0.2,0,0.4,0,0.6-0.1c0.2,0,0.4,0,0.6-0.1c2.1-0.1,3.9-0.8,5.9-1.3
			c4.7-1,5.9,2.2,5.5,6.3c-1.4,8.9-8.4,5.8-13.1,2.3c-0.7-0.6-1.8,0-1.9,0.9c-0.7,5.8,7.6,10.5,12.3,12.1c2.3,0.8,6.2,2.5,9.9,1.3
			c2.9-1,4.5-3.7,5.4-5.7C473.2,235.2,475,221,472.2,216z"/>
	</g>
	<g>
		<path fill="#A7C3FE" d="M426.2,224.4c-5.3,2.6-12.7,4.4-12.5-4.6c0.4-4.1,2.1-7.1,6.6-5.2c1.9,0.8,3.5,1.8,5.6,2.3
			c0.2,0.1,0.4,0.1,0.5,0.2c0.2,0.1,0.4,0.1,0.6,0.2c0.7,0.1,1.2-0.4,1.5-1c0,0,0,0,0,0c0.1-0.2,0.2-0.5,0.2-0.8
			c-0.2-2.2-1.8-4-2.7-5.1c-1-1.2-2.7-2.8-4.1-3.8c-2.4-1.7-4.9-2.6-7.6-3.3c-4.7-0.3-8.4-1.2-11.7,2.8c-3.6,4.4-4.4,18.7-3.3,22.2
			c0.6,2.1,1.6,5.1,4.4,6.5c3.4,1.9,7.5,0.9,10,0.5c4.9-0.7,13.9-3.8,14.3-9.7C427.9,224.7,427,224,426.2,224.4z"/>
		<path fill="#A7C3FE" d="M437.1,215.2L435,215c-2.5-0.2-4.7,1.6-4.9,4.1l-0.4,4.4c-0.2,2.5,1.6,4.7,4.1,4.9l2.2,0.2
			c2.5,0.2,4.7-1.6,4.9-4.1l0.4-4.4C441.5,217.6,439.6,215.4,437.1,215.2z"/>
		<path fill="#A7C3FE" d="M470.6,212.2c-2.5-4.4-6.3-4.3-11-4.8c-2.8,0.2-5.4,0.6-8,1.9c-1.6,0.7-3.5,2-4.7,3
			c-1.1,0.9-3,2.4-3.6,4.5c-0.1,0.3-0.1,0.5,0,0.8c0,0,0,0,0,0c0.2,0.6,0.6,1.2,1.3,1.2c0.2,0,0.4,0,0.6-0.1c0.2,0,0.4,0,0.6-0.1
			c2.1-0.1,3.9-0.8,5.9-1.3c4.7-1,5.9,2.2,5.5,6.3c-1.4,8.9-8.4,5.8-13.1,2.3c-0.7-0.6-1.8,0-1.9,0.9c-0.7,5.8,7.6,10.5,12.3,12.1
			c2.3,0.8,6.2,2.5,9.9,1.3c2.9-1,4.5-3.7,5.4-5.7C471.6,231.4,473.4,217.2,470.6,212.2z"/>
	</g>
</g>
<path fill="#674089" d="M478.4,175c-1.7-2.1-5.2-5-7.9-3.2c-2.9,1.9-0.8,6.5,0.4,8.8c0.2,0.3,0.3,0.6,0.5,0.8c-2,0.2-3.9,1-5.5,2.9
	c-1.1,1.2-1,3.7,0.8,4.3c3.4,1.3,6.9,1.6,10.3,0.5c0.7,11,0.8,22.7,4.8,33c3.2,8.3,13.6,14.3,22.3,10.7c9.3-3.8,12.8-13.5,8.3-22.4
	c-2.3-4.6-7.1-7.8-10.9-11l-18.2-15.1c1.8-1.6,3.2-3.4,3.8-5.9c0.5-2.4-0.4-5.4-2.7-6.4C481.6,170.8,479.7,173.1,478.4,175z"/>
<path fill="#8E5BB4" d="M452.8,120.9c-15.9-14.2-36.1-23.8-56.5-29.5c-15-4.3-34.6-5.5-46.9,5.9c-13.2,11.9-11.9,33.9-3.4,48.6
	c9.4,16.4,29.5,28,47,32.9c19.1,5.3,40.7,3.5,58-5.5C472.9,161.9,468.7,135,452.8,120.9z"/>
<path fill="#674089" d="M461.8,162.7c-0.2-0.8-1.4-1.5-2.1-1c-2.1,1.6-3.3,4.3-5.2,6.3c-2.9,3-6.5,5.3-10.4,6.8
	c-17.7,6.6-38.8,5.9-56-0.6c-13.7-5.2-24.5-11.1-36.3-29.2c-12.3-23.6-2.4-40.2,8.2-46.7c18.1-10.3,51-0.6,68.9,8.5
	c11.1,5.7,21.3,12.9,30.5,21.2c-1.9-2.7-4.1-5.3-6.5-7.5C437,106.3,416.8,96.8,396.5,91c-15-4.3-34.6-5.5-46.9,5.9
	c-4.3,3.9-7,8.8-8.5,14.2c-3.4,11.4-1,25,4.8,35.2c9.4,16.4,29.5,28,47,32.9c19.1,5.3,40.7,3.5,58-5.5c3.2-1.7,5.8-3.7,7.9-5.9
	c0.2,0.1,0.4,0.1,0.6-0.2C460.5,166.4,462.3,164.5,461.8,162.7z"/>
<path fill="#E192E5" d="M458.7,127.3c-1.6-1.9-5.4-4.6-6.9-5.8c-18.5-13.6-34-21.5-53-26.8c-14-4-32.3-5.2-43.7,5.5
	c-12.3,11.1-11.1,31.6-3.2,45.3c2.9,5.1,7,9.7,11.6,13.7c-10.5-14.8-12.1-43.1,4.8-52.1c15.3-12,48.6-3.4,60.8,2.4
	c17,8.3,25.5,17.6,27.9,19.4c0.6,0.7,1.6,1.4,2.3,0.5C459.9,128.6,459.4,127.8,458.7,127.3z"/>
<path fill="#E192E5" d="M381.5,106.4c-2.3-4-5.9-7.2-9.7-9.5C369,95.2,365,94,361.6,96c-3.6,2.1-4.8,7.2-4.1,11
	c0.8,4.2,4.2,7.8,7.5,9.8c3.6,2.1,8.2,2.7,12.4,1.5C382.8,116.7,383.8,110.4,381.5,106.4z"/>
<path fill="#674089" d="M381,103.3c-2-3-4.9-5.5-8-7.4c-2.3-1.4-5.5-2.4-8-1.1c-2.7,1.4-3.5,5.1-2.7,7.9c0.8,3.1,3.6,5.9,6.3,7.5
	c2.9,1.7,6.6,2.4,9.8,1.7C382.5,111,383,106.3,381,103.3z"/>
<path fill="#A775D3" d="M376.9,103.7c-1.1-1.7-2.7-3-4.4-4c-1.2-0.7-3-1.3-4.3-0.6c-1.5,0.8-1.9,2.8-1.5,4.3c0.5,1.7,2,3.2,3.4,4.1
	c1.6,0.9,3.6,1.3,5.3,0.9C377.7,107.8,378,105.3,376.9,103.7z"/>
<path fill="#E192E5" d="M429.6,127.3c4.1-1,8.3-0.7,12.3,0.3c2.9,0.7,6.3,2.5,7.1,5.8c1,3.5-1.4,7.4-4.3,9.2c-3.2,2-7.7,2.1-11,1.3
	c-3.7-0.9-7.1-3.5-9-6.8C422.2,132.8,425.6,128.3,429.6,127.3z"/>
<path fill="#674089" d="M431.5,125.2c3.3-0.8,6.8-0.6,10,0.2c2.4,0.6,5.1,2,5.8,4.7c0.8,2.9-1.2,6-3.5,7.5c-2.6,1.7-6.3,1.8-9,1
	c-3-0.8-5.8-2.8-7.4-5.6C425.4,129.6,428.2,126,431.5,125.2z"/>
<g>
	<g>
		<g>
			<path fill="#A775D3" d="M434.2,128.5c1.8-0.4,3.7-0.3,5.4,0.1c1.3,0.3,2.8,1.1,3.1,2.6c0.4,1.5-0.6,3.3-1.9,4.1
				c-1.4,0.9-3.4,0.9-4.9,0.6c-1.6-0.4-3.1-1.5-4-3C430.9,130.9,432.4,128.9,434.2,128.5z"/>
		</g>
	</g>
</g>
<g>
	<path fill="#674089" d="M441.1,187.5c-6.4-4.7-10.6-11.2-13.1-18.1c-1.8-5-2.2-11.9,3.2-16.9c5.6-5.4,15.8-6.3,22.5-4.3
		c7.5,2.3,12.7,8.7,14.7,14.5c2.3,6.4,1.2,14.1-3.1,20.8C459.9,192,447.5,192.2,441.1,187.5z"/>
	<path fill="#E27FEA" d="M442.6,183.3c-5.2-3.9-8.7-9.2-10.7-14.9c-1.5-4.1-1.8-9.8,2.6-13.9c4.6-4.4,13-5.2,18.5-3.5
		c6.1,1.9,10.4,7.1,12.1,11.9c1.9,5.3,1,11.6-2.6,17.1C458,187.1,447.8,187.2,442.6,183.3z"/>
	<path fill="#472272" d="M446.8,166.1c0.2,0.2,0.4,0.4,0.5,0.7c0.9-4.1,4-7.6,9.3-7.6c5.1,0,8.2,3.2,9.2,7c0,0,0.1,0,0.1,0.1
		c-0.2-1.1-0.4-2.2-0.7-3.2c-1.7-4.9-6-10.2-12.3-12.1c-5.6-1.7-14-0.9-18.7,3.5c-4.1,3.8-4.2,8.9-3,13c1.8-2.7,4.8-4.5,8.2-4.4
		C442.2,163.2,444.8,164.1,446.8,166.1z"/>
</g>
<path fill="#674089" d="M396.4,190.2c0.4-2.2,0.3-5.9-2.3-6.7c-2.7-0.8-4.5,3-5.3,5c-0.1,0.3-0.2,0.5-0.2,0.8
	c-1.2-1.2-2.7-1.9-4.7-1.9c-1.3,0-2.8,1.4-2.3,2.8c1,2.8,2.7,5.2,5.2,6.7c-6.6,6.4-13.9,12.7-18.2,20.7c-3.5,6.5-1.7,16.2,5.2,19.8
	c7.4,3.8,15.4,0.8,18.5-6.8c1.6-3.9,1.1-8.7,1-12.8l-0.2-19.5c2,0.2,3.9,0.2,5.7-0.8c1.8-0.9,3.1-3.2,2.6-5.2
	C400.8,189.9,398.3,190,396.4,190.2z"/>
</svg>
