<?xml version="1.0" encoding="utf-8"?>
<!-- Generator: Adobe Illustrator 18.0.0, SVG Export Plug-In . SVG Version: 6.00 Build 0)  -->
<!DOCTYPE svg PUBLIC "-//W3C//DTD SVG 1.1//EN" "http://www.w3.org/Graphics/SVG/1.1/DTD/svg11.dtd">
<svg version="1.1" id="Layer_1" xmlns="http://www.w3.org/2000/svg" xmlns:xlink="http://www.w3.org/1999/xlink" x="0px" y="0px"
	 viewBox="0 0 960 560" enable-background="new 0 0 960 560" xml:space="preserve">
<path fill="#674089" d="M358.6,249.9c-1.1,2-2.2,5.5,0.1,7.1c2.3,1.6,5.3-1.4,6.6-3.1c0.2-0.2,0.3-0.4,0.5-0.7
	c0.8,1.5,2,2.7,3.9,3.3c1.3,0.4,3.1-0.4,3.1-1.9c-0.1-3-1-5.8-2.9-8c8.2-4,17.1-7.7,23.8-14c5.3-5.1,6.7-14.9,1.2-20.4
	c-5.9-5.9-14.3-5.5-19.7,0.7c-2.8,3.2-3.8,7.9-5,11.8l-5.9,18.6c-1.8-0.8-3.6-1.4-5.7-1c-2,0.3-4,2-4.1,4.1
	C354.3,248.7,356.7,249.5,358.6,249.9z"/>
<path fill="#674089" d="M523.5,472.9c6-3.2,7.3-10.1,5-15.6c0.5-2.7,0.2-5.7,0.3-7.4c0.6-9.5,3.7-18.8,7.8-27.4c1.5-3,3.2-5.9,5-8.6
	c7.4-9.6,17.5-16.6,27.5-23.7c4.1-2.1,7.5-5.4,10.3-9.1c2-2.6,3.3-5.7,4.4-8.8l0-0.1c0.1-0.3,0.2-0.5,0.3-0.8c0.2-0.5,0.4-1,0.6-1.5
	c0.3-0.9,0.5-1.7,0.7-2.6c5.7-25.3-15.4-49.8-42.8-50.3c-6.7-0.1-12.9,1.2-18.5,3.5c-10.5,3.1-19.6,9.4-26.5,18.6
	c-0.2,0.2-0.4,0.5-0.5,0.8c-11.2,12.7-16.3,31.9-11.8,48.2c2.1,13.7,7.6,27.7,12.8,39.6c4.2,9.7,9.7,18.8,15.6,27.4
	c1.7,2.5,3.4,4.8,5.6,6.1c-2.5,2.3-4.8,5-4.5,8.2C515.1,474.2,519.9,474.8,523.5,472.9z"/>
<path fill="#674089" d="M503.7,453.6c-0.1-0.3-0.3-0.6-0.4-0.9c0.1-0.1,0.2-0.1,0.2-0.2c-1.5-5.3-2.7-10.8-3.7-16.3
	c-1.9-7.2-3.7-14.4-5.2-21.8c-2.8-14-3.1-28.5-5-42.6c-2.4-18.9-8.6-40.6-27.8-48.5c-1.1-0.5-2.3-0.8-3.5-1.1
	c-10.4-3.9-22.3-3-32.8,3.4c-3.9,2.3-6.8,5.2-9,8.4c-5.8,5.8-8.5,14.3-8.1,22.6c0.2,4.2,1.2,8.1,2.9,11.7c1.4,4.5,3.6,8.8,6.3,12.5
	c5.1,8.6,12.3,16,19,23.3c17.8,19.4,38,36.6,59.6,51.7c-2.6,5.6-6.1,14.4,1.5,16.4C506.5,474.7,505.1,457.9,503.7,453.6z"/>
<path fill="#8E5BB4" d="M562.2,265.3c-14.3-12.7-28-23.1-37.7-39.9c-10.3-17.7-20.4-37.1-22.6-57.8c-2.2-21.4,0-43.1-6.3-64
	C492,91.4,481.1,81,469.3,78.8c-1-0.2-2-0.4-3-0.4c-62.4-3.1-72.6,77.9-78.6,123c-4,30-4.9,59.5-0.8,89.5
	c3.6,27,12.8,56.7,28.7,79.1c15.5,21.9,42.9,34.4,68.5,40.1c26,5.7,54.3,2.2,76-13.9c20.7-15.4,32.6-38.2,33.9-63.8
	C595.3,305.8,581.4,282.3,562.2,265.3z"/>
<path fill="#674089" d="M476.8,54.3c-0.2-1.1-1.2-1.9-2.4-2c-12.5-0.8-17.6,12.5-13,22.5c0.9,2,5.9,9,8.3,4.3
	c1.5-2.9,2.2-6.5,3.1-9.7c1.4-4.5,2.7-9,4.1-13.6C477.1,55.3,477,54.7,476.8,54.3z"/>
<path fill="#674089" d="M489.7,58.3c0.9-0.8,2.2-0.9,3.3-0.3c10.8,6.9,6.2,21.8-4.2,27.9c-2.1,1.2-10.7,4.5-9.6-1.2
	c0.7-3.5,2.5-7.1,3.8-10.5c1.9-4.9,3.7-9.7,5.6-14.6C488.8,59,489.2,58.6,489.7,58.3z"/>
<g>
	<path fill="#674089" d="M478.9,118.1c-1.4-6.6-9-9.5-14.5-5.5c-1.6,1.2,0,3.8,1.6,2.7c3.9-2.9,8.9-1.1,9.9,3.6
		C476.4,120.9,479.4,120,478.9,118.1z"/>
	<path fill="#674089" d="M445.1,106c-1.3-5.9-8.1-8.6-13-4.9c-1.4,1.1,0,3.5,1.4,2.4c3.5-2.6,8-1,8.9,3.3
		C442.8,108.5,445.5,107.8,445.1,106z"/>
</g>
<g>
	<path fill="#8E5BB4" d="M561.5,266.3c-14.3-12.7-28-23.1-37.7-39.9c-10.3-17.7-20.4-37.1-22.6-57.8c-2.2-21.4,0-43.1-6.3-64
		c-3.6-12.2-14.5-22.6-26.2-24.8c-1-0.2-2-0.4-3-0.4c-62.4-3.1-72.6,77.9-78.6,123c-4,30-4.9,59.5-0.8,89.5
		c3.6,27,12.8,56.7,28.7,79.1c15.5,21.9,42.9,34.4,68.5,40.1c26,5.7,54.3,2.2,76-13.9c20.7-15.4,32.6-38.2,33.9-63.8
		C594.7,306.8,580.8,283.3,561.5,266.3z"/>
	<path fill="#674089" d="M564.1,266.5c-14.5-12.9-28.3-23.4-38.2-40.4c-10.4-18-20.7-37.5-22.9-58.5c-2.2-21.7,0-43.6-6.3-64.8
		C493,90.5,482,79.9,470.1,77.7c-1-0.2-2-0.4-3.1-0.4c-11.6-0.6-21.3,1.7-29.7,6.1c0.3,0,0.6-0.1,0.9-0.1
		c-10.4,5.3-18.7,13.6-25,23.7c8.1,1.8,28.8,10,37,15.4c-16.7-11.1-23-15.1-21.6-22.6c2-10.3,10.4-15.4,21.6-18.4
		c6.2-0.8,12.4-0.6,20.9,4.2c21,12,25,34.8,23.1,55.5c-1.8,19.8-9.6,39.3-9.3,59.2c0.3,21.1,17.3,32.1,34,41.6
		c19.3,10.9,36.7,22.1,44.3,44.1c11.5,33.2,2.2,77.7-32.7,92.7c-23.8,10.2-50.3,11.2-74.2,3.3c-18.7-8.4-30.4-20.5-39.8-32.9
		c-10.1-13.5-15.1-28.4-20.2-45.7c-2.4-7.8-4.4-15.5-5.6-23.5c-1.8-7.9-2.4-16.1-3-24.3c-0.5-6.4-0.9-12.6-0.8-18.9
		c-1.6-16.8,0.5-34.2,3.5-50.6l-1.4-0.1c0,0.2-0.4,4.4-0.4,4.6c-0.3,3.6-1.5,9.3-2.1,13.8c-4.1,30.3-4.2,58.4-0.1,88.8
		c3.7,27.4,13,57.4,29,80.1c8.5,12,20.5,21.2,33.8,28c0.1-0.3,0.1-0.6,0.2-0.8c11.3,5.8,23.5,9.8,35.3,12.4
		c26.3,5.8,55,2.3,76.9-14.1c20.9-15.6,33-38.6,34.4-64.6C597.6,307.5,583.5,283.8,564.1,266.5z"/>
</g>
<path fill="#674089" d="M388.1,187.2"/>
<path fill="#A775D3" d="M427.5,294c15-9.2,32.3-13.2,49-13.4c12.3-0.2,27.5,3.6,34.5,17.3c7.6,14.4,2.1,34.7-7.3,46.4
	c-10.5,13-28.2,18.8-42.5,19c-15.6,0.2-31.7-7-43.1-19.7C403.8,327.4,412.5,303.2,427.5,294z"/>
<path fill="#674089" d="M446.9,306.8c1.8-1,3.8-1.4,5.8-1.4c1.5,0,3.3,0.4,4.1,1.8c0.9,1.5,0.3,3.7-0.9,4.9c-1.2,1.4-3.3,2-5,2
	c-1.9,0-3.8-0.7-5.1-2.1C444.1,310.3,445.2,307.8,446.9,306.8z"/>
<path fill="#674089" d="M597.2,274.7c-0.5-1-1.6-1.1-2.5-0.7c-0.4,4.6-2,9.2-4.6,13.3c-3.3,5.3-9.8,7.5-15.5,5.3
	c0,0-0.1,0.1-0.1,0.1c-0.4,0-0.8,0.1-1.2,0.5c-6.2,5.6,6.1,41.1,12.2,37.2C600,321.2,604.1,288.9,597.2,274.7z"/>
<g>
	<path fill="#674089" d="M461.7,156.3c-0.5-1.1-1.9-2.1-3.2-1.8c-0.1,0-0.2,0-0.3,0.1c-0.8,0.2-1.3,0.6-1.7,1.1
		c-0.7-0.6-1.6-0.8-2.5-0.8c-4.8,0.1-8.8,2.4-13.1,4.4c-6,2.8-12.2,3.7-18.5,5.3c-10.2,2.6-4.1,11.6,0.5,16c8,7.7,17.7,4.4,25.7-1.2
		c4-2.9,7.6-7,9.9-11.3C460.1,165.1,463.3,159.9,461.7,156.3z"/>
	<path fill="#E192E5" d="M458.9,155.6c-0.5-1-1.7-1.9-2.9-1.6c-0.1,0-0.2,0-0.2,0.1c-0.7,0.2-1.2,0.5-1.6,1
		c-0.6-0.5-1.5-0.8-2.3-0.8c-4.4,0.1-8.1,2.1-12,3.9c-5.4,2.5-11.2,3.3-16.9,4.7c-9.3,2.3-3.7,10.5,0.6,14.5c7.4,7,16.3,4.1,23.5-1
		c3.7-2.6,6.9-6.3,9-10.2C457.5,163.5,460.3,158.8,458.9,155.6z"/>
</g>
<g>
	<path fill="#8E5BB4" d="M441.5,117.7c-19.1-9.5-41-13.6-62.2-13.9c-15.6-0.2-34.9,3.7-43.7,17.8c-9.6,14.9-2.7,35.8,9.3,47.8
		c13.4,13.4,35.8,19.4,53.9,19.6c19.8,0.2,40.2-7.2,54.6-20.4C471.6,152.2,460.5,127.2,441.5,117.7z"/>
	<path fill="#674089" d="M461.1,155.8c-0.4-0.7-1.7-1.1-2.3-0.4c-1.6,2.1-2.1,5-3.4,7.4c-2,3.7-4.9,6.8-8.3,9.2
		c-15.4,11-35.9,15.8-54.3,14c-14.6-1.5-26.6-4.4-42.7-18.8c-18-19.6-12.7-38.2-4.2-47.2c14.8-14.7,49.1-13.9,68.8-9.7
		c12.2,2.6,23.9,6.9,34.9,12.5c-2.5-2.2-5.3-4-8.3-5.5c-19.1-9.5-41-13.6-62.2-13.9c-15.6-0.2-34.9,3.7-43.7,17.8
		c-3.1,4.8-4.5,10.3-4.5,15.9c-0.4,11.9,5.5,24.4,13.8,32.8c13.4,13.4,35.8,19.4,53.9,19.6c19.8,0.2,40.2-7.2,54.6-20.4
		c2.7-2.4,4.7-5,6.1-7.7c0.2,0,0.4,0,0.6-0.3C460.8,159.7,462,157.4,461.1,155.8z"/>
	<path fill="#E192E5" d="M448.9,122.4c-2-1.4-6.4-3.1-8.1-3.8c-21.4-8.3-38.4-11.9-58.2-12.2c-14.6-0.2-32.5,3.4-40.8,16.6
		c-9,13.9-2.5,33.4,8.7,44.6c4.1,4.1,9.2,7.5,14.8,10.2c-14-11.6-22.9-38.5-8.9-51.6c11.6-15.5,46.1-15.9,59.3-13.5
		c18.6,3.6,29.2,10.4,32,11.5c0.8,0.5,2,1,2.4-0.1C450.3,123.3,449.7,122.7,448.9,122.4z"/>
	<path fill="#E192E5" d="M362.8,129.9c-3.3-3.3-7.5-5.4-11.8-6.6c-3.2-0.9-7.3-1-10,1.8c-2.9,3-2.8,8.2-1.1,11.7
		c1.9,3.8,6.1,6.5,9.8,7.5c4,1.1,8.6,0.5,12.4-1.8C366.8,139.6,366.1,133.2,362.8,129.9z"/>
	<path fill="#674089" d="M362.1,129c-2.7-2.4-6.2-4.1-9.7-5c-2.6-0.7-5.9-0.9-8,1c-2.2,2-2,5.8-0.6,8.3c1.6,2.8,5.1,4.8,8.1,5.6
		c3.3,0.9,7,0.6,9.9-1C365.5,136,364.8,131.4,362.1,129z"/>
	<path fill="#A775D3" d="M358.2,130.4c-1.5-1.3-3.4-2.2-5.2-2.7c-1.4-0.4-3.2-0.5-4.3,0.6c-1.2,1.1-1.1,3.1-0.3,4.5
		c0.9,1.5,2.7,2.6,4.4,3c1.8,0.5,3.8,0.3,5.4-0.5C360.1,134.2,359.7,131.7,358.2,130.4z"/>
	<path fill="#E192E5" d="M415.2,139.6c3.7-2,7.9-2.8,11.9-2.9c3,0,6.7,0.8,8.4,3.7c1.8,3.1,0.5,7.5-1.8,10
		c-2.6,2.8-6.9,4.1-10.3,4.1c-3.8,0-7.7-1.5-10.5-4.3C409.5,146.8,411.6,141.6,415.2,139.6z"/>
	<path fill="#674089" d="M416.5,137c3-1.6,6.4-2.3,9.7-2.4c2.4,0,5.5,0.6,6.9,3.1c1.5,2.6,0.4,6.1-1.5,8.2c-2.1,2.3-5.6,3.3-8.4,3.4
		c-3.1,0-6.3-1.2-8.6-3.5C411.8,142.9,413.5,138.6,416.5,137z"/>
	<g>
		<g>
			<g>
				<path fill="#A775D3" d="M420,139.5c1.6-0.9,3.5-1.3,5.3-1.3c1.3,0,3,0.3,3.7,1.6c0.8,1.4,0.2,3.3-0.8,4.4
					c-1.1,1.2-3,1.8-4.6,1.8c-1.7,0-3.4-0.7-4.6-1.9C417.5,142.7,418.4,140.4,420,139.5z"/>
			</g>
		</g>
	</g>
</g>
<g>
	<path fill="#674089" d="M480.3,117.2c-1.4-6.6-9-9.5-14.5-5.5c-1.6,1.2,0,3.8,1.6,2.7c3.9-2.9,8.9-1.1,9.9,3.6
		C477.7,119.9,480.7,119.1,480.3,117.2z"/>
	<path fill="#674089" d="M446.4,105.1c-1.3-5.9-8.1-8.6-13-4.9c-1.4,1.1,0,3.5,1.4,2.4c3.5-2.6,8-1,8.9,3.3
		C444.2,107.6,446.8,106.8,446.4,105.1z"/>
</g>
<g>
	<path fill="#674089" d="M474.8,156.7c-0.6-4.3-3.2-8-7.1-10c-1.6-0.8-2.6,1.7-1,2.6c3,1.6,4.9,4.5,5.4,7.9
		C472.3,158.9,475.1,158.5,474.8,156.7z"/>
	<path fill="#674089" d="M450.4,194.7c-5.8,3.9-12.9,3.9-18.7,0c-1.5-1-2.9,1.4-1.4,2.4c6.5,4.4,15,4.4,21.5,0
		C453.3,196.1,451.9,193.7,450.4,194.7z"/>
</g>
<g>
	<g>
		<path fill="#674089" d="M427.8,228.2c-5.3,2.6-12.7,4.4-12.5-4.6c0.4-4.1,2.1-7.1,6.6-5.2c1.9,0.8,3.5,1.8,5.6,2.3
			c0.2,0.1,0.4,0.1,0.5,0.2c0.2,0.1,0.4,0.1,0.6,0.2c0.7,0.1,1.2-0.4,1.5-1c0,0,0,0,0,0c0.1-0.2,0.2-0.5,0.2-0.8
			c-0.2-2.2-1.8-4-2.7-5.1c-1-1.2-2.7-2.8-4.1-3.8c-2.4-1.7-4.9-2.6-7.6-3.3c-4.7-0.3-8.4-1.2-11.7,2.8c-3.6,4.4-4.4,18.7-3.3,22.2
			c0.6,2.1,1.6,5.1,4.4,6.5c3.4,1.9,7.5,0.9,10,0.5c4.9-0.7,13.9-3.8,14.3-9.7C429.6,228.5,428.7,227.8,427.8,228.2z"/>
		<path fill="#674089" d="M438.8,219l-2.2-0.2c-2.5-0.2-4.7,1.6-4.9,4.1l-0.4,4.4c-0.2,2.5,1.6,4.7,4.1,4.9l2.2,0.2
			c2.5,0.2,4.7-1.6,4.9-4.1l0.4-4.4C443.1,221.4,441.2,219.2,438.8,219z"/>
		<path fill="#674089" d="M472.2,216c-2.5-4.4-6.3-4.3-11-4.8c-2.8,0.2-5.4,0.6-8,1.9c-1.6,0.7-3.5,2-4.7,3c-1.1,0.9-3,2.4-3.6,4.5
			c-0.1,0.3-0.1,0.5,0,0.8c0,0,0,0,0,0c0.2,0.6,0.6,1.2,1.3,1.2c0.2,0,0.4,0,0.6-0.1c0.2,0,0.4,0,0.6-0.1c2.1-0.1,3.9-0.8,5.9-1.3
			c4.7-1,5.9,2.2,5.5,6.3c-1.4,8.9-8.4,5.8-13.1,2.3c-0.7-0.6-1.8,0-1.9,0.9c-0.7,5.8,7.6,10.5,12.3,12.1c2.3,0.8,6.2,2.5,9.9,1.3
			c2.9-1,4.5-3.7,5.4-5.7C473.2,235.2,475,221,472.2,216z"/>
	</g>
	<g>
		<path fill="#A7C3FE" d="M426.2,224.4c-5.3,2.6-12.7,4.4-12.5-4.6c0.4-4.1,2.1-7.1,6.6-5.2c1.9,0.8,3.5,1.8,5.6,2.3
			c0.2,0.1,0.4,0.1,0.5,0.2c0.2,0.1,0.4,0.1,0.6,0.2c0.7,0.1,1.2-0.4,1.5-1c0,0,0,0,0,0c0.1-0.2,0.2-0.5,0.2-0.8
			c-0.2-2.2-1.8-4-2.7-5.1c-1-1.2-2.7-2.8-4.1-3.8c-2.4-1.7-4.9-2.6-7.6-3.3c-4.7-0.3-8.4-1.2-11.7,2.8c-3.6,4.4-4.4,18.7-3.3,22.2
			c0.6,2.1,1.6,5.1,4.4,6.5c3.4,1.9,7.5,0.9,10,0.5c4.9-0.7,13.9-3.8,14.3-9.7C427.9,224.7,427,224,426.2,224.4z"/>
		<path fill="#A7C3FE" d="M437.1,215.2L435,215c-2.5-0.2-4.7,1.6-4.9,4.1l-0.4,4.4c-0.2,2.5,1.6,4.7,4.1,4.9l2.2,0.2
			c2.5,0.2,4.7-1.6,4.9-4.1l0.4-4.4C441.5,217.6,439.6,215.4,437.1,215.2z"/>
		<path fill="#A7C3FE" d="M470.6,212.2c-2.5-4.4-6.3-4.3-11-4.8c-2.8,0.2-5.4,0.6-8,1.9c-1.6,0.7-3.5,2-4.7,3
			c-1.1,0.9-3,2.4-3.6,4.5c-0.1,0.3-0.1,0.5,0,0.8c0,0,0,0,0,0c0.2,0.6,0.6,1.2,1.3,1.2c0.2,0,0.4,0,0.6-0.1c0.2,0,0.4,0,0.6-0.1
			c2.1-0.1,3.9-0.8,5.9-1.3c4.7-1,5.9,2.2,5.5,6.3c-1.4,8.9-8.4,5.8-13.1,2.3c-0.7-0.6-1.8,0-1.9,0.9c-0.7,5.8,7.6,10.5,12.3,12.1
			c2.3,0.8,6.2,2.5,9.9,1.3c2.9-1,4.5-3.7,5.4-5.7C471.6,231.4,473.4,217.2,470.6,212.2z"/>
	</g>
</g>
<path fill="#674089" d="M498.3,256.9c0.3,2.7,1.8,6.9,5.1,6.9c3.5-0.1,4.1-5.1,4.3-7.7c0-0.3,0-0.7,0-1c1.8,0.9,3.8,1.2,6.1,0.4
	c1.5-0.5,2.7-2.6,1.6-4.1c-2.2-2.9-5-5-8.5-5.8c5.2-9.8,11.3-19.7,13.3-30.6c1.6-8.7-4-19.3-13.3-20.8c-9.9-1.6-18,4.8-18.8,14.7
	c-0.4,5.1,1.9,10.4,3.5,15.1l7.5,22.4c-2.4,0.5-4.5,1.2-6.3,3.1c-1.7,1.7-2.5,4.8-1.1,6.9C493.4,258.8,496.2,257.8,498.3,256.9z"/>
</svg>
