<?xml version="1.0" encoding="utf-8"?>
<!-- Generator: Adobe Illustrator 16.0.0, SVG Export Plug-In . SVG Version: 6.00 Build 0)  -->
<!DOCTYPE svg PUBLIC "-//W3C//DTD SVG 1.1//EN" "http://www.w3.org/Graphics/SVG/1.1/DTD/svg11.dtd">
<svg version="1.1" id="Layer_1" xmlns="http://www.w3.org/2000/svg" xmlns:xlink="http://www.w3.org/1999/xlink" x="0px" y="0px"
	 width="16px" height="16px" viewBox="0 0 16 16" enable-background="new 0 0 16 16" xml:space="preserve">
<g>
	<g>
		<path fill="#8D5BB4" d="M8.035,0C3.617-0.02,0.023,2.806,0.008,6.305C-0.008,9.8,2.886,12.359,6.727,12.68
			c1.201,0.1,3.842,3.32,4.73,3.32c0.728,0-0.601-3.246,0.353-3.5c2.182-0.583,4.187-3.619,4.198-6.125
			C16.023,2.876,12.453,0.02,8.035,0z M12.926,6.848c-0.05,0.114-0.126,0.214-0.218,0.298L9.88,9.733
			c-0.391,0.356-1.023,0.356-1.414,0c-0.39-0.358-0.39-0.937,0-1.292l1.121-1.026H3.998C3.448,7.415,3,7.006,3,6.5
			c0-0.504,0.448-0.914,0.998-0.914h5.589L8.466,4.561c-0.39-0.357-0.39-0.934,0-1.292c0.391-0.357,1.023-0.357,1.414,0l2.828,2.584
			c0.092,0.085,0.168,0.187,0.218,0.298C13.024,6.375,13.024,6.626,12.926,6.848z"/>
	</g>
</g>
</svg>
