<?xml version="1.0" encoding="utf-8"?>
<!-- Generator: Adobe Illustrator 19.0.0, SVG Export Plug-In . SVG Version: 6.00 Build 0)  -->
<svg version="1.1" id="Layer_1" xmlns="http://www.w3.org/2000/svg" xmlns:xlink="http://www.w3.org/1999/xlink" x="0px" y="0px"
	 viewBox="0 0 32 32" style="enable-background:new 0 0 32 32;" xml:space="preserve">
<style type="text/css">
	.st0{fill:none;stroke:#A6C3FD;stroke-width:4;stroke-linecap:round;stroke-linejoin:round;stroke-miterlimit:10;}
	.st1{fill:none;stroke:#FEB737;stroke-width:4;stroke-linecap:round;stroke-linejoin:round;stroke-miterlimit:10;}
</style>
<path class="st0" d="M21.9,24.5c0,3-2.5,5.5-5.5,5.5"/>
<path class="st0" d="M10.8,24.5c0,3,2.5,5.5,5.5,5.5"/>
<line class="st1" x1="16.3" y1="2" x2="16.3" y2="30"/>
<path class="st0" d="M21.9,17.7c0,0-1.6-15.6-5.5-15.6"/>
<path class="st0" d="M10.6,17.7c0,0,1.9-15.6,5.8-15.6"/>
<line class="st1" x1="4.3" y1="24.5" x2="4.3" y2="8"/>
<path class="st1" d="M21.9,17.7c0,0,1.9-9.6,6.3-9.6"/>
<line class="st1" x1="28.2" y1="24.5" x2="28.2" y2="8"/>
<path class="st0" d="M21.9,17.7c1.9,0,3.4,1.5,3.4,3.4c0,1.9-1.5,3.4-3.4,3.4"/>
<path class="st1" d="M10.6,17.7c0,0-1.9-9.6-6.3-9.6"/>
<path class="st0" d="M10.6,17.7c-1.9,0-3.4,1.5-3.4,3.4c0,1.9,1.5,3.4,3.4,3.4"/>
<line class="st1" x1="4.3" y1="24.5" x2="28.2" y2="24.5"/>
</svg>
