<?xml version="1.0" encoding="utf-8"?>
<!-- Generator: Adobe Illustrator 18.1.1, SVG Export Plug-In . SVG Version: 6.00 Build 0)  -->
<svg version="1.1" id="Layer_1" xmlns="http://www.w3.org/2000/svg" xmlns:xlink="http://www.w3.org/1999/xlink" x="0px" y="0px"
	 viewBox="0 0 26 32" enable-background="new 0 0 26 32" xml:space="preserve">
<path fill="#8D5BB4" d="M24,28H2c-1.1,0-2,0.9-2,2c0,1.1,0.9,2,2,2h22V28z"/>
<g>
	<path fill="#8D5BB4" d="M24,12H8c-1.1,0-2-0.9-2-2c0-1.1,0.9-2,2-2h16c1.1,0,2,0.9,2,2C26,11.1,25.1,12,24,12z"/>
</g>
<g>
	<path fill="#FEB737" d="M0,30V2c0-1.1,0.9-2,2-2c1.1,0,2,0.9,2,2v28C2.9,30,1,30,0,30z"/>
</g>
<g>
	<path fill="#FEB737" d="M24,32c-1.1,0-2-0.9-2-2V2c1.2,0,4-1.1,4,0v28C26,31.1,25.1,32,24,32z"/>
	<path fill="#FEB737" d="M22,30V2c1.2,0,2.9,0,4,0"/>
</g>
<g>
	<path fill="#8D5BB4" d="M24,4H2c0-1.3,0-2.5,0-4h22c1.1,0,2,0.9,2,2C26,3.1,25.1,4,24,4z"/>
</g>
<g>
	<path fill="#FEB737" d="M2,23c-1.1,0-2-0.9-2-2V2c0-1.1,0.9-2,2-2c1.1,0,2,0.9,2,2v19C4,22.1,3.1,23,2,23z"/>
</g>
<g>
	<path fill="#FFFFFF" d="M8,17c-0.5,0-1-0.2-1.4-0.6C6.2,16,6,15.5,6,15s0.2-1,0.6-1.4c0.8-0.8,2.1-0.8,2.8,0C9.8,14,10,14.5,10,15
		s-0.2,1-0.6,1.4C9,16.8,8.5,17,8,17z"/>
</g>
<g>
	<path fill="#FFFFFF" d="M13,17c-0.5,0-1-0.2-1.4-0.6C11.2,16,11,15.5,11,15c0-0.5,0.2-1,0.6-1.4c0.8-0.8,2.1-0.8,2.8,0
		C14.8,14,15,14.5,15,15c0,0.5-0.2,1-0.6,1.4C14,16.8,13.5,17,13,17z"/>
</g>
<g>
	<path fill="#FFFFFF" d="M18,17c-0.5,0-1-0.2-1.4-0.6C16.2,16,16,15.5,16,15s0.2-1,0.6-1.4c0.8-0.8,2.1-0.8,2.8,0
		C19.8,14,20,14.5,20,15s-0.2,1-0.6,1.4C19,16.8,18.5,17,18,17z"/>
</g>
<g>
	<path fill="#FFFFFF" d="M8,22c-0.5,0-1-0.2-1.4-0.6C6.2,21,6,20.5,6,20c0-0.5,0.2-1,0.6-1.4c0.8-0.8,2.1-0.8,2.8,0
		C9.8,19,10,19.5,10,20c0,0.5-0.2,1-0.6,1.4C9,21.8,8.5,22,8,22z"/>
</g>
<g>
	<path fill="#FFFFFF" d="M13,22c-0.5,0-1-0.2-1.4-0.6C11.2,21,11,20.5,11,20c0-0.5,0.2-1,0.6-1.4c0.8-0.8,2.1-0.8,2.8,0
		C14.8,19,15,19.5,15,20c0,0.5-0.2,1-0.6,1.4C14,21.8,13.5,22,13,22z"/>
</g>
<g>
	<path fill="#8D5BB4" d="M18,27c-1.1,0-2-0.9-2-2v-5c0-1.1,0.9-2,2-2c1.1,0,2,0.9,2,2v5C20,26.1,19.1,27,18,27z"/>
</g>
<g>
	<path fill="#FFFFFF" d="M8,27c-0.5,0-1-0.2-1.4-0.6C6.2,26,6,25.5,6,25c0-0.5,0.2-1,0.6-1.4c0.7-0.8,2.1-0.8,2.8,0
		C9.8,24,10,24.5,10,25c0,0.5-0.2,1-0.6,1.4C9,26.8,8.5,27,8,27z"/>
</g>
<g>
	<path fill="#FFFFFF" d="M13,27c-0.5,0-1-0.2-1.4-0.6C11.2,26,11,25.5,11,25c0-0.5,0.2-1,0.6-1.4c0.8-0.8,2.1-0.8,2.8,0
		C14.8,24,15,24.5,15,25c0,0.5-0.2,1-0.6,1.4C14,26.8,13.5,27,13,27z"/>
</g>
<g>
	<path fill="#8D5BB4" d="M18,12H2c-1.1,0-2-0.9-2-2c0-1.1,0.9-2,2-2h16c1.1,0,2,0.9,2,2C20,11.1,19.1,12,18,12z"/>
</g>
<path fill="#8D5BB4" d="M7,28H2c-1.1,0-2,0.9-2,2c0,1.1,0.9,2,2,2h5V28z"/>
</svg>
