<?xml version="1.0" encoding="utf-8"?>
<!-- Generator: Adobe Illustrator 18.1.1, SVG Export Plug-In . SVG Version: 6.00 Build 0)  -->
<svg version="1.1" id="Layer_1" xmlns="http://www.w3.org/2000/svg" xmlns:xlink="http://www.w3.org/1999/xlink" x="0px" y="0px"
	 viewBox="-297 391 16 12" enable-background="new -297 391 16 12" xml:space="preserve">
<path fill="#8D5BB4" d="M-281,395v6c0,1.1-0.9,2-2,2h-10c-0.8,0-1.6-0.5-1.9-1.3c0.2,0.1,0.5,0.2,0.8,0.2h10c1.1,0,2-0.9,2-2v-6
	c0-0.3-0.1-0.5-0.1-0.7C-281.5,393.5-281,394.2-281,395z M-285,391h-10c-1.1,0-2,0.9-2,2v6c0,1.1,0.9,2,2,2h10c1.1,0,2-0.9,2-2v-6
	C-283,391.9-283.9,391-285,391z M-295.3,400.1c-0.7,0-1.2-0.5-1.2-1.2c0-0.7,0.5-1.2,1.2-1.2h2.4c0.4,1.1,1.1,2,2,2.4H-295.3z
	 M-292.7,395.8c0-2.1,1.2-3.8,2.7-3.8c1.5,0,2.7,1.7,2.7,3.8s-1.2,3.8-2.7,3.8C-291.5,399.5-292.7,397.8-292.7,395.8z M-284.7,400.1
	h-4.3c0.9-0.4,1.6-1.3,2-2.4h2.4c0.7,0,1.2,0.5,1.2,1.2C-283.5,399.6-284,400.1-284.7,400.1z"/>
</svg>
