<?xml version="1.0" encoding="utf-8"?>
<!-- Generator: Adobe Illustrator 18.1.1, SVG Export Plug-In . SVG Version: 6.00 Build 0)  -->
<svg version="1.1" id="Layer_1" xmlns="http://www.w3.org/2000/svg" xmlns:xlink="http://www.w3.org/1999/xlink" x="0px" y="0px"
	 viewBox="0 0 16 12" enable-background="new 0 0 16 12" xml:space="preserve">
<path fill="#FFFFFF" d="M16,4v6c0,1.1-0.9,2-2,2H4c-0.8,0-1.6-0.5-1.9-1.3c0.2,0.1,0.5,0.2,0.8,0.2h10c1.1,0,2-0.9,2-2v-6
	c0-0.3-0.1-0.5-0.1-0.7C15.5,2.5,16,3.2,16,4z M12,0H2C0.9,0,0,0.9,0,2v6c0,1.1,0.9,2,2,2h10c1.1,0,2-0.9,2-2V2C14,0.9,13.1,0,12,0z
	 M1.7,9.2C1.1,9.2,0.5,8.6,0.5,8s0.5-1.2,1.2-1.2h2.4c0.4,1.1,1.1,2,2,2.4H1.7z M4.3,4.8C4.3,2.7,5.5,1,7,1c1.5,0,2.7,1.7,2.7,3.8
	c0,2.1-1.2,3.8-2.7,3.8C5.5,8.5,4.3,6.8,4.3,4.8z M12.3,9.2H8c0.9-0.4,1.6-1.3,2-2.4h2.4c0.7,0,1.2,0.5,1.2,1.2S13,9.2,12.3,9.2z"/>
</svg>
