<?xml version="1.0" encoding="utf-8"?>
<!-- Generator: Adobe Illustrator 18.1.1, SVG Export Plug-In . SVG Version: 6.00 Build 0)  -->
<svg version="1.1" id="Layer_1" xmlns="http://www.w3.org/2000/svg" xmlns:xlink="http://www.w3.org/1999/xlink" x="0px" y="0px"
	 viewBox="0 0 28.5 32" enable-background="new 0 0 28.5 32" xml:space="preserve">
<path fill="#A6C3FD" d="M14.5,15.8c-4.3,0-7.9-3.5-7.9-7.9c0-1.1,0.9-2,2-2c1.1,0,2,0.9,2,2c0,2.1,1.7,3.9,3.9,3.9
	c2.1,0,3.9-1.7,3.9-3.9c0-1.1,0.9-2,2-2c1.1,0,2,0.9,2,2C22.4,12.2,18.8,15.8,14.5,15.8"/>
<path fill="#FEB737" d="M20.4,9.9c-1.1,0-2-0.9-2-2c0-2.1-1.7-3.9-3.9-3.9c-2.1,0-3.9,1.7-3.9,3.9c0,1.1-0.9,2-2,2c-1.1,0-2-0.9-2-2
	c0-4.3,3.5-7.9,7.9-7.9c4.3,0,7.9,3.5,7.9,7.9C22.4,9,21.5,9.9,20.4,9.9"/>
<path fill="#E191E5" d="M2,29.2c-1.1,0-2-0.9-2-2c0-4.9,2.5-9.4,6.6-12.1l1.3-0.9L9,15.2c1.5,1.4,3.4,2.2,5.5,2.2c2,0,4-0.8,5.5-2.2
	c0.8-0.8,2.1-0.7,2.8,0.1c0.8,0.8,0.7,2.1-0.1,2.8c-2.2,2.1-5.1,3.3-8.2,3.3c-2.5,0-4.9-0.8-6.9-2.2c-2.3,2-3.6,4.9-3.6,7.9
	C4,28.3,3.1,29.2,2,29.2"/>
<path fill="#FEB737" d="M14.5,32c-7.3,0-13.2-2.9-13.4-3.1c-1-0.5-1.4-1.7-0.9-2.7c0.5-1,1.7-1.4,2.7-0.9C3,25.4,8.2,28,14.5,28
	c4.5,0,8.5-1.4,10.4-2.1c-0.4-3.1-2.1-5.8-4.7-7.5c-0.9-0.6-1.2-1.8-0.6-2.8c0.6-0.9,1.6-1.2,2.5-0.6c4.1,2.7,6.3,7.2,6.3,12.1v1.2
	l-0.8,0.6C27.4,29.1,21.8,32,14.5,32"/>
<rect fill="none" width="28.5" height="32"/>
</svg>
