<?xml version="1.0" encoding="utf-8"?>
<!-- Generator: Adobe Illustrator 18.1.1, SVG Export Plug-In . SVG Version: 6.00 Build 0)  -->
<svg version="1.1" id="Layer_1" xmlns="http://www.w3.org/2000/svg" xmlns:xlink="http://www.w3.org/1999/xlink" x="0px" y="0px"
	 viewBox="0 0 31 31" enable-background="new 0 0 31 31" xml:space="preserve">
<line fill="none" stroke="#FEB737" stroke-width="4" stroke-linecap="round" stroke-miterlimit="10" x1="24.3" y1="11.1" x2="24.3" y2="2.9"/>
<g>
	<path fill="#8D5BB4" d="M23.8,31H7.1c-1.1,0-2-0.9-2-2V14c0-1.1,0.9-2,2-2h16.7c1.1,0,2,0.9,2,2v15C25.8,30.1,24.9,31,23.8,31z
		 M9.1,27h12.7V16H9.1V27z"/>
</g>
<line fill="none" stroke="#FEB737" stroke-width="4" stroke-linecap="round" stroke-miterlimit="10" x1="2.4" y1="15.3" x2="15.5" y2="2.2"/>
<g>
	<path fill="#FFFFFF" d="M28.6,17.3c-0.5,0-1-0.2-1.4-0.6L14.1,3.6c-0.8-0.8-0.8-2,0-2.8c0.8-0.8,2-0.8,2.8,0L30,13.9
		c0.8,0.8,0.8,2,0,2.8C29.6,17.1,29.1,17.3,28.6,17.3z"/>
</g>
</svg>
