<?xml version="1.0" encoding="utf-8"?>
<!-- Generator: Adobe Illustrator 18.1.1, SVG Export Plug-In . SVG Version: 6.00 Build 0)  -->
<svg version="1.1" id="Layer_1" xmlns="http://www.w3.org/2000/svg" xmlns:xlink="http://www.w3.org/1999/xlink" x="0px" y="0px"
	 viewBox="0 0 30 32" enable-background="new 0 0 30 32" xml:space="preserve">
<path fill="#A6C3FD" d="M15,20c-1.1,0-2-0.9-2-2v-8c0-1.1,0.9-2,2-2c1.1,0,2,0.9,2,2v8C17,19.1,16.1,20,15,20"/>
<path fill="#FFFFFF" d="M15,32c-1.1,0-2-0.9-2-2V18c0-1.1,0.9-2,2-2c1.1,0,2,0.9,2,2v12C17,31.1,16.1,32,15,32"/>
<path fill="#E191E5" d="M8.7,10.5C5.6,10.5,3,8.2,3,5.3C3,2.4,5.6,0,8.7,0c2.6,0,6.4,2.8,7.5,3.7l2,1.6l-2,1.6
	C15.1,7.7,11.3,10.5,8.7,10.5 M8.7,4C7.8,4,7,4.6,7,5.3s0.8,1.3,1.7,1.3c0.5,0,1.5-0.5,2.8-1.3C10.3,4.5,9.2,4,8.7,4"/>
<path fill="#8D5BB4" d="M21.2,10.5c-2.6,0-6.4-2.8-7.5-3.7c-0.5-0.4-0.8-1-0.8-1.6s0.3-1.2,0.8-1.6C14.9,2.8,18.7,0,21.2,0
	C24.4,0,27,2.4,27,5.3S24.4,10.5,21.2,10.5 M18.5,5.3c1.2,0.8,2.3,1.3,2.8,1.3C22.2,6.5,23,6,23,5.3S22.2,4,21.2,4
	C20.8,4,19.7,4.5,18.5,5.3"/>
<path fill="#FFFFFF" d="M5,32c-1.1,0-2-0.9-2-2V18c0-1.1,0.9-2,2-2s2,0.9,2,2v12C7,31.1,6.1,32,5,32"/>
<path fill="#E191E5" d="M25,32c-1.1,0-2-0.9-2-2V18c0-1.1,0.9-2,2-2c1.1,0,2,0.9,2,2v12C27,31.1,26.1,32,25,32"/>
<path fill="#E191E5" d="M25,32H5c-1.1,0-2-0.9-2-2c0-1.1,0.9-2,2-2h20c1.1,0,2,0.9,2,2C27,31.1,26.1,32,25,32"/>
<path fill="#8D5BB4" d="M2,20c-1.1,0-2-0.9-2-2v-8c0-1.1,0.9-2,2-2s2,0.9,2,2v8C4,19.1,3.1,20,2,20"/>
<path fill="#FFFFFF" d="M28,12H2c-1.1,0-2-0.9-2-2s0.9-2,2-2h26c1.1,0,2,0.9,2,2S29.1,12,28,12"/>
<path fill="#8D5BB4" d="M28,20H2c-1.1,0-2-0.9-2-2c0-1.1,0.9-2,2-2h26c1.1,0,2,0.9,2,2C30,19.1,29.1,20,28,20"/>
<path fill="#A6C3FD" d="M28,20c-1.1,0-2-0.9-2-2v-8c0-1.1,0.9-2,2-2c1.1,0,2,0.9,2,2v8C30,19.1,29.1,20,28,20"/>
</svg>
