<?xml version="1.0" encoding="utf-8"?>
<!-- Generator: Adobe Illustrator 18.1.1, SVG Export Plug-In . SVG Version: 6.00 Build 0)  -->
<svg version="1.1" id="Layer_1" xmlns="http://www.w3.org/2000/svg" xmlns:xlink="http://www.w3.org/1999/xlink" x="0px" y="0px"
	 viewBox="0 0 23.5 31.8" enable-background="new 0 0 23.5 31.8" xml:space="preserve">
<line fill="none" stroke="#FEB737" stroke-width="4" stroke-linecap="round" stroke-linejoin="round" stroke-miterlimit="10" x1="11.7" y1="18.3" x2="2" y2="29.8"/>
<g>
	<path fill="#8D5BB4" d="M21.5,31.8H2c-1.1,0-2-0.9-2-2c0-1.1,0.9-2,2-2h19.5c1.1,0,2,0.9,2,2C23.5,30.9,22.6,31.8,21.5,31.8z"/>
</g>
<line fill="none" stroke="#FFFFFF" stroke-width="4" stroke-linecap="round" stroke-linejoin="round" stroke-miterlimit="10" x1="21.5" y1="29.8" x2="11.7" y2="18.3"/>
<line fill="none" stroke="#FFFFFF" stroke-width="4" stroke-linecap="round" stroke-linejoin="round" stroke-miterlimit="10" x1="11.7" y1="7.6" x2="5.3" y2="18.3"/>
<g>
	<path fill="#8D5BB4" d="M18.2,20.3H5.3c-1.1,0-2-0.9-2-2c0-1.1,0.9-2,2-2h12.9c1.1,0,2,0.9,2,2C20.2,19.4,19.3,20.3,18.2,20.3z"/>
</g>
<line fill="none" stroke="#FEB737" stroke-width="4" stroke-linecap="round" stroke-linejoin="round" stroke-miterlimit="10" x1="18.2" y1="18.3" x2="11.7" y2="7.6"/>
<line fill="none" stroke="#FFFFFF" stroke-width="4" stroke-linecap="round" stroke-linejoin="round" stroke-miterlimit="10" x1="11.7" y1="2" x2="15" y2="7.6"/>
<g>
	<path fill="#8D5BB4" d="M15,9.6H8.5c-1.1,0-2-0.9-2-2c0-1.1,0.9-2,2-2H15c1.1,0,2,0.9,2,2C17,8.7,16.1,9.6,15,9.6z"/>
</g>
<line fill="none" stroke="#FEB737" stroke-width="4" stroke-linecap="round" stroke-linejoin="round" stroke-miterlimit="10" x1="8.5" y1="7.6" x2="11.7" y2="2"/>
<rect y="0" fill="none" width="23.5" height="31.8"/>
</svg>
