<?xml version="1.0" encoding="utf-8"?>
<!-- Generator: Adobe Illustrator 18.1.1, SVG Export Plug-In . SVG Version: 6.00 Build 0)  -->
<svg version="1.1" id="Layer_1" xmlns="http://www.w3.org/2000/svg" xmlns:xlink="http://www.w3.org/1999/xlink" x="0px" y="0px"
	 viewBox="0 0 31.4 31.4" enable-background="new 0 0 31.4 31.4" xml:space="preserve">
<g>
	<path fill="#A6C3FD" d="M11,21.9c-3.4,0-6.7-1.5-8.8-4.5c-1.7-2.4-2.4-5.2-2-8.1c0.4-2.9,2-5.4,4.3-7.2c2.4-1.7,5.2-2.4,8.1-2
		c2.9,0.4,5.4,2,7.2,4.3c0.5,0.7,1,1.5,1.3,2.3C21.5,7.8,21,9,20,9.4c-1,0.4-2.2-0.1-2.6-1.1c-0.2-0.5-0.5-1-0.8-1.5
		c-1.1-1.5-2.7-2.5-4.5-2.8c-1.8-0.3-3.7,0.2-5.2,1.3C5.3,6.4,4.4,8.1,4.1,9.9c-0.3,1.8,0.2,3.7,1.3,5.2c1.1,1.5,2.7,2.5,4.5,2.7
		c1.8,0.3,3.7-0.2,5.2-1.3c0.9-0.7,2.1-0.5,2.8,0.4c0.7,0.9,0.5,2.1-0.4,2.8C15.5,21.2,13.2,21.9,11,21.9z"/>
</g>
<g>
	<path fill="#8D5BB4" d="M20.4,31.4c-3.1,0-6.1-1.3-8.3-3.7c-0.6-0.7-1.1-1.4-1.5-2.2c-0.5-1-0.1-2.2,0.9-2.7c1-0.5,2.2-0.1,2.7,0.9
		c0.3,0.5,0.6,1,1,1.4c2.5,2.9,6.9,3.2,9.8,0.7c1.4-1.2,2.2-2.9,2.4-4.8c0.1-1.8-0.5-3.6-1.7-5c-1.2-1.4-2.9-2.2-4.8-2.4
		c-1.8-0.1-3.6,0.5-5,1.7C15,15.9,13.8,15.8,13,15c-0.7-0.8-0.6-2.1,0.2-2.8c2.2-1.9,5-2.9,7.9-2.7c2.9,0.2,5.6,1.5,7.5,3.7
		c1.9,2.2,2.9,5,2.7,7.9c-0.2,2.9-1.5,5.6-3.7,7.5C25.5,30.5,23,31.4,20.4,31.4z"/>
</g>
</svg>
