<?xml version="1.0" encoding="utf-8"?>
<!-- Generator: Adobe Illustrator 18.1.1, SVG Export Plug-In . SVG Version: 6.00 Build 0)  -->
<svg version="1.1" id="Layer_1" xmlns="http://www.w3.org/2000/svg" xmlns:xlink="http://www.w3.org/1999/xlink" x="0px" y="0px"
	 viewBox="0 0 31 31" enable-background="new 0 0 31 31" xml:space="preserve">
<path fill="none" stroke="#FFFFFF" stroke-width="4" stroke-linecap="round" stroke-miterlimit="10" d="M18.6,21.7
	c-4,3.3-10.9,1.6-15.5-3.9"/>
<path fill="none" stroke="#E191E5" stroke-width="4" stroke-linecap="round" stroke-miterlimit="10" d="M20.9,21.6
	c-5.1-0.7-8.5-7-7.5-14.1"/>
<path fill="#FFFFFF" d="M23.7,4C25.5,4,27,5.5,27,7.3c0,1.8-1.5,3.3-3.3,3.3c-1.8,0-3.3-1.5-3.3-3.3C20.4,5.5,21.9,4,23.7,4 M23.7,0
	c-4,0-7.3,3.3-7.3,7.3c0,4,3.3,7.3,7.3,7.3c4,0,7.3-3.3,7.3-7.3C31,3.3,27.7,0,23.7,0"/>
<path fill="#8D5BB4" d="M23.7,14.5c-0.5,0-1-0.1-1.5-0.2C22,17,20.5,20.2,18,22.7C15.3,25.4,12,27,9,27c-1.1,0-2.6-0.2-3.7-1.3
	C2.7,23,4.1,17.1,8.2,13c2.5-2.5,5.6-4,8.4-4.2c-0.1-0.5-0.2-1-0.2-1.5c0-0.9,0.2-1.7,0.4-2.5c-3.8,0.1-8,1.9-11.5,5.4
	c-5.9,5.9-7.1,14-2.9,18.3C4.2,30.1,6.5,31,9,31c3.9,0,8.2-1.9,11.8-5.4c3.4-3.4,5.3-7.7,5.4-11.5C25.4,14.4,24.6,14.5,23.7,14.5"/>
<path fill="none" stroke="#FFFFFF" stroke-width="4" stroke-linecap="round" stroke-miterlimit="10" d="M10,22.8
	c-2.4-0.9-4.9-2.5-6.9-4.9"/>
<path fill="none" stroke="#E191E5" stroke-width="4" stroke-linecap="round" stroke-miterlimit="10" d="M20.9,21.6
	c-2.8-0.4-5.1-2.5-6.4-5.4"/>
</svg>
