<?xml version="1.0" encoding="utf-8"?>
<!-- Generator: Adobe Illustrator 16.0.0, SVG Export Plug-In . SVG Version: 6.00 Build 0)  -->
<!DOCTYPE svg PUBLIC "-//W3C//DTD SVG 1.1//EN" "http://www.w3.org/Graphics/SVG/1.1/DTD/svg11.dtd">
<svg version="1.1" id="Layer_1" xmlns="http://www.w3.org/2000/svg" xmlns:xlink="http://www.w3.org/1999/xlink" x="0px" y="0px"
	 width="40px" height="40px" viewBox="0 0 40 40" enable-background="new 0 0 40 40" xml:space="preserve">
<g>
	<g>
		<path fill="#FEB737" d="M29,22h-9c-1.104,0-2-0.896-2-2s0.896-2,2-2h9c1.104,0,2,0.896,2,2S30.104,22,29,22z"/>
	</g>
	<g>
		<path fill="#FFFFFF" d="M20,22c-1.104,0-2-0.896-2-2v-9c0-1.104,0.896-2,2-2s2,0.896,2,2v9C22,21.104,21.104,22,20,22z"/>
	</g>
	<g>
		<path fill="#FFFFFF" d="M20,39.8C9.082,39.8,0.2,30.918,0.2,20S9.082,0.2,20,0.2S39.8,9.082,39.8,20S30.918,39.8,20,39.8z M20,3.8
			C11.067,3.8,3.8,11.067,3.8,20S11.067,36.2,20,36.2S36.2,28.933,36.2,20S28.933,3.8,20,3.8z"/>
	</g>
	<g>
		<path fill="#FEB737" d="M2,22c-1.104,0-2-0.896-2-2C0,8.973,8.972,0,20,0c1.104,0,2,0.896,2,2s-0.896,2-2,2
			C11.178,4,4,11.178,4,20C4,21.104,3.104,22,2,22z"/>
	</g>
	<g>
		<path fill="#FEB737" d="M20,40c-1.104,0-2-0.896-2-2s0.896-2,2-2c8.822,0,16-7.178,16-16c0-1.104,0.896-2,2-2s2,0.896,2,2
			C40,31.027,31.028,40,20,40z"/>
	</g>
</g>
</svg>
