<?xml version="1.0" encoding="utf-8"?>
<!-- Generator: Adobe Illustrator 16.0.0, SVG Export Plug-In . SVG Version: 6.00 Build 0)  -->
<!DOCTYPE svg PUBLIC "-//W3C//DTD SVG 1.1//EN" "http://www.w3.org/Graphics/SVG/1.1/DTD/svg11.dtd">
<svg version="1.1" id="Layer_1" xmlns="http://www.w3.org/2000/svg" xmlns:xlink="http://www.w3.org/1999/xlink" x="0px" y="0px"
	 width="16px" height="16px" viewBox="0 0 16 16" enable-background="new 0 0 16 16" xml:space="preserve">
<path fill="#8D5BB4" d="M9.664,8l4.99-4.991c0.461-0.46,0.461-1.205,0-1.664c-0.459-0.459-1.203-0.46-1.663,0L8,6.336L3.009,1.345
	c-0.46-0.46-1.204-0.459-1.663,0c-0.46,0.459-0.461,1.204,0,1.664L6.336,8l-4.99,4.991c-0.461,0.46-0.46,1.205,0,1.664
	c0.459,0.459,1.203,0.46,1.663,0L8,9.664l4.991,4.991c0.46,0.46,1.204,0.459,1.663,0c0.461-0.459,0.461-1.204,0-1.664L9.664,8z"/>
</svg>
