<?xml version="1.0" encoding="utf-8"?>
<!-- Generator: Adobe Illustrator 18.1.1, SVG Export Plug-In . SVG Version: 6.00 Build 0)  -->
<svg version="1.1" id="Layer_1" xmlns="http://www.w3.org/2000/svg" xmlns:xlink="http://www.w3.org/1999/xlink" x="0px" y="0px"
	 viewBox="-266.7 366.3 66.3 49.3" enable-background="new -266.7 366.3 66.3 49.3" xml:space="preserve">
<g>
	<g>
		
			<line fill="none" stroke="#FFFFFF" stroke-width="4" stroke-linecap="round" stroke-miterlimit="10" x1="-233" y1="388" x2="-233" y2="404"/>
		
			<line fill="none" stroke="#FFFFFF" stroke-width="4" stroke-linecap="round" stroke-miterlimit="10" x1="-241" y1="396" x2="-225" y2="396"/>
		
			<path fill="none" stroke="#E191E5" stroke-width="4" stroke-linecap="round" stroke-linejoin="round" stroke-miterlimit="10" stroke-dasharray="1.7012,0" d="
			M-254.6,396.6c-0.7,0.8-1.1,1.8-1.1,2.9v0"/>
		<path fill="none" stroke="#FEB737" stroke-width="4" stroke-linecap="round" stroke-miterlimit="10" d="M-215.2,390.8
			c-1.9-8.1-9.2-14.1-17.8-14.1c-10.1,0-18.3,8.3-18.3,18.5"/>
		<path fill="none" stroke="#A6C3FD" stroke-width="4" stroke-linecap="round" stroke-miterlimit="10" d="M-214.7,413.6
			c6.3,0,11.3-5.1,11.3-11.4s-5.1-11.4-11.3-11.4c-0.2,0-0.3,0-0.5,0"/>
		
			<path fill="none" stroke="#E191E5" stroke-width="4" stroke-linecap="round" stroke-linejoin="round" stroke-miterlimit="10" stroke-dasharray="1.9953,0" d="
			M-255.7,399.5L-255.7,399.5c-3.9,0-7,3.2-7,7.1c0,3.9,3.1,7.1,7,7.1h41"/>
		
			<path fill="none" stroke="#E191E5" stroke-width="4" stroke-linecap="round" stroke-linejoin="round" stroke-miterlimit="10" stroke-dasharray="1.7012,0" d="
			M-255.7,399.5L-255.7,399.5c0-1.1,0.4-2.1,1.1-2.9c0,0,1.4-1.7,3.2-1.4"/>
	</g>
	
		<line fill="none" stroke="#FFFFFF" stroke-width="4" stroke-linecap="round" stroke-linejoin="round" stroke-miterlimit="10" x1="-214.8" y1="376.9" x2="-210.5" y2="372.6"/>
	
		<line fill="none" stroke="#FFFFFF" stroke-width="4" stroke-linecap="round" stroke-linejoin="round" stroke-miterlimit="10" x1="-222.8" y1="371.8" x2="-221.3" y2="368.4"/>
	
		<line fill="none" stroke="#FFFFFF" stroke-width="4" stroke-linecap="round" stroke-linejoin="round" stroke-miterlimit="10" x1="-209.3" y1="384.4" x2="-206" y2="382.9"/>
</g>
</svg>
