<?xml version="1.0" encoding="utf-8"?>
<!-- Generator: Adobe Illustrator 18.1.1, SVG Export Plug-In . SVG Version: 6.00 Build 0)  -->
<svg version="1.1" id="Layer_1" xmlns="http://www.w3.org/2000/svg" xmlns:xlink="http://www.w3.org/1999/xlink" x="0px" y="0px"
	 viewBox="0 0 38.5 36.5" enable-background="new 0 0 38.5 36.5" xml:space="preserve">
<line fill="none" stroke="#8D5BB4" stroke-width="4" stroke-linecap="round" stroke-linejoin="round" stroke-miterlimit="10" x1="19.2" y1="19.5" x2="19.2" y2="29.5"/>
<line fill="none" stroke="#8D5BB4" stroke-width="4" stroke-linecap="round" stroke-linejoin="round" stroke-miterlimit="10" x1="14.2" y1="24.5" x2="24.2" y2="24.5"/>
<path fill="none" stroke="#E191E5" stroke-width="4" stroke-linecap="round" stroke-linejoin="round" stroke-miterlimit="10" stroke-dasharray="1.7012,0" d="
	M2504.7-43.3c-0.4,0.4-0.6,1-0.6,1.7l0,0"/>
<path fill="none" stroke="#FEB737" stroke-width="4" stroke-linecap="round" stroke-miterlimit="10" d="M29.3,21.3
	c-1.1-4.7-5.3-8.1-10.3-8.1c-5.8,0-10.6,4.8-10.6,10.6"/>
<path fill="none" stroke="#A6C3FD" stroke-width="4" stroke-linecap="round" stroke-miterlimit="10" d="M29.6,34.5
	c3.6,0,6.5-2.9,6.5-6.6s-2.9-6.6-6.5-6.6c-0.1,0-0.2,0-0.3,0"/>
<path fill="none" stroke="#E191E5" stroke-width="4" stroke-linecap="round" stroke-linejoin="round" stroke-miterlimit="10" stroke-dasharray="1.9953,0" d="
	M6,26.4L6,26.4c-2.2,0-4,1.8-4,4.1c0,2.2,1.8,4.1,4,4.1h23.6"/>
<path fill="none" stroke="#E191E5" stroke-width="4" stroke-linecap="round" stroke-linejoin="round" stroke-miterlimit="10" stroke-dasharray="1.7012,0" d="
	M6,26.4L6,26.4c0-0.6,0.2-1.2,0.6-1.7c0,0,0.8-1,1.9-0.8"/>
<line fill="none" stroke="#A6C3FD" stroke-width="4" stroke-linecap="round" stroke-miterlimit="10" x1="29.7" y1="6.5" x2="31.9" y2="3.8"/>
<line fill="none" stroke="#FEB737" stroke-width="4" stroke-linecap="round" stroke-miterlimit="10" x1="21.3" y1="4.5" x2="21.4" y2="2.4"/>
<line fill="none" stroke="#E191E5" stroke-width="4" stroke-linecap="round" stroke-linejoin="round" stroke-miterlimit="10" stroke-dasharray="1.9953,0" x1="34.7" y1="13.7" x2="36.6" y2="12.8"/>
</svg>
