<?xml version="1.0" encoding="utf-8"?>
<!-- Generator: Adobe Illustrator 18.1.1, SVG Export Plug-In . SVG Version: 6.00 Build 0)  -->
<svg version="1.1" id="Layer_1" xmlns="http://www.w3.org/2000/svg" xmlns:xlink="http://www.w3.org/1999/xlink" x="0px" y="0px"
	 viewBox="-297 390 16 14" enable-background="new -297 390 16 14" xml:space="preserve">
<g>
	<g>
		<path fill="#8D5BB4" d="M-283.7,397c0.2-0.5,0.3-1.1,0.3-1.7c0-2.9-2.5-5.3-5.5-5.3c-3,0-5.5,2.3-5.5,5.3c0,0,0,0.1,0,0.1
			c-1.5,0.7-2.6,2.4-2.6,4.1c0,2.4,2,4.5,4.5,4.5h8c1.9,0,3.5-1.7,3.5-3.6C-281,398.8-282.2,397.4-283.7,397z M-286.5,400h-5
			c-0.3,0-0.5-0.2-0.5-0.5s0.2-0.5,0.5-0.5h5c0.3,0,0.5,0.2,0.5,0.5S-286.2,400-286.5,400z M-286.5,398h-5c-0.3,0-0.5-0.2-0.5-0.5
			s0.2-0.5,0.5-0.5h5c0.3,0,0.5,0.2,0.5,0.5S-286.2,398-286.5,398z M-286.5,396h-5c-0.3,0-0.5-0.2-0.5-0.5s0.2-0.5,0.5-0.5h5
			c0.3,0,0.5,0.2,0.5,0.5S-286.2,396-286.5,396z"/>
	</g>
</g>
</svg>
