<?xml version="1.0" encoding="utf-8"?>
<!-- Generator: Adobe Illustrator 18.1.1, SVG Export Plug-In . SVG Version: 6.00 Build 0)  -->
<svg version="1.1" id="Layer_1" xmlns="http://www.w3.org/2000/svg" xmlns:xlink="http://www.w3.org/1999/xlink" x="0px" y="0px"
	 viewBox="0 0 40 36.5" enable-background="new 0 0 40 36.5" xml:space="preserve">
<line fill="none" stroke="#8D5BB4" stroke-width="4" stroke-linecap="round" stroke-miterlimit="10" x1="26" y1="34.6" x2="26" y2="34.6"/>
<g>
	<path fill="none" stroke="#8D5BB4" stroke-width="4" stroke-linecap="round" stroke-miterlimit="10" d="M22.9,29.4
		c-1.3,1.3-3.4,1.3-4.7,0c-1.3-1.3-1.3-3.4,0-4.7"/>
	<path fill="none" stroke="#E191E5" stroke-width="4" stroke-linecap="round" stroke-miterlimit="10" d="M22.9,24.6
		c1.3,1.3,1.3,3.4,0,4.7"/>
</g>
<path fill="none" stroke="#E191E5" stroke-width="4" stroke-linecap="round" stroke-linejoin="round" stroke-miterlimit="10" stroke-dasharray="1.7012,0" d="
	M6.8,14.2c-0.4,0.5-0.7,1.1-0.7,1.8v0"/>
<path fill="none" stroke="#FEB737" stroke-width="4" stroke-linecap="round" stroke-miterlimit="10" d="M30.6,10.7
	c-1.2-4.9-5.5-8.5-10.8-8.5c-6.1,0-11.1,5-11.1,11.2"/>
<path fill="none" stroke="#A6C3FD" stroke-width="4" stroke-linecap="round" stroke-miterlimit="10" d="M30.9,24.5
	c3.8,0,6.8-3.1,6.8-6.9c0-3.8-3.1-6.9-6.8-6.9c-0.1,0-0.2,0-0.3,0"/>
<path fill="none" stroke="#E191E5" stroke-width="4" stroke-linecap="round" stroke-linejoin="round" stroke-miterlimit="10" stroke-dasharray="1.9953,0" d="
	M6.2,16L6.2,16c-2.3,0-4.2,1.9-4.2,4.3c0,2.4,1.9,4.3,4.2,4.3h24.8"/>
<path fill="none" stroke="#E191E5" stroke-width="4" stroke-linecap="round" stroke-linejoin="round" stroke-miterlimit="10" stroke-dasharray="1.7012,0" d="
	M6.2,16L6.2,16c0-0.7,0.3-1.3,0.7-1.8c0,0,0.9-1,1.9-0.9"/>
<g>
	<g>
		<path fill="#FEB737" d="M24.2,20.8c-0.3,0-0.6-0.2-0.7-0.5L19.3,7.3c-0.1-0.4,0.1-0.8,0.5-1c0.4-0.1,0.8,0.1,1,0.5l4.1,12.9
			c0.1,0.4-0.1,0.8-0.5,1C24.3,20.8,24.2,20.8,24.2,20.8z"/>
	</g>
	<g>
		<path fill="#8D5BB4" d="M15.9,20.8c-0.1,0-0.2,0-0.2,0c-0.4-0.1-0.6-0.6-0.5-1l4.2-12.9c0.1-0.4,0.6-0.6,1-0.5
			c0.4,0.1,0.6,0.6,0.5,1l-4.2,12.9C16.5,20.6,16.2,20.8,15.9,20.8z"/>
	</g>
	<g>
		<path fill="#A6C3FD" d="M15.9,20.8c-0.2,0-0.5-0.1-0.6-0.3c-0.2-0.4-0.2-0.8,0.2-1.1L26,11.6c0.3-0.3,0.8-0.2,1.1,0.2
			c0.2,0.4,0.2,0.8-0.2,1.1l-10.6,7.8C16.2,20.7,16,20.8,15.9,20.8z"/>
	</g>
	<g>
		<path fill="#E191E5" d="M24.2,20.8c-0.2,0-0.3,0-0.4-0.1l-10.6-7.9c-0.3-0.3-0.4-0.7-0.2-1.1c0.2-0.3,0.7-0.4,1.1-0.2l10.6,7.9
			c0.3,0.3,0.4,0.7,0.2,1.1C24.6,20.7,24.4,20.8,24.2,20.8z"/>
	</g>
	<g>
		<path fill="#E9D7AF" d="M26.5,12.7c-0.1,0.1-12.8-0.1-12.8-0.1c-0.4,0-0.7-0.2-0.7-0.6c0-0.4,0.3-0.7,0.7-0.7l12.8,0.1
			c0.4,0,0.7,0.2,0.7,0.5C27.2,12.3,26.9,12.7,26.5,12.7z"/>
	</g>
	<g>
		<path fill="#FEB737" d="M24.2,20.8c-0.3,0-0.6-0.2-0.7-0.5l-2-6.3c-0.1-0.4,0.1-0.8,0.5-1c0.4-0.1,0.8,0.1,1,0.5l2,6.3
			c0.1,0.4-0.1,0.8-0.5,1C24.3,20.8,24.2,20.8,24.2,20.8z"/>
	</g>
	<g>
		<path fill="#E191E5" d="M19,16.9c-0.2,0-0.3,0-0.4-0.1l-5.5-4.1c-0.3-0.3-0.4-0.7-0.2-1.1c0.2-0.3,0.7-0.4,1.1-0.2l5.5,4.1
			c0.3,0.3,0.4,0.7,0.2,1.1C19.4,16.8,19.2,16.9,19,16.9z"/>
	</g>
	<g>
		<path fill="#8D5BB4" d="M15.9,20.8c-0.1,0-0.2,0-0.2,0c-0.4-0.1-0.6-0.6-0.5-1l2.1-6.3c0.1-0.4,0.6-0.6,1-0.5
			c0.4,0.1,0.6,0.6,0.5,1l-2.1,6.3C16.5,20.6,16.2,20.8,15.9,20.8z"/>
	</g>
	<g>
		<path fill="#A6C3FD" d="M21.4,16.7c-0.2,0-0.5-0.1-0.6-0.3c-0.2-0.3-0.2-0.8,0.2-1.1l5.1-3.8c0.3-0.3,0.8-0.2,1.1,0.2
			c0.2,0.3,0.2,0.8-0.2,1.1l-5.1,3.8C21.7,16.7,21.5,16.7,21.4,16.7z"/>
	</g>
</g>
</svg>
