<?xml version="1.0" encoding="utf-8"?>
<!-- Generator: Adobe Illustrator 18.1.1, SVG Export Plug-In . SVG Version: 6.00 Build 0)  -->
<svg version="1.1" id="Layer_1" xmlns="http://www.w3.org/2000/svg" xmlns:xlink="http://www.w3.org/1999/xlink" x="0px" y="0px"
	 viewBox="0 0 31.9 32" enable-background="new 0 0 31.9 32" xml:space="preserve">
<path fill="#FFFFFF" d="M20.2,32c-0.5,0-0.9-0.2-1.3-0.5c-0.3-0.3-0.5-0.8-0.5-1.3c0-0.5,0.2-0.9,0.5-1.3c0.7-0.7,1.8-0.7,2.5,0
	c0.3,0.3,0.5,0.8,0.5,1.3c0,0.5-0.2,0.9-0.5,1.3C21.2,31.9,20.7,32,20.2,32z"/>
<g>
	<path fill="#FFFFFF" d="M15.6,28c-1.2,0-2.4-0.4-3.3-1.3c-1.8-1.8-1.8-4.7,0-6.6c0.7-0.7,1.8-0.7,2.5,0c0.7,0.7,0.7,1.8,0.1,2.5
		c-0.4,0.5-0.3,1.3,0.2,1.7c0.2,0.2-0.1,0.3,0.9,0.3v0c0,0,0.3-0.1,0.5-0.3c0.7-0.7,1.7-0.7,2.4-0.1c0.7,0.7,0.7,1.7,0,2.4
		C18.1,27.7,16.9,28,15.6,28C15.6,28,15.6,28,15.6,28z"/>
</g>
<g>
	<path fill="#8D5BB4" d="M17.6,27.5c-0.4,0-0.9-0.2-1.2-0.5c-0.7-0.7-0.7-1.8,0-2.5c0.4-0.5,0.4-1.2,0-1.7c-0.7-0.7-0.7-1.8,0-2.5
		c0.7-0.7,1.8-0.7,2.5,0c1.8,1.8,1.8,4.8,0,6.6C18.6,27.3,18.1,27.5,17.6,27.5z"/>
</g>
<g>
	<path fill="#FFFFFF" d="M18.7,17h-5.3c-1,0-1.8-1-1.8-2c0-1,0.8-2,1.8-2h5.3c1,0,1.8,1,1.8,2C20.4,16,19.6,17,18.7,17z"/>
</g>
<g>
	<path fill="#A6C3FD" d="M18.7,12h-5.3c-1,0-1.8-1-1.8-2c0-1,0.8-2,1.8-2h5.3c1,0,1.8,1,1.8,2C20.4,11,19.6,12,18.7,12z"/>
</g>
<g>
	<path fill="#E191E5" d="M5.1,15.7c-1,0-1.8-0.8-1.8-1.8c0-1,0.3-1.9,0.9-2.7C4.8,10.5,6,10.4,6.7,11c0.8,0.6,0.9,1.7,0.3,2.5
		c-0.1,0.1-0.1,0.2-0.1,0.4C6.8,14.9,6.1,15.7,5.1,15.7z"/>
</g>
<g>
	<path fill="#FEB737" d="M7.1,13.4c-1,0-1.8-0.8-1.8-1.8C5.4,5.2,10.1,0,15.9,0c4.9,0,9.1,3.7,10.3,8.9c0.2,1-0.4,1.9-1.4,2.1
		c-1,0.2-1.9-0.4-2.1-1.4c-0.8-3.6-3.6-6.1-6.8-6.1c-3.9,0-7,3.6-7,8C8.9,12.6,8.1,13.4,7.1,13.4z"/>
</g>
<g>
	<path fill="#FFFFFF" d="M24.7,23.2c-1,0-1.8-0.8-1.8-1.8c0-1,0.8-1.8,1.8-1.8c2,0,3.7-1.9,3.7-4.3c0-2.4-1.6-4.3-3.7-4.3l-0.2,0
		c-1,0-1.8-0.7-1.9-1.7c-0.1-1,0.7-1.8,1.7-1.9c0.1,0,0.2,0,0.3,0c4,0,7.2,3.5,7.2,7.8C31.9,19.7,28.7,23.2,24.7,23.2z"/>
</g>
<g>
	<path fill="#8D5BB4" d="M24.7,23.2H5.1c-2.8,0-5.1-2.5-5.1-5.5c0-3,2.3-5.5,5.1-5.5c1,0,1.8,0.8,1.8,1.8c0,1-0.8,1.8-1.8,1.8
		c-0.9,0-1.6,0.9-1.6,2c0,1.1,0.7,2,1.6,2h19.7c1,0,1.8,0.8,1.8,1.8C26.5,22.4,25.7,23.2,24.7,23.2z"/>
</g>
<g>
	<path fill="#8D5BB4" d="M5.1,15.7c-1,0-1.8-0.8-1.8-1.8c0-1,0.3-1.9,0.9-2.7C4.4,11,5.6,9.6,7.4,9.9c1,0.1,1.7,1,1.5,2
		c-0.1,0.9-0.9,1.6-1.8,1.5c0,0-0.1,0.1-0.1,0.1c0,0.1-0.1,0.2-0.1,0.4C6.8,14.9,6.1,15.7,5.1,15.7z"/>
</g>
</svg>
