<?xml version="1.0" encoding="utf-8"?>
<!-- Generator: Adobe Illustrator 18.1.1, SVG Export Plug-In . SVG Version: 6.00 Build 0)  -->
<svg version="1.1" id="Layer_1" xmlns="http://www.w3.org/2000/svg" xmlns:xlink="http://www.w3.org/1999/xlink" x="0px" y="0px"
	 viewBox="0 0 40.5 36.6" enable-background="new 0 0 40.5 36.6" xml:space="preserve">
<line fill="none" stroke="#8D5BB4" stroke-width="4" stroke-linecap="round" stroke-miterlimit="10" x1="26.5" y1="34.6" x2="26.5" y2="34.6"/>
<g>
	<path fill="none" stroke="#8D5BB4" stroke-width="4" stroke-linecap="round" stroke-miterlimit="10" d="M23.4,29.4
		c-1.3,1.3-3.4,1.3-4.7,0c-1.3-1.3-1.3-3.4,0-4.7"/>
	<path fill="none" stroke="#E191E5" stroke-width="4" stroke-linecap="round" stroke-miterlimit="10" d="M23.4,24.7
		c1.3,1.3,1.3,3.4,0,4.7"/>
</g>
<line fill="none" stroke="#8D5BB4" stroke-width="4" stroke-linecap="round" stroke-miterlimit="10" x1="15.5" y1="17.6" x2="25.5" y2="17.6"/>
<line fill="none" stroke="#A6C3FD" stroke-width="4" stroke-linecap="round" stroke-miterlimit="10" x1="15.5" y1="11.6" x2="25.5" y2="11.6"/>
<path fill="none" stroke="#E191E5" stroke-width="4" stroke-linecap="round" stroke-linejoin="round" stroke-miterlimit="10" stroke-dasharray="1.7012,0" d="
	M7.3,14.3c-0.4,0.5-0.7,1.1-0.7,1.8v0"/>
<path fill="none" stroke="#FEB737" stroke-width="4" stroke-linecap="round" stroke-miterlimit="10" d="M31.1,10.8
	c-1.2-4.9-5.5-8.5-10.8-8.5c-6.1,0-11.1,5-11.1,11.2"/>
<path fill="none" stroke="#A6C3FD" stroke-width="4" stroke-linecap="round" stroke-miterlimit="10" d="M31.4,24.5
	c3.8,0,6.8-3.1,6.8-6.9c0-3.8-3.1-6.9-6.8-6.9c-0.1,0-0.2,0-0.3,0"/>
<path fill="none" stroke="#E191E5" stroke-width="4" stroke-linecap="round" stroke-linejoin="round" stroke-miterlimit="10" stroke-dasharray="1.9953,0" d="
	M6.7,16L6.7,16c-2.3,0-4.2,1.9-4.2,4.3c0,2.4,1.9,4.3,4.2,4.3h24.8"/>
<path fill="none" stroke="#E191E5" stroke-width="4" stroke-linecap="round" stroke-linejoin="round" stroke-miterlimit="10" stroke-dasharray="1.7012,0" d="
	M6.7,16L6.7,16c0-0.7,0.3-1.3,0.7-1.8c0,0,0.9-1,1.9-0.9"/>
</svg>
