<?xml version="1.0" encoding="utf-8"?>
<!-- Generator: Adobe Illustrator 18.1.1, SVG Export Plug-In . SVG Version: 6.00 Build 0)  -->
<svg version="1.1" id="Layer_1" xmlns="http://www.w3.org/2000/svg" xmlns:xlink="http://www.w3.org/1999/xlink" x="0px" y="0px"
	 viewBox="0 91 612 610.1" enable-background="new 0 91 612 610.1" xml:space="preserve">
<g>
	<g>
		<path fill="#FEB737" d="M34.3,365.5c-17.2,0-32.4-15.3-32.4-32.4C1.9,199.6,139.2,91,307,91c17.2,0,32.4,15.3,32.4,32.4
			s-15.3,32.4-32.4,32.4c-133.5,0-240.2,80.1-240.2,177.3C66.7,350.2,51.5,365.5,34.3,365.5z"/>
	</g>
	<g>
		<path fill="#8D5BB4" d="M579.6,365.5c-17.2,0-32.4-15.3-32.4-32.4c0-97.2-108.7-177.3-240.2-177.3c-17.2,0-32.4-15.3-32.4-32.4
			S289.8,91,307,91c167.8,0,305,108.7,305,242.1C612,350.2,598.7,365.5,579.6,365.5z"/>
	</g>
	<g>
		<path fill="#FEB737" d="M409.9,560c-13.3,0-26.7-9.5-30.5-22.9c-5.7-17.2,3.8-34.3,21-40c89.6-28.6,148.7-91.5,148.7-164
			c0-17.2,15.3-32.4,32.4-32.4c17.2,0,32.4,15.3,32.4,32.4c0,101-76.3,188.7-192.6,225C415.6,560,411.8,560,409.9,560z"/>
	</g>
	<g>
		<path fill="#8D5BB4" d="M226.9,560c-1.9,0-3.8,0-7.6,0C85.8,529.5,1.9,443.7,1.9,333.1c0-17.2,15.3-32.4,32.4-32.4
			s32.4,15.3,32.4,32.4c0,80.1,62.9,141.1,167.8,164c17.2,3.8,28.6,21,24.8,38.1C255.5,550.4,242.1,560,226.9,560z"/>
	</g>
	<g>
		<path fill="#A6C3FD" d="M402.3,701c-7.6,0-13.3-1.9-21-7.6L205.9,552.3c-13.3-11.4-15.3-30.5-5.7-45.8
			c11.4-13.3,30.5-15.3,45.8-5.7l175.4,141.1c13.3,11.4,15.3,30.5,5.7,45.8C421.3,697.2,411.8,701,402.3,701z"/>
	</g>
	<g>
		<path fill="#E191E5" d="M402.3,701L402.3,701c-19.1,0-32.4-15.3-32.4-34.3l7.6-141.1c0-17.2,15.3-30.5,34.3-30.5
			c17.2,0,30.5,15.3,30.5,34.3l-7.6,141.1C432.8,687.7,419.4,701,402.3,701z"/>
	</g>
</g>
</svg>
