<?xml version="1.0" encoding="utf-8"?>
<!-- Generator: Adobe Illustrator 18.1.1, SVG Export Plug-In . SVG Version: 6.00 Build 0)  -->
<svg version="1.1" id="Layer_1" xmlns="http://www.w3.org/2000/svg" xmlns:xlink="http://www.w3.org/1999/xlink" x="0px" y="0px"
	 viewBox="0 0 30 33.9" enable-background="new 0 0 30 33.9" xml:space="preserve">
<g>
	<g>
		
			<path fill="none" stroke="#8D5BB4" stroke-width="4" stroke-linecap="round" stroke-linejoin="round" stroke-miterlimit="10" stroke-dasharray="6,0" d="
			M2.1,28.8v-20c0-1.1,0.9-2,2-2h22c1.1,0,2,0.9,2,2"/>
		
			<path fill="none" stroke="#A6C3FD" stroke-width="4" stroke-linecap="round" stroke-linejoin="round" stroke-miterlimit="10" stroke-dasharray="6,0" d="
			M28.1,9.7v20c0,1.1-0.9,2-2,2h-22c-1.1,0-2-0.9-2-2"/>
	</g>
	<g>
		
			<line fill="none" stroke="#E191E5" stroke-width="4" stroke-linecap="round" stroke-linejoin="round" stroke-miterlimit="10" stroke-dasharray="6,0" x1="10.1" y1="2" x2="10.1" y2="9"/>
		
			<line fill="none" stroke="#FEB737" stroke-width="4" stroke-linecap="round" stroke-linejoin="round" stroke-miterlimit="10" stroke-dasharray="6,0" x1="20.1" y1="2" x2="20.1" y2="9"/>
	</g>
	
		<line fill="none" stroke="#A6C3FD" stroke-width="4" stroke-linecap="round" stroke-miterlimit="10" x1="10.1" y1="15.3" x2="10.1" y2="15.3"/>
	
		<line fill="none" stroke="#E191E5" stroke-width="4" stroke-linecap="round" stroke-linejoin="round" stroke-miterlimit="10" stroke-dasharray="6,0" x1="15.1" y1="15.3" x2="15.1" y2="15.3"/>
	
		<line fill="none" stroke="#8D5BB4" stroke-width="4" stroke-linecap="round" stroke-miterlimit="10" x1="20.1" y1="15.3" x2="20.1" y2="15.3"/>
	
		<line fill="none" stroke="#FEB737" stroke-width="4" stroke-linecap="round" stroke-linejoin="round" stroke-miterlimit="10" stroke-dasharray="6,0" x1="10.1" y1="20.3" x2="10.1" y2="20.3"/>
	
		<line fill="none" stroke="#A6C3FD" stroke-width="4" stroke-linecap="round" stroke-miterlimit="10" x1="15.1" y1="20.3" x2="15.1" y2="20.3"/>
	
		<line fill="none" stroke="#8D5BB4" stroke-width="4" stroke-linecap="round" stroke-miterlimit="10" x1="20.1" y1="20.3" x2="20.1" y2="20.3"/>
	
		<line fill="none" stroke="#E191E5" stroke-width="4" stroke-linecap="round" stroke-linejoin="round" stroke-miterlimit="10" stroke-dasharray="6,0" x1="10.1" y1="25.3" x2="10.1" y2="25.3"/>
	
		<line fill="none" stroke="#FEB737" stroke-width="4" stroke-linecap="round" stroke-miterlimit="10" x1="15.1" y1="25.3" x2="15.1" y2="25.3"/>
</g>
</svg>
