<?xml version="1.0" encoding="utf-8"?>
<!-- Generator: Adobe Illustrator 16.0.0, SVG Export Plug-In . SVG Version: 6.00 Build 0)  -->
<!DOCTYPE svg PUBLIC "-//W3C//DTD SVG 1.1//EN" "http://www.w3.org/Graphics/SVG/1.1/DTD/svg11.dtd">
<svg version="1.1" id="Layer_1" xmlns="http://www.w3.org/2000/svg" xmlns:xlink="http://www.w3.org/1999/xlink" x="0px" y="0px"
	 width="16px" height="16px" viewBox="0 0 16 16" enable-background="new 0 0 16 16" xml:space="preserve">
<path fill="#8D5BB4" d="M14,0H2C0.896,0,0,0.896,0,2v12c0,1.104,0.896,2,2,2h12c1.104,0,2-0.896,2-2V2C16,0.896,15.104,0,14,0z M4,2
	c1.104,0,2,0.895,2,2S5.105,6,4,6C2.895,6,2,5.105,2,4S2.895,2,4,2z M4,14c-1.105,0-2-0.895-2-2s0.895-2,2-2c1.104,0,2,0.895,2,2
	S5.105,14,4,14z M8,10c-1.105,0-2-0.895-2-2s0.895-2,2-2c1.105,0,2,0.895,2,2S9.105,10,8,10z M12,14c-1.105,0-2-0.895-2-2
	s0.895-2,2-2s2,0.895,2,2S13.105,14,12,14z M12,6c-1.105,0-2-0.895-2-2s0.895-2,2-2s2,0.895,2,2S13.105,6,12,6z"/>
</svg>
