<?xml version="1.0" encoding="utf-8"?>
<!-- Generator: Adobe Illustrator 18.1.1, SVG Export Plug-In . SVG Version: 6.00 Build 0)  -->
<svg version="1.1" id="Layer_1" xmlns="http://www.w3.org/2000/svg" xmlns:xlink="http://www.w3.org/1999/xlink" x="0px" y="0px"
	 viewBox="0 0 40 40" enable-background="new 0 0 40 40" xml:space="preserve">
<path fill="none" stroke="#A6C3FD" stroke-width="4" stroke-linecap="round" stroke-miterlimit="10" d="M34.7,9.4
	C31.4,4.9,26.1,2,20.1,2c-9.9,0-18,8.1-18,18"/>
<path fill="none" stroke="#A6C3FD" stroke-width="4" stroke-linecap="round" stroke-miterlimit="10" d="M38.1,20c0,9.9-8.1,18-18,18
	c-6.5,0-12.3-3.5-15.4-8.7"/>
<path fill="none" stroke="#FEB737" stroke-width="4" stroke-linecap="round" stroke-miterlimit="10" d="M2.1,20c0-9.9,8.1-18,18-18"
	/>
<path fill="none" stroke="#FEB737" stroke-width="4" stroke-linecap="round" stroke-miterlimit="10" d="M38.1,20c0,9.9-8.1,18-18,18
	"/>
<line fill="none" stroke="#FEB737" stroke-width="4" stroke-linecap="round" stroke-miterlimit="10" x1="36.1" y1="2" x2="36.1" y2="11"/>
<line fill="none" stroke="#FFFFFF" stroke-width="4" stroke-linecap="round" stroke-miterlimit="10" x1="27.1" y1="11" x2="36.1" y2="11"/>
<line fill="none" stroke="#FEB737" stroke-width="4" stroke-linecap="round" stroke-miterlimit="10" x1="4.1" y1="38" x2="4.1" y2="29"/>
<line fill="none" stroke="#FFFFFF" stroke-width="4" stroke-linecap="round" stroke-miterlimit="10" x1="13.1" y1="29" x2="4.1" y2="29"/>
</svg>
