<?xml version="1.0" encoding="utf-8"?>
<!-- Generator: Adobe Illustrator 16.0.0, SVG Export Plug-In . SVG Version: 6.00 Build 0)  -->
<!DOCTYPE svg PUBLIC "-//W3C//DTD SVG 1.1//EN" "http://www.w3.org/Graphics/SVG/1.1/DTD/svg11.dtd">
<svg version="1.1" id="Layer_1" xmlns="http://www.w3.org/2000/svg" xmlns:xlink="http://www.w3.org/1999/xlink" x="0px" y="0px"
	 width="40px" height="40px" viewBox="0 0 40 40" enable-background="new 0 0 40 40" xml:space="preserve">
<g>
	<g>
		<g>
			
				<line fill="none" stroke="#A6C3FD" stroke-width="6" stroke-linecap="round" stroke-miterlimit="10" x1="37" y1="3" x2="37" y2="37"/>
			
				<line fill="none" stroke="#FEB737" stroke-width="6" stroke-linecap="round" stroke-miterlimit="10" x1="3" y1="3" x2="3" y2="37"/>
			
				<line fill="none" stroke="#E191E5" stroke-width="6" stroke-linecap="round" stroke-miterlimit="10" x1="3" y1="3" x2="37" y2="3"/>
			
				<line fill="none" stroke="#8D5BB4" stroke-width="6" stroke-linecap="round" stroke-miterlimit="10" x1="3" y1="37" x2="37" y2="37"/>
			
				<line fill="none" stroke="#A6C3FD" stroke-width="6" stroke-linecap="round" stroke-miterlimit="10" x1="37" y1="19" x2="37" y2="37"/>
		</g>
		
			<line fill="none" stroke="#FEB737" stroke-width="6" stroke-linecap="round" stroke-miterlimit="10" x1="3" y1="3" x2="3" y2="19"/>
	</g>
	<path fill="#8D5BB4" d="M24,16.476h-3.064v-2.075c0-0.78,0.498-0.962,0.852-0.962c0.35,0,2.162,0,2.162,0v-3.427L20.974,10
		c-3.309,0-4.062,2.557-4.062,4.191v2.285H15v3.532h1.912c0,4.532,0,9.992,0,9.992h4.023c0,0,0-5.516,0-9.992h2.713L24,16.476z"/>
</g>
</svg>
