<?xml version="1.0" encoding="utf-8"?>
<!-- Generator: Adobe Illustrator 18.1.1, SVG Export Plug-In . SVG Version: 6.00 Build 0)  -->
<svg version="1.1" id="Layer_1" xmlns="http://www.w3.org/2000/svg" xmlns:xlink="http://www.w3.org/1999/xlink" x="0px" y="0px"
	 viewBox="0 0 30.6 32.2" enable-background="new 0 0 30.6 32.2" xml:space="preserve">
<line fill="none" stroke="#8D5BB4" stroke-width="4" stroke-linecap="round" stroke-linejoin="round" stroke-miterlimit="10" stroke-dasharray="1,0" x1="15.6" y1="18.2" x2="15.6" y2="10.2"/>
<line fill="none" stroke="#FFFFFF" stroke-width="4" stroke-linecap="round" stroke-linejoin="round" stroke-miterlimit="10" stroke-dasharray="1,0" x1="15.6" y1="30.2" x2="15.6" y2="18.2"/>
<g>
	<path fill="none" stroke="#A6C3FD" stroke-width="4" stroke-linecap="round" stroke-miterlimit="10" d="M15.6,5.5
		c0,0-4.2,3.3-6.3,3.3c-2.1,0-3.7-1.5-3.7-3.3c0-1.8,1.7-3.3,3.7-3.3C11.4,2.2,15.6,5.5,15.6,5.5z"/>
	<path fill="none" stroke="#FEB737" stroke-width="4" stroke-linecap="round" stroke-linejoin="round" stroke-miterlimit="10" d="
		M15.6,5.5c0,0,4.2,3.3,6.3,3.3c2.1,0,3.8-1.5,3.8-3.3c0-1.8-1.7-3.3-3.8-3.3C19.8,2.2,15.6,5.5,15.6,5.5z"/>
</g>
<g>
	
		<line fill="none" stroke="#A6C3FD" stroke-width="4" stroke-linecap="round" stroke-miterlimit="10" x1="5.6" y1="30.2" x2="5.6" y2="18.2"/>
	
		<line fill="none" stroke="#FEB737" stroke-width="4" stroke-linecap="round" stroke-linejoin="round" stroke-miterlimit="10" stroke-dasharray="1,0" x1="25.6" y1="30.2" x2="25.6" y2="18.2"/>
	
		<line fill="none" stroke="#A6C3FD" stroke-width="4" stroke-linecap="round" stroke-linejoin="round" stroke-miterlimit="10" x1="25.6" y1="30.2" x2="5.6" y2="30.2"/>
	
		<line fill="none" stroke="#FFFFFF" stroke-width="4" stroke-linecap="round" stroke-linejoin="round" stroke-miterlimit="10" stroke-dasharray="1,0" x1="2.6" y1="18.2" x2="2.6" y2="10.2"/>
	
		<line fill="none" stroke="#FFFFFF" stroke-width="4" stroke-linecap="round" stroke-linejoin="round" stroke-miterlimit="10" stroke-dasharray="1,0" x1="2.6" y1="10.2" x2="28.6" y2="10.2"/>
	
		<line fill="none" stroke="#FEB737" stroke-width="4" stroke-linecap="round" stroke-linejoin="round" stroke-miterlimit="10" stroke-dasharray="1,0" x1="2.6" y1="18.2" x2="28.6" y2="18.2"/>
	
		<line fill="none" stroke="#E191E5" stroke-width="4" stroke-linecap="round" stroke-linejoin="round" stroke-miterlimit="10" stroke-dasharray="2,0" x1="28.6" y1="18.2" x2="28.6" y2="10.2"/>
</g>
</svg>
