<?xml version="1.0" encoding="utf-8"?>
<!-- Generator: Adobe Illustrator 18.1.1, SVG Export Plug-In . SVG Version: 6.00 Build 0)  -->
<svg version="1.1" id="Layer_1" xmlns="http://www.w3.org/2000/svg" xmlns:xlink="http://www.w3.org/1999/xlink" x="0px" y="0px"
	 viewBox="-265.8 364.3 64.8 65.5" enable-background="new -265.8 364.3 64.8 65.5" xml:space="preserve">
<g>
	
		<line fill="none" stroke="#A6C3FD" stroke-width="4" stroke-linecap="round" stroke-linejoin="round" stroke-miterlimit="10" stroke-dasharray="1,0" x1="-233" y1="397" x2="-233" y2="387"/>
	
		<line fill="none" stroke="#A6C3FD" stroke-width="4" stroke-linecap="round" stroke-linejoin="round" stroke-miterlimit="10" stroke-dasharray="1,0" x1="-233" y1="413" x2="-233" y2="397"/>
	<path fill="none" stroke="#FEB737" stroke-width="4" stroke-linecap="round" stroke-miterlimit="10" d="M-233,382.1c0,0-5,4-7.5,4
		c-2.5,0-4.5-1.8-4.5-4c0-2.2,2-4,4.5-4C-238,378.1-233,382.1-233,382.1z"/>
	<path fill="none" stroke="#FFFFFF" stroke-width="4" stroke-linecap="round" stroke-linejoin="round" stroke-miterlimit="10" d="
		M-233,382.1c0,0,5,4,7.5,4c2.5,0,4.5-1.8,4.5-4c0-2.2-2-4-4.5-4C-228,378.1-233,382.1-233,382.1z"/>
	
		<line fill="none" stroke="#FEB737" stroke-width="4" stroke-linecap="round" stroke-miterlimit="10" x1="-245" y1="413" x2="-245" y2="397"/>
	
		<line fill="none" stroke="#8D5BB4" stroke-width="4" stroke-linecap="round" stroke-linejoin="round" stroke-miterlimit="10" stroke-dasharray="1,0" x1="-221" y1="413" x2="-221" y2="397"/>
	
		<line fill="none" stroke="#8D5BB4" stroke-width="4" stroke-linecap="round" stroke-linejoin="round" stroke-miterlimit="10" x1="-221" y1="413" x2="-245" y2="413"/>
	
		<line fill="none" stroke="#FFFFFF" stroke-width="4" stroke-linecap="round" stroke-linejoin="round" stroke-miterlimit="10" stroke-dasharray="1,0" x1="-217" y1="397" x2="-217" y2="387"/>
	
		<line fill="none" stroke="#FFFFFF" stroke-width="4" stroke-linecap="round" stroke-linejoin="round" stroke-miterlimit="10" stroke-dasharray="1,0" x1="-249" y1="397" x2="-249" y2="387"/>
	
		<line fill="none" stroke="#8D5BB4" stroke-width="4" stroke-linecap="round" stroke-linejoin="round" stroke-miterlimit="10" stroke-dasharray="1,0" x1="-249" y1="387" x2="-217" y2="387"/>
	
		<line fill="none" stroke="#FEB737" stroke-width="4" stroke-linecap="round" stroke-linejoin="round" stroke-miterlimit="10" stroke-dasharray="1,0" x1="-249" y1="397" x2="-217" y2="397"/>
	
		<line fill="none" stroke="#FFFFFF" stroke-width="4" stroke-linecap="round" stroke-linejoin="round" stroke-miterlimit="10" stroke-dasharray="1,0" x1="-217" y1="397" x2="-217" y2="393"/>
	<g>
		<g>
			
				<line fill="none" stroke="#8D5BB4" stroke-width="4" stroke-linecap="round" stroke-linejoin="round" stroke-miterlimit="10" x1="-233" y1="427" x2="-233" y2="421"/>
			
				<line fill="none" stroke="#8D5BB4" stroke-width="4" stroke-linecap="round" stroke-linejoin="round" stroke-miterlimit="10" x1="-233" y1="373" x2="-233" y2="367"/>
		</g>
		<g>
			
				<line fill="none" stroke="#8D5BB4" stroke-width="4" stroke-linecap="round" stroke-linejoin="round" stroke-miterlimit="10" x1="-254" y1="418" x2="-250.6" y2="414.6"/>
			
				<line fill="none" stroke="#8D5BB4" stroke-width="4" stroke-linecap="round" stroke-linejoin="round" stroke-miterlimit="10" x1="-215.4" y1="379.4" x2="-212" y2="376"/>
		</g>
		<g>
			
				<line fill="none" stroke="#8D5BB4" stroke-width="4" stroke-linecap="round" stroke-linejoin="round" stroke-miterlimit="10" x1="-263" y1="397" x2="-257" y2="397"/>
			
				<line fill="none" stroke="#8D5BB4" stroke-width="4" stroke-linecap="round" stroke-linejoin="round" stroke-miterlimit="10" x1="-209" y1="397" x2="-203" y2="397"/>
		</g>
		<g>
			
				<line fill="none" stroke="#8D5BB4" stroke-width="4" stroke-linecap="round" stroke-linejoin="round" stroke-miterlimit="10" x1="-254" y1="376" x2="-250.6" y2="379.4"/>
			
				<line fill="none" stroke="#8D5BB4" stroke-width="4" stroke-linecap="round" stroke-linejoin="round" stroke-miterlimit="10" x1="-215.4" y1="414.6" x2="-212" y2="418"/>
		</g>
	</g>
	
		<line fill="none" stroke="#FFFFFF" stroke-width="4" stroke-linecap="round" stroke-linejoin="round" stroke-miterlimit="10" stroke-dasharray="1,0" x1="-249" y1="393" x2="-249" y2="387"/>
</g>
</svg>
