<?xml version="1.0" encoding="utf-8"?>
<!-- Generator: Adobe Illustrator 19.0.0, SVG Export Plug-In . SVG Version: 6.00 Build 0)  -->
<svg version="1.1" id="Layer_1" xmlns="http://www.w3.org/2000/svg" xmlns:xlink="http://www.w3.org/1999/xlink" x="0px" y="0px"
	 viewBox="0 0 40 40" style="enable-background:new 0 0 40 40;" xml:space="preserve">
<style type="text/css">
	
		.st0{fill:none;stroke:#8D5BB4;stroke-width:4;stroke-linecap:round;stroke-linejoin:round;stroke-miterlimit:10;stroke-dasharray:1,0;}
	.st1{fill:none;stroke:#A6C3FD;stroke-width:4;stroke-linecap:round;stroke-miterlimit:10;}
	.st2{fill:none;stroke:#FEB737;stroke-width:4;stroke-linecap:round;stroke-linejoin:round;stroke-miterlimit:10;}
	
		.st3{fill:none;stroke:#E191E5;stroke-width:4;stroke-linecap:round;stroke-linejoin:round;stroke-miterlimit:10;stroke-dasharray:2,0;}
	
		.st4{fill:none;stroke:#FEB737;stroke-width:4;stroke-linecap:round;stroke-linejoin:round;stroke-miterlimit:10;stroke-dasharray:1,0;}
	.st5{fill:none;stroke:#A6C3FD;stroke-width:4;stroke-linecap:round;stroke-linejoin:round;stroke-miterlimit:10;}
</style>
<line class="st0" x1="20" y1="23" x2="20" y2="11"/>
<line class="st0" x1="20" y1="37" x2="20" y2="23"/>
<path class="st1" d="M19.8,6.1c0,0-5.2,4.2-7.8,4.2c-2.6,0-4.7-1.9-4.7-4.2c0-2.3,2.1-4.2,4.7-4.2C14.6,1.9,19.8,6.1,19.8,6.1z"/>
<path class="st2" d="M19.8,6.1c0,0,5.2,4.2,7.8,4.2c2.6,0,4.7-1.9,4.7-4.2c0-2.3-2.1-4.2-4.7-4.2C25,1.9,19.8,6.1,19.8,6.1z"/>
<line class="st3" x1="7" y1="38" x2="7" y2="24"/>
<line class="st4" x1="33" y1="38" x2="33" y2="24"/>
<line class="st5" x1="33" y1="38" x2="7" y2="38"/>
<line class="st5" x1="2" y1="23" x2="2" y2="11"/>
<line class="st0" x1="2" y1="11" x2="38" y2="11"/>
<line class="st4" x1="2" y1="23" x2="38" y2="23"/>
<line class="st3" x1="38" y1="23" x2="38" y2="11"/>
</svg>
