<?xml version="1.0" encoding="utf-8"?>
<!-- Generator: Adobe Illustrator 16.0.0, SVG Export Plug-In . SVG Version: 6.00 Build 0)  -->
<!DOCTYPE svg PUBLIC "-//W3C//DTD SVG 1.1//EN" "http://www.w3.org/Graphics/SVG/1.1/DTD/svg11.dtd">
<svg version="1.1" id="Layer_1" xmlns="http://www.w3.org/2000/svg" xmlns:xlink="http://www.w3.org/1999/xlink" x="0px" y="0px"
	 width="40px" height="40px" viewBox="0 0 40 40" enable-background="new 0 0 40 40" xml:space="preserve">
<g>
	<g>
		<path fill="#A6C3FD" d="M4.812,16.726c-1.287,0-2.495-0.514-3.403-1.446S0,13.106,0,11.787c0-1.325,0.504-2.572,1.42-3.51
			c1.428-1.465,4.752-1.862,6.605-1.971C8.611,6.277,9.159,6.494,9.564,6.91c0.406,0.417,0.62,0.991,0.587,1.579
			c-0.104,1.904-0.492,5.316-1.922,6.783C7.315,16.209,6.102,16.726,4.812,16.726z M5.825,10.751
			c-0.766,0.151-1.378,0.334-1.607,0.501c-0.155,0.165-0.187,0.409-0.187,0.535c0,0.125,0.03,0.363,0.229,0.567
			c0.197,0.202,0.43,0.232,0.551,0.232c0.124,0,0.362-0.031,0.567-0.243C5.516,12.141,5.683,11.525,5.825,10.751z"/>
	</g>
	<g>
		<path fill="#E191E5" d="M8.139,10.442c-0.533,0-1.046-0.217-1.425-0.605c-0.405-0.416-0.619-0.99-0.588-1.579
			c0.104-1.903,0.491-5.315,1.921-6.782c0.912-0.938,2.126-1.454,3.417-1.454c1.286,0,2.494,0.513,3.402,1.446
			c0.908,0.933,1.408,2.173,1.408,3.492c0,1.323-0.503,2.568-1.416,3.507c-1.43,1.467-4.753,1.866-6.606,1.973
			C8.214,10.441,8.177,10.442,8.139,10.442z M11.464,4.159c-0.124,0-0.361,0.031-0.566,0.242c-0.14,0.207-0.305,0.819-0.447,1.595
			c0.767-0.151,1.379-0.335,1.607-0.501c0.154-0.165,0.185-0.409,0.185-0.535c0-0.125-0.029-0.363-0.229-0.567
			C11.816,4.189,11.585,4.159,11.464,4.159z"/>
	</g>
	<g>
		<path fill="#E191E5" d="M25,39.957c-1.113,0-2-0.928-2-2.069V17.196c0-1.143,0.887-2.068,2-2.068s2,0.926,2,2.068v20.691
			C27,39.029,26.113,39.957,25,39.957z"/>
	</g>
	<g>
		<path fill="#FEB737" d="M33.984,40H15.842c-1.113,0-2.016-0.857-2.016-2c0-1.145,0.902-2,2.016-2h18.143
			C35.098,36,36,36.855,36,38C36,39.143,35.098,40,33.984,40z"/>
	</g>
	<g>
		<path fill="#FEB737" d="M33.984,19H15.842c-1.113,0-2.016-0.857-2.016-2s0.902-2,2.016-2h18.143C35.098,15,36,15.857,36,17
			S35.098,19,33.984,19z"/>
	</g>
	<g>
		<path fill="#8D5BB4" d="M34,39.957c-1.113,0-2-0.928-2-2.069V17.196c0-1.143,0.887-2.068,2-2.068s2,0.926,2,2.068v20.691
			C36,39.029,35.113,39.957,34,39.957z"/>
	</g>
	<g>
		<path fill="#A6C3FD" d="M16,39.957c-1.113,0-2-0.928-2-2.069V17.196c0-1.143,0.887-2.068,2-2.068s2,0.926,2,2.068v20.691
			C18,39.029,17.113,39.957,16,39.957z"/>
	</g>
	<g>
		<path fill="#FEB737" d="M24.913,40h-9.071c-1.113,0-2.016-0.857-2.016-2c0-1.145,0.902-2,2.016-2h9.071
			c1.113,0,2.016,0.855,2.016,2C26.929,39.143,26.026,40,24.913,40z"/>
	</g>
	<g>
		<path fill="#E191E5" d="M8.185,25.187c-0.516,0-1.032-0.202-1.426-0.606c-0.787-0.808-0.787-2.118,0-2.926L21.077,6.957
			c0.788-0.809,2.063-0.809,2.851,0c0.787,0.808,0.787,2.118,0,2.926L9.609,24.58C9.216,24.984,8.7,25.187,8.185,25.187z"/>
	</g>
	<g>
		<path fill="#A6C3FD" d="M22.503,10.489c-0.516,0-1.032-0.202-1.426-0.606l-4.187-4.298c-0.788-0.808-0.788-2.118,0-2.926
			c0.787-0.809,2.062-0.809,2.85,0l4.188,4.298c0.787,0.808,0.787,2.118,0,2.926C23.534,10.287,23.019,10.489,22.503,10.489z"/>
	</g>
	<g>
		<path fill="#FEB737" d="M3.997,20.888c-0.516,0-1.031-0.202-1.425-0.606c-0.788-0.808-0.788-2.118,0-2.926L16.891,2.659
			c0.787-0.809,2.062-0.809,2.85,0c0.788,0.808,0.788,2.118,0,2.926L5.423,20.281C5.028,20.686,4.513,20.888,3.997,20.888z"/>
	</g>
	<g>
		<path fill="#8D5BB4" d="M8.185,25.187c-0.516,0-1.032-0.202-1.426-0.606l-4.187-4.299c-0.788-0.808-0.788-2.118,0-2.926
			c0.787-0.808,2.062-0.808,2.851,0l4.187,4.299c0.787,0.809,0.787,2.118,0,2.926C9.216,24.984,8.7,25.187,8.185,25.187z"/>
	</g>
	<g>
		<path fill="#E191E5" d="M8.185,25.187c-0.516,0-1.032-0.202-1.426-0.606c-0.787-0.808-0.787-2.118,0-2.926l6.619-6.794
			c0.788-0.808,2.063-0.808,2.851,0c0.788,0.808,0.788,2.118,0,2.926L9.609,24.58C9.216,24.984,8.7,25.187,8.185,25.187z"/>
	</g>
	<g>
		<path fill="#FEB737" d="M33.984,19h-4.032c-1.112,0-2.016-0.857-2.016-2s0.903-2,2.016-2h4.032C35.098,15,36,15.857,36,17
			S35.098,19,33.984,19z"/>
	</g>
</g>
</svg>
