<?xml version="1.0" encoding="utf-8"?>
<!-- Generator: Adobe Illustrator 18.1.1, SVG Export Plug-In . SVG Version: 6.00 Build 0)  -->
<svg version="1.1" id="Layer_1" xmlns="http://www.w3.org/2000/svg" xmlns:xlink="http://www.w3.org/1999/xlink" x="0px" y="0px"
	 viewBox="0 0 21 19" enable-background="new 0 0 21 19" xml:space="preserve">
<g>
	<path fill="#8D5BB4" d="M20.6,7.7h-3.2V4.5c0-0.2-0.2-0.4-0.4-0.4h-0.9c-0.2,0-0.4,0.2-0.4,0.4v3.2h-3.2c-0.2,0-0.4,0.2-0.4,0.4
		v0.9c0,0.2,0.2,0.4,0.4,0.4h3.2v3.2c0,0.2,0.2,0.4,0.4,0.4H17c0.2,0,0.4-0.2,0.4-0.4V9.5h3.2c0.2,0,0.4-0.2,0.4-0.4V8.2
		C21,7.9,20.8,7.7,20.6,7.7z"/>
	<path fill="#8D5BB4" d="M9.9,10.5C9.3,10,8.7,9.3,8.6,9.1c0-0.4,0-0.6,0.9-1.3c1.1-0.9,1.7-2,1.7-3.3c0-1.1-0.3-2.1-0.9-2.8h0.4
		c0.1,0,0.2,0,0.3-0.1l1.2-0.9c0.2-0.1,0.2-0.3,0.2-0.5C12.4,0.1,12.3,0,12.1,0H6.5C5.9,0,5.3,0.1,4.7,0.3C2.6,1,1.2,2.8,1.2,4.6
		c0,2.5,1.9,4.5,4.6,4.5C5.7,9.3,5.7,9.5,5.7,9.7c0,0.4,0.1,0.8,0.3,1.1c0,0,0,0-0.1,0c-2.5,0-4.7,1.2-5.6,3.1
		c-0.2,0.5-0.3,1-0.3,1.4c0,0.5,0.1,0.9,0.3,1.3c0.5,1,1.7,1.7,3.2,2.1C4.4,18.9,5.2,19,6.1,19c0.8,0,1.6-0.1,2.3-0.3
		c2.2-0.6,3.6-2.3,3.6-4.2C12.1,12.7,11.5,11.6,9.9,10.5z M2.9,14.7c0-1.3,1.7-2.5,3.6-2.5h0.1c0.4,0,0.8,0.1,1.2,0.2
		c0.1,0.1,0.3,0.2,0.4,0.3c0.9,0.6,1.5,1,1.6,1.6c0,0.2,0.1,0.3,0.1,0.5c0,1.6-1.2,2.5-3.6,2.5C4.3,17.2,2.9,16.1,2.9,14.7z
		 M4.6,2.2c0.3-0.3,0.7-0.5,1.1-0.5h0c1.2,0,2.4,1.4,2.6,3.1c0.1,0.9-0.1,1.8-0.5,2.3C7.6,7.4,7.2,7.6,6.7,7.6l0,0h0
		c-1.2,0-2.4-1.5-2.6-3.1C4,3.6,4.2,2.7,4.6,2.2z"/>
</g>
</svg>
