<?xml version="1.0" encoding="utf-8"?>
<!-- Generator: Adobe Illustrator 19.0.0, SVG Export Plug-In . SVG Version: 6.00 Build 0)  -->
<svg version="1.1" id="Layer_1" xmlns="http://www.w3.org/2000/svg" xmlns:xlink="http://www.w3.org/1999/xlink" x="0px" y="0px"
	 viewBox="0 0 40 40" style="enable-background:new 0 0 40 40;" xml:space="preserve">
<style type="text/css">
	
		.st0{fill:none;stroke:#E191E5;stroke-width:4;stroke-linecap:round;stroke-linejoin:round;stroke-miterlimit:10;stroke-dasharray:6,0;}
	
		.st1{fill:none;stroke:#FEB737;stroke-width:4;stroke-linecap:round;stroke-linejoin:round;stroke-miterlimit:10;stroke-dasharray:6,0;}
	
		.st2{fill:none;stroke:#8D5BB4;stroke-width:4;stroke-linecap:round;stroke-linejoin:round;stroke-miterlimit:10;stroke-dasharray:6,0;}
	
		.st3{fill:none;stroke:#A6C3FD;stroke-width:4;stroke-linecap:round;stroke-linejoin:round;stroke-miterlimit:10;stroke-dasharray:6,0;}
</style>
<line class="st0" x1="32" y1="24" x2="14" y2="24"/>
<line class="st0" x1="23" y1="24" x2="23" y2="38"/>
<line class="st1" x1="32" y1="38" x2="14" y2="38"/>
<line class="st2" x1="32" y1="24" x2="32" y2="38"/>
<line class="st3" x1="14" y1="24" x2="14" y2="38"/>
<line class="st3" x1="37.8" y1="11.8" x2="34.2" y2="15.3"/>
<line class="st1" x1="36" y1="20" x2="34" y2="20"/>
<line class="st0" x1="30" y1="12" x2="30" y2="14"/>
<line class="st1" x1="22" y1="38" x2="14" y2="38"/>
<line class="st2" x1="11.6" y1="10.8" x2="15.3" y2="15.9"/>
<line class="st0" x1="24.7" y1="10.4" x2="7.4" y2="23"/>
<line class="st3" x1="21" y1="5.3" x2="24.7" y2="10.4"/>
<line class="st1" x1="3.7" y1="17.9" x2="21" y2="5.3"/>
<path class="st3" d="M9.7,7.9c0,0-0.9,4.3-2.3,5.3c-1.3,1-3.2,0.7-4.1-0.7c-1-1.3-0.7-3.2,0.7-4.1C5.3,7.5,9.7,7.9,9.7,7.9z"/>
<path class="st0" d="M9.7,7.9c0,0,4.4,0.5,5.8-0.5c1.3-1,1.6-2.8,0.7-4.1c-1-1.3-2.8-1.6-4.2-0.7C10.6,3.6,9.7,7.9,9.7,7.9z"/>
<line class="st2" x1="3.7" y1="17.9" x2="7.4" y2="23"/>
<line class="st0" x1="15.4" y1="17.1" x2="7.4" y2="23"/>
<line class="st0" x1="32" y1="24" x2="23" y2="24"/>
</svg>
