<?xml version="1.0" encoding="utf-8"?>
<!-- Generator: Adobe Illustrator 19.0.0, SVG Export Plug-In . SVG Version: 6.00 Build 0)  -->
<svg version="1.1" id="Layer_1" xmlns="http://www.w3.org/2000/svg" xmlns:xlink="http://www.w3.org/1999/xlink" x="0px" y="0px"
	 viewBox="0 0 40 40" style="enable-background:new 0 0 40 40;" xml:space="preserve">
<style type="text/css">
	.st0{fill:#FEB737;}
	.st1{fill:#A6C3FD;}
	.st2{fill:#E191E5;}
	.st3{fill:#E190E5;}
	.st4{fill:none;stroke:#A6C3FD;stroke-width:4;stroke-linecap:round;stroke-linejoin:round;stroke-miterlimit:10;}
	
		.st5{fill:none;stroke:#FFFFFF;stroke-width:4;stroke-linecap:round;stroke-linejoin:round;stroke-miterlimit:10;stroke-dasharray:1,0;}
	
		.st6{fill:none;stroke:#E191E5;stroke-width:4;stroke-linecap:round;stroke-linejoin:round;stroke-miterlimit:10;stroke-dasharray:2,0;}
	
		.st7{fill:none;stroke:#FEB737;stroke-width:4;stroke-linecap:round;stroke-linejoin:round;stroke-miterlimit:10;stroke-dasharray:1,0;}
</style>
<path class="st0" d="M20,40c-1.1,0-2-0.9-2-2v-4c0-1.1,0.9-2,2-2c1.1,0,2,0.9,2,2v4C22,39.1,21.1,40,20,40z"/>
<path class="st0" d="M20,8c-1.1,0-2-0.9-2-2V2c0-1.1,0.9-2,2-2c1.1,0,2,0.9,2,2v4C22,7.1,21.1,8,20,8z"/>
<g>
	<path class="st1" d="M5,22H2c-1.1,0-2-0.9-2-2s0.9-2,2-2h3c1.1,0,2,0.9,2,2S6.1,22,5,22z"/>
</g>
<g>
	<path class="st2" d="M38,22h-3c-1.1,0-2-0.9-2-2s0.9-2,2-2h3c1.1,0,2,0.9,2,2S39.1,22,38,22z"/>
</g>
<g>
	<path class="st1" d="M31.3,34.1L29.2,32c-0.8-0.8-0.8-2,0-2.8c0.8-0.8,2-0.8,2.8,0l2.1,2.1c0.8,0.8,0.8,2,0,2.8
		C33.4,34.9,32.1,34.9,31.3,34.1z"/>
</g>
<g>
	<g>
		<path class="st1" d="M33.5,6.3l2.4-1.7C36.7,3.9,38,4.1,38.6,5c0.6,0.9,0.4,2.1-0.4,2.8l-2.4,1.7C34.9,10.1,33.7,9.9,33,9
			C32.4,8.1,32.6,6.9,33.5,6.3z"/>
	</g>
	<g>
		<path class="st1" d="M6.5,6.3L4.1,4.5C3.3,3.9,2,4.1,1.4,5C0.7,5.9,0.9,7.1,1.8,7.7l2.4,1.7C5.1,10.1,6.3,9.9,7,9
			C7.6,8.1,7.4,6.9,6.5,6.3z"/>
	</g>
</g>
<g>
	<path class="st3" d="M5.9,31.3L8,29.2c0.8-0.8,2-0.8,2.8,0c0.8,0.8,0.8,2,0,2.8l-2.1,2.1c-0.8,0.8-2,0.8-2.8,0
		C5.1,33.4,5.1,32.1,5.9,31.3z"/>
</g>
<line class="st4" x1="20" y1="29" x2="10" y2="25"/>
<line class="st5" x1="20" y1="12" x2="10" y2="8"/>
<line class="st6" x1="10" y1="25" x2="10" y2="8"/>
<line class="st7" x1="20" y1="29" x2="20" y2="14"/>
<line class="st5" x1="20" y1="12" x2="15.6" y2="10.2"/>
<line class="st4" x1="13.6" y1="26.5" x2="10" y2="25"/>
<line class="st5" x1="20" y1="29" x2="30" y2="25"/>
<line class="st4" x1="20" y1="12" x2="30" y2="8"/>
<line class="st7" x1="30" y1="25" x2="30" y2="8"/>
<line class="st4" x1="20" y1="12" x2="24.4" y2="10.2"/>
<line class="st5" x1="25" y1="27" x2="30" y2="25"/>
<line class="st7" x1="20" y1="29" x2="20" y2="24"/>
</svg>
