<?xml version="1.0" encoding="utf-8"?>
<!-- Generator: Adobe Illustrator 19.0.0, SVG Export Plug-In . SVG Version: 6.00 Build 0)  -->
<svg version="1.1" id="Layer_1" xmlns="http://www.w3.org/2000/svg" xmlns:xlink="http://www.w3.org/1999/xlink" x="0px" y="0px"
	 viewBox="0 0 32 32" style="enable-background:new 0 0 32 32;" xml:space="preserve">
<style type="text/css">
	.st0{fill:#A6C3FD;}
	.st1{fill:#E191E5;}
	.st2{fill:#FEB737;}
	.st3{fill:none;}
</style>
<path class="st0" d="M2,32c-1.1,0-2-0.9-2-2.1V14.2c0-1.2,0.9-2.1,2-2.1c1.1,0,2,0.9,2,2.1v15.7C4,31.1,3.1,32,2,32"/>
<path class="st1" d="M30,32H2c-1.1,0-2-0.8-2-2c0-1.2,0.9-2,2-2h28c1.1,0,2,0.8,2,2C32,31.2,31.1,32,30,32"/>
<path class="st1" d="M2.1,16.5c-0.6,0-1.1-0.2-1.5-0.7c-0.7-0.9-0.6-2.2,0.2-2.9L14.7,0.5c0.8-0.7,2.1-0.6,2.8,0.2
	c0.7,0.9,0.6,2.2-0.2,2.9L3.4,16C3,16.4,2.6,16.5,2.1,16.5"/>
<path class="st0" d="M29.8,16.5c-0.5,0-0.9-0.2-1.3-0.5L14.7,3.7c-0.8-0.7-0.9-2.1-0.2-2.9c0.7-0.9,2-1,2.8-0.2l13.9,12.3
	c0.8,0.8,0.9,2.1,0.2,2.9C31,16.3,30.4,16.5,29.8,16.5"/>
<path class="st2" d="M16,24.2c-0.3,0-0.6-0.1-0.9-0.2L1.2,16.3c-1-0.5-1.3-1.8-0.8-2.8c0.5-1,1.7-1.4,2.7-0.9l13.9,7.7
	c1,0.5,1.3,1.8,0.8,2.8C17.4,23.8,16.7,24.2,16,24.2"/>
<path class="st0" d="M16,24.2c-0.7,0-1.4-0.4-1.8-1.1c-0.5-1-0.1-2.3,0.8-2.8l13.9-7.7c1-0.5,2.2-0.2,2.7,0.9c0.5,1,0.1,2.3-0.8,2.8
	L16.9,24C16.6,24.1,16.3,24.2,16,24.2"/>
<path class="st2" d="M30,32c-1.1,0-2-0.9-2-2.1V14.2c0-1.2,0.9-2.1,2-2.1c1.1,0,2,0.9,2,2.1v15.7C32,31.1,31.1,32,30,32"/>
<rect class="st3" width="32" height="32"/>
</svg>
