<?xml version="1.0" encoding="utf-8"?>
<!-- Generator: Adobe Illustrator 19.0.0, SVG Export Plug-In . SVG Version: 6.00 Build 0)  -->
<svg version="1.1" id="Layer_1" xmlns="http://www.w3.org/2000/svg" xmlns:xlink="http://www.w3.org/1999/xlink" x="0px" y="0px"
	 viewBox="0 0 32 32" style="enable-background:new 0 0 32 32;" xml:space="preserve">
<style type="text/css">
	.st0{fill:#FFFFFF;}
	.st1{fill:#E191E5;}
	.st2{fill:#FEB737;}
	.st3{fill:none;stroke:#FEB737;stroke-width:4;stroke-linecap:round;stroke-miterlimit:10;}
	.st4{fill:none;stroke:#E191E5;stroke-width:4;stroke-linecap:round;stroke-miterlimit:10;}
</style>
<g>
	<path class="st0" d="M5,32c-1.1,0-2-0.9-2-2.1V14.2c0-1.2,0.9-2.1,2-2.1c1.1,0,2,0.9,2,2.1v15.7C7,31.1,6.1,32,5,32z"/>
</g>
<g>
	<path class="st1" d="M27,32H5c-1.1,0-2-0.8-2-2s0.9-2,2-2h22c1.1,0,2,0.8,2,2S28.1,32,27,32z"/>
</g>
<g>
	<path class="st2" d="M27,32c-1.1,0-2-0.9-2-2.1V14.2c0-1.2,0.9-2.1,2-2.1c1.1,0,2,0.9,2,2.1v15.7C29,31.1,28.1,32,27,32z"/>
</g>
<line class="st3" x1="16" y1="18" x2="16" y2="2"/>
<line class="st3" x1="10" y1="7.1" x2="16" y2="2"/>
<line class="st4" x1="22" y1="7.1" x2="16" y2="2"/>
</svg>
