<?xml version="1.0" encoding="utf-8"?>
<!-- Generator: Adobe Illustrator 18.1.1, SVG Export Plug-In . SVG Version: 6.00 Build 0)  -->
<svg version="1.1" id="Layer_1" xmlns="http://www.w3.org/2000/svg" xmlns:xlink="http://www.w3.org/1999/xlink" x="0px" y="0px"
	 viewBox="0 0 106.3 217.8" enable-background="new 0 0 106.3 217.8" xml:space="preserve">
<path fill="#674089" d="M60.4,209c0-0.2,0-0.3,0.1-0.5c0,0-0.1-0.1-0.1-0.1c0-2.8-0.2-5.7-0.5-8.5c-0.1-3.8-0.2-7.6-0.6-11.4
	c-0.6-7.3-2.5-14.4-3.6-21.6c-1.5-9.6-1.6-21.1,6.4-27.6c0.5-0.4,1-0.7,1.5-1c4.4-3.3,10.2-4.5,16.1-2.8c2.2,0.6,4,1.6,5.5,2.9
	c3.6,2.1,6.1,5.8,7.1,10c0.5,2.1,0.5,4.1,0.3,6.2c-0.1,2.4-0.5,4.8-1.2,7c-1.2,4.9-3.6,9.6-5.8,14.1c-5.8,12-13,23.2-21.1,33.5
	c2,2.4,4.9,6.2,1.6,8.3C62,219.8,60.3,211.3,60.4,209"/>
<path fill="#674089" d="M47.5,207.9c0-0.2-0.1-0.4-0.1-0.5c0,0,0.1-0.1,0.1-0.1c-0.3-3-0.4-6-0.5-9c-0.4-4-0.6-8-0.8-12
	c-0.2-7.7,0.8-15.4,1.1-23.1c0.4-10.3-0.9-22.4-9.7-28c-0.5-0.3-1.1-0.6-1.6-0.9c-4.9-2.9-10.8-3.3-16.6-0.8
	c-2.1,0.9-3.8,2.2-5.2,3.8c-3.4,2.6-5.4,7-5.9,11.4c-0.3,2.3-0.1,4.4,0.5,6.5c0.3,2.5,1.1,5,2.1,7.2c1.8,5,4.8,9.5,7.5,13.9
	c7.2,11.8,15.8,22.5,25.2,32.3c-1.8,2.8-4.2,7.2-0.7,8.9C47.2,219.4,47.9,210.3,47.5,207.9"/>
<path fill="#8E5BB4" d="M55.8,186c10.5,0,17.7-4.3,25.1-9.8c11.8-8.4,18.3-27.3,18.3-42.4c0-23.7-15.2-34.7-16.5-56.5
	c-2.9-22.4-4-62-31.8-62v-0.1c-0.2,0-0.3,0-0.5,0c-0.2,0-0.3,0-0.5,0v0.1c-25.2,0-29.7,39.6-32.7,62C16,99.1,0.4,110.1,0.5,133.8
	c0,15.1,8.8,34,20.9,42.4c7.6,5.5,16,8.5,25.6,9.8l7.8,0.1c0.2,0-7.5,0-7.3-0.1"/>
<path fill="#674089" d="M45.8,22.8c0.6,1.6,0.6,3.4,0.4,5.1c-0.2,1.2-0.8,2.7-2.1,3.2c-1.4,0.5-3.1-0.3-4-1.4c-1-1.2-1.2-3.1-1-4.5
	c0.2-1.6,1.1-3.1,2.5-4C43.3,19.9,45.3,21.1,45.8,22.8"/>
<path fill="#FFFFFF" d="M44.3,24.3c0.3,0.9,0.3,1.9,0.2,2.8c-0.1,0.7-0.4,1.5-1.1,1.7c-0.8,0.3-1.7-0.2-2.2-0.8
	c-0.5-0.7-0.7-1.7-0.5-2.5c0.1-0.8,0.6-1.7,1.3-2.2C42.9,22.8,44,23.4,44.3,24.3"/>
<path fill="#674089" d="M57.6,31c-0.8-1.7-1.1-3.7-1-5.5c0.1-1.4,0.5-3,1.9-3.7c1.5-0.8,3.4-0.1,4.5,1.1c1.2,1.2,1.7,3.2,1.6,4.8
	c-0.1,1.7-0.9,3.5-2.2,4.7C60.8,33.8,58.5,32.7,57.6,31"/>
<path fill="#FFFFFF" d="M59.1,29.1c-0.4-0.9-0.6-2-0.6-3c0-0.7,0.3-1.6,1-2c0.8-0.4,1.9,0,2.5,0.6c0.7,0.7,0.9,1.7,0.9,2.6
	c0,0.9-0.5,1.9-1.2,2.5C60.9,30.6,59.6,30,59.1,29.1"/>
<path fill="#674089" d="M58.8,28.4c-0.2-0.5-0.1-1.1,0.1-1.6c0.3-0.5,0.7-0.9,1.2-1.1c0.3-0.1,0.5-0.1,0.8-0.1
	c0.3,0,0.5,0.1,0.8,0.2c0.2,0.1,0.5,0.3,0.7,0.5c0.2,0.2,0.3,0.4,0.4,0.7c0.2,0.6,0.1,1.1-0.1,1.6c-0.3,0.5-0.7,0.9-1.2,1
	c-0.6,0.2-1.1,0.1-1.6-0.1C59.3,29.3,58.9,28.9,58.8,28.4"/>
<path fill="#674089" d="M41.1,27.4c-0.2-0.5-0.1-1,0.1-1.5c0.2-0.5,0.6-0.8,1.2-1c0.2-0.1,0.5-0.1,0.8-0.1c0.3,0,0.5,0.1,0.7,0.2
	c0.2,0.1,0.4,0.3,0.6,0.5c0.2,0.2,0.3,0.4,0.4,0.7c0.2,0.5,0.1,1-0.1,1.5c-0.3,0.5-0.6,0.8-1.1,1c-0.5,0.2-1,0.1-1.5-0.1
	C41.6,28.4,41.2,28,41.1,27.4"/>
<path fill="#674089" d="M85.7,78c-2.6-20.9-6.4-56.3-25.2-62.1c0,0,0,0,0.1,0c-0.1,0-0.2,0-0.3-0.1c-2.3-1-4.9-1-7.4-1
	c-2.1,0-5,0-7.2,0.8C24.2,20.3,20,56.7,17.1,78C15.8,100.1,0,111.3,0,135.4c0,15.3,8.9,34.5,21.2,43c7.7,5.6,16.2,8.7,26,9.9l2.8,0
	l2.7,0l2.5,0l2.6,0c9.1-1.3,16.9-4.3,24.1-9.9c11.4-8.6,19.7-27.7,19.7-43C101.6,111.3,87,100.1,85.7,78 M76.4,167.2
	c-0.5,0.4-1.1,0.8-1.6,1.2c-12.4,9.5-32.2,10.3-44.5,0.7c-1-0.6-2.1-1.2-3-1.9c-8-5.8-14.3-13.7-18.2-22.7c-3.9-9-3.7-19.4,0.4-28.3
	c3.8-8.2,10.7-12.9,16.3-19.7c6.6-8,4.2-18.2,2.1-27.5c-1.9-8.6-4-17.6-1.9-26.3c2.2-9.6,8.7-20.3,17.7-24.1c3.4-1.9,8.5-2,11.7-1.8
	c3,0.2,6.4,1.4,8.7,3.5c6.9,4.7,11.7,14,13.5,22.4c1.9,8.7,0,17.7-1.8,26.3c-1.9,9.3-4.1,19.4,2,27.5c5.2,6.8,11.5,11.5,15.1,19.7
	c3.8,8.9,4.1,19.4,0.4,28.3C89.6,153.5,83.8,161.4,76.4,167.2"/>
<path fill="#A775D3" d="M35.3,120.8c9.6-2.8,19.9-2.5,29.4-0.4c7,1.5,15.2,5.4,17.5,13.4c2.6,8.4-2.9,18.1-9.7,22.8
	c-7.5,5.3-18.2,5.9-26.3,4.2c-8.9-1.9-17.1-7.7-22.1-15.8C17.9,134.8,25.8,123.6,35.3,120.8"/>
<path fill="#674089" d="M50.4,127.8c1-0.3,2.1-0.2,3.1,0.1c0.7,0.2,1.6,0.6,1.8,1.4c0.2,0.9-0.4,1.8-1.1,2.3
	c-0.8,0.5-1.9,0.5-2.8,0.3c-0.9-0.2-1.8-0.9-2.3-1.7C48.5,129.1,49.4,128,50.4,127.8"/>
<path fill="#674089" d="M56.1,0.6c0.3-0.5,1-0.8,1.6-0.6c6.2,2,5.9,9.9,1.6,14.3c-0.9,0.9-4.7,3.6-4.9,0.7c-0.1-1.8,0.3-3.8,0.5-5.7
	c0.3-2.6,0.6-5.3,0.9-7.9C55.8,1.1,55.9,0.8,56.1,0.6"/>
<path fill="#674089" d="M46.3,1c-0.4-0.5-1-0.7-1.6-0.4c-6,2.5-4.9,10.3-0.3,14.4c0.9,0.8,5,3.2,4.9,0.3c0-1.8-0.6-3.8-1-5.6
	c-0.5-2.6-1-5.2-1.5-7.8C46.7,1.4,46.5,1.2,46.3,1"/>
<path fill="#674089" d="M101.2,102.3c1.1,0.8,3.2,1.8,4.3,0.6c1.2-1.3-0.4-3.3-1.3-4.3c-0.1-0.1-0.2-0.2-0.4-0.3
	c1-0.3,1.8-1,2.3-2.1c0.4-0.7,0-1.9-0.9-2c-1.8-0.2-3.6,0.1-5.2,1.1c-1.8-5.4-3.3-11.1-6.6-15.7c-2.6-3.7-8.6-5.3-12.4-2.5
	c-4.1,3.1-4.6,8.3-1.2,12.1c1.7,2,4.5,3,6.8,4l10.9,5.2c-0.7,1-1.2,2.1-1.1,3.4c0,1.2,0.9,2.6,2.2,2.8
	C100.2,104.8,100.8,103.4,101.2,102.3"/>
<path fill="#674089" d="M10.4,61.4c-0.7-1.2-2.3-2.9-3.8-2.1C5,60,5.8,62.5,6.2,63.7c0.1,0.2,0.1,0.3,0.2,0.5c-1,0-2,0.3-3,1.1
	c-0.6,0.6-0.7,1.8,0.1,2.2c1.6,0.9,3.4,1.2,5.2,0.9C8.4,74.1,7.7,80,9.1,85.5c1.1,4.4,6,8.1,10.6,6.9c5-1.3,7.3-6,5.6-10.8
	c-0.9-2.5-3.1-4.4-4.8-6.3l-8.2-8.8c1-0.7,1.9-1.5,2.3-2.8c0.4-1.2,0.1-2.8-1-3.4C12.3,59.4,11.2,60.5,10.4,61.4"/>
<path fill="#674089" d="M70.5,61c-0.2-0.8-1.1-1.6-2-1.4c-0.1,0-0.1,0-0.2,0c-0.5,0.1-1,0.3-1.3,0.6c-0.4-0.4-1.1-0.7-1.6-0.7
	c-3.3-0.3-6.2,1-9.3,2c-4.3,1.4-8.6,1.6-13,2.2c-7.1,1-3.7,7.6-0.9,10.9c4.9,5.9,11.7,4.4,17.5,1.1c2.9-1.6,5.7-4.2,7.6-6.9
	C68.7,66.8,71.2,63.6,70.5,61"/>
<path fill="#E192E5" d="M68.6,60.3c-0.2-0.7-1-1.4-1.9-1.3c-0.1,0-0.1,0-0.2,0c-0.5,0.1-0.9,0.3-1.2,0.6c-0.4-0.4-1-0.6-1.5-0.7
	c-3-0.3-5.7,0.8-8.5,1.7c-3.9,1.3-7.8,1.4-11.9,1.9c-6.5,0.8-3.3,6.8-0.7,9.9c4.5,5.3,10.7,4,16.1,1.2c2.7-1.5,5.2-3.7,6.9-6.2
	C67,65.5,69.3,62.6,68.6,60.3"/>
<path fill="#8E5BB4" d="M73.9,33.1c-10.9-4.1-23-5-34.5-4c-8.5,0.7-18.7,3.9-22.7,12c-4.4,8.5,0.5,19.4,7.7,25.1
	c8,6.4,20.5,8.4,30.3,7.6c10.8-1,21.4-6.1,28.5-13.9C92.1,49.9,84.7,37.1,73.9,33.1"/>
<path fill="#674089" d="M83.3,59c-1.1,1-2.1,2-3.3,2.7c0,0,0,0-0.1,0c-7.7,6.7-18.6,10.5-28.7,10.5c-8,0-14.6-0.9-24.2-7.7
	c-10.9-9.5-9-19.8-4.9-25.1c7.2-8.7,25.9-10.1,36.8-9c6.8,0.7,13.3,2.4,19.6,4.8c-1.5-1-3.1-1.9-4.8-2.5c-10.9-4.1-23-5-34.5-4
	c-8.5,0.7-18.7,3.9-22.7,12c-1.4,2.8-1.9,5.8-1.6,8.8c0.5,6.4,4.3,12.8,9.3,16.8c8,6.4,20.5,8.4,30.3,7.6c10.8-1,21.4-6.1,28.5-13.9
	c0.8-0.8,1.4-1.7,1.9-2.6C84.5,57.9,84,58.4,83.3,59"/>
<path fill="#E192E5" d="M78.1,35c-1.2-0.6-3.7-1.3-4.6-1.6c-12.1-3.3-21.5-4.3-32.2-3.3c-7.9,0.7-17.5,3.6-21.2,11.2
	c-4.1,7.9,0.5,18.1,7.2,23.5c2.5,2,5.4,3.5,8.6,4.7c-8.2-5.4-14.5-19.4-7.7-27.2c5.5-9,24.1-11.1,31.4-10.5c10.3,0.9,16.4,4,18,4.4
	c0.4,0.2,1.1,0.4,1.3-0.2C79,35.4,78.6,35.1,78.1,35"/>
<path fill="#E192E5" d="M36.3,40.8c-1.9-1.4-4.2-2.3-6.4-2.6c-1.7-0.3-3.8-0.1-5,1.5c-1.3,1.7-0.9,4.3,0.2,6
	c1.2,1.8,3.5,2.9,5.4,3.2c2.1,0.3,4.4-0.3,6.2-1.7C39,45.4,38.2,42.2,36.3,40.8"/>
<path fill="#674089" d="M35.9,40.3c-1.5-1.1-3.4-1.7-5.2-1.9c-1.3-0.2-3.1-0.1-4,1c-1,1.2-0.7,3.1,0.2,4.3c1,1.3,2.9,2.1,4.4,2.3
	c1.7,0.3,3.6-0.1,5-1.1C38.1,43.7,37.4,41.4,35.9,40.3"/>
<path fill="#A775D3" d="M34,41.3c-0.8-0.6-1.8-0.9-2.8-1.1c-0.7-0.1-1.7-0.1-2.2,0.6c-0.5,0.6-0.4,1.7,0.1,2.3
	c0.5,0.7,1.6,1.1,2.4,1.3c0.9,0.1,1.9-0.1,2.7-0.6C35.2,43.1,34.9,41.9,34,41.3"/>
<path fill="#E192E5" d="M63.4,42.4c1.9-1,4-1.5,6.1-1.5c1.5,0,3.4,0.4,4.3,1.9c0.9,1.6,0.3,3.8-0.9,5.1c-1.3,1.4-3.5,2.1-5.3,2.1
	c-1.9,0-3.9-0.8-5.4-2.2C60.4,46.1,61.5,43.5,63.4,42.4"/>
<path fill="#674089" d="M64,41.1c1.5-0.8,3.3-1.2,5-1.2c1.2,0,2.8,0.3,3.5,1.6c0.8,1.3,0.2,3.1-0.7,4.2c-1.1,1.2-2.9,1.7-4.3,1.7
	c-1.6,0-3.2-0.6-4.4-1.8C61.6,44.1,62.5,41.9,64,41.1"/>
<path fill="#A775D3" d="M65.8,42.4c0.8-0.5,1.8-0.6,2.7-0.7c0.7,0,1.5,0.2,1.9,0.8c0.4,0.7,0.1,1.7-0.4,2.3
	c-0.6,0.6-1.5,0.9-2.3,0.9c-0.9,0-1.7-0.3-2.4-1C64.5,44,65,42.9,65.8,42.4"/>
<path fill="#674089" d="M49.1,90.7c-2.6,1.6-6.3,2.8-6.6-1.8c0-2.1,0.8-3.7,3.1-3c1,0.3,1.9,0.8,3,0.9c0.1,0,0.2,0.1,0.3,0.1
	c0.1,0,0.2,0.1,0.3,0.1c0.4,0,0.6-0.2,0.7-0.6c0,0,0,0,0,0c0.1-0.1,0.1-0.3,0-0.4c-0.2-1.1-1.1-1.9-1.6-2.5
	c-0.6-0.6-1.5-1.3-2.3-1.8c-1.3-0.7-2.6-1.1-4-1.3c-2.4,0.1-4.3-0.2-5.8,1.9c-1.6,2.4-1.4,9.7-0.7,11.4c0.4,1,1.1,2.5,2.5,3.1
	c1.8,0.8,3.9,0.1,5.1-0.2c2.4-0.6,6.9-2.6,6.8-5.6C50,90.8,49.5,90.5,49.1,90.7"/>
<path fill="#674089" d="M54.3,85.5h-1.1c-1.3,0-2.3,1-2.3,2.3v2.3c0,1.3,1,2.3,2.3,2.3h1.1c1.3,0,2.3-1,2.3-2.3v-2.3
	C56.6,86.6,55.5,85.5,54.3,85.5"/>
<path fill="#674089" d="M71.2,82.5c-1.5-2.1-3.4-1.9-5.8-1.9c-1.4,0.2-2.7,0.6-4,1.3c-0.8,0.4-1.7,1.2-2.3,1.8
	c-0.5,0.5-1.4,1.3-1.6,2.5c0,0.1,0,0.3,0,0.4c0,0,0,0,0,0c0.1,0.3,0.4,0.6,0.7,0.6c0.1,0,0.2,0,0.3-0.1c0.1,0,0.2,0,0.3-0.1
	c1.1-0.2,1.9-0.6,3-0.9c2.3-0.7,3.1,0.8,3.1,3c-0.3,4.6-4,3.3-6.6,1.8c-0.4-0.2-0.9,0.1-0.9,0.5c-0.1,3,4.4,5,6.8,5.6
	c1.2,0.3,3.3,1,5.1,0.2c1.4-0.6,2.1-2.1,2.5-3.1C72.5,92.2,72.8,84.9,71.2,82.5"/>
<path fill="#A7C3FE" d="M48.1,88.9c-2.6,1.6-6.3,2.8-6.6-1.8c0-2.1,0.8-3.7,3.1-3c1,0.3,1.9,0.8,3,0.9c0.1,0,0.2,0.1,0.3,0.1
	c0.1,0,0.2,0,0.3,0.1c0.4,0,0.6-0.2,0.7-0.6c0,0,0,0,0,0c0.1-0.1,0.1-0.3,0-0.4c-0.2-1.1-1.1-1.9-1.6-2.5c-0.6-0.6-1.5-1.3-2.3-1.8
	c-1.3-0.7-2.6-1.1-4-1.3c-2.4,0.1-4.3-0.2-5.8,1.9c-1.6,2.4-1.4,9.7-0.7,11.4c0.4,1,1.1,2.5,2.5,3.1C39,96,41,95.3,42.2,95
	c2.4-0.6,6.9-2.6,6.8-5.6C49,89,48.5,88.6,48.1,88.9"/>
<path fill="#A7C3FE" d="M53.3,83.7h-1.1c-1.3,0-2.3,1-2.3,2.3v2.3c0,1.3,1,2.3,2.3,2.3h1.1c1.3,0,2.3-1,2.3-2.3V86
	C55.6,84.7,54.5,83.7,53.3,83.7"/>
<path fill="#A7C3FE" d="M70.2,80.6c-1.5-2.1-3.4-1.9-5.8-1.9c-1.4,0.2-2.7,0.6-4,1.3c-0.8,0.4-1.7,1.2-2.3,1.8
	c-0.5,0.5-1.4,1.3-1.6,2.5c0,0.1,0,0.3,0,0.4c0,0,0,0,0,0c0.1,0.3,0.4,0.6,0.7,0.6c0.1,0,0.2,0,0.3-0.1c0.1,0,0.2,0,0.3-0.1
	c1.1-0.2,1.9-0.6,3-0.9c2.3-0.7,3.1,0.8,3.1,3c-0.3,4.6-4,3.3-6.6,1.8c-0.4-0.2-0.9,0.1-0.9,0.5c-0.1,3,4.4,5,6.8,5.6
	c1.2,0.3,3.3,1,5.1,0.2c1.4-0.6,2.1-2.1,2.5-3.1C71.5,90.4,71.8,83.1,70.2,80.6"/>
</svg>
