<?xml version="1.0" encoding="utf-8"?>
<!-- Generator: Adobe Illustrator 18.1.1, SVG Export Plug-In . SVG Version: 6.00 Build 0)  -->
<svg version="1.1" id="Layer_1" xmlns="http://www.w3.org/2000/svg" xmlns:xlink="http://www.w3.org/1999/xlink" x="0px" y="0px"
	 viewBox="0 0 259.2 358.2" enable-background="new 0 0 259.2 358.2" xml:space="preserve">
<g>
	<path fill="#674089" d="M238.3,129.2c1.8-0.6,5-0.9,5.9,1.2c1,2.2-2.1,4.1-3.7,5c-0.2,0.1-0.4,0.2-0.6,0.3c1.1,0.9,1.9,2.1,2.1,3.8
		c0.1,1.1-0.9,2.5-2.1,2.2c-2.5-0.6-4.6-1.8-6.2-3.7c-4.7,6.2-9.3,13-15.7,17.5c-5.1,3.6-13.5,3.1-17.2-2.4
		c-3.9-5.9-2.2-12.9,3.9-16.3c3.1-1.8,7.2-1.8,10.7-2.2l16.5-1.8c-0.4-1.7-0.5-3.3,0.1-4.9c0.6-1.6,2.3-3,4.1-2.7
		C238.1,125.4,238.3,127.5,238.3,129.2"/>
	<path fill="#674089" d="M0.1,288.2c0.7-5.7,5.7-8.9,10.8-8.8c2-1.2,4.5-1.9,5.8-2.5c7.3-3.4,13.8-8.7,19.2-14.7
		c1.9-2.1,3.7-4.3,5.3-6.6c5.3-8.8,7.7-19,10.2-29.1c0.4-3.9,1.9-7.6,4-11c1.4-2.4,3.5-4.3,5.6-6.2l0-0.1c0.2-0.2,0.4-0.3,0.5-0.4
		c0.3-0.3,0.7-0.6,1-0.9c0.6-0.5,1.2-0.9,1.9-1.3c18.2-12.4,44.2-3.3,53.1,18.2c2.2,5.3,3.1,10.6,2.9,15.7
		c0.8,9.2-1.4,18.4-6.5,26.7c-0.1,0.2-0.3,0.4-0.4,0.7c-6.6,12.8-20.2,22.8-34.4,24.3c-11.5,2.6-24.3,2.6-35.3,2.1
		c-9-0.3-17.8-1.8-26.5-3.9c-2.5-0.6-4.9-1.2-6.6-2.6c-1.1,2.7-2.5,5.3-5.1,6.1C1.6,295.3-0.4,291.7,0.1,288.2"/>
	<path fill="#674089" d="M112.6,342c0.1-0.3,0.2-0.5,0.4-0.7c-0.1-0.1-0.1-0.1-0.2-0.2c1.3-4.5,2.3-9.1,3.1-13.8
		c1.7-6.1,3.2-12.3,4.4-18.5c2.4-11.9,2.7-24.2,4.2-36.2c2.1-16,7.3-34.5,23.6-41.2c1-0.4,2-0.7,3-0.9c8.9-3.3,18.9-2.5,27.9,2.9
		c3.3,2,5.8,4.4,7.6,7.2c4.9,4.9,7.2,12.1,6.9,19.2c-0.1,3.6-1.1,6.9-2.5,10c-1.2,3.8-3.1,7.4-5.3,10.6
		c-4.4,7.3-10.5,13.6-16.2,19.8c-15.1,16.5-32.3,31.1-50.6,43.9c2.2,4.8,5.1,12.2-1.2,13.9C110.2,360,111.4,345.7,112.6,342"/>
	<path fill="#8E5BB4" d="M62.9,182.1c12.1-10.8,23.8-19.6,32.1-33.9c8.8-15.1,17.4-31.5,19.2-49.1c1.9-18.2,0-36.6,5.3-54.3
		c3.1-10.4,12.3-19.2,22.3-21c0.8-0.2,1.7-0.3,2.6-0.4c53-2.7,61.6,66.2,66.8,104.5c3.4,25.5,4.2,50.5,0.7,76
		c-3.1,23-10.9,48.1-24.4,67.2c-13.2,18.6-36.4,29.3-58.1,34c-22.1,4.8-46.1,1.9-64.5-11.8c-17.6-13.1-27.6-32.4-28.8-54.2
		C34.8,216.5,46.6,196.6,62.9,182.1"/>
	<path fill="#674089" d="M78,108.6c-1-2.1-1.9-5.8,0.5-7.2c2.5-1.5,5.3,1.7,6.6,3.5c0.2,0.2,0.3,0.5,0.4,0.7
		c0.9-1.5,2.2-2.6,4.2-3.1c1.3-0.4,3.2,0.6,3,2.2c-0.2,3.1-1.3,5.9-3.4,8.1c8.2,4.6,17.1,8.9,23.6,15.7c5.2,5.5,6,15.7,0.1,21
		c-6.3,5.7-15,4.9-20.2-1.8c-2.7-3.4-3.4-8.3-4.5-12.4l-5-19.4c-1.9,0.8-3.8,1.2-5.9,0.7c-2-0.5-4-2.3-3.9-4.4
		C73.6,109.5,76.1,108.9,78,108.6"/>
	<path fill="#674089" d="M145.8,0.8c0.6-0.7,1.6-1,2.6-0.6c9.8,4.2,8.5,16.2,1.2,22c-1.5,1.2-7.9,4.6-7.9,0.1c0-2.8,0.9-5.8,1.3-8.5
		c0.7-4,1.4-7.9,2.1-11.9C145.3,1.4,145.5,1,145.8,0.8"/>
	<path fill="#674089" d="M116.6,9.3c-1-0.3-2,0.1-2.6,1c-5.6,9.3,3.6,18.9,13.7,19.6c2.1,0.2,9.8-0.7,6.9-4.5
		c-1.9-2.4-4.6-4.4-6.9-6.5c-3.3-3-6.5-6-9.8-9C117.5,9.5,117,9.3,116.6,9.3"/>
	<path fill="#674089" d="M133.6,57.1c1.2-5.6,7.7-8.1,12.3-4.7c1.3,1,0,3.3-1.3,2.3c-3.3-2.4-7.6-1-8.4,3.1
		C135.8,59.4,133.2,58.7,133.6,57.1"/>
	<path fill="#674089" d="M162.4,46.8c1.1-5,6.9-7.3,11.1-4.2c1.2,0.9,0,2.9-1.2,2c-3-2.2-6.8-0.9-7.6,2.8
		C164.3,48.9,162,48.3,162.4,46.8"/>
	<path fill="#8E5BB4" d="M64.3,183.8c12.1-10.8,23.8-19.6,32.1-33.9c8.8-15.1,17.4-31.5,19.2-49.1c1.9-18.2,0-36.6,5.3-54.3
		c3.1-10.4,12.3-19.2,22.3-21c0.8-0.2,1.7-0.3,2.6-0.4c53-2.7,61.6,66.2,66.8,104.5c3.4,25.5,4.2,50.5,0.7,76
		c-3.1,23-10.9,48.1-24.4,67.2c-13.2,18.6-36.4,29.3-58.1,34c-22.1,4.8-46.1,1.9-64.5-11.8c-17.6-13.1-27.6-32.4-28.8-54.2
		C36.1,218.2,48,198.3,64.3,183.8"/>
	<path fill="#674089" d="M62.2,184c12.3-10.9,24-19.9,32.5-34.3c8.9-15.3,17.6-31.9,19.4-49.7c1.9-18.4,0-37,5.4-55
		c3.1-10.5,12.5-19.4,22.6-21.3c0.8-0.2,1.7-0.3,2.6-0.4c9.8-0.5,18.1,1.4,25.2,5.2c-0.3,0-0.5-0.1-0.8-0.1
		c8.8,4.5,15.9,11.5,21.3,20.1c-6.9,1.6-24.4,8.5-31.5,13.1c14.2-9.4,19.6-12.8,18.3-19.2c-1.7-8.7-8.9-13.1-18.3-15.6
		c-5.2-0.7-10.5-0.5-17.7,3.6c-17.8,10.2-21.2,29.6-19.6,47.1c1.5,16.8,8.2,33.4,7.9,50.3c-0.3,17.9-14.7,27.3-28.9,35.3
		c-16.4,9.3-31.2,18.8-37.6,37.5c-9.8,28.2-1.9,66,27.8,78.7c20.2,8.7,42.7,9.5,63,2.8c15.9-7.1,25.9-17.4,33.8-28
		c8.6-11.4,12.9-24.1,17.2-38.8c2-6.6,3.8-13.2,4.7-20c1.5-6.7,2-13.7,2.5-20.6c0.4-5.5,0.8-10.7,0.6-16c1.3-14.3-0.4-29.1-2.9-43
		l1.2-0.1c0,0.2,0.3,3.8,0.3,3.9c0.3,3.1,1.3,7.9,1.8,11.7c3.5,25.8,3.5,49.6,0.1,75.4c-3.1,23.3-11,48.7-24.7,68
		c-7.2,10.2-17.4,18-28.7,23.8c-0.1-0.3-0.1-0.5-0.2-0.7c-9.6,4.9-19.9,8.4-30,10.6c-22.3,4.9-46.7,1.9-65.3-12
		c-17.8-13.2-28-32.8-29.2-54.9C33.7,218.8,45.6,198.7,62.2,184"/>
	<path fill="#A775D3" d="M177.3,206.5c-12.8-7.9-27.5-11.2-41.6-11.4c-10.4-0.2-23.4,3-29.3,14.7c-6.4,12.3-1.8,29.5,6.2,39.4
		c8.9,11,23.9,16,36.1,16.1c13.3,0.2,26.9-5.9,36.6-16.8C197.4,234.8,190,214.3,177.3,206.5"/>
	<path fill="#674089" d="M160.8,217.4c-1.5-0.8-3.3-1.2-4.9-1.2c-1.2,0-2.8,0.3-3.5,1.5c-0.8,1.3-0.2,3.1,0.7,4.2
		c1.1,1.2,2.8,1.7,4.3,1.7c1.6,0,3.2-0.6,4.3-1.8C163.2,220.4,162.3,218.2,160.8,217.4"/>
	<path fill="#674089" d="M149.6,88.3c0.9-1,2.7-1.6,3.9-0.8c0.1,0.1,0.2,0.1,0.3,0.2c0.8,0.5,1.2,1.1,1.5,1.8c0.9-0.4,2-0.3,2.9,0
		c5,1.7,8.5,5.4,12.4,9c5.4,4.9,11.6,7.9,17.7,11.6c9.9,6,0.5,13.5-5.8,16.7c-11,5.5-20.1-1.1-26.6-9.7c-3.3-4.3-5.7-9.8-6.7-15.1
		C148.4,98,146.8,91.5,149.6,88.3"/>
	<path fill="#E192E5" d="M152.9,88.4c0.8-0.9,2.5-1.4,3.6-0.8c0.1,0,0.2,0.1,0.2,0.1c0.7,0.4,1.1,1,1.3,1.6c0.8-0.3,1.8-0.3,2.7,0
		c4.6,1.6,7.8,4.9,11.4,8.1c4.9,4.4,10.7,7.1,16.3,10.5c9.1,5.4,0.5,12.2-5.3,15.1c-10.1,5-18.5-1-24.5-8.7c-3-3.9-5.2-8.9-6.2-13.6
		C151.8,97.2,150.3,91.3,152.9,88.4"/>
	<path fill="#8E5BB4" d="M149.3,92.1C149.3,92.1,149.3,92.1,149.3,92.1c-5.9-13.2,2.8-28.7,16.1-35.3c16.2-8.1,34.8-11.5,52.8-11.8
		c13.3-0.2,29.6,3.1,37.1,15.1c8.2,12.7,2.3,30.4-7.9,40.6c-11.3,11.4-30.4,16.5-45.8,16.6c-16.8,0.2-34.1-6.1-46.4-17.3
		c-2.2-2-3.8-4.1-5-6.3C150,93.2,149.7,92.6,149.3,92.1"/>
	<path fill="#674089" d="M148.8,89.1c0.3-0.6,1.5-0.9,1.9-0.3c1.4,1.8,1.8,4.3,2.9,6.3c1.7,3.1,4.2,5.7,7,7.8
		c13.1,9.3,30.5,13.4,46.1,11.9c12.4-1.3,22.6-3.7,36.2-15.9c15.3-16.7,10.8-32.5,3.6-40.1c-12.6-12.5-41.7-11.8-58.4-8.2
		c-10.4,2.2-20.3,5.9-29.7,10.6c2.1-1.8,4.5-3.4,7-4.7c16.2-8.1,34.8-11.5,52.8-11.8c13.3-0.2,29.6,3.1,37.1,15.1
		c2.7,4.1,3.8,8.8,3.8,13.5c0.3,10.1-4.7,20.8-11.7,27.8c-11.3,11.4-30.4,16.5-45.8,16.6c-16.8,0.2-34.2-6.1-46.4-17.3
		c-1.6-1.5-3-3.1-4-4.7c-0.7-1-1.5-2-2.2-3c-0.4-0.6-0.6-1.2-0.5-1.9C148.4,90.3,148.4,89.6,148.8,89.1"/>
	<path fill="#E192E5" d="M159.1,60.7c1.7-1.2,5.5-2.6,6.9-3.2c18.2-7.1,32.6-10.1,49.4-10.3c12.4-0.2,27.6,2.9,34.6,14.1
		c7.6,11.8,2.1,28.4-7.4,37.9c-3.5,3.5-7.8,6.4-12.6,8.7c11.9-9.8,19.4-32.7,7.6-43.8c-9.9-13.2-39.1-13.5-50.4-11.4
		c-15.8,3-24.8,8.8-27.1,9.8c-0.7,0.5-1.7,0.8-2-0.1C157.9,61.5,158.5,61,159.1,60.7"/>
	<path fill="#E192E5" d="M232.2,67.1c2.8-2.8,6.4-4.6,10-5.6c2.7-0.8,6.2-0.9,8.5,1.5c2.4,2.5,2.4,7,0.9,9.9
		c-1.6,3.3-5.2,5.5-8.3,6.4c-3.4,1-7.3,0.4-10.5-1.5C228.8,75.4,229.4,69.9,232.2,67.1"/>
	<path fill="#674089" d="M232.9,66.3c2.3-2.1,5.3-3.4,8.2-4.3c2.2-0.6,5-0.8,6.8,0.9c1.9,1.7,1.7,4.9,0.5,7.1
		c-1.4,2.4-4.3,4.1-6.8,4.8c-2.8,0.8-5.9,0.5-8.4-0.8C229.9,72.3,230.5,68.4,232.9,66.3"/>
	<path fill="#A775D3" d="M236.2,67.6c1.3-1.1,2.8-1.9,4.5-2.3c1.2-0.3,2.7-0.4,3.7,0.5c1,0.9,0.9,2.7,0.3,3.8
		c-0.7,1.3-2.3,2.2-3.7,2.6c-1.5,0.4-3.2,0.3-4.6-0.4C234.6,70.8,234.9,68.7,236.2,67.6"/>
	<path fill="#E192E5" d="M187.7,75.3c-3.1-1.7-6.7-2.4-10.1-2.5c-2.5,0-5.7,0.7-7.1,3.2c-1.6,2.7-0.4,6.4,1.5,8.5
		c2.2,2.4,5.8,3.5,8.8,3.5c3.2,0,6.5-1.3,8.9-3.6C192.6,81.5,190.8,77,187.7,75.3"/>
	<path fill="#674089" d="M186.6,73.1c-2.5-1.4-5.5-2-8.3-2c-2.1,0-4.6,0.5-5.8,2.6c-1.3,2.2-0.4,5.2,1.2,7c1.8,1.9,4.8,2.8,7.2,2.8
		c2.6,0,5.4-1,7.3-3C190.6,78.1,189.2,74.5,186.6,73.1"/>
	<path fill="#A775D3" d="M183.7,75.3c-1.4-0.8-2.9-1.1-4.5-1.1c-1.1,0-2.5,0.3-3.1,1.4c-0.7,1.2-0.2,2.8,0.7,3.8
		c1,1.1,2.6,1.5,3.9,1.5c1.4,0,2.9-0.6,3.9-1.6C185.8,78,185,76,183.7,75.3"/>
	<path fill="#674089" d="M132.5,56.3c1.2-5.6,7.7-8.1,12.3-4.7c1.3,1,0,3.3-1.3,2.3c-3.3-2.4-7.6-1-8.4,3.1
		C134.6,58.6,132.1,57.9,132.5,56.3"/>
	<path fill="#674089" d="M161.2,46c1.1-5,6.9-7.3,11.1-4.2c1.2,0.9,0,2.9-1.2,2c-3-2.2-6.8-0.9-7.6,2.8
		C163.2,48.1,160.9,47.5,161.2,46"/>
	<path fill="#674089" d="M138.9,91c0.6-4.5,3.3-8.3,7.4-10.4c1.6-0.9,2.7,1.8,1.1,2.7c-3.1,1.7-5.1,4.7-5.6,8.2
		C141.5,93.3,138.6,92.8,138.9,91"/>
	<path fill="#674089" d="M164.3,130.6c6,4.1,13.5,4.1,19.5,0c1.5-1,3,1.5,1.5,2.5c-6.8,4.6-15.6,4.6-22.4,0
		C161.3,132,162.8,129.5,164.3,130.6"/>
	<g>
		<path fill="#674089" d="M174.9,164c4.3,2.6,10.4,4.7,10.9-2.9c0-3.5-1.3-6.1-5.1-4.9c-1.7,0.5-3.1,1.3-4.9,1.6
			c-0.2,0.1-0.3,0.1-0.5,0.1c-0.2,0-0.3,0.1-0.5,0.1c-0.6,0.1-1-0.4-1.2-0.9c0,0,0,0,0,0c-0.1-0.2-0.1-0.4-0.1-0.7
			c0.3-1.9,1.8-3.2,2.7-4.1c1-1,2.5-2.2,3.8-2.9c2.2-1.2,4.3-1.8,6.7-2.2c4,0.1,7.2-0.3,9.7,3.2c2.7,4,2.3,16.2,1.1,19
			c-0.7,1.7-1.8,4.2-4.2,5.2c-3.1,1.3-6.4,0.2-8.5-0.3c-4.1-1-11.5-4.3-11.3-9.3C173.4,164.1,174.2,163.6,174.9,164"/>
		<path fill="#674089" d="M166.4,155.4h1.9c2.1,0,3.9,1.7,3.9,3.9v3.8c0,2.1-1.7,3.9-3.9,3.9h-1.9c-2.1,0-3.9-1.7-3.9-3.9v-3.8
			C162.5,157.1,164.2,155.4,166.4,155.4"/>
		<path fill="#674089" d="M138.3,150.3c2.4-3.6,5.7-3.1,9.6-3.2c2.3,0.4,4.5,1,6.6,2.2c1.3,0.7,2.8,2,3.7,2.9
			c0.9,0.9,2.4,2.2,2.7,4.1c0,0.2,0,0.5-0.1,0.7c0,0,0,0,0,0c-0.2,0.5-0.6,1-1.2,0.9c-0.2,0-0.3-0.1-0.5-0.1c-0.2,0-0.3,0-0.5-0.1
			c-1.8-0.3-3.2-1-4.9-1.6c-3.9-1.2-5.1,1.4-5.1,4.9c0.5,7.6,6.7,5.5,10.9,2.9c0.7-0.4,1.5,0.1,1.5,0.9c0.2,5-7.2,8.3-11.3,9.3
			c-2,0.5-5.4,1.7-8.5,0.3c-2.4-1-3.5-3.5-4.2-5.2C136,166.5,135.5,154.3,138.3,150.3"/>
		<path fill="#A7C3FE" d="M176.6,161c4.3,2.6,10.4,4.7,10.9-2.9c0-3.5-1.3-6.1-5.1-4.9c-1.7,0.5-3.1,1.3-4.9,1.6
			c-0.2,0.1-0.3,0.1-0.5,0.1c-0.2,0-0.3,0.1-0.5,0.1c-0.6,0.1-1-0.4-1.2-0.9c0,0,0,0,0,0c-0.1-0.2-0.1-0.4-0.1-0.7
			c0.3-1.9,1.8-3.2,2.7-4.1c1-1,2.5-2.2,3.8-2.9c2.2-1.2,4.3-1.8,6.7-2.2c4,0.1,7.2-0.3,9.7,3.2c2.7,4,2.3,16.2,1.1,19
			c-0.7,1.7-1.8,4.2-4.2,5.2c-3.1,1.3-6.4,0.2-8.5-0.3c-4.1-1-11.5-4.3-11.3-9.3C175.1,161.1,175.9,160.6,176.6,161"/>
		<path fill="#A7C3FE" d="M168,152.3h1.9c2.1,0,3.9,1.7,3.9,3.9v3.8c0,2.1-1.7,3.9-3.9,3.9H168c-2.1,0-3.9-1.7-3.9-3.9v-3.8
			C164.2,154,165.9,152.3,168,152.3"/>
		<path fill="#A7C3FE" d="M139.9,147.3c2.4-3.6,5.7-3.1,9.6-3.2c2.3,0.4,4.5,1,6.6,2.2c1.3,0.7,2.8,2,3.7,2.9
			c0.9,0.9,2.4,2.2,2.7,4.1c0,0.2,0,0.5-0.1,0.7c0,0,0,0,0,0c-0.2,0.5-0.6,1-1.2,0.9c-0.2,0-0.3-0.1-0.5-0.1c-0.2,0-0.3,0-0.5-0.1
			c-1.8-0.3-3.2-1-4.9-1.6c-3.9-1.2-5.1,1.4-5.1,4.9c0.5,7.6,6.7,5.5,10.9,2.9c0.7-0.4,1.5,0.1,1.5,0.9c0.2,5-7.2,8.3-11.3,9.3
			c-2,0.5-5.4,1.7-8.5,0.3c-2.4-1-3.5-3.5-4.2-5.2C137.7,163.4,137.2,151.3,139.9,147.3"/>
	</g>
</g>
</svg>
