<?xml version="1.0" encoding="utf-8"?>
<!-- Generator: Adobe Illustrator 16.0.0, SVG Export Plug-In . SVG Version: 6.00 Build 0)  -->
<!DOCTYPE svg PUBLIC "-//W3C//DTD SVG 1.1//EN" "http://www.w3.org/Graphics/SVG/1.1/DTD/svg11.dtd">
<svg version="1.1" id="Layer_1" xmlns="http://www.w3.org/2000/svg" xmlns:xlink="http://www.w3.org/1999/xlink" x="0px" y="0px"
	 width="16px" height="16px" viewBox="0 0 16 16" enable-background="new 0 0 16 16" xml:space="preserve">
<path fill="#8D5BB4" d="M15.613,3.3L15.14,2.827c0.407-0.533,0.368-1.312-0.149-1.828c-0.56-0.561-1.441-0.587-1.971-0.058
	l-5.299,5.3C6.938,5.735,6.011,5.435,5.01,5.435c-2.763,0-5.002,2.238-5.002,5.002s2.239,5.003,5.002,5.003
	c2.764,0,5.003-2.239,5.003-5.003c0-0.715-0.155-1.392-0.425-2.007l1.189-1.19l0.129,0.129c0.527,0.528,1.41,0.503,1.971-0.058
	c0.56-0.56,0.586-1.442,0.057-1.971l-0.128-0.129l0.331-0.331l0.448,0.448c0.527,0.528,1.409,0.503,1.97-0.057
	C16.115,4.711,16.141,3.829,15.613,3.3z M5.01,12.424c-1.098,0-1.986-0.889-1.986-1.987c0-1.098,0.889-1.986,1.986-1.986
	s1.987,0.889,1.987,1.986C6.997,11.535,6.107,12.424,5.01,12.424z"/>
</svg>
