<?xml version="1.0" encoding="utf-8"?>
<!-- Generator: Adobe Illustrator 16.0.0, SVG Export Plug-In . SVG Version: 6.00 Build 0)  -->
<!DOCTYPE svg PUBLIC "-//W3C//DTD SVG 1.1//EN" "http://www.w3.org/Graphics/SVG/1.1/DTD/svg11.dtd">
<svg version="1.1" id="Layer_1" xmlns="http://www.w3.org/2000/svg" xmlns:xlink="http://www.w3.org/1999/xlink" x="0px" y="0px"
	 width="16px" height="16px" viewBox="0 0 16 16" enable-background="new 0 0 16 16" xml:space="preserve">
<path fill="#8D5BB4" d="M3.992,2c0,1.104-0.896,2-2,2s-2-0.896-2-2s0.896-2,2-2S3.992,0.896,3.992,2z M1.992,6c-1.104,0-2,0.896-2,2
	s0.896,2,2,2s2-0.896,2-2S3.097,6,1.992,6z M1.992,12c-1.104,0-2,0.896-2,2s0.896,2,2,2s2-0.896,2-2S3.097,12,1.992,12z M14.008,4
	c1.104,0,2-0.896,2-2s-0.896-2-2-2h-7c-1.104,0-2,0.896-2,2s0.896,2,2,2H14.008z M14.008,10c1.104,0,2-0.896,2-2s-0.896-2-2-2h-7
	c-1.104,0-2,0.896-2,2s0.896,2,2,2H14.008z M14.008,16c1.104,0,2-0.896,2-2s-0.896-2-2-2h-7c-1.104,0-2,0.896-2,2s0.896,2,2,2
	H14.008z"/>
</svg>
