<?xml version="1.0" encoding="utf-8"?>
<!-- Generator: Adobe Illustrator 18.1.1, SVG Export Plug-In . SVG Version: 6.00 Build 0)  -->
<svg version="1.1" id="Layer_1" xmlns="http://www.w3.org/2000/svg" xmlns:xlink="http://www.w3.org/1999/xlink" x="0px" y="0px"
	 viewBox="-295 389.4 12 15.6" enable-background="new -295 389.4 12 15.6" xml:space="preserve">
<path fill="none" stroke="#FEB737" stroke-miterlimit="10" d="M-292.5,396v-2.6c0-1.9,1.6-3.4,3.5-3.4s3.5,1.7,3.5,3.7v2.3"/>
<g>
	<g>
		<path fill="#FEB737" d="M-283,403c0,1.1-0.9,2-2,2h-8c-1.1,0-2-0.9-2-2v-5c0-1.1,0.9-1.9,2-1.9h8c1.1,0,2,0.8,2,1.9V403z
			 M-289,399.2c-0.7,0-1.2,0.5-1.2,1.2c0,0.7,0.5,1.2,1.2,1.2s1.2-0.5,1.2-1.2C-287.8,399.8-288.3,399.2-289,399.2z"/>
	</g>
</g>
</svg>
