<?xml version="1.0" encoding="utf-8"?>
<!-- Generator: Adobe Illustrator 18.1.1, SVG Export Plug-In . SVG Version: 6.00 Build 0)  -->
<svg version="1.1" id="Layer_1" xmlns="http://www.w3.org/2000/svg" xmlns:xlink="http://www.w3.org/1999/xlink" x="0px" y="0px"
	 viewBox="0 0 32 32" enable-background="new 0 0 32 32" xml:space="preserve">
<g>
	<g>
		<path fill="#FEB737" d="M3,18H2c-1.1,0-2-0.9-2-2c0-1.1,0.9-2,2-2h1c1.1,0,2,0.9,2,2C5,17.1,4.1,18,3,18z"/>
	</g>
	<g>
		<path fill="#FEB737" d="M30,18h-1c-1.1,0-2-0.9-2-2c0-1.1,0.9-2,2-2h1c1.1,0,2,0.9,2,2C32,17.1,31.1,18,30,18z"/>
	</g>
</g>
<g>
	<g>
		<path fill="#A6C3FD" d="M6.1,27.9c-0.5,0-1-0.2-1.4-0.6c-0.8-0.8-0.8-2,0-2.8l0.7-0.7c0.8-0.8,2-0.8,2.8,0c0.8,0.8,0.8,2,0,2.8
			l-0.7,0.7C7.1,27.7,6.6,27.9,6.1,27.9z"/>
	</g>
	<g>
		<path fill="#A6C3FD" d="M25.2,8.8c-0.5,0-1-0.2-1.4-0.6c-0.8-0.8-0.8-2,0-2.8l0.7-0.7c0.8-0.8,2-0.8,2.8,0c0.8,0.8,0.8,2,0,2.8
			l-0.7,0.7C26.2,8.6,25.7,8.8,25.2,8.8z"/>
	</g>
</g>
<g>
	<g>
		<path fill="#FEB737" d="M16,32c-1.1,0-2-0.9-2-2v-1c0-1.1,0.9-2,2-2c1.1,0,2,0.9,2,2v1C18,31.1,17.1,32,16,32z"/>
	</g>
	<g>
		<path fill="#FEB737" d="M16,5c-1.1,0-2-0.9-2-2V2c0-1.1,0.9-2,2-2c1.1,0,2,0.9,2,2v1C18,4.1,17.1,5,16,5z"/>
	</g>
</g>
<g>
	<g>
		<path fill="#A6C3FD" d="M25.9,27.9c-0.5,0-1-0.2-1.4-0.6l-0.7-0.7c-0.8-0.8-0.8-2,0-2.8c0.8-0.8,2-0.8,2.8,0l0.7,0.7
			c0.8,0.8,0.8,2,0,2.8C26.9,27.7,26.4,27.9,25.9,27.9z"/>
	</g>
	<g>
		<path fill="#A6C3FD" d="M6.8,8.8c-0.5,0-1-0.2-1.4-0.6L4.7,7.5c-0.8-0.8-0.8-2,0-2.8c0.8-0.8,2-0.8,2.8,0l0.7,0.7
			c0.8,0.8,0.8,2,0,2.8C7.8,8.6,7.3,8.8,6.8,8.8z"/>
	</g>
</g>
<g>
	<g>
		<path fill="#8D5BB4" d="M16.3,27c-0.3,0-0.6-0.1-0.8-0.2c-1-0.5-1.4-1.7-1-2.7c0.8-1.8,2.4-3,4.2-4.3c2.3-1.8,4.5-3.5,4.5-6.2
			c0-1.4-1.2-2.6-2.7-2.6c-1,0-2,0.6-2.4,1.5c-0.5,1-1.7,1.4-2.7,0.9c-1-0.5-1.4-1.7-0.9-2.7c1.1-2.3,3.4-3.7,6-3.7
			c3.7,0,6.7,3,6.7,6.6c0,4.7-3.4,7.3-6.1,9.4c-1.3,1-2.6,2-3,2.8C17.8,26.5,17.1,27,16.3,27z"/>
	</g>
	<g>
		<path fill="#E191E5" d="M16.3,27c-0.8,0-1.5-0.4-1.8-1.2c-0.4-0.9-1.6-1.8-3-2.8c-2.7-2.1-6.1-4.7-6.1-9.4c0-3.6,3-6.6,6.7-6.6
			c2.6,0,4.9,1.4,6,3.7c0.5,1,0.1,2.2-0.9,2.7c-1,0.5-2.2,0.1-2.7-0.9c-0.5-0.9-1.4-1.5-2.4-1.5c-1.5,0-2.7,1.2-2.7,2.6
			c0,2.7,2.2,4.4,4.5,6.2c1.7,1.3,3.4,2.6,4.2,4.3c0.5,1,0,2.2-1,2.7C16.9,26.9,16.6,27,16.3,27z"/>
	</g>
	<g>
		<path fill="#8D5BB4" d="M25.2,15.6c-1.1,0-2-0.9-2-2c0-1.4-1.2-2.6-2.7-2.6c-1,0-2,0.6-2.4,1.5c-0.5,1-1.7,1.4-2.7,0.9
			c-1-0.5-1.4-1.7-0.9-2.7c1.1-2.3,3.4-3.7,6-3.7c3.7,0,6.7,3,6.7,6.6C27.2,14.7,26.3,15.6,25.2,15.6z"/>
	</g>
</g>
</svg>
