<?xml version="1.0" encoding="utf-8"?>
<!-- Generator: Adobe Illustrator 18.1.1, SVG Export Plug-In . SVG Version: 6.00 Build 0)  -->
<svg version="1.1" id="Layer_1" xmlns="http://www.w3.org/2000/svg" xmlns:xlink="http://www.w3.org/1999/xlink" x="0px" y="0px"
	 viewBox="-266.2 364.8 65.7 65" enable-background="new -266.2 364.8 65.7 65" xml:space="preserve">
<g>
	<g>
		
			<line fill="none" stroke="#FFFFFF" stroke-width="4" stroke-linecap="round" stroke-linejoin="round" stroke-miterlimit="10" x1="-233" y1="427" x2="-233" y2="421"/>
		
			<line fill="none" stroke="#FFFFFF" stroke-width="4" stroke-linecap="round" stroke-linejoin="round" stroke-miterlimit="10" x1="-233" y1="373" x2="-233" y2="367"/>
	</g>
	<g>
		
			<line fill="none" stroke="#E191E5" stroke-width="4" stroke-linecap="round" stroke-linejoin="round" stroke-miterlimit="10" x1="-254" y1="417.5" x2="-250.6" y2="414.1"/>
		
			<line fill="none" stroke="#E191E5" stroke-width="4" stroke-linecap="round" stroke-linejoin="round" stroke-miterlimit="10" x1="-215.4" y1="378.9" x2="-212" y2="375.5"/>
	</g>
	
		<line fill="none" stroke="#FFFFFF" stroke-width="4" stroke-linecap="round" stroke-linejoin="round" stroke-miterlimit="10" x1="-263" y1="397" x2="-257" y2="397"/>
	
		<line fill="none" stroke="#FFFFFF" stroke-width="4" stroke-linecap="round" stroke-linejoin="round" stroke-miterlimit="10" x1="-209" y1="397" x2="-203" y2="397"/>
	<g>
		
			<line fill="none" stroke="#8D5BB4" stroke-width="4" stroke-linecap="round" stroke-linejoin="round" stroke-miterlimit="10" x1="-254" y1="375.5" x2="-250.6" y2="378.9"/>
		
			<line fill="none" stroke="#8D5BB4" stroke-width="4" stroke-linecap="round" stroke-linejoin="round" stroke-miterlimit="10" x1="-215.4" y1="414.1" x2="-212" y2="417.5"/>
	</g>
	<g>
		
			<line fill="none" stroke="#FFFFFF" stroke-width="4" stroke-linecap="round" stroke-linejoin="round" stroke-miterlimit="10" x1="-240.1" y1="386.7" x2="-240.1" y2="386.7"/>
		
			<path fill="none" stroke="#8D5BB4" stroke-width="4" stroke-linecap="round" stroke-linejoin="round" stroke-miterlimit="10" stroke-dasharray="1,0" d="
			M-233,413.5c3.2-6.9,18-10.8,18-22.7c0-5.1-4.2-9.3-9.5-9.3c-3.8,0-7,2.1-8.5,5.2"/>
		
			<path fill="none" stroke="#FFFFFF" stroke-width="4" stroke-linecap="round" stroke-linejoin="round" stroke-miterlimit="10" stroke-dasharray="1,0" d="
			M-219.5,391c0-2.8-2.3-5.1-5.2-5.1"/>
		
			<path fill="none" stroke="#FFFFFF" stroke-width="4" stroke-linecap="round" stroke-linejoin="round" stroke-miterlimit="10" stroke-dasharray="1,0" d="
			M-233,413.5c-3.2-6.9-18-10.8-18-22.7c0-5.1,4.2-9.3,9.5-9.3c3.8,0,7,2.1,8.5,5.2"/>
		
			<path fill="none" stroke="#8D5BB4" stroke-width="4" stroke-linecap="round" stroke-linejoin="round" stroke-miterlimit="10" stroke-dasharray="1,0" d="
			M-215,390.8c0-5.1-4.2-9.3-9.5-9.3c-3.8,0-7,2.1-8.5,5.2"/>
	</g>
</g>
</svg>
