<?xml version="1.0" encoding="utf-8"?>
<!-- Generator: Adobe Illustrator 18.1.1, SVG Export Plug-In . SVG Version: 6.00 Build 0)  -->
<svg version="1.1" id="Layer_1" xmlns="http://www.w3.org/2000/svg" xmlns:xlink="http://www.w3.org/1999/xlink" x="0px" y="0px"
	 viewBox="-297 391 16 12" enable-background="new -297 391 16 12" xml:space="preserve">
<path fill="#8D5BB4" d="M-281,401c0,1.1-0.9,2-2,2h-12c-1.1,0-2-0.9-2-2v-8c0-1.1,0.9-2,2-2h12c1.1,0,2,0.9,2,2V401z M-286.8,398.6
	l4.5-4.4c0.4-0.4,0.4-1,0-1.4c-0.4-0.4-1-0.4-1.4,0l-4.5,4.4c-0.4,0.4-1.2,0.4-1.6,0l-4.5-4.4c-0.4-0.4-1-0.4-1.4,0
	c-0.4,0.4-0.4,1,0,1.4l4.5,4.4c0.6,0.6,1.4,0.9,2.2,0.9S-287.4,399.2-286.8,398.6z"/>
</svg>
