<?xml version="1.0" encoding="utf-8"?>
<!-- Generator: Adobe Illustrator 18.1.1, SVG Export Plug-In . SVG Version: 6.00 Build 0)  -->
<svg version="1.1" id="Layer_1" xmlns="http://www.w3.org/2000/svg" xmlns:xlink="http://www.w3.org/1999/xlink" x="0px" y="0px"
	 viewBox="0 0 16 12" enable-background="new 0 0 16 12" xml:space="preserve">
<path fill="#FFFFFF" d="M16,10c0,1.1-0.9,2-2,2H2c-1.1,0-2-0.9-2-2V2c0-1.1,0.9-2,2-2h12c1.1,0,2,0.9,2,2V10z M10.2,7.6l4.5-4.4
	c0.4-0.4,0.4-1,0-1.4c-0.4-0.4-1-0.4-1.4,0L8.8,6.2c-0.4,0.4-1.2,0.4-1.6,0L2.7,1.8c-0.4-0.4-1-0.4-1.4,0c-0.4,0.4-0.4,1,0,1.4
	l4.5,4.4C6.4,8.2,7.2,8.5,8,8.5C8.8,8.5,9.6,8.2,10.2,7.6z"/>
</svg>
