<?xml version="1.0" encoding="utf-8"?>
<!-- Generator: Adobe Illustrator 16.0.0, SVG Export Plug-In . SVG Version: 6.00 Build 0)  -->
<!DOCTYPE svg PUBLIC "-//W3C//DTD SVG 1.1//EN" "http://www.w3.org/Graphics/SVG/1.1/DTD/svg11.dtd">
<svg version="1.1" id="Layer_1" xmlns="http://www.w3.org/2000/svg" xmlns:xlink="http://www.w3.org/1999/xlink" x="0px" y="0px"
	 width="16px" height="16px" viewBox="0 0 16 16" enable-background="new 0 0 16 16" xml:space="preserve">
<g>
	<path fill="#8D5BB4" d="M6.532,2.328c0,0-2.01-1.376-2.967-1.175c-0.958,0.2-1.57,1.133-1.369,2.082
		c0.203,0.951,1.143,1.558,2.101,1.357C5.254,4.393,6.532,2.328,6.532,2.328z M4.114,3.733c-0.478,0.1-0.95-0.205-1.051-0.679
		c-0.101-0.474,0.206-0.94,0.683-1.041c0.229-0.036,0.869,0.216,1.53,0.577C4.821,3.188,4.338,3.675,4.114,3.733z"/>
	<path fill="#8D5BB4" d="M9.499,3.503c0.959-0.2,1.57-1.133,1.369-2.083c-0.203-0.949-1.143-1.557-2.101-1.356
		c-0.958,0.2-2.235,2.265-2.235,2.265S8.542,3.704,9.499,3.503z M8.953,0.923c0.476-0.099,0.947,0.205,1.048,0.68
		c0.101,0.473-0.206,0.941-0.684,1.041C9.09,2.679,8.449,2.426,7.788,2.065C8.243,1.47,8.726,0.983,8.953,0.923z"/>
	<path fill="#8D5BB4" d="M9.499,3.503l-5.202,1.09C2.682,4.93,1.572,6.311,1.5,7.873l11.896-2.49
		C12.692,3.983,11.114,3.164,9.499,3.503z"/>
	<path fill="#8D5BB4" d="M2.091,9.317v3.143c0,1.941,1.587,3.516,3.545,3.516h5.317c1.958,0,3.545-1.574,3.545-3.516V9.317H2.091z"
		/>
</g>
</svg>
