<?xml version="1.0" encoding="utf-8"?>
<!-- Generator: Adobe Illustrator 18.1.1, SVG Export Plug-In . SVG Version: 6.00 Build 0)  -->
<svg version="1.1" id="Layer_1" xmlns="http://www.w3.org/2000/svg" xmlns:xlink="http://www.w3.org/1999/xlink" x="0px" y="0px"
	 viewBox="0 0 26 32" enable-background="new 0 0 26 32" xml:space="preserve">
<path fill="#E191E5" d="M24,28H2c-1.1,0-2,0.9-2,2s0.9,2,2,2h22V28z"/>
<g>
	<path fill="#FEB737" d="M0,30V2c0-1.1,0.9-2,2-2c1.1,0,2,0.9,2,2v28C2.9,30,1,30,0,30z"/>
</g>
<g>
	<path fill="#FEB737" d="M24,32c-1.1,0-2-0.9-2-2V2c1.2,0,4-1.1,4,0v28C26,31.1,25.1,32,24,32z"/>
	<path fill="#FEB737" d="M22,30V2c1.2,0,2.9,0,4,0"/>
</g>
<g>
	<path fill="#A6C3FD" d="M24,4H2c0-1.3,0-2.5,0-4h22c1.1,0,2,0.9,2,2C26,3.1,25.1,4,24,4z"/>
</g>
<g>
	<path fill="#FEB737" d="M2,23c-1.1,0-2-0.9-2-2V2c0-1.1,0.9-2,2-2c1.1,0,2,0.9,2,2v19C4,22.1,3.1,23,2,23z"/>
</g>
<g>
	<path fill="#8D5BB4" d="M18,10H8c-1.1,0-2-0.9-2-2s0.9-2,2-2h10c1.1,0,2,0.9,2,2S19.1,10,18,10z"/>
</g>
<g>
	<path fill="#E191E5" d="M18,18H8c-1.1,0-2-0.9-2-2s0.9-2,2-2h10c1.1,0,2,0.9,2,2S19.1,18,18,18z"/>
</g>
<g>
	<path fill="#A6C3FD" d="M18,26H8c-1.1,0-2-0.9-2-2s0.9-2,2-2h10c1.1,0,2,0.9,2,2S19.1,26,18,26z"/>
</g>
<path fill="#E191E5" d="M7,28H2c-1.1,0-2,0.9-2,2s0.9,2,2,2h5V28z"/>
</svg>
