<?xml version="1.0" encoding="utf-8"?>
<!-- Generator: Adobe Illustrator 18.1.1, SVG Export Plug-In . SVG Version: 6.00 Build 0)  -->
<svg version="1.1" id="Layer_1" xmlns="http://www.w3.org/2000/svg" xmlns:xlink="http://www.w3.org/1999/xlink" x="0px" y="0px"
	 viewBox="0 0 40 31" enable-background="new 0 0 40 31" xml:space="preserve">
<g>
	<path fill="#FEB737" d="M2,31c-1,0-2-0.8-2-1.9V8.4c0-1,1-1.9,2-1.9s2,0.8,2,1.9v20.7C4,30.2,3,31,2,31z"/>
</g>
<g>
	<path fill="#E191E5" d="M30.1,31H1.9c-1,0-1.9-1-1.9-2c0-1,0.8-2,1.9-2h28.2c1,0,1.9,1,1.9,2C32,30,31.2,31,30.1,31z"/>
</g>
<g>
	<path fill="#FFFFFF" d="M33,24c-1,0-2-0.9-2-1.9V11.9c0-1.1,1-1.9,2-1.9s2,0.9,2,1.9v10.1C35,23.1,34,24,33,24z"/>
</g>
<g>
	<path fill="#FFFFFF" d="M40,17c0,1-0.9,2-1.9,2H27.9c-1.1,0-1.9-1-1.9-2s0.9-2,1.9-2h10.1C39.1,15,40,16,40,17z"/>
</g>
<g>
	<path fill="#FFFFFF" d="M30.1,9H1.9C0.8,9,0,8,0,7s0.8-2,1.9-2h28.2c1,0,1.9,1,1.9,2S31.2,9,30.1,9z"/>
</g>
<g>
	<path fill="#FEB737" d="M2,22c-1,0-2-0.8-2-1.9V6.9C0,5.8,1,5,2,5s2,0.8,2,1.9v13.2C4,21.2,3,22,2,22z"/>
</g>
<path fill="#A6C3FD" d="M13.3,25.2c-3.8,0-6.8-3.1-6.8-6.8c0-3.8,3.1-6.8,6.8-6.8c3.8,0,6.8,3.1,6.8,6.8
	C20.1,22.1,17,25.2,13.3,25.2z M13.3,15.3c-1.7,0-3.1,1.4-3.1,3.1c0,1.7,1.4,3.1,3.1,3.1c1.7,0,3.1-1.4,3.1-3.1
	C16.3,16.7,14.9,15.3,13.3,15.3z"/>
<path fill="#E191E5" d="M9.4,4H5.6c-1,0-1.9-1-1.9-2c0-1,0.8-2,1.9-2h3.8c1,0,1.9,1,1.9,2C11.3,3,10.5,4,9.4,4z"/>
<path fill="#FEB737" d="M25.4,14h-3.8c-1,0-1.9-1-1.9-2c0-1,0.8-2,1.9-2h3.8c1,0,1.9,1,1.9,2C27.3,13,26.5,14,25.4,14z"/>
</svg>
