<?xml version="1.0" encoding="utf-8"?>
<!-- Generator: Adobe Illustrator 18.1.1, SVG Export Plug-In . SVG Version: 6.00 Build 0)  -->
<svg version="1.1" id="Layer_1" xmlns="http://www.w3.org/2000/svg" xmlns:xlink="http://www.w3.org/1999/xlink" x="0px" y="0px"
	 viewBox="0 0 32 31.5" enable-background="new 0 0 32 31.5" xml:space="preserve">
<g>
	<path fill="#FEB737" d="M2,31.5c-1,0-2-0.8-2-1.9V8.9C0,7.9,1,7,2,7s2,0.8,2,1.9v20.7C4,30.7,3,31.5,2,31.5z"/>
</g>
<g>
	<path fill="#E191E5" d="M30.1,31.5H1.9c-1,0-1.9-1-1.9-2c0-1,0.8-2,1.9-2h28.2c1,0,1.9,1,1.9,2C32,30.5,31.2,31.5,30.1,31.5z"/>
</g>
<g>
	<path fill="#A6C3FD" d="M30,31.5c-1,0-2-0.8-2-1.9V7.9c0-1,1-1.9,2-1.9s2,0.8,2,1.9v21.7C32,30.7,31,31.5,30,31.5z"/>
</g>
<g>
	<path fill="#8D5BB4" d="M30.1,9.5H1.9c-1,0-1.9-1-1.9-2s0.8-2,1.9-2h28.2c1,0,1.9,1,1.9,2S31.2,9.5,30.1,9.5z"/>
</g>
<g>
	<path fill="#FEB737" d="M2,22.5c-1,0-2-0.8-2-1.9V7.4c0-1,1-1.9,2-1.9s2,0.8,2,1.9v13.2C4,21.7,3,22.5,2,22.5z"/>
</g>
<path fill="#A6C3FD" d="M13.3,25.7c-3.8,0-6.8-3.1-6.8-6.8c0-3.8,3.1-6.8,6.8-6.8c3.8,0,6.8,3.1,6.8,6.8
	C20.1,22.6,17,25.7,13.3,25.7z M13.3,15.8c-1.7,0-3.1,1.4-3.1,3.1c0,1.7,1.4,3.1,3.1,3.1c1.7,0,3.1-1.4,3.1-3.1
	C16.3,17.2,14.9,15.8,13.3,15.8z"/>
<path fill="#E191E5" d="M9.4,4.5H5.6c-1,0-1.9-1-1.9-2c0-1,0.8-2,1.9-2h3.8c1,0,1.9,1,1.9,2C11.3,3.5,10.5,4.5,9.4,4.5z"/>
<path fill="#FEB737" d="M25.4,14.5h-3.8c-1,0-1.9-1-1.9-2c0-1,0.8-2,1.9-2h3.8c1,0,1.9,1,1.9,2C27.3,13.5,26.5,14.5,25.4,14.5z"/>
</svg>
