<?xml version="1.0" encoding="utf-8"?>
<!-- Generator: Adobe Illustrator 18.1.1, SVG Export Plug-In . SVG Version: 6.00 Build 0)  -->
<svg version="1.1" id="Layer_1" xmlns="http://www.w3.org/2000/svg" xmlns:xlink="http://www.w3.org/1999/xlink" x="0px" y="0px"
	 viewBox="0 0 518.5 252.6" enable-background="new 0 0 518.5 252.6" xml:space="preserve">
<rect x="-36" y="-6" fill="#FFFFFF" width="1366" height="523"/>
<g>
	<g>
		
			<line fill="none" stroke="#E191E5" stroke-width="9.6653" stroke-linecap="round" stroke-linejoin="round" stroke-miterlimit="10" stroke-dasharray="1.9331,13.5315,11.5984" x1="486" y1="85.6" x2="513.2" y2="76.2"/>
	</g>
	<g>
		
			<line fill="none" stroke="#FEB737" stroke-width="9.6653" stroke-linecap="round" stroke-linejoin="round" stroke-miterlimit="10" stroke-dasharray="1.9331,13.5315,11.5984" x1="449.4" y1="44.3" x2="471" y2="0"/>
	</g>
	<g>
		
			<line fill="none" stroke="#A6C3FD" stroke-width="9.6653" stroke-linecap="round" stroke-linejoin="round" stroke-miterlimit="10" stroke-dasharray="1.9331,13.5315,11.5984" x1="394.4" y1="41.1" x2="383.1" y2="8.4"/>
	</g>
</g>
<g>
	<g>
		
			<line fill="none" stroke="#E191E5" stroke-width="6.3566" stroke-linecap="round" stroke-linejoin="round" stroke-miterlimit="10" stroke-dasharray="1.0805,7.5633,6.4828" x1="19.6" y1="189.6" x2="4.5" y2="184.4"/>
	</g>
	<g>
		
			<line fill="none" stroke="#FEB737" stroke-width="6.3566" stroke-linecap="round" stroke-linejoin="round" stroke-miterlimit="10" stroke-dasharray="1.0805,7.5633,6.4828" x1="31" y1="174.8" x2="19" y2="150"/>
	</g>
	<g>
		
			<line fill="none" stroke="#A6C3FD" stroke-width="6.3566" stroke-linecap="round" stroke-linejoin="round" stroke-miterlimit="10" stroke-dasharray="1.0805,7.5633,6.4828" x1="49.9" y1="173" x2="56.3" y2="154.7"/>
	</g>
</g>
<g>
	
		<line fill="none" stroke="#A6C3FD" stroke-width="2.2581" stroke-linecap="round" stroke-linejoin="round" stroke-miterlimit="10" stroke-dasharray="1.9355,0" x1="258.6" y1="73.7" x2="248.5" y2="91.7"/>
	
		<line fill="none" stroke="#E191E5" stroke-width="2.2581" stroke-linecap="round" stroke-linejoin="round" stroke-miterlimit="10" stroke-dasharray="1.9355,0" x1="262.3" y1="75.8" x2="252.2" y2="93.8"/>
	
		<line fill="none" stroke="#E191E5" stroke-width="4.5162" stroke-linecap="round" stroke-linejoin="round" stroke-miterlimit="10" stroke-dasharray="1.9355,0" x1="272.3" y1="81.4" x2="248.6" y2="68.1"/>
	
		<line fill="none" stroke="#FEB737" stroke-width="4.5162" stroke-linecap="round" stroke-linejoin="round" stroke-miterlimit="10" stroke-dasharray="1.9355,0" x1="262.5" y1="98.8" x2="238.8" y2="85.5"/>
	
		<line fill="none" stroke="#8D5BB4" stroke-width="4.5162" stroke-linecap="round" stroke-linejoin="round" stroke-miterlimit="10" stroke-dasharray="1.9355,0" x1="272.3" y1="81.4" x2="262.5" y2="98.8"/>
	
		<line fill="none" stroke="#A6C3FD" stroke-width="4.5162" stroke-linecap="round" stroke-linejoin="round" stroke-miterlimit="10" stroke-dasharray="1.9355,0" x1="248.6" y1="68.1" x2="238.8" y2="85.5"/>
	
		<line fill="none" stroke="#FEB737" stroke-width="4.5162" stroke-linecap="round" stroke-linejoin="round" stroke-miterlimit="10" stroke-dasharray="1.9355,0" x1="249.5" y1="91.5" x2="238.8" y2="85.5"/>
	<g>
		<g>
			
				<line fill="none" stroke="#8D5BB4" stroke-width="2.2581" stroke-linecap="round" stroke-linejoin="round" stroke-miterlimit="10" stroke-dasharray="1.9355,0" x1="254.3" y1="43.2" x2="255.3" y2="52"/>
			
				<line fill="none" stroke="#A6C3FD" stroke-width="2.2581" stroke-linecap="round" stroke-linejoin="round" stroke-miterlimit="10" stroke-dasharray="1.9355,0" x1="260.2" y1="42.5" x2="261.3" y2="51.3"/>
			
				<line fill="none" stroke="#E191E5" stroke-width="4.5162" stroke-linecap="round" stroke-linejoin="round" stroke-miterlimit="10" stroke-dasharray="1.9355,0" x1="273.4" y1="49.9" x2="243.2" y2="53.5"/>
			
				<line fill="none" stroke="#A6C3FD" stroke-width="4.5162" stroke-linecap="round" stroke-linejoin="round" stroke-miterlimit="10" stroke-dasharray="1.9355,0" x1="272.3" y1="41.1" x2="273.4" y2="49.9"/>
			
				<line fill="none" stroke="#FEB737" stroke-width="4.5162" stroke-linecap="round" stroke-linejoin="round" stroke-miterlimit="10" stroke-dasharray="1.9355,0" x1="242.2" y1="44.6" x2="272.3" y2="41.1"/>
			
				<path fill="none" stroke="#A6C3FD" stroke-width="2.2581" stroke-linecap="round" stroke-linejoin="round" stroke-miterlimit="10" stroke-dasharray="1.9355,0" d="
				M256.5,36.5c0,0-4.2,4.7-6.5,5c-2.3,0.3-4.4-1.4-4.7-3.7c-0.3-2.3,1.4-4.4,3.7-4.7C251.3,32.9,256.5,36.5,256.5,36.5z"/>
			
				<path fill="none" stroke="#E191E5" stroke-width="2.2581" stroke-linecap="round" stroke-linejoin="round" stroke-miterlimit="10" stroke-dasharray="1.9355,0" d="
				M256.5,36.5c0,0,5.2,3.6,7.5,3.4c2.3-0.3,4-2.4,3.7-4.7c-0.3-2.3-2.4-4-4.7-3.7C260.7,31.8,256.5,36.5,256.5,36.5z"/>
			
				<line fill="none" stroke="#8D5BB4" stroke-width="4.5162" stroke-linecap="round" stroke-linejoin="round" stroke-miterlimit="10" stroke-dasharray="1.9355,0" x1="242.2" y1="44.6" x2="243.2" y2="53.5"/>
		</g>
		
			<line fill="none" stroke="#E191E5" stroke-width="4.5162" stroke-linecap="round" stroke-linejoin="round" stroke-miterlimit="10" stroke-dasharray="1.9355,0" x1="257.1" y1="51.8" x2="243.2" y2="53.5"/>
	</g>
	<g>
		<g>
			<g>
				<path fill="#A6C3FD" d="M255.3,56.2c0.1-0.2,0.3-0.4,0.5-0.4c0.5-0.1,1,0.1,1.1,0.6l0.1,0.5c0.1,0.5-0.1,1-0.6,1.1
					c-0.5,0.1-1-0.1-1.1-0.6l-0.1-0.5C255.1,56.7,255.2,56.4,255.3,56.2z M256.4,60.2c0.1-0.2,0.3-0.4,0.5-0.4
					c0.5-0.1,1,0.1,1.1,0.6l0.8,3c0,0.1,0,0.2,0,0.3c0,0.1,0.1,0.2,0.1,0.2l1,3.5c0.1,0.5-0.1,1-0.6,1.1c-0.5,0.1-1-0.1-1.1-0.6
					l-1-3.5c0-0.1,0-0.2,0-0.3c0-0.1-0.1-0.2-0.1-0.2l-0.8-3C256.3,60.7,256.3,60.4,256.4,60.2z"/>
			</g>
		</g>
		<g>
			<g>
				<path fill="#8D5BB4" d="M267.9,72.5c0.1-0.2,0.3-0.4,0.5-0.4l3.5-1c0.1,0,0.2,0,0.3,0c0.1,0,0.2-0.1,0.2-0.1l3-0.8
					c0.5-0.1,1,0.1,1.1,0.6c0.1,0.5-0.1,1-0.6,1.1l-3,0.8c-0.1,0-0.2,0-0.3,0c-0.1,0-0.2,0.1-0.2,0.1l-3.5,1c-0.5,0.1-1-0.1-1.1-0.6
					C267.8,73,267.8,72.7,267.9,72.5z M278.4,69.6c0.1-0.2,0.3-0.4,0.5-0.4l0.5-0.1c0.5-0.1,1,0.1,1.1,0.6c0.1,0.5-0.1,1-0.6,1.1
					l-0.5,0.1c-0.5,0.1-1-0.1-1.1-0.6C278.2,70,278.3,69.8,278.4,69.6z"/>
			</g>
		</g>
		<g>
			<path fill="#FEB737" d="M261.8,71.8c-0.1-0.1-0.2-0.2-0.3-0.3c-0.3-0.4-0.2-0.9,0.2-1.2l9.2-6l-3.7-2.1c-0.3-0.2-0.4-0.5-0.4-0.8
				c0-0.3,0.2-0.6,0.4-0.8l6.2-4.2c0.4-0.3,1-0.2,1.3,0.2c0.3,0.4,0.2,1-0.3,1.3l-5,3.3l3.8,2.1c0.3,0.2,0.5,0.4,0.5,0.7
				c0,0.3-0.1,0.6-0.4,0.8l-10.5,6.9C262.5,72,262.1,72,261.8,71.8z"/>
		</g>
	</g>
	
		<line fill="none" stroke="#E191E5" stroke-width="4.5162" stroke-linecap="round" stroke-linejoin="round" stroke-miterlimit="10" stroke-dasharray="1.9355,0" x1="272.3" y1="81.4" x2="260.4" y2="74.7"/>
</g>
<g>
	
		<path fill="none" stroke="#8D5BB4" stroke-width="4.5404" stroke-linecap="round" stroke-linejoin="round" stroke-miterlimit="10" stroke-dasharray="5.4485,0" d="
		M66,226.6c1.6,0,3,0.7,4,1.8c0.9,1,1.4,2.2,1.4,3.6l0,0"/>
	
		<path fill="none" stroke="#FEB737" stroke-width="4.5404" stroke-linecap="round" stroke-linejoin="round" stroke-miterlimit="10" stroke-dasharray="5.4485,0" d="
		M20.7,221.2c2.4-10.1,11.5-17.6,22.3-17.6c12.7,0,23,10.3,23,23"/>
	
		<path fill="none" stroke="#FEB737" stroke-width="4.5404" stroke-linecap="round" stroke-linejoin="round" stroke-miterlimit="10" stroke-dasharray="5.4485,0" d="
		M20.1,249.6c-7.8,0-14.2-6.4-14.2-14.2c0-7.8,6.4-14.2,14.2-14.2c0.2,0,0.4,0,0.6,0"/>
	
		<path fill="none" stroke="#8D5BB4" stroke-width="4.5404" stroke-linecap="round" stroke-linejoin="round" stroke-miterlimit="10" stroke-dasharray="5.4485,0" d="
		M71.4,232L71.4,232c4.8,0,8.8,3.9,8.8,8.8c0,4.8-3.9,8.8-8.8,8.8H20.1"/>
	
		<path fill="none" stroke="#8D5BB4" stroke-width="4.5404" stroke-linecap="round" stroke-linejoin="round" stroke-miterlimit="10" stroke-dasharray="5.4485,0" d="
		M70.1,228.4c0.9,1,1.4,2.2,1.4,3.6l0,0"/>
</g>
<g opacity="0.2">
	<path fill="#BDCCD4" d="M467.1,149.6l-9.9-46.9c-0.5-2.4-2.9-4-5.3-3.5L377.1,115c-2.1,0.4-3.6,2.3-3.6,4.4c0,0.3,0,0.6,0.1,0.9
		l9.9,46.9c0.4,1.9,1.9,3.2,3.6,3.5c0.3,0,0.5,0.1,0.8,0.1c0.3,0,0.6,0,0.9-0.1l74.8-15.8c2.1-0.4,3.6-2.3,3.6-4.4
		C467.2,150.2,467.2,149.9,467.1,149.6z M391.6,161l-2.6-13.2c0,0,0,0,0,0l-5.4-24.9l65.9-13.9l8.1,38.1L391.6,161z"/>
	<path fill="#BDCCD4" d="M412.7,119.5c-1.2,0-2.4,0.1-3.6,0.4c-8.1,1.7-13.9,8.9-13.9,17.2c0,1.2,0.1,2.4,0.4,3.6
		c1.7,8.1,8.9,13.9,17.2,13.9c1.2,0,2.4-0.1,3.6-0.4c8.1-1.7,13.9-8.9,13.9-17.2c0-1.2-0.1-2.4-0.4-3.6
		C428.1,125.3,420.9,119.5,412.7,119.5z M414.5,146.1c-0.6,0.1-1.3,0.2-1.9,0.2c-4.3,0-8.1-3.1-9-7.3c-0.1-0.6-0.2-1.3-0.2-1.9
		c0-4.3,3.1-8.1,7.3-9c0.6-0.1,1.3-0.2,1.9-0.2c4.3,0,8.1,3.1,9,7.3c0.1,0.6,0.2,1.3,0.2,1.9C421.9,141.4,418.8,145.2,414.5,146.1z"
		/>
	<path fill="#BDCCD4" d="M447.7,115.5c-0.5-2.4-2.9-4-5.3-3.5l-10.3,2.2c-2.4,0.5-4,2.9-3.5,5.3c0.4,2.1,2.3,3.6,4.4,3.6
		c0.3,0,0.6,0,0.9-0.1l10.3-2.2C446.6,120.3,448.2,117.9,447.7,115.5z"/>
	<path fill="#BDCCD4" d="M384.7,111.8c0.3,0,0.6,0,0.9-0.1l8.8-1.9c2.4-0.5,4-2.9,3.5-5.3c-0.5-2.4-2.9-4-5.3-3.5l-8.8,1.9
		c-2.4,0.5-4,2.9-3.5,5.3C380.7,110.3,382.6,111.8,384.7,111.8z"/>
</g>
<g>
	<g>
		
			<line fill="none" stroke="#FEB737" stroke-width="8.991" stroke-linecap="round" stroke-linejoin="round" stroke-miterlimit="10" stroke-dasharray="2.997,0" x1="380.2" y1="158.6" x2="370.3" y2="111.7"/>
		
			<line fill="none" stroke="#E191E5" stroke-width="8.991" stroke-linecap="round" stroke-linejoin="round" stroke-miterlimit="10" stroke-dasharray="2.997,0" x1="455" y1="142.8" x2="380.2" y2="158.6"/>
		
			<line fill="none" stroke="#A6C3FD" stroke-width="8.991" stroke-linecap="round" stroke-linejoin="round" stroke-miterlimit="10" stroke-dasharray="2.997,0" x1="445.1" y1="95.9" x2="455" y2="142.8"/>
		
			<line fill="none" stroke="#8D5BB4" stroke-width="8.991" stroke-linecap="round" stroke-linejoin="round" stroke-miterlimit="10" stroke-dasharray="2.997,0" x1="445.1" y1="95.9" x2="370.3" y2="111.7"/>
		
			<line fill="none" stroke="#FEB737" stroke-width="8.991" stroke-linecap="round" stroke-linejoin="round" stroke-miterlimit="10" stroke-dasharray="2.997,0" x1="376.5" y1="141" x2="370.3" y2="111.7"/>
	</g>
	
		<circle fill="none" stroke="#A6C3FD" stroke-width="8.3296" stroke-linecap="round" stroke-linejoin="round" stroke-miterlimit="10" stroke-dasharray="3.5698,0" cx="404.9" cy="129.3" r="13.4"/>
	
		<line fill="none" stroke="#FEB737" stroke-width="8.991" stroke-linecap="round" stroke-linejoin="round" stroke-miterlimit="10" stroke-dasharray="2.997,0" x1="425.3" y1="110.8" x2="435.5" y2="108.6"/>
	
		<line fill="none" stroke="#E191E5" stroke-width="8.991" stroke-linecap="round" stroke-linejoin="round" stroke-miterlimit="10" stroke-dasharray="2.997,0" x1="376.9" y1="99.5" x2="385.7" y2="97.7"/>
</g>
<g>
	
		<path fill="none" stroke="#8D5BB4" stroke-width="13.5315" stroke-linecap="round" stroke-linejoin="round" stroke-miterlimit="10" stroke-dasharray="5.7992,0" d="
		M347.5,118.4c-4.4,0-8.3,1.9-11,4.9c-2.4,2.6-3.8,6.1-3.8,9.9v0"/>
	
		<path fill="none" stroke="#FEB737" stroke-width="13.5315" stroke-linecap="round" stroke-linejoin="round" stroke-miterlimit="10" stroke-dasharray="5.7992,0" d="
		M471.2,103.7c-6.6-27.5-31.4-48-61-48c-34.7,0-62.7,28.1-62.7,62.7"/>
	
		<path fill="none" stroke="#A6C3FD" stroke-width="13.5315" stroke-linecap="round" stroke-linejoin="round" stroke-miterlimit="10" stroke-dasharray="5.7992,0" d="
		M473,181.2c21.4,0,38.8-17.4,38.8-38.8c0-21.4-17.4-38.8-38.8-38.8c-0.6,0-1.2,0-1.8,0"/>
	
		<path fill="none" stroke="#E191E5" stroke-width="13.5315" stroke-linecap="round" stroke-linejoin="round" stroke-miterlimit="10" stroke-dasharray="5.7992,0" d="
		M332.7,133.3L332.7,133.3c-13.2,0-24,10.7-24,24c0,13.2,10.7,24,24,24H473"/>
	
		<path fill="none" stroke="#8D5BB4" stroke-width="13.5315" stroke-linecap="round" stroke-linejoin="round" stroke-miterlimit="10" stroke-dasharray="5.7992,0" d="
		M336.5,123.3c-2.4,2.6-3.8,6.1-3.8,9.9v0"/>
</g>
<path opacity="0.2" fill="#BDCCD4" d="M70.3,196.6l-31-6.8c-1.5-0.3-2.9,0.6-3.2,2.1l-11.1,50.5c-0.3,1.5,0.6,2.9,2.1,3.2l19.5,4.3
	c0,0,0,0,0,0l11.5,2.5c0.2,0,0.4,0.1,0.6,0.1c1.3,0,2.4-0.9,2.7-2.1l11.1-50.5C72.7,198.4,71.8,197,70.3,196.6z"/>
<g>
	
		<rect x="31" y="189.8" transform="matrix(0.9766 0.2152 -0.2152 0.9766 47.5064 -5.0268)" fill="#FFFFFF" width="31.8" height="51.8"/>
	<g>
		
			<line fill="none" stroke="#A6C3FD" stroke-width="2.7243" stroke-linecap="round" stroke-linejoin="round" stroke-miterlimit="10" stroke-dasharray="2.7243,0" x1="59.8" y1="230.6" x2="28.8" y2="223.8"/>
		<g>
			
				<line fill="none" stroke="#FEB737" stroke-width="5.4485" stroke-linecap="round" stroke-linejoin="round" stroke-miterlimit="10" stroke-dasharray="2.7243,0" x1="56.8" y1="244.4" x2="25.8" y2="237.6"/>
			
				<line fill="none" stroke="#E191E5" stroke-width="5.4485" stroke-linecap="round" stroke-linejoin="round" stroke-miterlimit="10" stroke-dasharray="2.7243,0" x1="67.9" y1="193.8" x2="56.8" y2="244.4"/>
			
				<line fill="none" stroke="#A6C3FD" stroke-width="5.4485" stroke-linecap="round" stroke-linejoin="round" stroke-miterlimit="10" stroke-dasharray="2.7243,0" x1="36.9" y1="187" x2="67.9" y2="193.8"/>
			
				<line fill="none" stroke="#8D5BB4" stroke-width="5.4485" stroke-linecap="round" stroke-linejoin="round" stroke-miterlimit="10" stroke-dasharray="2.7243,0" x1="36.9" y1="187" x2="25.8" y2="237.6"/>
			
				<line fill="none" stroke="#FEB737" stroke-width="5.4485" stroke-linecap="round" stroke-linejoin="round" stroke-miterlimit="10" stroke-dasharray="2.7243,0" x1="45.3" y1="241.9" x2="25.8" y2="237.6"/>
		</g>
		
			<path fill="none" stroke="#FEB737" stroke-width="2.8083" stroke-linecap="round" stroke-linejoin="round" stroke-miterlimit="10" stroke-dasharray="2.4071,0" d="
			M41.8,210.9c-0.7,3.2,1.3,6.3,4.5,7c3.2,0.7,6.3-1.3,7-4.5"/>
		
			<circle fill="none" stroke="#8D5BB4" stroke-width="2.8083" stroke-linecap="round" stroke-linejoin="round" stroke-miterlimit="10" stroke-dasharray="2.4071,0" cx="43.1" cy="233.3" r="2.3"/>
		
			<circle fill="none" stroke="#FEB737" stroke-width="2.8083" stroke-linecap="round" stroke-linejoin="round" stroke-miterlimit="10" stroke-dasharray="2.4071,0" cx="43.8" cy="201.8" r="2.4"/>
		
			<circle fill="none" stroke="#FEB737" stroke-width="2.8083" stroke-linecap="round" stroke-linejoin="round" stroke-miterlimit="10" stroke-dasharray="2.4071,0" cx="55.2" cy="204.3" r="2.4"/>
	</g>
</g>
<g>
	
		<line fill="none" stroke="#8D5BB4" stroke-width="3.9329" stroke-linecap="round" stroke-linejoin="round" stroke-miterlimit="10" stroke-dasharray="3.3711,0" x1="92.5" y1="76.8" x2="102.3" y2="91.2"/>
	
		<line fill="none" stroke="#A6C3FD" stroke-width="3.9329" stroke-linecap="round" stroke-linejoin="round" stroke-miterlimit="10" stroke-dasharray="3.3711,0" x1="102.3" y1="70.2" x2="112" y2="84.6"/>
	
		<line fill="none" stroke="#A6C3FD" stroke-width="3.9329" stroke-linecap="round" stroke-linejoin="round" stroke-miterlimit="10" stroke-dasharray="3.3711,0" x1="104.1" y1="89.9" x2="124.3" y2="119.7"/>
	
		<line fill="none" stroke="#E191E5" stroke-width="3.9329" stroke-linecap="round" stroke-linejoin="round" stroke-miterlimit="10" stroke-dasharray="3.3711,0" x1="110.2" y1="85.8" x2="130.4" y2="115.6"/>
	
		<line fill="none" stroke="#FEB737" stroke-width="7.8658" stroke-linecap="round" stroke-linejoin="round" stroke-miterlimit="10" stroke-dasharray="3.3711,0" x1="146.2" y1="103.5" x2="107.2" y2="130"/>
	
		<line fill="none" stroke="#8D5BB4" stroke-width="7.8658" stroke-linecap="round" stroke-linejoin="round" stroke-miterlimit="10" stroke-dasharray="3.3711,0" x1="126.7" y1="74.6" x2="146.2" y2="103.5"/>
	
		<line fill="none" stroke="#A6C3FD" stroke-width="7.8658" stroke-linecap="round" stroke-linejoin="round" stroke-miterlimit="10" stroke-dasharray="3.3711,0" x1="87.6" y1="101.1" x2="107.2" y2="130"/>
	
		<line fill="none" stroke="#FEB737" stroke-width="7.8658" stroke-linecap="round" stroke-linejoin="round" stroke-miterlimit="10" stroke-dasharray="3.3711,0" x1="124.9" y1="118" x2="107.2" y2="130"/>
	
		<line fill="none" stroke="#E191E5" stroke-width="7.8658" stroke-linecap="round" stroke-linejoin="round" stroke-miterlimit="10" stroke-dasharray="3.3711,0" x1="131.8" y1="71.2" x2="82.5" y2="104.6"/>
	
		<line fill="none" stroke="#A6C3FD" stroke-width="7.8658" stroke-linecap="round" stroke-linejoin="round" stroke-miterlimit="10" stroke-dasharray="3.3711,0" x1="122" y1="56.8" x2="131.8" y2="71.2"/>
	
		<line fill="none" stroke="#FEB737" stroke-width="7.8658" stroke-linecap="round" stroke-linejoin="round" stroke-miterlimit="10" stroke-dasharray="3.3711,0" x1="72.7" y1="90.2" x2="122" y2="56.8"/>
	
		<path fill="none" stroke="#A6C3FD" stroke-width="3.9329" stroke-linecap="round" stroke-linejoin="round" stroke-miterlimit="10" stroke-dasharray="3.3711,0" d="
		M90.2,62.9c0,0-3,12-6.8,14.6c-3.8,2.6-8.9,1.6-11.5-2.2c-2.6-3.8-1.6-8.9,2.2-11.5C77.9,61.2,90.2,62.9,90.2,62.9z"/>
	
		<path fill="none" stroke="#E191E5" stroke-width="3.9329" stroke-linecap="round" stroke-linejoin="round" stroke-miterlimit="10" stroke-dasharray="3.3711,0" d="
		M90.2,62.9c0,0,12.3,1.6,16-0.9c3.8-2.6,4.8-7.7,2.2-11.5c-2.6-3.8-7.7-4.7-11.5-2.2C93.2,50.9,90.2,62.9,90.2,62.9z"/>
	
		<line fill="none" stroke="#8D5BB4" stroke-width="7.8658" stroke-linecap="round" stroke-linejoin="round" stroke-miterlimit="10" stroke-dasharray="3.3711,0" x1="72.7" y1="90.2" x2="82.5" y2="104.6"/>
	
		<line fill="none" stroke="#E191E5" stroke-width="7.8658" stroke-linecap="round" stroke-linejoin="round" stroke-miterlimit="10" stroke-dasharray="3.3711,0" x1="105.3" y1="89.2" x2="82.5" y2="104.6"/>
</g>
</svg>
