<?xml version="1.0" encoding="utf-8"?>
<!-- Generator: Adobe Illustrator 16.0.0, SVG Export Plug-In . SVG Version: 6.00 Build 0)  -->
<!DOCTYPE svg PUBLIC "-//W3C//DTD SVG 1.1//EN" "http://www.w3.org/Graphics/SVG/1.1/DTD/svg11.dtd">
<svg version="1.1" id="Layer_1" xmlns="http://www.w3.org/2000/svg" xmlns:xlink="http://www.w3.org/1999/xlink" x="0px" y="0px"
	 width="16px" height="16px" viewBox="0 0 16 16" enable-background="new 0 0 16 16" xml:space="preserve">
<path fill-rule="evenodd" clip-rule="evenodd" fill="#8D5BB4" d="M8.019,0C3.624-0.018,0.026,3.561,0.001,7.974
	C-0.024,12.376,3.587,16,8.001,16c4.4-0.001,7.992-3.588,8-7.992C16.009,3.61,12.427,0.017,8.019,0z M14.501,4.116
	c-0.025,0.225-0.051,0.438-0.07,0.62c-0.291-0.115-0.504-0.211-0.723-0.287c-0.285-0.097-0.58-0.167-0.863-0.267
	c-0.223-0.077-0.438-0.18-0.715-0.295c0.326,0.647,0.535,0.75,0.949,0.516c0.072,0.065,0.15,0.129,0.223,0.201
	c0.385,0.396,0.471,0.779,0.24,1.07c-0.238,0.299-1.197,0.599-1.463,0.44c-0.09-0.055-0.15-0.163-0.217-0.252
	c-0.438-0.564-0.869-1.133-1.309-1.696c-0.047-0.059-0.131-0.091-0.268-0.185c0.473,0.705,0.898,1.317,1.299,1.943
	c0.348,0.54,0.799,0.764,1.43,0.576c0.047-0.014,0.102-0.001,0.219-0.001c-0.223,0.545-0.236,1.098-0.859,1.393
	c-0.711,0.336-0.814,0.704-0.721,1.48c0.027,0.245,0,0.536-0.107,0.753c-0.393,0.785-0.807,1.562-1.256,2.316
	c-0.258,0.431-0.697,0.627-1.188,0.784c-0.494,0.159-0.727,0.096-0.793-0.434c-0.014-0.104-0.127-0.191-0.172-0.295
	c-0.229-0.524-0.463-1.048-0.664-1.583c-0.047-0.129-0.018-0.335,0.057-0.455c0.393-0.615,0.078-1.118-0.199-1.646
	C7.214,8.598,7.163,8.346,7.087,8.111c-0.055-0.16-0.07-0.429-0.162-0.459c-0.41-0.128-0.764-0.538-1.27-0.273
	C5.47,7.476,5.243,7.508,5.03,7.539C4.212,7.664,3.321,7.008,3.343,6.202C3.36,5.562,3.548,4.919,4.024,4.43
	C4.399,4.043,4.8,3.681,5.192,3.312c0.061-0.058,0.143-0.118,0.219-0.128c0.555-0.069,1.109-0.142,1.668-0.181
	C7.276,2.99,7.397,3.106,7.552,3.292c0.211,0.255,0.646,0.324,0.986,0.472C8.78,3.358,9.091,3.654,9.378,3.68
	c0.236,0.02,0.486,0.069,0.711,0.018c0.145-0.034,0.252-0.229,0.377-0.351c-0.146-0.095-0.281-0.216-0.439-0.276
	c-0.32-0.121-0.652-0.207-0.982-0.309C9.038,2.805,9.017,2.93,8.983,3.118c-0.301-0.26-0.568-0.493-0.832-0.722
	c0.123-0.072,0.244-0.144,0.383-0.226c-0.135-0.11-0.199-0.164-0.266-0.219C8.231,2.004,8.19,2.055,8.155,2.107
	C8.116,2.165,8.079,2.223,8.032,2.294C7.989,2.256,7.946,2.218,7.903,2.181C7.872,2.214,7.843,2.246,7.81,2.279
	c0.047,0.048,0.094,0.095,0.139,0.144C7.917,2.472,7.892,2.511,7.851,2.574c0.055-0.033,0.104-0.062,0.156-0.092
	C8.063,2.543,8.116,2.605,8.179,2.66c0.146,0.133,0.32,0.249,0.004,0.381c-0.76-0.905-0.934-1.049-1.912-0.268
	c-0.012,0.009-0.021,0.02-0.033,0.027C5.849,3.077,5.456,3.064,5.024,2.734c0.082-0.167,0.135-0.462,0.26-0.498
	C5.61,2.142,5.968,2.162,6.337,2.135c0-0.088,0-0.21,0-0.306c0.311-0.151,0.584-0.315,0.881-0.42
	c0.316-0.11,0.467-0.256,0.205-0.656c0.393-0.108,0.756-0.209,1.113-0.308C11.071,0.628,13.261,2.055,14.501,4.116z M0.538,6.712
	C0.7,6.961,0.87,7.207,0.925,7.477C1.026,8,1.353,8.168,1.771,8.262c0.604,0.137,0.885,0.624,0.662,1.188
	c-0.152,0.386-0.311,0.777-0.402,1.18c-0.062,0.279-0.016,0.581-0.02,0.873s-0.033,0.583-0.014,0.873
	c0.006,0.076,0,0.152-0.004,0.229c-0.992-1.287-1.586-2.893-1.576-4.63C0.421,7.543,0.468,7.123,0.538,6.712z"/>
</svg>
