<?xml version="1.0" encoding="utf-8"?>
<!-- Generator: Adobe Illustrator 18.1.1, SVG Export Plug-In . SVG Version: 6.00 Build 0)  -->
<svg version="1.1" id="Layer_1" xmlns="http://www.w3.org/2000/svg" xmlns:xlink="http://www.w3.org/1999/xlink" x="0px" y="0px"
	 viewBox="0 0 16 16" enable-background="new 0 0 16 16" xml:space="preserve">
<g>
	<g>
		<path fill="#8D5BB4" d="M8,0C3.6,0,0,3.6,0,8s3.6,8,8,8s8-3.6,8-8S12.4,0,8,0z M3.9,11.1L1.8,9.8V5.7l3,3.4L3.9,11.1z M7.3,12.5
			l-1.2-1L5.4,8L4.3,6.3L3.5,4.4l0.7-0.9l1.9,0.6c0,0,3.4-0.5,3.6-0.6c0.2-0.1,2.3,0,2.3,0l1.4,1.1l0.8,2.2l-1.2,1l-2.1-1L8.6,7.3
			L7.3,12.5z M11.5,12.5l-1.8-1.1L11,8.9l3.1,1.4L11.5,12.5z"/>
	</g>
</g>
</svg>
