<?xml version="1.0" encoding="utf-8"?>
<!-- Generator: Adobe Illustrator 18.1.1, SVG Export Plug-In . SVG Version: 6.00 Build 0)  -->
<svg version="1.1" id="Layer_1" xmlns="http://www.w3.org/2000/svg" xmlns:xlink="http://www.w3.org/1999/xlink" x="0px" y="0px"
	 viewBox="-296 389 14 16" enable-background="new -296 389 14 16" xml:space="preserve">
<g>
	<path fill="#8D5BB4" d="M-289,391c0,0-1.9-2-3-2s-2,0.9-2,2s0.9,2,2,2S-289,391-289,391z M-292,392c-0.6,0-1-0.4-1-1s0.4-1,1-1
		c0.3,0,0.9,0.4,1.6,1C-291.1,391.6-291.7,392-292,392z"/>
	<path fill="#8D5BB4" d="M-286,393c1.1,0,2-0.9,2-2s-0.9-2-2-2s-3,2-3,2S-287.1,393-286,393z M-286,390c0.5,0,1,0.4,1,1s-0.4,1-1,1
		c-0.3,0-0.9-0.4-1.6-1C-286.9,390.4-286.3,390-286,390z"/>
	<path fill="#8D5BB4" d="M-286,393h-6c-1.9,0-3.4,1.3-3.9,3h13.7C-282.6,394.3-284.1,393-286,393z"/>
	<path fill="#8D5BB4" d="M-296,398v3c0,2.2,1.8,4,4,4h6c2.2,0,4-1.8,4-4v-3H-296z"/>
</g>
</svg>
