<?xml version="1.0" encoding="utf-8"?>
<!-- Generator: Adobe Illustrator 16.0.0, SVG Export Plug-In . SVG Version: 6.00 Build 0)  -->
<!DOCTYPE svg PUBLIC "-//W3C//DTD SVG 1.1//EN" "http://www.w3.org/Graphics/SVG/1.1/DTD/svg11.dtd">
<svg version="1.1" id="Layer_1" xmlns="http://www.w3.org/2000/svg" xmlns:xlink="http://www.w3.org/1999/xlink" x="0px" y="0px"
	 width="16px" height="16px" viewBox="0 0 16 16" enable-background="new 0 0 16 16" xml:space="preserve">
<g>
	<path fill="#FFFFFF" d="M8,2c0,0-1.896-2-3-2S3,0.896,3,2s0.896,2,2,2S8,2,8,2z M5,3C4.449,3,4,2.552,4,2
		c0-0.551,0.447-0.999,0.998-1c0.262,0.013,0.91,0.443,1.553,1.001C5.908,2.558,5.262,2.987,5,3z"/>
	<path fill="#FFFFFF" d="M11,4c1.104,0,2-0.896,2-2s-0.896-2-2-2S8,2,8,2S9.896,4,11,4z M11.002,1C11.552,1.001,12,1.449,12,2
		c0,0.552-0.448,1-0.998,1c-0.261-0.013-0.909-0.442-1.554-1.001C10.091,1.442,10.738,1.013,11.002,1z"/>
	<path fill="#FFFFFF" d="M11,4H5C3.139,4,1.588,5.278,1.142,7h13.717C14.412,5.278,12.861,4,11,4z"/>
	<path fill="#FFFFFF" d="M1,9v3c0,2.209,1.791,4,4,4h6c2.209,0,4-1.791,4-4V9H1z"/>
</g>
</svg>
