<?xml version="1.0" encoding="utf-8"?>
<!-- Generator: Adobe Illustrator 18.1.1, SVG Export Plug-In . SVG Version: 6.00 Build 0)  -->
<svg version="1.1" id="_x31_" xmlns="http://www.w3.org/2000/svg" xmlns:xlink="http://www.w3.org/1999/xlink" x="0px" y="0px"
	 viewBox="0 0 53.1 27" enable-background="new 0 0 53.1 27" xml:space="preserve">
<path fill-rule="evenodd" clip-rule="evenodd" fill="#D6D4D4" d="M7,22c3-0.4,5.6-0.9,8-1.3c2.3-0.5,4.2-1,5.8-1.5
	c1.5-0.5,2.7-1,3.5-1.5c0.8-0.5,1.2-1,1.2-1.4c0-1.2-1.7-1.9-5.1-1.9c-0.6,0-1.3,0-1.9,0c-0.7,0-1.1,0-1.4,0c-1.9,0-3.2-0.2-3.9-0.7
	c-0.1-0.1-0.3-0.3-0.5-0.5c-0.2-0.3-0.4-0.5-0.6-0.6c-0.2-0.1-0.3-0.2-0.5-0.3c-0.2-0.1-0.3-0.1-0.5-0.1c-0.2,0-0.4,0-0.7,0
	c-0.6-0.1-0.9-0.5-0.9-1.2c0-1.3,1-2.8,3.1-4.3c2.3-1.7,5.3-3.1,9-4.2c2.1-0.6,4-1,5.5-1c1.4,0,2.1,0.4,2.1,1.3
	c0,0.2-0.1,0.4-0.2,0.7c-0.1,0.2-0.4,0.5-0.8,0.9c-0.4,0.4-0.6,0.7-0.7,0.8c-0.1,0.1-0.2,0.3-0.4,0.5c-0.2,0.3-0.3,0.4-0.4,0.6
	c-0.1,0.1-0.3,0.2-0.5,0.2c-0.2,0-0.3-0.1-0.5-0.2c-0.1-0.1-0.2-0.3-0.2-0.5c0,0,0-0.1,0-0.2c0-0.1,0-0.1,0-0.2
	c0-0.3-0.2-0.5-0.6-0.5c-0.6,0-1.8,0.2-3.4,0.6c-2.7,0.6-4.8,1.2-6.1,1.6C13.1,8,12,8.8,12,9.7c0,0.4,0.3,0.7,0.8,0.9
	c0.5,0.2,1.3,0.3,2.4,0.3c0.2,0,0.8,0,1.7-0.1c0.9,0,1.8-0.1,2.5-0.1c3.3,0,5.7,0.3,7.2,0.8c1.5,0.6,2.3,1.5,2.3,2.9
	c0,1.2-0.6,2.2-1.8,3.1c-0.4,0.3-1,0.6-1.6,1c-0.6,0.4-1.3,0.9-2,1.4c-0.4,0.4-0.8,0.6-1.2,0.9c-0.4,0.2-0.7,0.4-1.1,0.6
	c-0.4,0.2-0.7,0.3-0.9,0.4c-0.3,0.1-0.6,0.2-1,0.3c-2.1,0.7-4.1,1.3-6,1.8c-1.9,0.5-3.5,0.9-4.9,1.1c-1.4,0.3-2.5,0.5-3.4,0.6
	c-0.9,0.1-1.5,0.2-1.7,0.2c-0.8,0-1.3-0.2-1.3-0.7c0-0.2,0.1-0.4,0.3-0.6c0.2-0.2,0.5-0.4,0.7-0.6c0.3-0.2,0.6-0.4,0.9-0.7
	c0.3-0.2,0.5-0.4,0.6-0.6c0,0,0.1-0.2,0.1-0.3C4.8,22.2,4.9,22,5,21.9c0.1-0.1,0.2-0.3,0.4-0.4c1.8-1.4,2.9-2.1,3.3-2.1
	c0.1,0,0.3,0,0.3,0.1c0.1,0.1,0.1,0.2,0.1,0.3c0,0.2-0.1,0.3-0.2,0.5c-0.2,0.2-0.5,0.5-0.9,0.9C7.6,21.5,7.2,21.8,7,22L7,22z
	 M41.9,4.9c-1.5-0.4-3-0.6-4.3-0.6c-1.2,0-2.2,0.1-3.2,0.3c-1,0.2-1.8,0.5-2.6,0.7c-0.8,0.3-1.3,0.4-1.4,0.4c-0.3,0-0.4-0.1-0.4-0.3
	c0-0.2,0.4-0.6,1.3-1.1c0.9-0.5,1.8-1,2.8-1.3c1-0.4,2-0.7,2.9-0.9c1-0.2,1.9-0.3,2.9-0.3c1.9,0,3.6,0.3,5.2,0.8
	c1.6,0.5,3,1.3,4.2,2.2c2.1,1.7,3.1,3.6,3.1,5.8c0,1.5-0.5,3-1.4,4.5c-1,1.4-2.3,2.6-4.1,3.6c-0.2,0.2-0.6,0.4-1,0.8
	c-0.5,0.4-0.9,0.6-1.3,0.9c-0.4,0.2-0.9,0.4-1.5,0.5c-3,0.8-4.9,1.1-5.7,1.1c-0.4,0-0.7-0.2-1-0.6c-0.1-0.2-0.3-0.4-0.6-0.7
	c-0.3-0.3-0.5-0.5-0.5-0.6c0-0.1,0.1-0.5,0.2-1.2c0.1-0.7,0.3-1.5,0.5-2.3c0.2-0.7,0.4-1.4,0.8-2.2c0.3-0.8,0.7-1.6,1.2-2.5
	c0.5-0.9,1-1.9,1.6-3.1C40.4,7.6,41.1,6.4,41.9,4.9L41.9,4.9z M44.1,5.8c-1.6,2.7-2.7,5.1-3.5,6.9c-0.8,1.9-1.1,3.5-1.1,4.8
	c0,0.4,0.1,0.8,0.2,1.1c0.1,0.3,0.3,0.5,0.6,0.6c0.3,0.1,0.6,0.2,1.1,0.2c0.8,0,1.7-0.1,2.6-0.4c0.9-0.3,1.7-0.7,2.5-1.2
	c1-0.7,1.7-1.5,2.2-2.4c0.5-0.9,0.8-1.9,0.8-2.8c0-1.3-0.5-2.5-1.5-3.6C47.1,7.6,45.7,6.6,44.1,5.8z"/>
<path fill-rule="evenodd" clip-rule="evenodd" fill="#FFFFFF" d="M5.4,20.4c3-0.4,5.6-0.9,8-1.3c2.3-0.5,4.2-1,5.8-1.5
	c1.5-0.5,2.7-1,3.5-1.5c0.8-0.5,1.2-1,1.2-1.4c0-1.2-1.7-1.9-5.1-1.9c-0.6,0-1.3,0-1.9,0c-0.7,0-1.1,0-1.4,0c-1.9,0-3.2-0.2-3.9-0.7
	c-0.1-0.1-0.3-0.3-0.5-0.5c-0.2-0.3-0.4-0.5-0.6-0.6c-0.2-0.1-0.3-0.2-0.5-0.3c-0.2-0.1-0.3-0.1-0.5-0.1c-0.2,0-0.4,0-0.7,0
	c-0.6-0.1-0.9-0.5-0.9-1.2c0-1.3,1-2.8,3.1-4.3c2.3-1.7,5.3-3.1,9-4.2c2.1-0.6,4-1,5.5-1c1.4,0,2.1,0.4,2.1,1.3
	c0,0.2-0.1,0.4-0.2,0.7c-0.1,0.2-0.4,0.5-0.8,0.9c-0.4,0.4-0.6,0.7-0.7,0.8c-0.1,0.1-0.2,0.3-0.4,0.5c-0.2,0.3-0.3,0.4-0.4,0.6
	C24.9,5,24.7,5,24.5,5c-0.2,0-0.3-0.1-0.5-0.2c-0.1-0.1-0.2-0.3-0.2-0.5c0,0,0-0.1,0-0.2c0-0.1,0-0.1,0-0.2c0-0.3-0.2-0.5-0.6-0.5
	c-0.6,0-1.8,0.2-3.4,0.6c-2.7,0.6-4.8,1.2-6.1,1.6c-2.2,0.8-3.3,1.7-3.3,2.6c0,0.4,0.3,0.7,0.8,0.9c0.5,0.2,1.3,0.3,2.4,0.3
	c0.2,0,0.8,0,1.7-0.1c0.9,0,1.8-0.1,2.5-0.1c3.3,0,5.7,0.3,7.2,0.8c1.5,0.6,2.3,1.5,2.3,2.9c0,1.2-0.6,2.2-1.8,3.1
	c-0.4,0.3-1,0.6-1.6,1c-0.6,0.4-1.3,0.9-2,1.4c-0.4,0.4-0.8,0.6-1.2,0.9c-0.4,0.2-0.7,0.4-1.1,0.6c-0.4,0.2-0.7,0.3-0.9,0.4
	c-0.3,0.1-0.6,0.2-1,0.3c-2.1,0.7-4.1,1.3-6,1.8c-1.9,0.5-3.5,0.9-4.9,1.1c-1.4,0.3-2.5,0.5-3.4,0.6C2.6,24,2,24.1,1.8,24.1
	c-0.8,0-1.3-0.2-1.3-0.7c0-0.2,0.1-0.4,0.3-0.6c0.2-0.2,0.5-0.4,0.7-0.6c0.3-0.2,0.6-0.4,0.9-0.7C2.8,21.4,3,21.2,3,21.1
	c0,0,0.1-0.2,0.1-0.3c0.1-0.2,0.1-0.3,0.2-0.5c0.1-0.1,0.2-0.3,0.4-0.4c1.8-1.4,2.9-2.1,3.3-2.1c0.1,0,0.2,0,0.3,0.1
	c0.1,0.1,0.1,0.2,0.1,0.3c0,0.2-0.1,0.3-0.2,0.5c-0.2,0.2-0.5,0.5-0.9,0.9C6,19.9,5.6,20.2,5.4,20.4L5.4,20.4z M40.3,3.3
	c-1.5-0.4-3-0.6-4.3-0.6c-1.2,0-2.2,0.1-3.2,0.3c-1,0.2-1.8,0.5-2.6,0.8c-0.8,0.3-1.3,0.4-1.4,0.4c-0.2,0-0.4-0.1-0.4-0.3
	c0-0.2,0.4-0.6,1.3-1.1c0.9-0.5,1.8-1,2.8-1.3c1-0.4,2-0.7,3-0.9c1-0.2,1.9-0.3,2.9-0.3c1.9,0,3.6,0.3,5.2,0.8
	c1.6,0.5,3,1.3,4.2,2.2c2.1,1.7,3.1,3.6,3.1,5.8c0,1.5-0.5,3-1.4,4.5c-1,1.4-2.3,2.6-4.1,3.6c-0.2,0.2-0.6,0.4-1,0.8
	c-0.5,0.4-0.9,0.6-1.3,0.9c-0.4,0.2-0.9,0.4-1.5,0.5c-3,0.8-4.9,1.1-5.7,1.1c-0.4,0-0.7-0.2-1-0.6c-0.1-0.2-0.3-0.4-0.6-0.7
	c-0.3-0.3-0.5-0.5-0.5-0.6c0-0.1,0.1-0.5,0.2-1.2c0.1-0.7,0.3-1.5,0.5-2.3c0.2-0.7,0.4-1.4,0.8-2.2c0.3-0.8,0.7-1.6,1.2-2.5
	c0.5-0.9,1-1.9,1.6-3.1C38.8,6.1,39.5,4.8,40.3,3.3L40.3,3.3z M42.5,4.2C41,7,39.8,9.3,39.1,11.1c-0.8,1.9-1.1,3.5-1.1,4.8
	c0,0.4,0.1,0.8,0.2,1.1c0.1,0.3,0.3,0.5,0.6,0.6c0.3,0.1,0.6,0.2,1.1,0.2c0.8,0,1.7-0.1,2.6-0.4c0.9-0.3,1.7-0.7,2.5-1.2
	c1-0.7,1.7-1.5,2.2-2.4c0.5-0.9,0.8-1.9,0.8-2.8c0-1.3-0.5-2.5-1.5-3.6C45.5,6,44.2,5,42.5,4.2z"/>
<path fill-rule="evenodd" clip-rule="evenodd" fill="#E30613" d="M40.9,4.2c-1.5-0.4-2.9-0.6-4.1-0.6c-1.2,0-2.2,0.1-3.2,0.3
	c-1,0.2-1.8,0.5-2.6,0.7c-0.8,0.3-1.3,0.4-1.4,0.4c-0.2,0-0.4-0.1-0.4-0.3c0-0.2,0.4-0.6,1.3-1.1c0.9-0.5,1.8-1,2.8-1.3
	c1-0.4,2-0.7,2.9-0.9c1-0.2,1.9-0.3,2.9-0.3c1.9,0,3.6,0.3,5.2,0.8c1.6,0.5,3,1.3,4.2,2.2c2.1,1.7,3.1,3.6,3.1,5.8
	c0,1.5-0.5,3-1.4,4.5c-0.9,1.4-2.3,2.4-4,3.4c-0.3,0.2,0,0-0.3,0.2c0.3-0.4,0.8-1.1,1-1.6c0.7-1.2,1-2.5,1-3.7
	c0-1.7-0.6-3.3-1.9-4.8C45.7,7.4,43.7,4.9,40.9,4.2z"/>
<path fill-rule="evenodd" clip-rule="evenodd" fill="#888482" d="M24,23.8l-0.1,0.4c-0.2-0.1-0.4-0.1-0.5-0.1c-0.2,0-0.3,0-0.3,0.1
	c-0.1,0-0.1,0.1-0.1,0.2c0,0.1,0,0.1,0.1,0.2c0.1,0,0.1,0.1,0.3,0.1c0.2,0.1,0.3,0.1,0.5,0.2C24,25,24,25.1,24,25.4
	c0,0.3-0.1,0.4-0.3,0.5c-0.2,0.1-0.4,0.2-0.6,0.2c-0.1,0-0.2,0-0.4,0c-0.1,0-0.3-0.1-0.4-0.1l0-0.5c0.2,0.1,0.5,0.2,0.7,0.2
	c0.1,0,0.2,0,0.3-0.1c0.1,0,0.1-0.1,0.1-0.2c0-0.1,0-0.2-0.1-0.2c-0.1,0-0.2-0.1-0.3-0.1c-0.1,0-0.2-0.1-0.3-0.1
	c-0.1-0.1-0.2-0.1-0.2-0.2c-0.1-0.1-0.1-0.2-0.1-0.3c0-0.1,0-0.2,0.1-0.3c0.1-0.1,0.1-0.2,0.3-0.3c0.1-0.1,0.3-0.1,0.5-0.1
	C23.5,23.7,23.8,23.7,24,23.8L24,23.8z M25.1,27h-0.6v-3.3H25v0.4h0c0.1-0.1,0.2-0.2,0.3-0.3c0.1-0.1,0.3-0.1,0.4-0.1
	c0.2,0,0.4,0,0.5,0.1c0.1,0.1,0.3,0.2,0.3,0.4c0.1,0.2,0.1,0.4,0.1,0.7c0,0.2,0,0.4-0.1,0.6c-0.1,0.2-0.1,0.3-0.2,0.4
	c-0.1,0.1-0.2,0.2-0.3,0.2c-0.1,0-0.2,0.1-0.4,0.1c-0.3,0-0.5-0.1-0.7-0.3h0l0,0.4V27L25.1,27z M25.1,24.9c0,0.1,0,0.3,0.1,0.4
	c0,0.1,0.1,0.2,0.2,0.2c0.1,0.1,0.2,0.1,0.3,0.1c0.1,0,0.3-0.1,0.4-0.2c0.1-0.1,0.1-0.3,0.1-0.5c0-0.1,0-0.3-0.1-0.4
	c0-0.1-0.1-0.2-0.2-0.2c-0.1-0.1-0.2-0.1-0.3-0.1c-0.1,0-0.2,0-0.3,0.1c-0.1,0.1-0.1,0.1-0.2,0.2C25.1,24.6,25.1,24.7,25.1,24.9
	L25.1,24.9z M27.3,24.3v-0.5c0.3-0.1,0.5-0.2,0.8-0.2c0.3,0,0.5,0,0.7,0.1c0.2,0.1,0.2,0.2,0.3,0.3c0,0.1,0.1,0.3,0.1,0.4V26h-0.6
	v-0.3h0c-0.1,0.2-0.2,0.2-0.3,0.3c-0.1,0.1-0.3,0.1-0.4,0.1c-0.2,0-0.4,0-0.5-0.1c-0.1-0.1-0.2-0.2-0.3-0.3
	c-0.1-0.1-0.1-0.2-0.1-0.3c0-0.2,0.1-0.4,0.3-0.5c0.2-0.1,0.5-0.2,0.9-0.2h0.2c0,0,0.1,0,0.2,0h0.1l0-0.1c0-0.1-0.1-0.2-0.2-0.3
	c-0.1-0.1-0.2-0.1-0.4-0.1c-0.1,0-0.2,0-0.4,0C27.6,24.2,27.5,24.2,27.3,24.3L27.3,24.3z M28.6,25h-0.1c-0.2,0-0.4,0-0.6,0.1
	c-0.2,0-0.2,0.1-0.2,0.3c0,0.1,0,0.2,0.1,0.2c0.1,0.1,0.2,0.1,0.3,0.1c0.1,0,0.2,0,0.3-0.1c0.1,0,0.2-0.1,0.2-0.2
	C28.6,25.3,28.6,25.2,28.6,25L28.6,25L28.6,25z M29.8,23.7h0.6v0.5h0c0-0.2,0.1-0.3,0.2-0.4c0.1-0.1,0.2-0.1,0.4-0.1
	c0.1,0,0.1,0,0.2,0l0,0.4c-0.1,0-0.1,0-0.2,0c-0.1,0-0.3,0.1-0.4,0.2c-0.1,0.1-0.2,0.3-0.2,0.6V26h-0.6V23.7L29.8,23.7z M31.6,22.7
	h0.6v2h0l0.7-1h0.7l-0.8,1l0.9,1.3H33l-0.8-1.2h0V26h-0.6V22.7L31.6,22.7z M34,22.7h0.6V26H34V22.7L34,22.7z M37.3,25.1h-1.6
	c0,0.2,0.1,0.3,0.2,0.4c0.1,0.1,0.3,0.2,0.5,0.2c0.2,0,0.5-0.1,0.7-0.2v0.5c-0.3,0.1-0.5,0.1-0.8,0.1c-0.2,0-0.3,0-0.5-0.1
	c-0.1,0-0.3-0.1-0.4-0.2c-0.1-0.1-0.2-0.2-0.3-0.4c-0.1-0.2-0.1-0.3-0.1-0.5c0-0.2,0-0.4,0.1-0.6s0.2-0.3,0.4-0.4
	c0.2-0.1,0.4-0.2,0.6-0.2c0.2,0,0.4,0,0.5,0.1c0.2,0.1,0.3,0.2,0.4,0.4c0.1,0.2,0.2,0.4,0.2,0.7V25.1L37.3,25.1z M35.7,24.6h1
	c0-0.2,0-0.3-0.1-0.4c-0.1-0.1-0.2-0.1-0.3-0.1c-0.1,0-0.2,0-0.2,0.1c-0.1,0.1-0.1,0.1-0.2,0.2C35.7,24.5,35.7,24.6,35.7,24.6
	L35.7,24.6z M40.8,22.7h0.6V26h-0.5v-0.4h0c-0.2,0.3-0.4,0.4-0.8,0.4c-0.1,0-0.3,0-0.4-0.1c-0.1-0.1-0.2-0.1-0.3-0.2
	c-0.1-0.1-0.2-0.2-0.2-0.4c-0.1-0.2-0.1-0.3-0.1-0.5c0-0.2,0-0.5,0.1-0.6c0.1-0.2,0.2-0.3,0.4-0.4c0.2-0.1,0.3-0.1,0.5-0.1
	c0.3,0,0.5,0.1,0.7,0.3h0l0-0.4V22.7L40.8,22.7z M40.8,24.9c0-0.1,0-0.3-0.1-0.4c0-0.1-0.1-0.2-0.2-0.2c-0.1-0.1-0.2-0.1-0.3-0.1
	c-0.1,0-0.2,0-0.3,0.1c-0.1,0.1-0.1,0.1-0.2,0.2c0,0.1-0.1,0.2-0.1,0.4c0,0.1,0,0.3,0.1,0.4c0,0.1,0.1,0.2,0.2,0.2
	c0.1,0.1,0.2,0.1,0.3,0.1c0.1,0,0.3-0.1,0.4-0.2C40.8,25.3,40.8,25.1,40.8,24.9L40.8,24.9z M44.1,25.1h-1.6c0,0.2,0.1,0.3,0.2,0.4
	c0.1,0.1,0.3,0.2,0.5,0.2c0.2,0,0.5-0.1,0.7-0.2v0.5c-0.3,0.1-0.5,0.1-0.8,0.1c-0.2,0-0.3,0-0.5-0.1c-0.1,0-0.3-0.1-0.4-0.2
	c-0.1-0.1-0.2-0.2-0.3-0.4c-0.1-0.2-0.1-0.3-0.1-0.5c0-0.2,0-0.4,0.1-0.6c0.1-0.2,0.2-0.3,0.4-0.4c0.2-0.1,0.4-0.2,0.6-0.2
	c0.2,0,0.4,0,0.5,0.1c0.2,0.1,0.3,0.2,0.4,0.4c0.1,0.2,0.2,0.4,0.2,0.7V25.1L44.1,25.1z M42.5,24.6h1c0-0.2,0-0.3-0.1-0.4
	c-0.1-0.1-0.2-0.1-0.3-0.1c-0.1,0-0.2,0-0.2,0.1c-0.1,0.1-0.1,0.1-0.2,0.2C42.5,24.5,42.5,24.6,42.5,24.6L42.5,24.6z M46,23.8
	L46,24.2c-0.2-0.1-0.4-0.1-0.5-0.1c-0.2,0-0.3,0-0.3,0.1c-0.1,0-0.1,0.1-0.1,0.2c0,0.1,0,0.1,0.1,0.2c0.1,0,0.1,0.1,0.3,0.1
	c0.2,0.1,0.3,0.1,0.5,0.2c0.1,0.1,0.2,0.3,0.2,0.5c0,0.3-0.1,0.4-0.3,0.5c-0.2,0.1-0.4,0.2-0.6,0.2c-0.1,0-0.2,0-0.4,0
	c-0.1,0-0.3-0.1-0.4-0.1l0-0.5c0.2,0.1,0.5,0.2,0.7,0.2c0.1,0,0.2,0,0.3-0.1c0.1,0,0.1-0.1,0.1-0.2c0-0.1,0-0.2-0.1-0.2
	c-0.1,0-0.2-0.1-0.3-0.1c-0.1,0-0.2-0.1-0.3-0.1c-0.1-0.1-0.2-0.1-0.2-0.2c-0.1-0.1-0.1-0.2-0.1-0.3c0-0.1,0-0.2,0.1-0.3
	c0.1-0.1,0.1-0.2,0.3-0.3c0.1-0.1,0.3-0.1,0.5-0.1C45.6,23.7,45.8,23.7,46,23.8L46,23.8z M46.6,23.7h0.6V26h-0.6V23.7L46.6,23.7z
	 M47.2,22.8v0.6h-0.6v-0.6H47.2L47.2,22.8z M47.9,26.9l0-0.5c0.3,0.1,0.5,0.2,0.7,0.2c0.2,0,0.4-0.1,0.5-0.2
	c0.1-0.1,0.2-0.3,0.2-0.5v-0.3h0c-0.1,0.3-0.4,0.4-0.7,0.4c-0.2,0-0.3,0-0.4-0.1c-0.1-0.1-0.2-0.1-0.3-0.3c-0.1-0.1-0.1-0.2-0.2-0.4
	c0-0.1-0.1-0.3-0.1-0.4c0-0.2,0-0.5,0.1-0.6c0.1-0.2,0.2-0.3,0.3-0.4c0.1-0.1,0.3-0.1,0.5-0.1c0.2,0,0.3,0,0.4,0.1
	c0.1,0.1,0.2,0.2,0.3,0.3h0v-0.4h0.6v2.1c0,0.2,0,0.4-0.1,0.5c-0.1,0.2-0.2,0.3-0.3,0.5C49.3,27,49.1,27,48.7,27
	C48.4,27,48.1,27,47.9,26.9L47.9,26.9z M48.7,24.2c-0.2,0-0.3,0.1-0.4,0.2c-0.1,0.1-0.1,0.3-0.1,0.5c0,0.2,0,0.3,0.1,0.4
	c0.1,0.1,0.1,0.2,0.2,0.2c0.1,0,0.2,0.1,0.3,0.1c0.1,0,0.3-0.1,0.4-0.2c0.1-0.1,0.1-0.3,0.1-0.5c0-0.2,0-0.3-0.1-0.5
	C49.1,24.3,48.9,24.2,48.7,24.2L48.7,24.2z M51.1,26h-0.6v-2.3h0.6v0.4h0c0.1-0.2,0.2-0.3,0.4-0.3c0.1-0.1,0.3-0.1,0.4-0.1
	c0.1,0,0.3,0,0.4,0.1s0.2,0.1,0.3,0.2c0.1,0.1,0.1,0.2,0.1,0.4V26H52v-1.4c0-0.1,0-0.2-0.1-0.3c-0.1-0.1-0.2-0.1-0.3-0.1
	c-0.1,0-0.2,0-0.3,0.1c-0.1,0.1-0.1,0.1-0.2,0.2c0,0.1-0.1,0.2-0.1,0.3V26z"/>
</svg>
