<?xml version="1.0" encoding="utf-8"?>
<!-- Generator: Adobe Illustrator 18.1.1, SVG Export Plug-In . SVG Version: 6.00 Build 0)  -->
<svg version="1.1" id="Layer_1" xmlns="http://www.w3.org/2000/svg" xmlns:xlink="http://www.w3.org/1999/xlink" x="0px" y="0px"
	 viewBox="0 0 32.2 32.6" enable-background="new 0 0 32.2 32.6" xml:space="preserve">
<g>
	<path fill="#8D5BB4" d="M1.8,32.4c-0.4,0-0.8-0.2-1.1-0.5c-0.6-0.6-0.6-1.6,0-2.3l12.3-12.3c0.6-0.6,1.6-0.6,2.3,0
		c0.6,0.6,0.6,1.6,0,2.3L2.9,32C2.6,32.3,2.2,32.4,1.8,32.4z"/>
</g>
<g>
	<g>
		<path fill="#FEB737" d="M11.3,13.3c-0.9,0-1.6-0.7-1.6-1.6c0-6.2,5-11.2,11.3-11.2c0.9,0,1.6,0.7,1.6,1.6c0,0.9-0.7,1.6-1.6,1.6
			c-4.4,0-8,3.6-8,8C12.9,12.6,12.2,13.3,11.3,13.3z"/>
	</g>
	<g>
		<path fill="#8D5BB4" d="M30.6,13.3c-0.9,0-1.6-0.7-1.6-1.6c0-4.4-3.6-8-8-8c-0.9,0-1.6-0.7-1.6-1.6c0-0.9,0.7-1.6,1.6-1.6
			c6.2,0,11.3,5,11.3,11.2C32.2,12.6,31.5,13.3,30.6,13.3z"/>
	</g>
	<g>
		<path fill="#A6C3FD" d="M20.9,22.9c-0.9,0-1.6-0.7-1.6-1.6c0-0.9,0.7-1.6,1.6-1.6c4.4,0,8-3.6,8-8c0-0.9,0.7-1.6,1.6-1.6
			c0.9,0,1.6,0.7,1.6,1.6C32.2,17.9,27.1,22.9,20.9,22.9z"/>
	</g>
	<g>
		<path fill="#E191E5" d="M20.9,22.9c-6.2,0-11.3-5-11.3-11.2c0-0.9,0.7-1.6,1.6-1.6s1.6,0.7,1.6,1.6c0,4.4,3.6,8,8,8
			c0.9,0,1.6,0.7,1.6,1.6C22.5,22.2,21.8,22.9,20.9,22.9z"/>
	</g>
</g>
</svg>
