<?xml version="1.0" encoding="utf-8"?>
<!-- Generator: Adobe Illustrator 18.1.1, SVG Export Plug-In . SVG Version: 6.00 Build 0)  -->
<svg version="1.1" id="Layer_1" xmlns="http://www.w3.org/2000/svg" xmlns:xlink="http://www.w3.org/1999/xlink" x="0px" y="0px"
	 viewBox="0 0 32 32" enable-background="new 0 0 32 32" xml:space="preserve">
<g>
	<path fill="#FEB737" d="M19.7,24c-0.3,0-0.7-0.1-1-0.2l-6.4-3.5c-1-0.5-1.3-1.8-0.8-2.8c0.5-1,1.8-1.3,2.8-0.8l6.4,3.5
		c1,0.5,1.3,1.8,0.8,2.8C21.1,23.6,20.4,24,19.7,24z"/>
</g>
<g>
	<path fill="#A6C3FD" d="M13.2,15.3c-0.7,0-1.4-0.4-1.8-1.1c-0.5-1-0.1-2.2,0.9-2.7l6.6-3.4c1-0.5,2.2-0.1,2.7,0.9
		c0.5,1,0.1,2.2-0.9,2.7l-6.6,3.4C13.8,15.2,13.5,15.3,13.2,15.3z"/>
</g>
<g>
	<path fill="#FEB737" d="M24.6,14.8c-4.1,0-7.4-3.3-7.4-7.4c0-4.1,3.3-7.4,7.4-7.4C28.7,0,32,3.3,32,7.4
		C32,11.4,28.7,14.8,24.6,14.8z M24.6,4.1c-1.8,0-3.3,1.5-3.3,3.3c0,1.8,1.5,3.3,3.3,3.3c1.8,0,3.3-1.5,3.3-3.3
		C27.9,5.5,26.5,4.1,24.6,4.1z"/>
</g>
<g>
	<path fill="#8D5BB4" d="M8.4,23.1c-4.1,0-7.4-3.3-7.4-7.4c0-4.1,3.3-7.4,7.4-7.4c4.1,0,7.4,3.3,7.4,7.4
		C15.8,19.8,12.5,23.1,8.4,23.1z M8.4,12.4c-1.8,0-3.3,1.5-3.3,3.3c0,1.8,1.5,3.3,3.3,3.3c1.8,0,3.3-1.5,3.3-3.3
		C11.7,13.9,10.2,12.4,8.4,12.4z"/>
</g>
<g>
	<path fill="#A6C3FD" d="M24.6,32c-4.1,0-7.4-3.3-7.4-7.4c0-4.1,3.3-7.4,7.4-7.4c4.1,0,7.4,3.3,7.4,7.4C32,28.7,28.7,32,24.6,32z
		 M24.6,21.3c-1.8,0-3.3,1.5-3.3,3.3c0,1.8,1.5,3.3,3.3,3.3c1.8,0,3.3-1.5,3.3-3.3C27.9,22.8,26.5,21.3,24.6,21.3z"/>
</g>
</svg>
