<?xml version="1.0" encoding="utf-8"?>
<!-- Generator: Adobe Illustrator 18.1.1, SVG Export Plug-In . SVG Version: 6.00 Build 0)  -->
<svg version="1.1" id="Layer_1" xmlns="http://www.w3.org/2000/svg" xmlns:xlink="http://www.w3.org/1999/xlink" x="0px" y="0px"
	 viewBox="0 0 111 111" enable-background="new 0 0 111 111" xml:space="preserve">
<g>
	
		<line fill="none" stroke="#FEB737" stroke-width="5" stroke-linecap="round" stroke-linejoin="round" stroke-miterlimit="10" stroke-dasharray="1,9,8" x1="56.5" y1="42" x2="56.5" y2="0"/>
	<path fill="#A6C3FD" d="M93.6,24.3l-0.9,0.9c-0.9,0.9-2.3,0.9-3.2,0c-0.9-0.9-0.9-2.3,0-3.2l0.9-0.9c0.9-0.9,2.3-0.9,3.2,0
		c0.4,0.4,0.7,1,0.7,1.6C94.3,23.3,94.1,23.9,93.6,24.3z M86.4,31.6l-5.5,5.5c-0.2,0.2-0.3,0.3-0.5,0.4c-0.1,0.2-0.2,0.4-0.4,0.5
		l-6.4,6.4c-0.9,0.9-2.3,0.9-3.2,0c-0.9-0.9-0.9-2.3,0-3.2l6.4-6.4c0.2-0.2,0.3-0.3,0.5-0.4c0.1-0.2,0.2-0.4,0.4-0.5l5.5-5.5
		c0.9-0.9,2.3-0.9,3.2,0c0.4,0.4,0.7,1,0.7,1.6C87,30.6,86.8,31.2,86.4,31.6z"/>
	<path fill="#8D5BB4" d="M41.9,44.4c-0.9,0.9-2.3,0.9-3.2,0L32.3,38c-0.2-0.2-0.3-0.3-0.4-0.5c-0.2-0.1-0.4-0.2-0.5-0.4l-5.5-5.5
		c-0.9-0.9-0.9-2.3,0-3.2c0.9-0.9,2.3-0.9,3.2,0l5.5,5.5c0.2,0.2,0.3,0.3,0.4,0.5c0.2,0.1,0.4,0.2,0.5,0.4l6.4,6.4
		c0.4,0.4,0.7,1,0.7,1.6C42.5,43.4,42.3,43.9,41.9,44.4z M22.7,25.2c-0.9,0.9-2.3,0.9-3.2,0l-0.9-0.9c-0.9-0.9-0.9-2.3,0-3.2
		c0.9-0.9,2.3-0.9,3.2,0l0.9,0.9c0.4,0.4,0.7,1,0.7,1.6C23.4,24.2,23.2,24.8,22.7,25.2z"/>
	
		<line fill="none" stroke="#FEB737" stroke-width="5" stroke-linecap="round" stroke-linejoin="round" stroke-miterlimit="10" stroke-dasharray="1,9,8" x1="55.5" y1="69" x2="55.5" y2="111"/>
	
		<line fill="none" stroke="#FEB737" stroke-width="5" stroke-linecap="round" stroke-linejoin="round" stroke-miterlimit="10" stroke-dasharray="1,9,8" x1="42" y1="55.5" x2="0" y2="55.5"/>
	
		<line fill="none" stroke="#FEB737" stroke-width="5" stroke-linecap="round" stroke-linejoin="round" stroke-miterlimit="10" stroke-dasharray="1,9,8" x1="69" y1="56.5" x2="111" y2="56.5"/>
	<path fill="#A6C3FD" d="M18.6,86.7l0.9-0.9c0.9-0.9,2.3-0.9,3.2,0c0.9,0.9,0.9,2.3,0,3.2l-0.9,0.9c-0.9,0.9-2.3,0.9-3.2,0
		c-0.4-0.4-0.7-1-0.7-1.6C17.9,87.7,18.2,87.2,18.6,86.7z M25.9,79.4l5.5-5.5c0.2-0.2,0.3-0.3,0.5-0.4c0.1-0.2,0.2-0.4,0.4-0.5
		l6.4-6.4c0.9-0.9,2.3-0.9,3.2,0c0.9,0.9,0.9,2.3,0,3.2l-6.4,6.4c-0.2,0.2-0.3,0.3-0.5,0.4c-0.1,0.2-0.2,0.4-0.4,0.5l-5.5,5.5
		c-0.9,0.9-2.3,0.9-3.2,0c-0.4-0.4-0.7-1-0.7-1.6C25.2,80.4,25.5,79.9,25.9,79.4z"/>
	<path fill="#8D5BB4" d="M70.4,66.7c0.9-0.9,2.3-0.9,3.2,0L80,73c0.2,0.2,0.3,0.3,0.4,0.5c0.2,0.1,0.4,0.2,0.5,0.4l5.5,5.5
		c0.9,0.9,0.9,2.3,0,3.2c-0.9,0.9-2.3,0.9-3.2,0l-5.5-5.5c-0.2-0.2-0.3-0.3-0.4-0.5c-0.2-0.1-0.4-0.2-0.5-0.4l-6.4-6.4
		c-0.4-0.4-0.7-1-0.7-1.6C69.7,67.7,70,67.1,70.4,66.7z M89.5,85.8c0.9-0.9,2.3-0.9,3.2,0l0.9,0.9c0.9,0.9,0.9,2.3,0,3.2
		c-0.9,0.9-2.3,0.9-3.2,0L89.5,89c-0.4-0.4-0.7-1-0.7-1.6C88.9,86.8,89.1,86.2,89.5,85.8z"/>
</g>
</svg>
