<?xml version="1.0" encoding="utf-8"?>
<!-- Generator: Adobe Illustrator 16.0.0, SVG Export Plug-In . SVG Version: 6.00 Build 0)  -->
<!DOCTYPE svg PUBLIC "-//W3C//DTD SVG 1.1//EN" "http://www.w3.org/Graphics/SVG/1.1/DTD/svg11.dtd">
<svg version="1.1" id="Layer_1" xmlns="http://www.w3.org/2000/svg" xmlns:xlink="http://www.w3.org/1999/xlink" x="0px" y="0px"
	 width="40px" height="40px" viewBox="0 0 40 40" enable-background="new 0 0 40 40" xml:space="preserve">
<g>
	<g>
		<path fill="#FEB737" d="M31.513,40c-0.888,0-1.712-0.578-2-1.488L18.183,2.818c-0.359-1.13,0.245-2.345,1.35-2.712
			c1.105-0.366,2.291,0.252,2.649,1.382l11.329,35.694c0.359,1.131-0.245,2.345-1.349,2.712C31.946,39.965,31.727,40,31.513,40z"/>
	</g>
	<g>
		<path fill="#8D5BB4" d="M8.604,40c-0.22,0-0.443-0.035-0.663-0.11c-1.103-0.374-1.698-1.593-1.333-2.722L18.186,1.474
			c0.367-1.128,1.56-1.738,2.658-1.364c1.104,0.375,1.699,1.593,1.334,2.721L10.599,38.526C10.307,39.428,9.484,40,8.604,40z"/>
	</g>
	<g>
		<path fill="#A6C3FD" d="M8.605,40c-0.652,0-1.297-0.31-1.709-0.894c-0.678-0.965-0.464-2.311,0.478-3.005l29.163-21.51
			c0.941-0.695,2.255-0.478,2.936,0.488c0.678,0.965,0.465,2.31-0.478,3.004L9.832,39.593C9.46,39.868,9.031,40,8.605,40z"/>
	</g>
	<g>
		<path fill="#E191E5" d="M31.511,40c-0.43,0-0.861-0.134-1.235-0.411L1.107,17.895c-0.939-0.699-1.147-2.045-0.465-3.007
			c0.681-0.962,1.997-1.174,2.937-0.477l29.169,21.695c0.939,0.698,1.147,2.045,0.465,3.006C32.802,39.692,32.159,40,31.511,40z"/>
	</g>
	<g>
		<path fill="#E9D7AF" d="M38.062,17.637C37.891,17.996,2.719,17.25,2.719,17.25c-1.065-0.01-1.922-0.646-1.913-1.736
			c0.01-1.092,0.92-1.853,1.946-1.831l35.293,0.371c1.066,0.009,1.924,0.421,1.914,1.511C39.95,16.649,39.12,17.637,38.062,17.637z"
			/>
	</g>
	<g>
		<path fill="#FEB737" d="M31.513,40c-0.888,0-1.712-0.578-2-1.488l-5.514-17.369c-0.359-1.131,0.245-2.346,1.35-2.713
			c1.106-0.366,2.29,0.252,2.648,1.382l5.514,17.37c0.359,1.131-0.245,2.345-1.349,2.712C31.946,39.965,31.727,40,31.513,40z"/>
	</g>
	<g>
		<path fill="#E191E5" d="M17.181,29.341c-0.43,0-0.86-0.134-1.235-0.411L0.866,17.716c-0.938-0.699-1.147-2.044-0.464-3.006
			c0.682-0.962,1.994-1.174,2.937-0.476l15.079,11.214c0.94,0.699,1.147,2.045,0.465,3.006
			C18.472,29.034,17.83,29.341,17.181,29.341z"/>
	</g>
	<g>
		<path fill="#8D5BB4" d="M8.604,40c-0.22,0-0.443-0.035-0.663-0.11c-1.103-0.374-1.698-1.593-1.333-2.722l5.667-17.47
			c0.367-1.128,1.558-1.741,2.658-1.364c1.103,0.375,1.699,1.593,1.334,2.721l-5.668,17.471C10.307,39.428,9.485,40,8.604,40z"/>
	</g>
	<g>
		<path fill="#A6C3FD" d="M23.787,28.801c-0.653,0-1.297-0.31-1.708-0.894c-0.679-0.964-0.466-2.31,0.478-3.005l14.111-10.408
			c0.94-0.695,2.256-0.477,2.936,0.488c0.679,0.964,0.465,2.31-0.479,3.004L25.014,28.395C24.643,28.67,24.213,28.801,23.787,28.801
			z"/>
	</g>
</g>
</svg>
