<?xml version="1.0" encoding="utf-8"?>
<!-- Generator: Adobe Illustrator 18.1.1, SVG Export Plug-In . SVG Version: 6.00 Build 0)  -->
<svg version="1.1" id="Layer_1" xmlns="http://www.w3.org/2000/svg" xmlns:xlink="http://www.w3.org/1999/xlink" x="0px" y="0px"
	 viewBox="0 149 617.1 765" enable-background="new 0 149 617.1 765" xml:space="preserve">
<path fill="#8D5BB4" d="M96.9,506c96.9,0,326.4,0,418.2,0c45.9,0,45.9,35.7,45.9,45.9c0,76.5,0,260.1,0,260.1
	c0,56.1-45.9,102-107.1,102H158.1C102,914,51,868.1,51,812c0,0,0-183.6,0-265.2C56.1,536.6,56.1,506,96.9,506z M617.1,353
	c0-56.1-45.9-102-107.1-102H107.1C51,251,0,296.9,0,353l0,0c0,56.1,45.9,102,107.1,102H510C571.2,455,617.1,409.1,617.1,353
	L617.1,353z M408,174.5c0-15.3-15.3-25.5-35.7-25.5H249.9c-20.4,0-35.7,10.2-35.7,25.5l0,0c0,15.3,15.3,25.5,35.7,25.5h122.4
	C392.7,200,408,189.8,408,174.5L408,174.5z"/>
</svg>
