<?xml version="1.0" encoding="utf-8"?>
<!-- Generator: Adobe Illustrator 18.1.1, SVG Export Plug-In . SVG Version: 6.00 Build 0)  -->
<svg version="1.1" id="Layer_1" xmlns="http://www.w3.org/2000/svg" xmlns:xlink="http://www.w3.org/1999/xlink" x="0px" y="0px"
	 viewBox="0 0 19 16" enable-background="new 0 0 19 16" xml:space="preserve">
<path fill="#8D5BB4" d="M19,1.9c-0.7,0.3-1.5,0.5-2.2,0.6c0.8-0.5,1.4-1.3,1.7-2.2c-0.8,0.5-1.6,0.8-2.5,1C15.3,0.5,14.3,0,13.2,0
	C11,0,9.3,1.8,9.3,4c0,0.3,0,0.6,0.1,0.9c-3.2-0.2-6.1-1.8-8-4.2C1,1.3,0.8,2,0.8,2.8c0,1.4,0.7,2.6,1.7,3.4c-0.6,0-1.2-0.2-1.8-0.5
	c0,0,0,0,0,0.1c0,2,1.3,3.6,3.1,4c-0.3,0.1-0.7,0.1-1,0.1c-0.3,0-0.5,0-0.7-0.1c0.5,1.6,1.9,2.8,3.6,2.8c-1.3,1.1-3,1.7-4.8,1.7
	c-0.3,0-0.6,0-0.9-0.1C1.7,15.3,3.8,16,6,16c7.2,0,11.1-6.2,11.1-11.5c0-0.2,0-0.3,0-0.5C17.8,3.4,18.5,2.7,19,1.9z"/>
</svg>
