<?xml version="1.0" encoding="utf-8"?>
<!-- Generator: Adobe Illustrator 16.0.0, SVG Export Plug-In . SVG Version: 6.00 Build 0)  -->
<!DOCTYPE svg PUBLIC "-//W3C//DTD SVG 1.1//EN" "http://www.w3.org/Graphics/SVG/1.1/DTD/svg11.dtd">
<svg version="1.1" id="Layer_1" xmlns="http://www.w3.org/2000/svg" xmlns:xlink="http://www.w3.org/1999/xlink" x="0px" y="0px"
	 width="40px" height="40px" viewBox="0 0 40 40" enable-background="new 0 0 40 40" xml:space="preserve">
<g>
	<g>
		
			<line fill="none" stroke="#A6C3FD" stroke-width="6" stroke-linecap="round" stroke-miterlimit="10" x1="37" y1="37" x2="3" y2="37"/>
		
			<line fill="none" stroke="#FEB737" stroke-width="6" stroke-linecap="round" stroke-miterlimit="10" x1="37" y1="3" x2="3" y2="3"/>
		
			<line fill="none" stroke="#E191E5" stroke-width="6" stroke-linecap="round" stroke-miterlimit="10" x1="37" y1="3" x2="37" y2="37"/>
		
			<line fill="none" stroke="#8D5BB4" stroke-width="6" stroke-linecap="round" stroke-miterlimit="10" x1="3" y1="3" x2="3" y2="37"/>
		
			<line fill="none" stroke="#A6C3FD" stroke-width="6" stroke-linecap="round" stroke-miterlimit="10" x1="21" y1="37" x2="3" y2="37"/>
	</g>
	
		<line fill="none" stroke="#FEB737" stroke-width="6" stroke-linecap="round" stroke-miterlimit="10" x1="37" y1="3" x2="21" y2="3"/>
</g>
<path fill="#8D5BB4" d="M30,13.894c-0.699,0.322-1.45,0.539-2.238,0.636c0.804-0.5,1.423-1.29,1.714-2.235
	c-0.754,0.464-1.588,0.8-2.477,0.981C26.289,12.491,25.276,12,24.155,12c-2.153,0-3.898,1.809-3.898,4.039
	c0,0.317,0.034,0.625,0.101,0.92c-3.239-0.168-6.111-1.776-8.034-4.22c-0.335,0.597-0.527,1.29-0.527,2.031
	c0,1.401,0.688,2.638,1.734,3.363c-0.64-0.021-1.24-0.203-1.766-0.506c0,0.017,0,0.034,0,0.051c0,1.957,1.343,3.59,3.126,3.96
	c-0.327,0.093-0.672,0.142-1.026,0.142c-0.252,0-0.496-0.025-0.733-0.072c0.495,1.605,1.936,2.772,3.641,2.805
	c-1.335,1.083-3.015,1.729-4.842,1.729c-0.313,0-0.624-0.019-0.93-0.056C12.726,27.332,14.774,28,16.977,28
	c7.169,0,11.09-6.154,11.09-11.493c0-0.175-0.004-0.349-0.012-0.522C28.816,15.416,29.479,14.704,30,13.894z"/>
</svg>
