<?xml version="1.0" encoding="utf-8"?>
<!-- Generator: Adobe Illustrator 18.1.1, SVG Export Plug-In . SVG Version: 6.00 Build 0)  -->
<svg version="1.1" id="Layer_1" xmlns="http://www.w3.org/2000/svg" xmlns:xlink="http://www.w3.org/1999/xlink" x="0px" y="0px"
	 viewBox="-283.1 377.9 36 38" enable-background="new -283.1 377.9 36 38" xml:space="preserve">
<g>
	<g>
		<path fill="#FEB737" d="M-272.7,389.4c-1,0-1.9-0.9-1.9-1.9c0-5.3,4.3-9.5,9.5-9.5c1,0,1.9,0.9,1.9,1.9s-0.8,1.9-1.9,1.9
			c-3.1,0-5.7,2.6-5.7,5.7C-270.8,388.5-271.6,389.4-272.7,389.4z"/>
	</g>
	<g>
		<path fill="#8D5BB4" d="M-257.5,389.4c-1,0-1.9-0.9-1.9-1.9c0-3.2-2.6-5.7-5.7-5.7c-1,0-1.9-0.9-1.9-1.9c0-1.1,0.8-1.9,1.9-1.9
			c5.2,0,9.5,4.3,9.5,9.5C-255.6,388.5-256.5,389.4-257.5,389.4z"/>
	</g>
	<g>
		<path fill="#FEB737" d="M-265.1,415.9c-9.2,0-16.7-3.7-17-3.9c-0.9-0.5-1.3-1.6-0.8-2.6c0.5-0.9,1.6-1.3,2.5-0.8l0,0
			c0.1,0,6.9,3.5,15.2,3.5c8.3,0,15.2-3.5,15.2-3.5c0.9-0.5,2.1-0.1,2.5,0.8c0.5,0.9,0.1,2.1-0.8,2.6
			C-248.5,412.2-255.9,415.9-265.1,415.9z"/>
	</g>
	<g>
		<path fill="#8D5BB4" d="M-249,412.2c-1,0-1.9-0.9-1.9-1.9c0-4.8-2.4-9.3-6.4-12c-0.9-0.6-1.1-1.8-0.5-2.6c0.6-0.9,1.7-1.1,2.6-0.6
			c5.1,3.4,8.2,9,8.2,15.1C-247.1,411.4-248,412.2-249,412.2z"/>
	</g>
	<g>
		<path fill="#A6C3FD" d="M-265.1,397c-5.2,0-9.5-4.3-9.5-9.5c0-1.1,0.8-1.9,1.9-1.9c1,0,1.9,0.9,1.9,1.9c0,3.2,2.5,5.7,5.7,5.7
			s5.7-2.6,5.7-5.7c0-1.1,0.8-1.9,1.9-1.9c1,0,1.9,0.9,1.9,1.9C-255.6,392.7-259.9,397-265.1,397z"/>
	</g>
	<g>
		<path fill="#A6C3FD" d="M-265.1,402.2c-3.8,0-7.4-1.4-10.1-4.1c-0.8-0.7-0.8-1.9-0.1-2.7c0.7-0.8,1.9-0.8,2.7-0.1c2,2,4.7,3,7.5,3
			s5.5-1.1,7.5-3c0.8-0.7,2-0.7,2.7,0.1c0.7,0.8,0.7,2-0.1,2.7C-257.7,400.8-261.3,402.2-265.1,402.2z"/>
	</g>
	<g>
		<path fill="#E191E5" d="M-281.2,412.2c-1,0-1.9-0.9-1.9-1.9c0-6.1,3-11.8,8.2-15.1c0.9-0.6,2-0.3,2.6,0.6c0.6,0.9,0.3,2.1-0.5,2.6
			c-4,2.7-6.4,7.1-6.4,12C-279.3,411.4-280.2,412.2-281.2,412.2z"/>
	</g>
</g>
</svg>
