<?xml version="1.0" encoding="utf-8"?>
<!-- Generator: Adobe Illustrator 18.1.1, SVG Export Plug-In . SVG Version: 6.00 Build 0)  -->
<svg version="1.1" id="Layer_1" xmlns="http://www.w3.org/2000/svg" xmlns:xlink="http://www.w3.org/1999/xlink" x="0px" y="0px"
	 viewBox="0 0 23.6 13.4" enable-background="new 0 0 23.6 13.4" xml:space="preserve">
<g>
	<g>
		<path fill-rule="evenodd" clip-rule="evenodd" fill="#8D5BB4" d="M22.7,10.8C22,10,21.1,9.3,20.3,8.5c-0.7-0.7-0.8-1.1-0.2-1.9
			c0.6-0.9,1.3-1.7,1.9-2.6c0.6-0.8,1.2-1.6,1.5-2.6c0.2-0.6,0-0.9-0.6-1c-0.1,0-0.2,0-0.3,0l-3.7,0c-0.5,0-0.7,0.2-0.9,0.6
			c-0.2,0.6-0.5,1.1-0.7,1.6c-0.6,1.2-1.3,2.4-2.2,3.4c-0.2,0.2-0.4,0.5-0.8,0.4c-0.4-0.2-0.6-0.9-0.5-1.1l0-4.3
			c-0.1-0.6-0.2-0.9-0.8-1L9,0C8.5,0,8.3,0.2,8,0.5C7.8,0.7,7.8,0.8,8.1,0.9c0.6,0.1,1,0.5,1.1,1.2c0.2,1,0.1,2.1,0.1,3.1
			c0,0.3-0.1,0.6-0.2,0.9C8.9,6.5,8.6,6.6,8.2,6.3C7.8,6.1,7.6,5.8,7.3,5.4C6.4,4.1,5.6,2.7,5,1.2C4.9,0.7,4.5,0.5,4.1,0.5
			c-1.1,0-2.2,0-3.4,0c-0.7,0-0.9,0.3-0.6,1c1.2,2.7,2.6,5.4,4.4,7.8c0.9,1.2,2,2.3,3.3,3.1c1.5,0.9,3.2,1.1,4.9,1.1
			c0.8,0,1.1-0.3,1.1-1.1c0-0.6,0.1-1.1,0.4-1.6c0.3-0.5,0.7-0.6,1.1-0.3c0.2,0.2,0.4,0.3,0.6,0.6c0.5,0.5,0.9,1,1.4,1.5
			c0.6,0.6,1.3,1,2.2,0.9H23c0.6,0,0.8-0.7,0.5-1.3C23.3,11.6,23,11.2,22.7,10.8L22.7,10.8z M22.7,10.8"/>
	</g>
</g>
</svg>
