<?xml version="1.0" encoding="utf-8"?>
<!-- Generator: Adobe Illustrator 18.1.1, SVG Export Plug-In . SVG Version: 6.00 Build 0)  -->
<svg version="1.1" id="Layer_1" xmlns="http://www.w3.org/2000/svg" xmlns:xlink="http://www.w3.org/1999/xlink" x="0px" y="0px"
	 viewBox="0 0 32.4 32.7" enable-background="new 0 0 32.4 32.7" xml:space="preserve">
<line fill="none" stroke="#A6C3FD" stroke-width="4" stroke-linecap="round" stroke-miterlimit="10" x1="16.3" y1="5.5" x2="16.3" y2="2.5"/>
<line fill="none" stroke="#A6C3FD" stroke-width="4" stroke-linecap="round" stroke-miterlimit="10" x1="16.3" y1="16.5" x2="16.3" y2="16.5"/>
<line fill="none" stroke="#A6C3FD" stroke-width="4" stroke-linecap="round" stroke-miterlimit="10" x1="16.3" y1="30.5" x2="16.3" y2="27.5"/>
<g>
	
		<line fill="none" stroke="#E191E5" stroke-width="4" stroke-linecap="round" stroke-linejoin="round" stroke-miterlimit="10" stroke-dasharray="6,0" x1="23.5" y1="9.3" x2="26.1" y2="6.6"/>
	
		<line fill="none" stroke="#E191E5" stroke-width="4" stroke-linecap="round" stroke-linejoin="round" stroke-miterlimit="10" stroke-dasharray="6,0" x1="6.4" y1="26.4" x2="9" y2="23.7"/>
</g>
<g>
	
		<line fill="none" stroke="#A6C3FD" stroke-width="4" stroke-linecap="round" stroke-miterlimit="10" x1="27.3" y1="16.5" x2="30.3" y2="16.5"/>
	
		<line fill="none" stroke="#A6C3FD" stroke-width="4" stroke-linecap="round" stroke-miterlimit="10" x1="2.3" y1="16.5" x2="5.3" y2="16.5"/>
</g>
<g>
	
		<line fill="none" stroke="#E191E5" stroke-width="4" stroke-linecap="round" stroke-linejoin="round" stroke-miterlimit="10" stroke-dasharray="6,0" x1="23.4" y1="23.7" x2="26.1" y2="26.4"/>
	
		<line fill="none" stroke="#E191E5" stroke-width="4" stroke-linecap="round" stroke-linejoin="round" stroke-miterlimit="10" stroke-dasharray="6,0" x1="6.3" y1="6.6" x2="9" y2="9.3"/>
</g>
<path fill="none" stroke="#FEB737" stroke-width="4" stroke-linecap="round" stroke-miterlimit="10" d="M6.1,16.5
	c0-5.6,4.6-10.2,10.2-10.2"/>
<path fill="none" stroke="#FFFFFF" stroke-width="4" stroke-linecap="round" stroke-miterlimit="10" d="M16.3,6.3
	c5.6,0,10.2,4.6,10.2,10.2"/>
<path fill="none" stroke="#FEB737" stroke-width="4" stroke-linecap="round" stroke-miterlimit="10" d="M26.4,16.5
	c0,5.6-4.6,10.2-10.2,10.2"/>
<path fill="none" stroke="#FFFFFF" stroke-width="4" stroke-linecap="round" stroke-miterlimit="10" d="M16.3,26.7
	c-5.6,0-10.2-4.6-10.2-10.2"/>
</svg>
