<?xml version="1.0" encoding="utf-8"?>
<!-- Generator: Adobe Illustrator 18.1.1, SVG Export Plug-In . SVG Version: 6.00 Build 0)  -->
<svg version="1.1" id="Layer_1" xmlns="http://www.w3.org/2000/svg" xmlns:xlink="http://www.w3.org/1999/xlink" x="0px" y="0px"
	 viewBox="0 0 32 32" enable-background="new 0 0 32 32" xml:space="preserve">
<g>
	<g>
		<path fill="#A6C3FD" d="M16,7c-1.1,0-2-0.9-2-2V2c0-1.1,0.9-2,2-2c1.1,0,2,0.9,2,2v3C18,6.1,17.1,7,16,7z"/>
	</g>
	<g>
		<path fill="#A6C3FD" d="M16,18c-0.5,0-1-0.2-1.4-0.6C14.2,17,14,16.5,14,16c0-0.5,0.2-1,0.6-1.4c0.8-0.8,2.1-0.8,2.8,0
			C17.8,15,18,15.5,18,16c0,0.5-0.2,1-0.6,1.4C17,17.8,16.5,18,16,18z"/>
	</g>
	<g>
		<path fill="#A6C3FD" d="M16,32c-1.1,0-2-0.9-2-2v-3c0-1.1,0.9-2,2-2c1.1,0,2,0.9,2,2v3C18,31.1,17.1,32,16,32z"/>
	</g>
	<g>
		<g>
			<path fill="#E191E5" d="M23.2,10.8c-0.5,0-1-0.2-1.4-0.6c-0.8-0.8-0.8-2,0-2.8l2.7-2.7c0.8-0.8,2-0.8,2.8,0c0.8,0.8,0.8,2,0,2.8
				l-2.7,2.7C24.2,10.6,23.7,10.8,23.2,10.8z"/>
		</g>
		<g>
			<path fill="#E191E5" d="M6.1,27.9c-0.5,0-1-0.2-1.4-0.6c-0.8-0.8-0.8-2,0-2.8l2.7-2.7c0.8-0.8,2-0.8,2.8,0c0.8,0.8,0.8,2,0,2.8
				l-2.7,2.7C7.1,27.7,6.6,27.9,6.1,27.9z"/>
		</g>
	</g>
	<g>
		<g>
			<path fill="#A6C3FD" d="M30,18h-3c-1.1,0-2-0.9-2-2c0-1.1,0.9-2,2-2h3c1.1,0,2,0.9,2,2C32,17.1,31.1,18,30,18z"/>
		</g>
		<g>
			<path fill="#A6C3FD" d="M2,18c-1.1,0-2-0.9-2-2c0-1.1,0.9-2,2-2l3,0c1.1,0,2,0.9,2,2c0,1.1-0.9,2-2,2H2z"/>
		</g>
	</g>
	<g>
		<g>
			<path fill="#E191E5" d="M25.9,27.9c-0.5,0-1-0.2-1.4-0.6l-2.7-2.7c-0.8-0.8-0.8-2,0-2.8c0.8-0.8,2-0.8,2.8,0l2.7,2.7
				c0.8,0.8,0.8,2,0,2.8C26.9,27.7,26.4,27.9,25.9,27.9z"/>
		</g>
		<g>
			<path fill="#E191E5" d="M8.8,10.8c-0.5,0-1-0.2-1.4-0.6L4.7,7.5c-0.8-0.8-0.8-2,0-2.8c0.8-0.8,2-0.8,2.8,0l2.7,2.7
				c0.8,0.8,0.8,2,0,2.8C9.8,10.6,9.3,10.8,8.8,10.8z"/>
		</g>
	</g>
	<g>
		<g>
			<path fill="#FEB737" d="M5.8,18c-1.1,0-2-0.9-2-2C3.8,9.3,9.3,3.8,16,3.8c1.1,0,2,0.9,2,2s-0.9,2-2,2c-4.5,0-8.2,3.7-8.2,8.2
				C7.8,17.1,6.9,18,5.8,18z"/>
		</g>
		<g>
			<path fill="#8D5BB4" d="M26.2,18c-1.1,0-2-0.9-2-2c0-4.5-3.7-8.2-8.2-8.2c-1.1,0-2-0.9-2-2s0.9-2,2-2c6.7,0,12.2,5.5,12.2,12.2
				C28.2,17.1,27.3,18,26.2,18z"/>
		</g>
		<g>
			<path fill="#FEB737" d="M16,28.2c-1.1,0-2-0.9-2-2s0.9-2,2-2c4.5,0,8.2-3.7,8.2-8.2c0-1.1,0.9-2,2-2s2,0.9,2,2
				C28.2,22.7,22.7,28.2,16,28.2z"/>
		</g>
		<g>
			<path fill="#8D5BB4" d="M16,28.2C9.3,28.2,3.8,22.7,3.8,16c0-1.1,0.9-2,2-2s2,0.9,2,2c0,4.5,3.7,8.2,8.2,8.2c1.1,0,2,0.9,2,2
				S17.1,28.2,16,28.2z"/>
		</g>
	</g>
</g>
</svg>
