<?xml version="1.0" encoding="utf-8"?>
<!-- Generator: Adobe Illustrator 16.0.0, SVG Export Plug-In . SVG Version: 6.00 Build 0)  -->
<!DOCTYPE svg PUBLIC "-//W3C//DTD SVG 1.1//EN" "http://www.w3.org/Graphics/SVG/1.1/DTD/svg11.dtd">
<svg version="1.1" id="Layer_1" xmlns="http://www.w3.org/2000/svg" xmlns:xlink="http://www.w3.org/1999/xlink" x="0px" y="0px"
	 width="40px" height="40px" viewBox="0 0 40 40" enable-background="new 0 0 40 40" xml:space="preserve">
<g>
	<g>
		<path fill="#8D5BB4" d="M7,36c-1.133,0-2-0.924-2-2.064V23.613c0-1.141,0.867-2.064,2-2.064s2,0.924,2,2.064v10.322
			C9,35.076,8.133,36,7,36z"/>
	</g>
	<g>
		<path fill="#FFFFFF" d="M13.333,36H7.18c-1.133,0-2.051-0.859-2.051-2c0-1.14,0.918-2,2.051-2h6.154c1.133,0,2.051,0.86,2.051,2
			C15.385,35.141,14.466,36,13.333,36z"/>
	</g>
	<g>
		<path fill="#8D5BB4" d="M13.332,36c-0.34,0-0.684-0.084-1.001-0.264c-0.988-0.558-1.34-1.815-0.786-2.811l4.674-8.394
			c0.554-0.993,1.805-1.349,2.792-0.792c0.988,0.559,1.34,1.816,0.787,2.811l-4.675,8.395C14.747,35.62,14.049,36,13.332,36z"/>
	</g>
	<g>
		<path fill="#FFFFFF" d="M11.283,15.355c-0.791,0-1.543-0.463-1.881-1.237c-0.454-1.045,0.02-2.263,1.058-2.72l16.41-7.226
			c1.04-0.455,2.248,0.021,2.702,1.063c0.454,1.045-0.02,2.263-1.057,2.72l-16.41,7.226C11.836,15.299,11.558,15.355,11.283,15.355z
			"/>
	</g>
	<g>
		<path fill="#FFFFFF" d="M27.691,31.871c-0.274,0-0.554-0.056-0.821-0.173l-16.41-7.226c-1.038-0.457-1.511-1.675-1.058-2.72
			c0.455-1.044,1.663-1.52,2.702-1.063l16.41,7.226c1.038,0.457,1.511,1.675,1.057,2.72C29.235,31.409,28.481,31.871,27.691,31.871z
			"/>
	</g>
	<g>
		<path fill="#8D5BB4" d="M11,24.645c-1.133,0-2-0.924-2-2.064v-9.289c0-1.141,0.867-2.064,2-2.064s2,0.924,2,2.064v9.289
			C13,23.721,12.133,24.645,11,24.645z"/>
	</g>
	<g>
		<path fill="#FFFFFF" d="M11.282,15H2.051C0.918,15,0,14.14,0,13c0-1.141,0.918-2,2.051-2h9.231c1.133,0,2.051,0.859,2.051,2
			C13.333,14.14,12.415,15,11.282,15z"/>
	</g>
	<g>
		<path fill="#FFFFFF" d="M11.282,25H2.051C0.918,25,0,24.14,0,23c0-1.141,0.918-2,2.051-2h9.231c1.133,0,2.051,0.859,2.051,2
			C13.333,24.14,12.415,25,11.282,25z"/>
	</g>
	<g>
		<path fill="#8D5BB4" d="M2,24.645c-1.133,0-2-0.924-2-2.064v-9.289c0-1.141,0.867-2.064,2-2.064s2,0.924,2,2.064v9.289
			C4,23.721,3.133,24.645,2,24.645z"/>
	</g>
	<g>
		<path fill="#8D5BB4" d="M28,31.871c-1.133,0-2-0.924-2-2.064V6.064C26,4.924,26.867,4,28,4s2,0.924,2,2.064v23.742
			C30,30.947,29.133,31.871,28,31.871z"/>
	</g>
	<g>
		<path fill="#FFFFFF" d="M37.949,21h-4.103c-1.133,0-2.051-0.86-2.051-2c0-1.141,0.918-2,2.051-2h4.103C39.082,17,40,17.859,40,19
			C40,20.14,39.082,21,37.949,21z"/>
	</g>
	<g>
		<path fill="#8D5BB4" d="M35.897,29.807c-0.525,0-1.05-0.201-1.45-0.605l-2.051-2.064c-0.801-0.806-0.801-2.113,0-2.919
			c0.8-0.806,2.1-0.806,2.9,0l2.051,2.064c0.801,0.806,0.801,2.113,0,2.919C36.948,29.605,36.422,29.807,35.897,29.807z"/>
	</g>
	<g>
		<path fill="#8D5BB4" d="M33.846,13.291c-0.525,0-1.05-0.203-1.45-0.605c-0.801-0.807-0.801-2.113,0-2.92l2.051-2.064
			c0.8-0.807,2.1-0.807,2.9,0c0.801,0.807,0.801,2.113,0,2.92l-2.051,2.064C34.896,13.088,34.371,13.291,33.846,13.291z"/>
	</g>
	<g>
		<path fill="#8D5BB4" d="M11,18.451c-1.133,0-2-0.924-2-2.064v-3.096c0-1.141,0.867-2.064,2-2.064s2,0.924,2,2.064v3.096
			C13,17.527,12.133,18.451,11,18.451z"/>
	</g>
</g>
</svg>
