<?xml version="1.0" encoding="UTF-8" standalone="no"?>
<svg width="79px" height="134px" viewBox="0 0 79 134" version="1.1" xmlns="http://www.w3.org/2000/svg" xmlns:xlink="http://www.w3.org/1999/xlink" xmlns:sketch="http://www.bohemiancoding.com/sketch/ns">
    <!-- Generator: Sketch 3.3.2 (12043) - http://www.bohemiancoding.com/sketch -->
    <title>Imported Layers</title>
    <desc>Created with Sketch.</desc>
    <defs></defs>
    <g id="Page-1" stroke="none" stroke-width="1" fill="none" fill-rule="evenodd" sketch:type="MSPage">
        <g id="Imported-Layers" sketch:type="MSLayerGroup">
            <path d="M43.475,131.499 C51.457,131.499 57.007,128.236 62.658,124.025 C71.66,117.588 76.66,103.168 76.66,91.657 C76.667,73.555 65.069,65.148 64.069,48.525 C61.821,31.396 61.049,1.211 39.838,1.211 L39.838,1.158 C39.703,1.162 39.579,1.178 39.446,1.184 C39.316,1.178 39.197,1.162 39.065,1.158 L39.065,1.209 C19.817,1.209 16.403,31.391 14.088,48.525 C13.058,65.148 1.206,73.555 1.213,91.657 C1.213,103.168 7.908,117.588 17.178,124.025 C23.004,128.241 29.364,130.547 36.748,131.502 L42.702,131.601 C42.83,131.586 37.001,131.566 37.128,131.551" id="Fill-1" fill="#8E5BB4" sketch:type="MSShapeGroup"></path>
            <path d="M66.257,49.091 C64.263,33.171 61.399,6.156 47.033,1.706 C47.048,1.7 47.059,1.694 47.074,1.687 C46.992,1.673 46.91,1.661 46.828,1.646 C45.062,0.878 43.093,0.855 41.151,0.859 C39.551,0.863 37.357,0.877 35.682,1.466 C19.313,5.017 16.132,32.834 13.935,49.091 C12.889,65.961 0.861,74.494 0.868,92.865 C0.868,104.547 7.663,119.182 17.071,125.715 C22.984,129.993 29.438,132.334 36.932,133.302 L39.058,133.338 L41.087,133.321 L42.968,133.338 L44.938,133.302 C51.885,132.334 57.869,129.993 63.35,125.715 C72.071,119.182 78.37,104.547 78.37,92.865 C78.376,74.494 67.226,65.961 66.257,49.091 L66.257,49.091 Z M59.13,117.139 C58.724,117.456 58.306,117.747 57.883,118.027 C48.41,125.266 33.313,125.893 23.939,118.589 C23.143,118.155 22.367,117.678 21.622,117.139 C15.526,112.725 10.746,106.715 7.716,99.829 C4.706,92.99 4.897,84.99 8.056,78.21 C10.964,71.968 16.21,68.344 20.467,63.171 C25.495,57.062 23.656,49.297 22.106,42.224 C20.676,35.699 19.082,28.825 20.641,22.169 C22.356,14.844 27.245,6.704 34.143,3.807 C36.74,2.333 40.634,2.256 43.072,2.419 C45.397,2.576 47.934,3.457 49.712,5.064 C54.947,8.636 58.639,15.713 60.04,22.169 C61.485,28.825 60.007,35.699 58.682,42.224 C57.246,49.297 55.541,57.062 60.201,63.171 C64.148,68.344 69.011,71.968 71.707,78.21 C74.635,84.99 74.812,92.99 72.022,99.829 C69.213,106.715 64.782,112.725 59.13,117.139 L59.13,117.139 Z" id="Fill-2" fill="#674089" sketch:type="MSShapeGroup"></path>
            <path d="M27.827,81.735 C35.164,79.626 42.998,79.833 50.24,81.394 C55.576,82.545 61.809,85.54 63.577,91.605 C65.544,98.012 61.354,105.391 56.204,109.002 C50.478,113.015 42.309,113.53 36.111,112.171 C29.344,110.687 23.038,106.276 19.282,100.136 C14.555,92.41 20.52,83.835 27.827,81.735" id="Fill-3" fill="#A775D3" sketch:type="MSShapeGroup"></path>
            <path d="M39.304,87.059 C40.073,86.868 40.888,86.917 41.637,87.102 C42.189,87.238 42.83,87.567 42.998,88.195 C43.186,88.858 42.73,89.6 42.185,89.952 C41.578,90.343 40.727,90.368 40.085,90.207 C39.385,90.031 38.74,89.557 38.366,88.915 C37.894,88.106 38.538,87.248 39.304,87.059" id="Fill-4" fill="#674089" sketch:type="MSShapeGroup"></path>
        </g>
    </g>
</svg>