<?xml version="1.0" encoding="UTF-8" standalone="no"?>
<svg width="31px" height="15px" viewBox="0 0 31 15" version="1.1" xmlns="http://www.w3.org/2000/svg" xmlns:xlink="http://www.w3.org/1999/xlink" xmlns:sketch="http://www.bohemiancoding.com/sketch/ns">
    <!-- Generator: Sketch 3.3.2 (12043) - http://www.bohemiancoding.com/sketch -->
    <title>Imported Layers</title>
    <desc>Created with Sketch.</desc>
    <defs></defs>
    <g id="Page-1" stroke="none" stroke-width="1" fill="none" fill-rule="evenodd" sketch:type="MSPage">
        <g id="Imported-Layers" sketch:type="MSLayerGroup">
            <path d="M12.333,9.665 C10.378,10.866 7.55,11.813 7.311,8.328 C7.311,6.718 7.893,5.507 9.673,6.073 C10.456,6.322 11.11,6.664 11.931,6.786 C12.001,6.811 12.072,6.826 12.144,6.832 C12.218,6.853 12.293,6.87 12.369,6.877 C12.656,6.901 12.837,6.693 12.931,6.449 C12.933,6.444 12.932,6.439 12.934,6.434 C12.973,6.339 12.985,6.229 12.968,6.123 C12.826,5.271 12.134,4.638 11.74,4.243 C11.298,3.798 10.6,3.241 10.016,2.901 C9.025,2.334 8.027,2.067 6.962,1.898 C5.142,1.94 3.644,1.739 2.525,3.376 C1.269,5.213 1.483,10.798 2.018,12.089 C2.323,12.881 2.833,13.996 3.936,14.476 C5.337,15.086 6.895,14.55 7.828,14.323 C9.697,13.869 13.096,12.357 13.026,10.063 C13.016,9.723 12.64,9.476 12.333,9.665" id="Fill-1" fill="#674089" sketch:type="MSShapeGroup"></path>
            <path d="M16.253,5.699 L15.402,5.699 C14.426,5.699 13.635,6.491 13.635,7.467 L13.635,9.189 C13.635,10.165 14.426,10.957 15.402,10.957 L16.253,10.957 C17.229,10.957 18.021,10.165 18.021,9.189 L18.021,7.467 C18.021,6.491 17.229,5.699 16.253,5.699" id="Fill-2" fill="#674089" sketch:type="MSShapeGroup"></path>
            <path d="M29.144,3.376 C28.028,1.739 26.533,1.94 24.718,1.898 C23.655,2.067 22.66,2.334 21.671,2.901 C21.089,3.241 20.393,3.798 19.951,4.243 C19.559,4.638 18.868,5.271 18.727,6.123 C18.709,6.229 18.722,6.339 18.761,6.434 C18.762,6.439 18.762,6.444 18.763,6.449 C18.857,6.693 19.038,6.901 19.324,6.877 C19.4,6.87 19.475,6.853 19.549,6.832 C19.621,6.826 19.692,6.811 19.761,6.786 C20.58,6.664 21.233,6.322 22.014,6.073 C23.79,5.507 24.369,6.718 24.369,8.328 C24.132,11.813 21.31,10.866 19.36,9.665 C19.054,9.476 18.679,9.723 18.668,10.063 C18.598,12.357 21.99,13.869 23.854,14.323 C24.785,14.55 26.339,15.086 27.737,14.476 C28.838,13.996 29.346,12.881 29.65,12.089 C30.184,10.798 30.397,5.213 29.144,3.376" id="Fill-3" fill="#674089" sketch:type="MSShapeGroup"></path>
            <path d="M11.569,8.261 C9.615,9.462 6.787,10.409 6.548,6.924 C6.548,5.315 7.13,4.103 8.91,4.67 C9.693,4.919 10.347,5.261 11.168,5.383 C11.238,5.407 11.309,5.422 11.381,5.428 C11.455,5.449 11.53,5.466 11.606,5.473 C11.893,5.497 12.074,5.289 12.168,5.045 C12.17,5.04 12.169,5.035 12.171,5.03 C12.21,4.935 12.222,4.825 12.205,4.719 C12.063,3.867 11.371,3.234 10.977,2.839 C10.535,2.394 9.837,1.837 9.253,1.498 C8.261,0.93 7.264,0.663 6.199,0.494 C4.379,0.536 2.881,0.335 1.762,1.972 C0.506,3.809 0.72,9.395 1.255,10.686 C1.559,11.477 2.07,12.592 3.172,13.072 C4.574,13.682 6.132,13.146 7.065,12.919 C8.934,12.465 12.333,10.953 12.263,8.659 C12.253,8.319 11.876,8.072 11.569,8.261" id="Fill-4" fill="#A7C3FE" sketch:type="MSShapeGroup"></path>
            <path d="M15.49,4.296 L14.639,4.296 C13.663,4.296 12.871,5.087 12.871,6.063 L12.871,7.785 C12.871,8.761 13.663,9.553 14.639,9.553 L15.49,9.553 C16.466,9.553 17.257,8.761 17.257,7.785 L17.257,6.063 C17.257,5.087 16.466,4.296 15.49,4.296" id="Fill-5" fill="#A7C3FE" sketch:type="MSShapeGroup"></path>
            <path d="M28.381,1.972 C27.265,0.335 25.77,0.536 23.955,0.494 C22.892,0.663 21.897,0.93 20.908,1.498 C20.326,1.837 19.63,2.394 19.188,2.839 C18.796,3.234 18.105,3.867 17.964,4.719 C17.946,4.825 17.959,4.935 17.998,5.03 C17.999,5.035 17.999,5.04 18,5.045 C18.094,5.289 18.275,5.497 18.561,5.473 C18.637,5.466 18.712,5.449 18.785,5.428 C18.857,5.422 18.928,5.407 18.998,5.383 C19.817,5.261 20.47,4.919 21.251,4.67 C23.026,4.103 23.606,5.315 23.606,6.924 C23.368,10.409 20.547,9.462 18.597,8.261 C18.291,8.072 17.916,8.319 17.905,8.659 C17.835,10.953 21.227,12.465 23.091,12.919 C24.022,13.146 25.576,13.682 26.974,13.072 C28.075,12.592 28.583,11.477 28.887,10.686 C29.421,9.395 29.634,3.809 28.381,1.972" id="Fill-6" fill="#A7C3FE" sketch:type="MSShapeGroup"></path>
        </g>
    </g>
</svg>