<?xml version="1.0" encoding="UTF-8" standalone="no"?>
<svg width="21px" height="10px" viewBox="0 0 21 10" version="1.1" xmlns="http://www.w3.org/2000/svg" xmlns:xlink="http://www.w3.org/1999/xlink" xmlns:sketch="http://www.bohemiancoding.com/sketch/ns">
    <!-- Generator: Sketch 3.3.2 (12043) - http://www.bohemiancoding.com/sketch -->
    <title>Imported Layers</title>
    <desc>Created with Sketch.</desc>
    <defs></defs>
    <g id="Page-1" stroke="none" stroke-width="1" fill="none" fill-rule="evenodd" sketch:type="MSPage">
        <g id="Imported-Layers" sketch:type="MSLayerGroup">
            <path d="M5.848,1.922 C6.289,3.177 6.338,4.547 6.147,5.829 C6.007,6.774 5.559,7.897 4.536,8.278 C3.457,8.697 2.145,8.053 1.47,7.197 C0.719,6.245 0.543,4.826 0.71,3.728 C0.893,2.53 1.583,1.377 2.597,0.648 C3.873,-0.268 5.41,0.671 5.848,1.922" id="Fill-1" fill="#674089" sketch:type="MSShapeGroup"></path>
            <path d="M4.654,3.111 C4.892,3.789 4.918,4.529 4.815,5.222 C4.739,5.733 4.497,6.34 3.945,6.545 C3.361,6.772 2.653,6.424 2.288,5.961 C1.882,5.447 1.787,4.68 1.877,4.087 C1.976,3.439 2.349,2.817 2.897,2.423 C3.586,1.928 4.416,2.435 4.654,3.111" id="Fill-2" fill="#FFFFFF" sketch:type="MSShapeGroup"></path>
            <path d="M14.845,8.2 C14.216,6.886 14,5.402 14.055,3.984 C14.096,2.94 14.449,1.665 15.516,1.129 C16.64,0.545 18.144,1.089 18.981,1.94 C19.91,2.886 20.27,4.409 20.219,5.623 C20.163,6.949 19.55,8.285 18.533,9.198 C17.254,10.347 15.471,9.508 14.845,8.2" id="Fill-3" fill="#674089" sketch:type="MSShapeGroup"></path>
            <path d="M16.003,6.764 C15.664,6.054 15.547,5.252 15.577,4.486 C15.599,3.922 15.789,3.233 16.366,2.943 C16.973,2.628 17.786,2.922 18.238,3.381 C18.74,3.893 18.935,4.716 18.907,5.372 C18.877,6.088 18.545,6.81 17.996,7.303 C17.305,7.924 16.342,7.47 16.003,6.764" id="Fill-4" fill="#FFFFFF" sketch:type="MSShapeGroup"></path>
            <path d="M15.705,6.207 C15.571,5.795 15.605,5.388 15.805,4.985 C16.005,4.582 16.318,4.312 16.742,4.174 C16.941,4.11 17.148,4.087 17.362,4.108 C17.575,4.128 17.777,4.187 17.967,4.284 C18.157,4.381 18.323,4.51 18.465,4.67 C18.607,4.831 18.71,5.012 18.775,5.211 C18.913,5.636 18.877,6.047 18.669,6.446 C18.46,6.844 18.15,7.111 17.738,7.244 C17.314,7.382 16.903,7.349 16.506,7.147 C16.11,6.945 15.843,6.632 15.705,6.207" id="Fill-5" fill="#674089" sketch:type="MSShapeGroup"></path>
            <path d="M2.208,5.499 C2.082,5.112 2.114,4.729 2.302,4.35 C2.491,3.971 2.785,3.717 3.184,3.587 C3.371,3.526 3.566,3.505 3.767,3.524 C3.967,3.544 4.157,3.599 4.336,3.69 C4.515,3.781 4.671,3.903 4.805,4.054 C4.938,4.205 5.035,4.375 5.096,4.563 C5.226,4.962 5.192,5.349 4.996,5.724 C4.8,6.099 4.508,6.349 4.121,6.475 C3.721,6.605 3.335,6.574 2.962,6.384 C2.589,6.193 2.338,5.899 2.208,5.499" id="Fill-6" fill="#674089" sketch:type="MSShapeGroup"></path>
        </g>
    </g>
</svg>