<?xml version="1.0" encoding="UTF-8" standalone="no"?>
<svg width="22px" height="23px" viewBox="0 0 22 23" version="1.1" xmlns="http://www.w3.org/2000/svg" xmlns:xlink="http://www.w3.org/1999/xlink" xmlns:sketch="http://www.bohemiancoding.com/sketch/ns">
    <!-- Generator: Sketch 3.3.2 (12043) - http://www.bohemiancoding.com/sketch -->
    <title>Imported Layers</title>
    <desc>Created with Sketch.</desc>
    <defs></defs>
    <g id="Page-1" stroke="none" stroke-width="1" fill="none" fill-rule="evenodd" sketch:type="MSPage">
        <path d="M17.9576423,20.4546823 C18.8146423,21.0946823 20.3926423,21.8236823 21.2626423,20.8766823 C22.1736423,19.8856823 20.9366423,18.3316823 20.2476423,17.6046823 C20.1596423,17.5106823 20.0636423,17.4256823 19.9686423,17.3406823 C20.7056423,17.0766823 21.3386423,16.5816823 21.7516423,15.7326823 C22.0276423,15.1626823 21.7616423,14.2596823 21.0396423,14.1756823 C19.6326423,14.0126823 18.2886423,14.2566823 17.1046423,15.0026823 C15.7596423,10.9066823 14.5976423,6.50668226 12.0846423,2.99568226 C10.0666423,0.176682262 5.55364231,-1.07831774 2.63164231,1.12068226 C-0.502357686,3.47968226 -0.869357686,7.46568226 1.70364231,10.3836823 C3.02164231,11.8786823 5.15564231,12.6426823 6.91064231,13.4716823 L15.2376423,17.4076823 C14.7256423,18.1996823 14.3586423,19.0196823 14.3966423,20.0036823 C14.4336423,20.9506823 15.0846423,21.9896823 16.0546423,22.1686823 C17.1496423,22.3706823 17.6386423,21.3116823 17.9576423,20.4546823" id="Imported-Layers" fill="#674089" sketch:type="MSShapeGroup"></path>
    </g>
</svg>