<?xml version="1.0" encoding="UTF-8" standalone="no"?>
<svg width="18px" height="27px" viewBox="0 0 18 27" version="1.1" xmlns="http://www.w3.org/2000/svg" xmlns:xlink="http://www.w3.org/1999/xlink" xmlns:sketch="http://www.bohemiancoding.com/sketch/ns">
    <!-- Generator: Sketch 3.3.2 (12043) - http://www.bohemiancoding.com/sketch -->
    <title>Shape</title>
    <desc>Created with Sketch.</desc>
    <defs></defs>
    <g id="Page-1" stroke="none" stroke-width="1" fill="none" fill-rule="evenodd" sketch:type="MSPage">
        <path d="M5.8,2.4 C5.2,1.5 4,0.2 2.9,0.8 C1.7,1.4 2.3,3.3 2.6,4.2 C2.6,4.3 2.7,4.4 2.8,4.5 C2,4.5 1.2,4.7 0.5,5.3 C2.84217094e-14,5.7 -0.1,6.7 0.6,7 C1.8,7.7 3.2,7.9 4.6,7.7 C4.3,12 3.8,16.5 4.8,20.7 C5.6,24.1 9.4,26.9 12.9,25.9 C16.7,24.9 18.5,21.3 17.2,17.6 C16.5,15.7 14.8,14.2 13.5,12.8 L7.2,6.1 C8,5.6 8.6,4.9 8.9,4 C9.2,3.1 9,1.9 8.2,1.4 C7.3,0.9 6.4,1.7 5.8,2.4 L5.8,2.4 Z" id="Shape" fill="#68418A" sketch:type="MSShapeGroup"></path>
    </g>
</svg>