<?xml version="1.0" encoding="UTF-8" standalone="no"?>
<svg width="30px" height="66px" viewBox="0 0 30 66" version="1.1" xmlns="http://www.w3.org/2000/svg" xmlns:xlink="http://www.w3.org/1999/xlink" xmlns:sketch="http://www.bohemiancoding.com/sketch/ns">
    <!-- Generator: Sketch 3.3.2 (12043) - http://www.bohemiancoding.com/sketch -->
    <title>Imported Layers</title>
    <desc>Created with Sketch.</desc>
    <defs></defs>
    <g id="Page-1" stroke="none" stroke-width="1" fill="none" fill-rule="evenodd" sketch:type="MSPage">
        <path d="M29.9579254,58.0675696 C29.9379254,57.9235696 29.8959254,57.7995696 29.8439254,57.6865696 C29.8749254,57.6555696 29.9139254,57.6355696 29.9409254,57.6015696 C29.7019254,55.3385696 29.6119254,53.0545696 29.5929254,50.7545696 C29.3159254,47.7065696 29.1009254,44.6535696 29.0199254,41.5815696 C28.8649254,35.6965696 29.6589254,29.8035696 29.8779254,23.9205696 C30.1699254,16.0925696 29.2279254,6.85756955 22.4659254,2.52356955 C22.0669254,2.26756955 21.6459254,2.05556955 21.2129254,1.86856955 C17.5119254,-0.330430448 12.9709254,-0.672430448 8.5669254,1.29156955 C6.9579254,2.00856955 5.6599254,3.00556955 4.6279254,4.19356955 C2.0659254,6.21256955 0.499925397,9.49956955 0.0899253966,12.9235696 C-0.115074603,14.6415696 0.0419253966,16.2965696 0.443925397,17.8825696 C0.703925397,19.7885696 1.2559254,21.6635696 2.0209254,23.3615696 C3.4179254,27.1635696 5.6689254,30.6235696 7.7359254,33.9995696 C13.2349254,42.9815696 19.7949254,51.1745696 27.0019254,58.6135696 C25.6429254,60.7505696 23.7859254,64.1115696 26.5029254,65.3815696 C29.6709254,66.8625696 30.2149254,59.9155696 29.9579254,58.0675696" id="Imported-Layers" fill="#674089" sketch:type="MSShapeGroup"></path>
    </g>
</svg>