<?xml version="1.0" encoding="UTF-8" standalone="no"?>
<svg width="29px" height="64px" viewBox="0 0 29 64" version="1.1" xmlns="http://www.w3.org/2000/svg" xmlns:xlink="http://www.w3.org/1999/xlink" xmlns:sketch="http://www.bohemiancoding.com/sketch/ns">
    <!-- Generator: Sketch 3.3.2 (12043) - http://www.bohemiancoding.com/sketch -->
    <title>Imported Layers</title>
    <desc>Created with Sketch.</desc>
    <defs></defs>
    <g id="Page-1" stroke="none" stroke-width="1" fill="none" fill-rule="evenodd" sketch:type="MSPage">
        <path d="M4.2754687,56.6625194 C4.2794687,56.5245194 4.3064687,56.4025194 4.3444687,56.2895194 C4.3114687,56.2645194 4.2714687,56.2515194 4.2404687,56.2225194 C4.2264687,54.0645194 4.0634687,51.9075194 3.8294687,49.7435194 C3.7654687,46.8445194 3.6414687,43.9475194 3.3834687,41.0505194 C2.8894687,35.4995194 1.4664687,30.0635194 0.606468702,24.5625194 C-0.537531298,17.2425194 -0.629531298,8.44351937 5.5054687,3.50951937 C5.8674687,3.21851937 6.2564687,2.96551937 6.6594687,2.73451937 C10.0364687,0.196519373 14.4384687,-0.703480627 18.9594687,0.581519373 C20.6124687,1.05051937 21.9904687,1.82151937 23.1294687,2.80651937 C25.8564687,4.37851937 27.7474687,7.26751937 28.5244687,10.4325194 C28.9134687,12.0215194 28.9414687,13.5965194 28.7224687,15.1385194 C28.6764687,16.9625194 28.3434687,18.7945194 27.7814687,20.4875194 C26.8334687,24.2395194 25.0114687,27.7775194 23.3614687,31.2135194 C18.9704687,40.3555194 13.4554687,48.8895194 7.2254687,56.7985194 C8.7884687,58.6345194 10.9724687,61.5565194 8.4554687,63.0955194 C5.5204687,64.8905194 4.2264687,58.4315194 4.2754687,56.6625194" id="Imported-Layers" fill="#674089" sketch:type="MSShapeGroup"></path>
    </g>
</svg>