<?xml version="1.0" encoding="UTF-8" standalone="no"?>
<svg width="25px" height="16px" viewBox="0 0 25 16" version="1.1" xmlns="http://www.w3.org/2000/svg" xmlns:xlink="http://www.w3.org/1999/xlink" xmlns:sketch="http://www.bohemiancoding.com/sketch/ns">
    <!-- Generator: Sketch 3.3.2 (12043) - http://www.bohemiancoding.com/sketch -->
    <title>Imported Layers</title>
    <desc>Created with Sketch.</desc>
    <defs></defs>
    <g id="Page-1" stroke="none" stroke-width="1" fill="none" fill-rule="evenodd" sketch:type="MSPage">
        <g id="Imported-Layers" sketch:type="MSLayerGroup">
            <path d="M24.631,2.117 C24.443,1.495 23.78,0.926 23.094,1.011 C23.046,1.017 22.998,1.022 22.95,1.028 C22.534,1.08 22.215,1.263 21.981,1.512 C21.662,1.177 21.176,0.979 20.727,0.942 C18.208,0.731 16.008,1.681 13.658,2.462 C10.409,3.542 7.113,3.682 3.761,4.131 C-1.673,4.859 0.953,9.899 3.073,12.458 C6.775,16.928 11.996,15.795 16.458,13.323 C18.706,12.078 20.791,10.144 22.259,8.046 C23.295,6.565 25.216,4.049 24.631,2.117" id="Fill-1" fill="#674089" sketch:type="MSShapeGroup"></path>
            <path d="M23.196,1.545 C23.018,0.98 22.407,0.46 21.779,0.531 C21.736,0.536 21.692,0.541 21.648,0.546 C21.267,0.589 20.977,0.753 20.764,0.977 C20.469,0.671 20.023,0.489 19.612,0.451 C17.304,0.241 15.297,1.085 13.151,1.775 C10.184,2.728 7.168,2.83 4.102,3.211 C-0.869,3.829 1.574,8.414 3.534,10.748 C6.958,14.824 11.73,13.838 15.797,11.633 C17.845,10.522 19.74,8.786 21.068,6.897 C22.006,5.564 23.746,3.3 23.196,1.545" id="Fill-2" fill="#E192E5" sketch:type="MSShapeGroup"></path>
        </g>
    </g>
</svg>