<?xml version="1.0" encoding="UTF-8" standalone="no"?>
<svg width="56px" height="35px" viewBox="0 0 56 35" version="1.1" xmlns="http://www.w3.org/2000/svg" xmlns:xlink="http://www.w3.org/1999/xlink" xmlns:sketch="http://www.bohemiancoding.com/sketch/ns">
    <!-- Generator: Sketch 3.3.2 (12043) - http://www.bohemiancoding.com/sketch -->
    <title>Imported Layers</title>
    <desc>Created with Sketch.</desc>
    <defs></defs>
    <g id="Page-1" stroke="none" stroke-width="1" fill="none" fill-rule="evenodd" sketch:type="MSPage">
        <g id="Imported-Layers" sketch:type="MSLayerGroup">
            <path d="M45.241,3.794 C36.946,0.688 27.693,-0.044 18.918,0.722 C12.452,1.286 4.632,3.681 1.574,9.845 C-1.774,16.346 1.968,24.614 7.448,29.035 C13.539,33.95 23.071,35.48 30.584,34.801 C38.788,34.06 46.921,30.184 52.331,24.182 C59.14,16.628 53.503,6.888 45.241,3.794" id="Fill-1" fill="#8E5BB4" sketch:type="MSShapeGroup"></path>
            <path d="M52.456,23.559 C51.61,24.284 50.84,25.074 49.925,25.605 C49.912,25.617 49.9,25.631 49.887,25.643 C43.989,30.775 35.681,33.622 28.022,33.627 C21.9,33.63 16.845,32.954 9.572,27.734 C1.292,20.464 2.679,12.624 5.833,8.583 C11.333,1.953 25.578,0.852 33.879,1.744 C39.049,2.301 44.055,3.567 48.871,5.41 C47.744,4.633 46.515,3.986 45.221,3.501 C36.926,0.395 27.673,-0.337 18.898,0.429 C12.432,0.993 4.612,3.388 1.554,9.552 C0.466,11.664 0.137,13.963 0.362,16.256 C0.72,21.135 3.674,26.031 7.463,29.088 C13.555,34.003 23.087,35.533 30.599,34.854 C38.804,34.113 46.937,30.237 52.347,24.235 C52.922,23.597 53.396,22.942 53.797,22.277 C53.384,22.724 52.936,23.149 52.456,23.559" id="Fill-2" fill="#674089" sketch:type="MSShapeGroup"></path>
            <path d="M48.475,5.26 C47.568,4.771 45.687,4.275 44.951,4.053 C35.731,1.538 28.546,0.797 20.362,1.511 C14.331,2.037 7.038,4.271 4.186,10.02 C1.063,16.083 4.553,23.794 9.664,27.918 C11.552,29.441 13.8,30.609 16.21,31.476 C9.925,27.324 5.12,16.663 10.344,10.73 C14.504,3.888 28.729,2.277 34.334,2.738 C42.173,3.421 46.851,5.76 48.044,6.11 C48.386,6.299 48.894,6.424 49.022,5.953 C49.124,5.576 48.815,5.364 48.475,5.26" id="Fill-3" fill="#E192E5" sketch:type="MSShapeGroup"></path>
            <path d="M16.603,9.671 C15.171,8.569 13.434,7.948 11.713,7.685 C10.444,7.491 8.823,7.638 7.923,8.861 C6.95,10.143 7.245,12.171 8.071,13.427 C8.988,14.823 10.737,15.635 12.212,15.855 C13.823,16.095 15.58,15.634 16.923,14.564 C18.613,13.217 18.029,10.768 16.603,9.671" id="Fill-4" fill="#E192E5" sketch:type="MSShapeGroup"></path>
            <path d="M16.274,9.341 C15.099,8.538 13.684,8.073 12.287,7.862 C11.257,7.707 9.946,7.789 9.234,8.646 C8.464,9.544 8.731,10.989 9.417,11.893 C10.179,12.898 11.606,13.5 12.804,13.677 C14.111,13.87 15.527,13.566 16.6,12.824 C17.951,11.89 17.444,10.141 16.274,9.341" id="Fill-5" fill="#674089" sketch:type="MSShapeGroup"></path>
            <path d="M14.829,10.087 C14.193,9.651 13.426,9.4 12.669,9.285 C12.111,9.201 11.4,9.246 11.014,9.71 C10.597,10.197 10.742,10.98 11.113,11.47 C11.526,12.014 12.3,12.34 12.949,12.436 C13.657,12.541 14.425,12.376 15.006,11.974 C15.738,11.468 15.463,10.52 14.829,10.087" id="Fill-6" fill="#A775D3" sketch:type="MSShapeGroup"></path>
            <path d="M37.209,10.942 C38.634,10.163 40.275,9.833 41.857,9.81 C43.023,9.792 44.465,10.109 45.126,11.266 C45.844,12.483 45.328,14.191 44.43,15.174 C43.432,16.266 41.757,16.758 40.401,16.774 C38.921,16.792 37.396,16.188 36.318,15.111 C34.962,13.754 35.789,11.718 37.209,10.942" id="Fill-7" fill="#E192E5" sketch:type="MSShapeGroup"></path>
            <path d="M37.709,9.932 C38.873,9.296 40.214,9.027 41.507,9.007 C42.46,8.993 43.638,9.252 44.177,10.197 C44.765,11.191 44.343,12.587 43.609,13.39 C42.794,14.283 41.425,14.685 40.318,14.698 C39.108,14.712 37.862,14.219 36.981,13.339 C35.873,12.23 36.549,10.566 37.709,9.932" id="Fill-8" fill="#674089" sketch:type="MSShapeGroup"></path>
            <path d="M39.073,10.916 C39.702,10.572 40.426,10.427 41.125,10.417 C41.64,10.409 42.276,10.549 42.568,11.059 C42.885,11.597 42.657,12.351 42.261,12.785 C41.82,13.267 41.081,13.484 40.482,13.491 C39.829,13.499 39.155,13.233 38.68,12.757 C38.081,12.158 38.446,11.259 39.073,10.916" id="Fill-9" fill="#A775D3" sketch:type="MSShapeGroup"></path>
        </g>
    </g>
</svg>