<?xml version="1.0" encoding="utf-8"?>
<!-- Generator: Adobe Illustrator 18.0.0, SVG Export Plug-In . SVG Version: 6.00 Build 0)  -->
<!DOCTYPE svg PUBLIC "-//W3C//DTD SVG 1.1//EN" "http://www.w3.org/Graphics/SVG/1.1/DTD/svg11.dtd">
<svg version="1.1" id="Layer_1" xmlns="http://www.w3.org/2000/svg" xmlns:xlink="http://www.w3.org/1999/xlink" x="0px" y="0px"
	 viewBox="0 0 960 560" enable-background="new 0 0 960 560" xml:space="preserve">
<path fill="#674089" d="M480.4,52.4c1-0.9,2.4-1,3.5-0.2c11.5,7.7,6.2,23.6-5.1,30c-2.3,1.3-11.7,4.6-10.4-1.5
	c0.8-3.8,2.9-7.6,4.4-11.2c2.1-5.2,4.2-10.4,6.4-15.6C479.5,53.1,479.9,52.7,480.4,52.4z"/>
<path fill="#674089" d="M589.9,436.3c-0.3-0.2-0.5-0.5-0.7-0.7c-0.1,0-0.2,0.1-0.3,0.1c-4.9-3.4-10.1-6.4-15.4-9.4
	c-6.7-4.5-13.5-8.8-20.5-12.8c-13.4-7.7-28-13.1-41.9-19.9c-18.4-9-38.6-22.8-40-44.5c-0.1-1.3,0-2.6,0.1-3.8
	c-0.4-11.7,4.5-23.1,14.6-31.4c3.7-3,7.6-4.9,11.7-5.9c7.9-3.7,17.5-3.4,25.9-0.1c4.2,1.6,7.8,4.1,11,7c4.1,3,7.7,6.7,10.7,10.6
	c7,8.1,12.2,17.9,17.3,27.1c13.8,24.5,24.4,50.6,32.5,77.3c6.6-0.6,16.8-1,16.3,7.2C610.6,446.6,593.9,439.2,589.9,436.3z"/>
<path fill="#674089" d="M345.5,434.5c0.3-0.3,0.5-0.5,0.7-0.8c0.1,0,0.2,0.1,0.3,0.1c4.9-4,10.1-7.6,15.4-11.1
	c6.7-5.2,13.4-10.4,20.4-15.2c13.4-9.2,28.3-16.3,42.3-24.7c18.6-11.1,38.7-27.3,38.5-49.5c0-1.3-0.2-2.6-0.4-3.9
	c-0.5-11.9-6.5-23-17.8-30.3c-4.1-2.7-8.4-4.2-12.7-4.8c-8.6-2.9-18.6-1.6-27.1,2.6c-4.3,2.1-7.9,5-11,8.3c-4,3.5-7.6,7.6-10.3,11.9
	c-6.7,9-11.4,19.4-16.1,29.3c-12.6,26.3-21.7,54-28.1,81.9c-7,0.1-17.6,0.8-16.5,9.1C324.6,447.1,341.6,437.9,345.5,434.5z"/>
<path fill="#8E5BB4" d="M472.1,403.9c22.1,0,37.5-8.1,53.2-18.6c24.9-16,38.8-51.9,38.8-80.5c0-45-32.1-65.9-34.9-107.3
	C523,154.9,520.8,79.8,462,79.8v-0.1c-0.4,0-0.7,0.1-1.1,0.1c-0.4,0-0.7-0.1-1.1-0.1v0.1c-53.3,0-62.8,75.1-69.2,117.7
	c-2.9,41.3-35.7,62.3-35.7,107.3c0,28.6,18.6,64.5,44.2,80.5c16.1,10.5,33.8,16.2,54.2,18.6l16.5,0.2c0.4,0-15.8-0.1-15.4-0.1"/>
<path fill="#674089" d="M535.2,198.9c-5.5-39.6-13.5-106.8-53.3-117.9c0,0,0.1,0,0.1,0c-0.2,0-0.5-0.1-0.7-0.1
	c-4.9-1.9-10.4-2-15.7-2c-4.4,0-10.5,0-15.2,1.5c-45.4,8.8-54.2,78-60.3,118.5c-2.9,42-36.2,63.2-36.2,108.9
	c0,29.1,18.8,65.5,44.9,81.7c16.4,10.6,34.3,16.5,55,18.9l5.9,0.1l5.6,0l5.2,0l5.5-0.1c19.3-2.4,35.8-8.2,51-18.9
	c24.2-16.3,41.6-52.7,41.6-81.7C568.8,262.1,537.9,240.9,535.2,198.9z M515.5,368.2c-1.1,0.8-2.3,1.5-3.5,2.2
	c-26.3,18-68.1,19.6-94.1,1.4c-2.2-1.1-4.4-2.3-6.4-3.6c-16.9-11-30.1-25.9-38.5-43.1c-8.3-17-7.8-36.9,0.9-53.8
	c8.1-15.5,22.6-24.5,34.4-37.4c13.9-15.2,8.8-34.5,4.5-52.1c-4-16.2-8.4-33.3-4.1-49.9c4.8-18.2,18.3-38.5,37.4-45.7
	c7.2-3.7,18-3.9,24.7-3.5c6.4,0.4,13.5,2.6,18.4,6.6c14.5,8.9,24.7,26.5,28.6,42.5c4,16.6-0.1,33.7-3.8,49.9
	c-4,17.6-8.7,36.9,4.2,52.1c10.9,12.9,24.4,21.9,31.9,37.4c8.1,16.9,8.6,36.8,0.9,53.8C543.4,342.3,531.2,357.2,515.5,368.2z"/>
<path fill="#A775D3" d="M428.8,267.5c20.3-5.2,42-4.7,62.1-0.8c14.8,2.9,32.1,10.3,37,25.4c5.5,15.9-6.2,34.3-20.4,43.3
	c-15.9,10-38.5,11.3-55.7,7.9c-18.8-3.7-36.2-14.7-46.6-29.9C392,294,408.5,272.7,428.8,267.5z"/>
<path fill="#674089" d="M458.4,278.5c2.1-0.5,4.4-0.4,6.5,0.1c1.5,0.3,3.3,1.2,3.8,2.7c0.5,1.7-0.7,3.5-2.3,4.4c-1.7,1-4,1-5.8,0.6
	c-1.9-0.4-3.7-1.6-4.8-3.2C454.5,281.1,456.3,279,458.4,278.5z"/>
<path fill="#674089" d="M441.6,53.8c-1.1-0.7-2.5-0.7-3.5,0.1c-10.5,8.7-3.5,24,8.3,29.2c2.4,1.1,12,3.4,10.1-2.5
	c-1.2-3.7-3.7-7.3-5.5-10.7c-2.7-4.9-5.3-9.9-8-14.8C442.6,54.5,442.1,54.1,441.6,53.8z"/>
<g>
	<path fill="#674089" d="M510.4,169.5c-0.6-2.1-2.9-4-5.2-3.7c-0.2,0-0.3,0-0.5,0.1c-1.4,0.2-2.5,0.8-3.3,1.6
		c-1.1-1.1-2.7-1.8-4.2-1.9c-8.5-0.7-15.9,2.5-23.8,5.1c-10.9,3.6-22,4.1-33.3,5.6c-18.3,2.5-9.5,19.4-2.3,28.1
		c12.5,15.1,30.1,11.2,45.1,2.9c7.6-4.2,14.6-10.7,19.5-17.8C505.9,184.5,512.3,176,510.4,169.5z"/>
	<path fill="#E192E5" d="M505.5,167.6c-0.6-1.9-2.7-3.7-4.8-3.4c-0.1,0-0.3,0-0.4,0.1c-1.3,0.1-2.3,0.7-3,1.5c-1-1-2.5-1.6-3.9-1.8
		c-7.8-0.7-14.5,2.1-21.8,4.5c-10,3.2-20.2,3.6-30.5,4.8c-16.7,2.1-8.5,17.5-1.9,25.4c11.5,13.7,27.6,10.4,41.3,3
		c6.9-3.7,13.3-9.6,17.8-16C501.5,181.1,507.4,173.5,505.5,167.6z"/>
</g>
<g>
	<path fill="#8E5BB4" d="M510.3,116.1c-23-7.3-48.6-9.1-72.9-7.2c-17.9,1.3-39.6,7-48.1,21.5c-9.3,15.3,1.1,34.8,16.3,45.3
		c16.9,11.6,43.3,15.2,64.1,13.6c22.7-1.7,45.3-10.9,60.3-25C548.8,146.3,533.2,123.4,510.3,116.1z"/>
	<path fill="#674089" d="M530.3,162.7c-2.3,1.7-4.5,3.6-7,4.8c0,0-0.1,0.1-0.1,0.1c-16.3,12.1-39.4,18.8-60.6,18.8
		c-17,0-31-1.6-51.1-13.9c-22.9-17.1-19.1-35.6-10.4-45.2c15.2-15.6,54.7-18.2,77.7-16.1c14.3,1.3,28.2,4.3,41.5,8.6
		c-3.1-1.8-6.5-3.4-10.1-4.5c-23-7.3-48.6-9.1-72.9-7.2c-17.9,1.3-39.6,7-48.1,21.5c-3,5-3.9,10.4-3.3,15.8
		c1,11.5,9.2,23.1,19.7,30.3c16.9,11.6,43.3,15.2,64.1,13.6c22.7-1.7,45.3-10.9,60.3-25c1.6-1.5,2.9-3.1,4-4.6
		C532.8,160.7,531.6,161.7,530.3,162.7z"/>
	<path fill="#E192E5" d="M519.2,119.5c-2.5-1.2-7.7-2.3-9.8-2.8c-25.6-5.9-45.5-7.7-68.1-6c-16.7,1.2-36.9,6.5-44.8,20.1
		c-8.7,14.3,1,32.5,15.2,42.2c5.2,3.6,11.5,6.3,18.1,8.4c-17.4-9.8-30.7-34.9-16.3-48.9c11.5-16.1,50.9-19.9,66.5-18.9
		c21.7,1.6,34.7,7.1,38,8c0.9,0.4,2.4,0.7,2.7-0.4C521,120.3,520.2,119.8,519.2,119.5z"/>
</g>
<g>
	<g>
		<path fill="#E192E5" d="M430.9,129.9c-4-2.6-8.8-4.1-13.6-4.7c-3.5-0.5-8-0.1-10.5,2.8c-2.7,3-1.9,7.8,0.4,10.8
			c2.5,3.3,7.4,5.2,11.5,5.7c4.5,0.6,9.3-0.5,13.1-3C436.5,138.3,434.9,132.5,430.9,129.9z"/>
		<path fill="#674089" d="M430,129.2c-3.3-1.9-7.2-3-11-3.5c-2.9-0.4-6.5-0.2-8.5,1.8c-2.1,2.1-1.4,5.5,0.5,7.7
			c2.1,2.4,6.1,3.8,9.4,4.2c3.6,0.5,7.5-0.3,10.5-2C434.6,135.2,433.2,131,430,129.2z"/>
		<path fill="#A775D3" d="M426,130.9c-1.8-1-3.9-1.6-6-1.9c-1.5-0.2-3.5-0.1-4.6,1c-1.2,1.1-0.8,3,0.3,4.2c1.1,1.3,3.3,2.1,5.1,2.3
			c2,0.2,4.1-0.1,5.7-1.1C428.5,134.2,427.7,131.9,426,130.9z"/>
	</g>
	<g>
		<path fill="#E192E5" d="M488,132.9c3.9-1.8,8.5-2.6,12.9-2.7c3.2,0,7.2,0.7,9.1,3.4c2,2.9,0.6,6.9-1.9,9.2
			c-2.8,2.6-7.4,3.7-11.2,3.8c-4.1,0-8.3-1.4-11.3-3.9C481.8,139.6,484.1,134.8,488,132.9z"/>
		<path fill="#674089" d="M489.4,130.6c3.2-1.5,6.9-2.1,10.5-2.2c2.6,0,5.9,0.6,7.4,2.8c1.6,2.3,0.5,5.6-1.6,7.5
			c-2.3,2.1-6.1,3.1-9.1,3.1c-3.4,0-6.8-1.1-9.2-3.2C484.3,136,486.2,132,489.4,130.6z"/>
		<g>
			<g>
				<g>
					<path fill="#A775D3" d="M493.2,132.9c1.7-0.8,3.8-1.2,5.7-1.2c1.4,0,3.2,0.3,4,1.5c0.9,1.3,0.2,3-0.9,4.1
						c-1.2,1.1-3.3,1.7-4.9,1.7c-1.8,0-3.7-0.6-5-1.7C490.4,135.8,491.4,133.7,493.2,132.9z"/>
				</g>
			</g>
		</g>
	</g>
</g>
<g>
	<path fill="#674089" d="M492.8,101.6c-3.7-6.2-12.5-6.6-16.7-0.6c-1.2,1.7,1.3,3.9,2.5,2.2c3-4.3,8.7-4.2,11.4,0.3
		C491.2,105.3,493.9,103.5,492.8,101.6z"/>
	<path fill="#674089" d="M454,101c-3.4-5.6-11.3-6-15-0.6c-1.1,1.6,1.2,3.6,2.3,2c2.7-3.9,7.8-3.8,10.3,0.3
		C452.5,104.3,455,102.6,454,101z"/>
</g>
<path fill="#674089" d="M337,205.9c-2.9,0.4-7.4,2.1-7.3,5.7c0.2,3.7,5.6,4.3,8.4,4.4c0.4,0,0.7,0,1.1,0c-0.9,2-1.2,4.2-0.3,6.6
	c0.6,1.7,2.9,2.9,4.4,1.6c3.1-2.4,5.2-5.6,6.1-9.3c10.7,5.4,21.6,11.7,33.4,13.6c9.5,1.5,20.8-4.9,22.2-14.9
	c1.5-10.8-5.6-19.3-16.4-19.9c-5.5-0.3-11.2,2.4-16.2,4.2l-24,8.7c-0.6-2.6-1.5-4.9-3.5-6.7c-1.9-1.8-5.2-2.5-7.5-1
	C334.8,200.6,336,203.6,337,205.9z"/>
<path fill="#674089" d="M589.1,210.2c2.8-0.9,7-3.2,6.3-6.7c-0.7-3.7-6.2-3.4-9-3c-0.4,0-0.7,0.1-1,0.2c0.6-2.1,0.5-4.3-0.7-6.6
	c-0.8-1.5-3.3-2.4-4.7-0.9c-2.7,2.9-4.3,6.3-4.5,10.2c-11.4-3.6-23.1-8.2-35.1-8.3c-9.6-0.1-19.8,8-19.6,18.2
	c0.2,10.9,8.5,18.2,19.3,17.1c5.5-0.5,10.7-4.1,15.4-6.7l22.4-12.3c0.9,2.4,2.2,4.6,4.5,6.1c2.2,1.5,5.6,1.7,7.6-0.2
	C592.1,215.1,590.5,212.3,589.1,210.2z"/>
<g>
	<g>
		<path fill="#674089" d="M453.4,236.6c-5.4,3.3-13.3,6-13.9-3.7c0-4.5,1.6-7.8,6.5-6.2c2.2,0.7,4,1.6,6.3,2
			c0.2,0.1,0.4,0.1,0.6,0.1c0.2,0.1,0.4,0.1,0.6,0.1c0.8,0.1,1.3-0.5,1.6-1.2c0,0,0,0,0,0c0.1-0.3,0.1-0.6,0.1-0.9
			c-0.4-2.4-2.3-4.1-3.4-5.2c-1.2-1.2-3.2-2.8-4.8-3.7c-2.7-1.6-5.5-2.3-8.5-2.8c-5,0.1-9.2-0.4-12.3,4.1
			c-3.5,5.1-2.9,20.6-1.4,24.1c0.8,2.2,2.3,5.3,5.3,6.6c3.9,1.7,8.2,0.2,10.8-0.4c5.2-1.3,14.6-5.4,14.4-11.8
			C455.3,236.7,454.2,236.1,453.4,236.6z"/>
		<path fill="#674089" d="M464.3,225.6h-2.4c-2.7,0-4.9,2.2-4.9,4.9v4.8c0,2.7,2.2,4.9,4.9,4.9h2.4c2.7,0,4.9-2.2,4.9-4.9v-4.8
			C469.2,227.8,467,225.6,464.3,225.6z"/>
		<path fill="#674089" d="M500,219.2c-3.1-4.5-7.2-4-12.3-4.1c-2.9,0.5-5.7,1.2-8.4,2.8c-1.6,0.9-3.5,2.5-4.8,3.7
			c-1.1,1.1-3,2.8-3.4,5.2c0,0.3,0,0.6,0.1,0.9c0,0,0,0,0,0c0.3,0.7,0.8,1.3,1.6,1.2c0.2,0,0.4-0.1,0.6-0.1c0.2,0,0.4-0.1,0.6-0.1
			c2.3-0.3,4.1-1.3,6.2-2c4.9-1.6,6.5,1.8,6.5,6.2c-0.7,9.7-8.5,7-13.9,3.7c-0.8-0.5-1.9,0.2-1.9,1.1c-0.2,6.4,9.2,10.5,14.4,11.8
			c2.6,0.6,6.9,2.1,10.8,0.4c3-1.3,4.5-4.4,5.3-6.6C502.9,239.7,503.4,224.2,500,219.2z"/>
	</g>
	<g>
		<path fill="#A7C3FE" d="M451.3,232.7c-5.4,3.3-13.3,6-13.9-3.7c0-4.5,1.6-7.8,6.5-6.2c2.2,0.7,4,1.6,6.3,2
			c0.2,0.1,0.4,0.1,0.6,0.1c0.2,0.1,0.4,0.1,0.6,0.1c0.8,0.1,1.3-0.5,1.6-1.2c0,0,0,0,0,0c0.1-0.3,0.1-0.6,0.1-0.9
			c-0.4-2.4-2.3-4.1-3.4-5.2c-1.2-1.2-3.2-2.8-4.8-3.7c-2.7-1.6-5.5-2.3-8.5-2.8c-5,0.1-9.2-0.4-12.3,4.1
			c-3.5,5.1-2.9,20.6-1.4,24.1c0.8,2.2,2.3,5.3,5.3,6.6c3.9,1.7,8.2,0.2,10.8-0.4c5.2-1.3,14.6-5.4,14.4-11.8
			C453.2,232.9,452.1,232.2,451.3,232.7z"/>
		<path fill="#A7C3FE" d="M462.1,221.7h-2.4c-2.7,0-4.9,2.2-4.9,4.9v4.8c0,2.7,2.2,4.9,4.9,4.9h2.4c2.7,0,4.9-2.2,4.9-4.9v-4.8
			C467,223.9,464.8,221.7,462.1,221.7z"/>
		<path fill="#A7C3FE" d="M497.9,215.3c-3.1-4.5-7.2-4-12.3-4.1c-2.9,0.5-5.7,1.2-8.4,2.8c-1.6,0.9-3.5,2.5-4.8,3.7
			c-1.1,1.1-3,2.8-3.4,5.2c0,0.3,0,0.6,0.1,0.9c0,0,0,0,0,0c0.3,0.7,0.8,1.3,1.6,1.2c0.2,0,0.4-0.1,0.6-0.1c0.2,0,0.4-0.1,0.6-0.1
			c2.3-0.3,4.1-1.3,6.2-2c4.9-1.6,6.5,1.8,6.5,6.2c-0.7,9.7-8.5,7-13.9,3.7c-0.8-0.5-1.9,0.2-1.9,1.1c-0.2,6.4,9.2,10.5,14.4,11.8
			c2.6,0.6,6.9,2.1,10.8,0.4c3-1.3,4.5-4.4,5.3-6.6C500.7,235.8,501.3,220.4,497.9,215.3z"/>
	</g>
</g>
</svg>
