<?xml version="1.0" encoding="utf-8"?>
<!-- Generator: Adobe Illustrator 18.0.0, SVG Export Plug-In . SVG Version: 6.00 Build 0)  -->
<!DOCTYPE svg PUBLIC "-//W3C//DTD SVG 1.1//EN" "http://www.w3.org/Graphics/SVG/1.1/DTD/svg11.dtd">
<svg version="1.1" id="Layer_1" xmlns="http://www.w3.org/2000/svg" xmlns:xlink="http://www.w3.org/1999/xlink" x="0px" y="0px"
	 viewBox="0 0 960 560" enable-background="new 0 0 960 560" xml:space="preserve">
<path fill="#674089" d="M477.6,452.3c0-0.4,0.1-0.6,0.1-0.9c-0.1-0.1-0.2-0.1-0.3-0.2c-0.1-5.5-0.6-10.9-1.3-16.4
	c-0.3-7.3-0.7-14.6-1.4-22c-1.5-14-5.2-27.7-7.6-41.6c-3.1-18.5-3.7-40.7,11.7-53.4c0.9-0.8,1.9-1.4,2.9-2c8.5-6.6,19.5-9,31-5.8
	c4.2,1.1,7.7,3,10.6,5.5c7,3.9,11.8,11.1,13.9,19.1c1.1,4,1.2,8,0.7,11.9c-0.1,4.6-0.8,9.2-2.2,13.6c-2.3,9.6-6.8,18.5-10.9,27.3
	c-10.8,23.2-24.5,45-39.9,65.2c4,4.6,9.6,11.9,3.3,15.8C480.9,473,477.5,456.7,477.6,452.3z"/>
<path fill="#674089" d="M456.2,450.9c-0.1-0.4-0.2-0.7-0.3-1c0.1-0.1,0.2-0.1,0.2-0.2c-0.6-5.7-0.8-11.5-0.9-17.3
	c-0.7-7.7-1.2-15.4-1.4-23.2c-0.4-14.9,1.6-29.8,2.2-44.6c0.7-19.8-1.6-43.1-18.7-54.1c-1-0.6-2.1-1.2-3.2-1.7
	c-9.4-5.6-20.8-6.4-32-1.5c-4.1,1.8-7.3,4.3-10,7.3c-6.5,5.1-10.4,13.4-11.5,22.1c-0.5,4.3-0.1,8.5,0.9,12.5c0.7,4.8,2.1,9.6,4,13.8
	c3.5,9.6,9.2,18.3,14.4,26.9c13.9,22.7,30.5,43.4,48.7,62.2c-3.4,5.4-8.1,13.9-1.3,17.1C455.5,473.2,456.9,455.6,456.2,450.9z"/>
<path fill="#8E5BB4" d="M472.2,408.7c20.2,0,34.2-8.2,48.5-18.9c22.7-16.3,35.4-52.7,35.4-81.8c0-45.7-29.3-67-31.8-109
	c-5.7-43.3-7.6-119.5-61.2-119.5v-0.1c-0.3,0-0.7,0.1-1,0.1s-0.6-0.1-1-0.1v0.1c-48.6,0-57.3,76.3-63.1,119.6
	c-2.6,42-32.5,63.2-32.5,109c0,29.1,16.9,65.5,40.3,81.8c14.7,10.7,30.8,16.5,49.4,18.9l15,0.3c0.3,0-14.4-0.1-14.1-0.1"/>
<g>
	<path fill="#674089" d="M452.9,94c1.1,3.2,1.2,6.6,0.8,9.9c-0.4,2.4-1.5,5.2-4.1,6.2c-2.7,1.1-6-0.6-7.7-2.7
		c-1.9-2.4-2.3-6-1.9-8.8c0.5-3,2.2-5.9,4.8-7.8C447.9,88.4,451.8,90.8,452.9,94z"/>
	<g>
		<path fill="#FFFFFF" d="M449.9,97c0.6,1.7,0.7,3.6,0.4,5.3c-0.2,1.3-0.8,2.8-2.2,3.3c-1.5,0.6-3.3-0.3-4.2-1.5
			c-1-1.3-1.3-3.2-1-4.7c0.2-1.6,1.2-3.2,2.6-4.2C447.2,94,449.3,95.3,449.9,97z"/>
	</g>
	<path fill="#674089" d="M475.7,109.8c-1.6-3.3-2.1-7.1-2-10.7c0.1-2.6,1-5.9,3.7-7.2c2.8-1.5,6.6-0.1,8.8,2
		c2.3,2.4,3.3,6.2,3.1,9.3c-0.1,3.3-1.7,6.7-4.3,9C481.7,115.3,477.2,113.1,475.7,109.8z"/>
	<g>
		<path fill="#FFFFFF" d="M478.6,106.2c-0.9-1.8-1.2-3.8-1.1-5.8c0.1-1.4,0.5-3.2,2-3.9c1.5-0.8,3.6-0.1,4.7,1.1
			c1.3,1.3,1.8,3.4,1.7,5c-0.1,1.8-0.9,3.6-2.3,4.9C481.9,109.1,479.4,108,478.6,106.2z"/>
	</g>
</g>
<path fill="#674089" d="M477.8,104.8c-0.3-1-0.3-2.1,0.3-3.1c0.5-1,1.3-1.7,2.4-2c0.5-0.2,1-0.2,1.6-0.2c0.5,0.1,1,0.2,1.5,0.4
	c0.5,0.2,0.9,0.6,1.3,1s0.6,0.9,0.8,1.4c0.3,1.1,0.3,2.1-0.3,3.1c-0.5,1-1.3,1.7-2.4,2s-2.1,0.3-3.1-0.2
	C478.9,106.7,478.2,105.9,477.8,104.8z"/>
<path fill="#674089" d="M443.7,103c-0.3-1-0.2-1.9,0.2-2.9c0.5-1,1.2-1.6,2.2-1.9c0.5-0.2,1-0.2,1.5-0.2s1,0.2,1.4,0.4
	c0.5,0.2,0.8,0.5,1.2,0.9c0.3,0.4,0.6,0.8,0.7,1.3c0.3,1,0.2,2-0.3,2.9s-1.2,1.6-2.2,1.9s-2,0.3-2.9-0.2
	C444.7,104.8,444.1,104,443.7,103z"/>
<path fill="#674089" d="M529.8,200.5c-5-40.2-12.3-108.5-48.6-119.7h0.1c-0.2,0-0.4-0.1-0.6-0.1c-4.5-1.9-9.4-2-14.3-2
	c-4,0-9.6,0-13.8,1.5c-41.4,9-49.4,79.3-54.9,120.3c-2.6,42.6-33,64.2-33,110.6c0,29.5,17.2,66.5,40.9,83
	c14.9,10.8,31.2,16.7,50.2,19.2l5.4,0.1h5.1h4.8l5-0.1c17.6-2.4,32.7-8.4,46.5-19.2c22-16.5,38-53.5,38-83
	C560.4,264.7,532.2,243.1,529.8,200.5z M511.8,372.5c-1,0.8-2.1,1.5-3.2,2.2c-23.9,18.3-62.1,19.9-85.8,1.4c-2-1.1-4-2.3-5.9-3.7
	c-15.4-11.2-27.5-26.3-35.1-43.7c-7.6-17.3-7.1-37.5,0.9-54.6c7.3-15.8,20.6-24.9,31.4-38c12.7-15.4,8.1-35.1,4.1-52.9
	c-3.6-16.5-7.6-33.9-3.7-50.7c4.3-18.5,16.7-39.1,34.1-46.4c6.6-3.7,16.4-3.9,22.6-3.5c5.9,0.4,12.3,2.6,16.8,6.7
	c13.2,9,22.6,26.9,26.1,43.2c3.7,16.8-0.1,34.2-3.4,50.7c-3.6,17.9-7.9,37.5,3.8,52.9c10,13.1,22.3,22.2,29.1,38
	c7.4,17.1,7.8,37.3,0.8,54.6C537.2,346.1,526,361.3,511.8,372.5z"/>
<path fill="#A775D3" d="M432.7,283c18.5-5.3,38.3-4.8,56.6-0.9c13.5,2.9,29.2,10.5,33.7,25.8c5,16.2-5.6,34.8-18.6,44
	c-14.5,10.1-35.1,11.4-50.8,8c-17.1-3.7-33-14.9-42.5-30.4C399.1,310,414.2,288.3,432.7,283z"/>
<path fill="#674089" d="M461.7,296.5c1.9-0.5,4-0.4,5.9,0.1c1.4,0.3,3,1.2,3.4,2.8c0.5,1.7-0.7,3.6-2.1,4.4c-1.5,1-3.7,1.1-5.3,0.6
	c-1.8-0.4-3.4-1.6-4.3-3.3C458.1,299.1,459.7,296.9,461.7,296.5z"/>
<path fill="#674089" d="M472.7,51.3c0.7-1,1.9-1.4,3.1-1.1c12,3.8,11.3,19.2,3,27.6c-1.7,1.7-9.1,6.9-9.5,1.3
	c-0.2-3.5,0.6-7.4,1-10.9c0.6-5.1,1.1-10.2,1.7-15.3C472.1,52.2,472.3,51.7,472.7,51.3z"/>
<path fill="#674089" d="M453.9,52c-0.7-0.9-2-1.3-3.1-0.8c-11.5,4.7-9.5,19.9-0.6,27.7c1.8,1.6,9.6,6.2,9.4,0.6
	c-0.1-3.5-1.2-7.3-1.9-10.8c-1-5-2-10-3-15C454.6,52.9,454.3,52.4,453.9,52z"/>
<path fill="#674089" d="M371,177.1c-1.9-1.9-5.7-4.2-8.2-2.1c-2.6,2.2,0.1,6.5,1.5,8.5c0.2,0.3,0.4,0.5,0.6,0.8
	c-2,0.4-3.6,1.5-5,3.5c-0.9,1.4-0.5,3.6,1.3,4.1c3.4,0.9,6.9,0.7,10.1-0.9c2.1,10.7,3.6,22.1,8.8,31.7c4.2,7.7,15.1,12.3,23.1,7.7
	c8.6-5,10.8-14.8,5.2-23c-2.8-4.1-8-6.7-12.1-9.3l-19.7-12.4c1.5-1.8,2.7-3.8,2.9-6.2c0.2-2.4-1.2-5.2-3.5-5.9
	C373.6,172.6,372.1,175.1,371,177.1z"/>
<g>
	<path fill="#674089" d="M500.4,167.7c-0.5-1.6-2.2-3-3.9-2.8c-0.1,0-0.2,0-0.4,0c-1.1,0.1-1.9,0.6-2.4,1.2c-0.8-0.8-2-1.3-3.2-1.4
		c-6.4-0.5-11.9,1.9-17.9,3.8c-8.2,2.7-16.5,3.1-25,4.2c-13.7,1.8-7.1,14.6-1.7,21c9.4,11.3,22.5,8.4,33.8,2.2
		c5.7-3.1,10.9-8,14.7-13.3C497,179,501.9,172.6,500.4,167.7z"/>
	<path fill="#E192E5" d="M496.8,166.3c-0.4-1.4-2-2.7-3.6-2.6c-0.1,0-0.2,0-0.3,0c-1,0.1-1.7,0.5-2.2,1.1c-0.7-0.8-1.9-1.2-2.9-1.3
		c-5.8-0.5-10.9,1.6-16.3,3.3c-7.5,2.4-15.1,2.7-22.9,3.6c-12.6,1.6-6.4,13.1-1.4,19c8.7,10.3,20.7,7.8,31,2.2
		c5.2-2.8,10-7.2,13.3-12C493.8,176.5,498.1,170.7,496.8,166.3z"/>
</g>
<g>
	<path fill="#8E5BB4" d="M507,113.9c-21-7.8-44.3-9.7-66.5-7.8c-16.3,1.4-36.1,7.5-43.8,23.1c-8.5,16.4,1,37.3,14.8,48.5
		c15.4,12.4,39.5,16.3,58.5,14.6c20.7-1.9,41.3-11.7,54.9-26.8C542.1,146.3,527.9,121.7,507,113.9z"/>
	<path fill="#674089" d="M525.2,163.8c-2.1,1.8-4.1,3.8-6.4,5.2l-0.1,0.1c-14.9,13-35.9,20.2-55.2,20.2c-15.5,0-28.2-1.7-46.6-14.9
		c-20.9-18.4-17.4-38.2-9.4-48.4c13.9-16.8,49.9-19.5,70.9-17.3c13.1,1.4,25.7,4.6,37.9,9.3c-2.8-2-6-3.6-9.2-4.8
		c-21-7.8-44.3-9.7-66.5-7.8c-16.3,1.4-36.1,7.5-43.8,23.1c-2.7,5.3-3.6,11.1-3,16.9c0.9,12.3,8.4,24.7,17.9,32.4
		c15.4,12.4,39.5,16.3,58.5,14.6c20.7-1.9,41.3-11.7,54.9-26.8c1.5-1.6,2.7-3.3,3.7-4.9C527.6,161.7,526.4,162.8,525.2,163.8z"/>
	<path fill="#E192E5" d="M515.2,117.6c-2.3-1.2-7-2.5-8.9-3c-23.3-6.4-41.5-8.2-62.1-6.4c-15.2,1.3-33.7,7-40.9,21.5
		c-7.9,15.3,0.9,34.8,13.8,45.2c4.8,3.9,10.4,6.8,16.5,9c-15.9-10.5-28-37.4-14.8-52.4c10.5-17.3,46.5-21.4,60.6-20.2
		c19.8,1.7,31.6,7.6,34.6,8.5c0.9,0.5,2.1,0.8,2.5-0.4C516.8,118.4,516,117.8,515.2,117.6z"/>
</g>
<g>
	<g>
		<path fill="#E192E5" d="M434.6,128.7c-3.6-2.8-8-4.4-12.4-5c-3.2-0.5-7.3-0.1-9.6,3c-2.5,3.2-1.7,8.4,0.4,11.5
			c2.3,3.5,6.7,5.6,10.5,6.1c4.1,0.6,8.5-0.6,11.9-3.3C439.7,137.7,438.2,131.5,434.6,128.7z"/>
		<path fill="#674089" d="M433.8,127.9c-3-2-6.5-3.2-10.1-3.7c-2.6-0.4-5.9-0.2-7.7,2c-1.9,2.3-1.3,5.9,0.5,8.2
			c1.9,2.5,5.5,4.1,8.6,4.5c3.3,0.5,6.9-0.3,9.6-2.2C438,134.3,436.7,129.9,433.8,127.9z"/>
		<path fill="#A775D3" d="M430.1,129.8c-1.6-1.1-3.5-1.7-5.5-2c-1.4-0.2-3.2-0.1-4.2,1.1c-1.1,1.2-0.7,3.2,0.3,4.4
			c1,1.4,3,2.2,4.6,2.4c1.8,0.3,3.7-0.2,5.2-1.2C432.4,133.3,431.7,130.9,430.1,129.8z"/>
	</g>
	<g>
		<path fill="#E192E5" d="M486.7,131.9c3.6-2,7.7-2.8,11.7-2.9c2.9,0,6.6,0.8,8.3,3.7c1.8,3.1,0.5,7.4-1.8,9.9
			c-2.5,2.8-6.8,4-10.2,4c-3.7,0-7.6-1.5-10.3-4.2C481,139,483.1,133.9,486.7,131.9z"/>
		<path fill="#674089" d="M487.9,129.4c2.9-1.6,6.3-2.3,9.6-2.3c2.4,0,5.4,0.6,6.7,3c1.5,2.5,0.4,6-1.4,8.1
			c-2.1,2.3-5.5,3.3-8.3,3.3c-3.1,0-6.2-1.2-8.4-3.4C483.3,135.2,485,131,487.9,129.4z"/>
		<g>
			<g>
				<g>
					<path fill="#A775D3" d="M491.4,131.9c1.6-0.9,3.4-1.2,5.2-1.3c1.3,0,2.9,0.3,3.6,1.6c0.8,1.4,0.2,3.3-0.8,4.4
						c-1.1,1.2-3,1.8-4.5,1.8c-1.7,0-3.4-0.7-4.6-1.9C488.9,135,489.8,132.7,491.4,131.9z"/>
				</g>
			</g>
		</g>
	</g>
</g>
<g>
	<g>
		<path fill="#674089" d="M459.3,225c-4.9,3-12.1,5.4-12.7-3.4c0-4.1,1.5-7.1,6-5.7c2,0.6,3.6,1.5,5.7,1.8c0.2,0.1,0.4,0.1,0.5,0.1
			c0.2,0.1,0.4,0.1,0.6,0.1c0.7,0.1,1.2-0.5,1.4-1.1l0,0c0.1-0.2,0.1-0.5,0.1-0.8c-0.4-2.2-2.1-3.8-3.1-4.7
			c-1.1-1.1-2.9-2.5-4.4-3.4c-2.5-1.4-5-2.1-7.7-2.5c-4.6,0.1-8.4-0.4-11.2,3.7c-3.2,4.6-2.6,18.8-1.3,22c0.8,2,2.1,4.8,4.8,6
			c3.5,1.5,7.5,0.2,9.8-0.4c4.7-1.1,13.3-5,13.1-10.8C461,225.2,460,224.5,459.3,225z"/>
		<path fill="#674089" d="M469.2,215H467c-2.5,0-4.5,2-4.5,4.5v4.4c0,2.5,2,4.5,4.5,4.5h2.1c2.5,0,4.5-2,4.5-4.5v-4.4
			C473.6,217,471.6,215,469.2,215z"/>
		<path fill="#674089" d="M501.7,209.1c-2.8-4.1-6.6-3.6-11.2-3.7c-2.7,0.4-5.2,1.1-7.7,2.5c-1.5,0.9-3.2,2.3-4.3,3.4
			c-1,1-2.7,2.6-3.1,4.7c0,0.3,0,0.5,0.1,0.8l0,0c0.2,0.6,0.7,1.1,1.4,1.1c0.2,0,0.4-0.1,0.6-0.1s0.4-0.1,0.5-0.1
			c2.1-0.3,3.7-1.2,5.7-1.8c4.5-1.4,6,1.6,6,5.7c-0.6,8.8-7.7,6.4-12.7,3.4c-0.8-0.5-1.7,0.1-1.7,1c-0.2,5.8,8.4,9.6,13.1,10.8
			c2.4,0.6,6.3,1.9,9.8,0.4c2.8-1.2,4.1-4,4.8-6C504.4,227.9,504.9,213.8,501.7,209.1z"/>
	</g>
	<g>
		<path fill="#A7C3FE" d="M457.3,221.5c-4.9,3-12.1,5.4-12.7-3.4c0-4.1,1.5-7.1,6-5.7c2,0.6,3.6,1.5,5.7,1.8
			c0.2,0.1,0.4,0.1,0.5,0.1c0.2,0.1,0.4,0.1,0.6,0.1c0.7,0.1,1.2-0.5,1.4-1.1l0,0c0.1-0.2,0.1-0.5,0.1-0.8c-0.4-2.2-2.1-3.8-3.1-4.7
			c-1.1-1.1-2.9-2.5-4.4-3.4c-2.5-1.4-5-2.1-7.7-2.5c-4.6,0.1-8.4-0.4-11.2,3.7c-3.2,4.6-2.6,18.8-1.3,22c0.8,2,2.1,4.8,4.8,6
			c3.5,1.5,7.5,0.2,9.8-0.4c4.7-1.1,13.3-5,13.1-10.8C459.1,221.6,458.1,221,457.3,221.5z"/>
		<path fill="#A7C3FE" d="M467.2,211.5h-2.1c-2.5,0-4.5,2-4.5,4.5v4.4c0,2.5,2,4.5,4.5,4.5h2.1c2.5,0,4.5-2,4.5-4.5V216
			C471.7,213.5,469.7,211.5,467.2,211.5z"/>
		<path fill="#A7C3FE" d="M499.8,205.6c-2.8-4.1-6.6-3.6-11.2-3.7c-2.7,0.4-5.2,1.1-7.7,2.5c-1.5,0.9-3.2,2.3-4.3,3.4
			c-1,1-2.7,2.6-3.1,4.7c0,0.3,0,0.5,0.1,0.8l0,0c0.2,0.6,0.7,1.1,1.4,1.1c0.2,0,0.4-0.1,0.6-0.1s0.4-0.1,0.5-0.1
			c2.1-0.3,3.7-1.2,5.7-1.8c4.5-1.4,6,1.6,6,5.7c-0.6,8.8-7.7,6.4-12.7,3.4c-0.8-0.5-1.7,0.1-1.7,1c-0.2,5.8,8.4,9.6,13.1,10.8
			c2.4,0.6,6.3,1.9,9.8,0.4c2.8-1.2,4.1-4,4.8-6C502.4,224.3,503,210.2,499.8,205.6z"/>
	</g>
</g>
<path fill="#674089" d="M560,182.2c1.3-2.4,2.6-6.5-0.1-8.4c-2.8-2-6.2,1.6-7.8,3.7c-0.2,0.3-0.4,0.6-0.6,0.8
	c-0.9-1.7-2.3-3.2-4.7-3.9c-1.6-0.5-3.7,0.5-3.7,2.3c0.1,3.5,1.2,6.9,3.4,9.6c-9.9,4.7-20.5,9.2-28.3,16.7c-6.4,6-8,17.8-1.5,24.3
	c7,7.1,17,6.6,23.5-0.8c3.3-3.8,4.5-9.4,6-14.1l7.1-22.2c2.2,1,4.3,1.6,6.8,1.2c2.4-0.4,4.7-2.4,4.8-4.8
	C565.1,183.6,562.3,182.8,560,182.2z"/>
</svg>
