<?xml version="1.0" encoding="utf-8"?>
<!-- Generator: Adobe Illustrator 18.0.0, SVG Export Plug-In . SVG Version: 6.00 Build 0)  -->
<!DOCTYPE svg PUBLIC "-//W3C//DTD SVG 1.1//EN" "http://www.w3.org/Graphics/SVG/1.1/DTD/svg11.dtd">
<svg version="1.1" id="Layer_1" xmlns="http://www.w3.org/2000/svg" xmlns:xlink="http://www.w3.org/1999/xlink" x="0px" y="0px"
	 viewBox="0 0 960 560" enable-background="new 0 0 960 560" xml:space="preserve">
<path fill="#674089" d="M388.1,187.2"/>
<path fill="#674089" d="M358.9,202.2c-2.1-0.7-5.8-1-6.9,1.5c-1.1,2.6,2.4,4.8,4.3,5.8c0.2,0.1,0.5,0.2,0.7,0.3
	c-1.3,1-2.2,2.5-2.4,4.4c-0.2,1.3,1,2.9,2.5,2.6c2.9-0.7,5.4-2.1,7.3-4.4c5.5,7.2,10.9,15.2,18.3,20.4c6,4.2,15.8,3.6,20.1-2.8
	c4.6-6.9,2.6-15.1-4.6-19.1c-3.7-2.1-8.4-2.1-12.5-2.5l-19.3-2.1c0.5-1.9,0.6-3.8-0.1-5.8c-0.7-1.9-2.7-3.5-4.8-3.2
	C359.2,197.8,359,200.3,358.9,202.2z"/>
<path fill="#674089" d="M637.7,388.3c-0.8-6.7-6.7-10.4-12.6-10.2c-2.3-1.4-5.2-2.3-6.7-3c-8.6-4-16.1-10.2-22.5-17.1
	c-2.3-2.4-4.3-5.1-6.2-7.8c-6.2-10.3-9-22.2-11.9-34c-0.5-4.6-2.2-8.9-4.7-12.9c-1.7-2.8-4.1-5.1-6.5-7.3l0-0.1
	c-0.2-0.2-0.4-0.3-0.6-0.5c-0.4-0.4-0.8-0.7-1.2-1.1c-0.7-0.6-1.4-1.1-2.2-1.6c-21.3-14.5-51.7-3.9-62.1,21.3
	c-2.6,6.2-3.6,12.4-3.4,18.4c-0.9,10.8,1.6,21.5,7.5,31.3c0.2,0.3,0.3,0.5,0.5,0.8c7.7,15,23.6,26.6,40.3,28.4
	c13.5,3.1,28.4,3,41.3,2.5c10.5-0.4,20.9-2.1,31-4.5c2.9-0.7,5.7-1.4,7.7-3c1.3,3.1,2.9,6.3,5.9,7.1
	C635.9,396.5,638.2,392.3,637.7,388.3z"/>
<path fill="#674089" d="M506.1,451.2c-0.1-0.3-0.3-0.6-0.4-0.9c0.1-0.1,0.2-0.1,0.2-0.2c-1.5-5.3-2.7-10.7-3.7-16.2
	c-1.9-7.1-3.7-14.3-5.2-21.6c-2.8-14-3.1-28.3-4.9-42.4c-2.4-18.7-8.5-40.4-27.6-48.1c-1.1-0.5-2.3-0.8-3.5-1.1
	c-10.4-3.8-22.1-3-32.6,3.4c-3.8,2.3-6.8,5.2-8.9,8.4c-5.7,5.8-8.4,14.2-8.1,22.5c0.2,4.2,1.2,8,2.9,11.7c1.4,4.4,3.6,8.7,6.2,12.4
	c5.1,8.5,12.3,15.9,18.9,23.2c17.7,19.3,37.8,36.4,59.2,51.4c-2.6,5.6-6,14.3,1.5,16.3C508.9,472.2,507.5,455.5,506.1,451.2z"/>
<path fill="#8E5BB4" d="M564.1,264.1c-14.2-12.6-27.8-23-37.5-39.7c-10.2-17.6-20.3-36.8-22.4-57.4c-2.2-21.3,0-42.8-6.2-63.6
	c-3.6-12.1-14.4-22.5-26.1-24.6c-1-0.2-2-0.4-3-0.4c-62-3.1-72.1,77.4-78.1,122.3c-4,29.8-4.9,59.1-0.8,88.9
	c3.6,26.9,12.7,56.3,28.5,78.6c15.4,21.8,42.6,34.2,68,39.8c25.8,5.7,54,2.2,75.5-13.8c20.5-15.3,32.3-37.9,33.7-63.4
	C597.1,304.3,583.2,281,564.1,264.1z"/>
<path fill="#674089" d="M546.4,178.1c1.2-2.5,2.2-6.8-0.5-8.5c-2.9-1.8-6.2,2-7.7,4.1c-0.2,0.3-0.4,0.5-0.5,0.8
	c-1-1.7-2.6-3.1-4.9-3.7c-1.6-0.4-3.7,0.7-3.6,2.5c0.3,3.6,1.5,6.8,4,9.4c-9.6,5.3-20.1,10.4-27.6,18.4c-6.1,6.4-7,18.3-0.1,24.6
	c7.4,6.7,17.6,5.7,23.6-2.2c3.1-4,4-9.7,5.2-14.5l5.8-22.7c2.2,0.9,4.5,1.4,6.9,0.8c2.4-0.5,4.6-2.7,4.6-5.2
	C551.6,179.2,548.7,178.5,546.4,178.1z"/>
<path fill="#674089" d="M467.1,52c-0.7-0.8-1.9-1.1-3-0.6c-11.5,4.9-10,18.9-1.4,25.8c1.7,1.4,9.2,5.4,9.3,0.1c0-3.3-1-6.7-1.6-10
	c-0.8-4.6-1.6-9.2-2.5-13.9C467.8,52.7,467.5,52.3,467.1,52z"/>
<path fill="#674089" d="M501.4,61.9c1.2-0.3,2.4,0.2,3,1.2c6.6,10.9-4.2,22.1-16,23c-2.4,0.2-11.5-0.8-8-5.3c2.2-2.8,5.4-5.2,8-7.6
	c3.8-3.5,7.6-7,11.4-10.5C500.3,62.2,500.8,62,501.4,61.9z"/>
<g>
	<path fill="#674089" d="M481.4,117.9c-1.4-6.5-9-9.5-14.4-5.4c-1.6,1.2,0,3.8,1.5,2.6c3.8-2.9,8.8-1.1,9.9,3.6
		C478.9,120.6,481.9,119.8,481.4,117.9z"/>
	<path fill="#674089" d="M447.8,105.9c-1.3-5.9-8.1-8.5-12.9-4.9c-1.4,1,0,3.4,1.4,2.4c3.5-2.6,8-1,8.9,3.3
		C445.5,108.3,448.2,107.6,447.8,105.9z"/>
</g>
<g>
	<path fill="#8E5BB4" d="M562.5,266.1c-14.2-12.6-27.8-23-37.5-39.7c-10.2-17.6-20.3-36.8-22.4-57.4c-2.2-21.3,0-42.8-6.2-63.6
		c-3.6-12.1-14.4-22.5-26.1-24.6c-1-0.2-2-0.4-3-0.4c-62-3.1-72.1,77.4-78.1,122.3c-4,29.8-4.9,59.1-0.8,88.9
		c3.6,26.9,12.7,56.3,28.5,78.6c15.4,21.8,42.6,34.2,68,39.8c25.8,5.7,54,2.2,75.5-13.8c20.5-15.3,32.3-37.9,33.7-63.4
		C595.5,306.3,581.6,283,562.5,266.1z"/>
	<path fill="#674089" d="M565,266.3c-14.4-12.8-28.1-23.3-38-40.2c-10.4-17.8-20.6-37.3-22.7-58.1c-2.2-21.5,0-43.3-6.3-64.4
		c-3.7-12.3-14.6-22.7-26.4-24.9c-1-0.2-2-0.4-3-0.4c-11.5-0.6-21.2,1.7-29.5,6c0.3,0,0.6-0.1,0.9-0.1
		c-10.3,5.2-18.6,13.5-24.9,23.6c8.1,1.8,28.6,9.9,36.8,15.4c-16.6-11-22.9-15-21.4-22.5c2-10.2,10.4-15.3,21.4-18.3
		c6.1-0.8,12.3-0.6,20.7,4.2c20.9,11.9,24.8,34.6,23,55.1c-1.8,19.7-9.6,39.1-9.3,58.9c0.3,21,17.2,31.9,33.8,41.3
		c19.2,10.8,36.4,21.9,44,43.9c11.4,33,2.2,77.2-32.5,92.1c-23.6,10.1-50,11.2-73.7,3.3c-18.6-8.4-30.2-20.3-39.5-32.7
		c-10-13.4-15-28.2-20.1-45.4c-2.4-7.7-4.4-15.4-5.6-23.4c-1.8-7.9-2.4-16-3-24.1c-0.5-6.4-0.9-12.5-0.7-18.8
		c-1.5-16.7,0.5-34,3.4-50.3l-1.4-0.1c0,0.2-0.4,4.4-0.4,4.6c-0.3,3.6-1.5,9.2-2.1,13.7c-4.1,30.1-4.1,58.1-0.1,88.2
		c3.7,27.2,12.9,57,28.9,79.6c8.4,11.9,20.3,21,33.6,27.8c0.1-0.3,0.1-0.6,0.2-0.8c11.2,5.7,23.3,9.8,35.1,12.4
		c26.1,5.7,54.6,2.2,76.4-14c20.8-15.5,32.7-38.4,34.1-64.2C598.4,307.1,584.4,283.5,565,266.3z"/>
</g>
<path fill="#674089" d="M391.2,186.5"/>
<path fill="#A775D3" d="M430.3,292.6c14.9-9.2,32.1-13.1,48.7-13.4c12.2-0.2,27.3,3.5,34.3,17.2c7.5,14.4,2.1,34.5-7.3,46.1
	c-10.5,12.9-28,18.7-42.2,18.9c-15.5,0.2-31.5-6.9-42.8-19.6C406.8,325.8,415.4,301.8,430.3,292.6z"/>
<path fill="#674089" d="M449.6,305.4c1.8-1,3.8-1.4,5.8-1.4c1.5,0,3.2,0.4,4.1,1.8c0.9,1.5,0.3,3.6-0.9,4.9c-1.2,1.4-3.3,2-5,2
	c-1.8,0-3.7-0.7-5.1-2.1C446.8,308.9,447.9,306.3,449.6,305.4z"/>
<path fill="#674089" d="M605.2,293c-0.5-0.9-1.6-1.1-2.5-0.6c-0.4,4.6-2,9.1-4.6,13.2c-3.3,5.2-9.7,7.5-15.4,5.2
	c0,0-0.1,0.1-0.1,0.1c-0.4,0-0.8,0.1-1.2,0.5c-6.2,5.6,6.1,40.8,12.1,36.9C608,339.1,612,307.1,605.2,293z"/>
<g>
	<path fill="#674089" d="M462.7,154.4c-1-1.2-3.1-1.8-4.6-1c-0.1,0.1-0.2,0.1-0.3,0.2c-0.9,0.5-1.4,1.3-1.7,2.1
		c-1.1-0.4-2.4-0.4-3.4,0c-5.9,2-9.9,6.4-14.5,10.5c-6.3,5.7-13.6,9.3-20.7,13.6c-11.6,7.1-0.6,15.8,6.7,19.5
		c12.8,6.4,23.5-1.3,31.1-11.4c3.8-5.1,6.6-11.5,7.9-17.7C464.1,165.8,466,158.2,462.7,154.4z"/>
	<path fill="#E192E5" d="M458.9,154.5c-1-1.1-2.9-1.7-4.2-0.9c-0.1,0.1-0.2,0.1-0.3,0.2c-0.8,0.5-1.3,1.1-1.6,1.9
		c-1-0.4-2.2-0.4-3.1,0c-5.4,1.8-9.1,5.7-13.3,9.4c-5.8,5.1-12.5,8.3-19,12.3c-10.6,6.3-0.5,14.3,6.2,17.6
		c11.8,5.8,21.6-1.2,28.6-10.2c3.5-4.6,6.1-10.4,7.2-16C460.2,164.8,461.9,157.9,458.9,154.5z"/>
</g>
<g>
	<path fill="#8E5BB4" d="M463.1,158.8C463.1,158.8,463.1,158.8,463.1,158.8c6.9-15.4-3.3-33.5-18.8-41.3
		c-18.9-9.5-40.8-13.5-61.8-13.8c-15.5-0.2-34.7,3.6-43.4,17.7c-9.6,14.8-2.7,35.6,9.2,47.5c13.3,13.3,35.5,19.3,53.6,19.5
		c19.7,0.2,40-7.1,54.3-20.2c2.5-2.3,4.5-4.8,5.9-7.3C462.3,160.1,462.6,159.4,463.1,158.8z"/>
	<path fill="#674089" d="M463.7,155.3c-0.4-0.7-1.7-1.1-2.3-0.4c-1.6,2.1-2.1,5-3.3,7.3c-2,3.7-4.9,6.7-8.2,9.2
		c-15.3,10.9-35.7,15.7-53.9,13.9c-14.5-1.5-26.4-4.3-42.4-18.6c-17.9-19.5-12.7-38-4.2-46.9c14.7-14.6,48.8-13.8,68.3-9.6
		c12.1,2.6,23.7,6.9,34.7,12.4c-2.5-2.1-5.2-4-8.2-5.5c-18.9-9.5-40.8-13.5-61.8-13.8C367,103.1,347.8,107,339,121
		c-3.1,4.8-4.5,10.3-4.5,15.8c-0.3,11.8,5.5,24.3,13.7,32.6c13.3,13.3,35.5,19.3,53.6,19.5c19.7,0.2,40-7.1,54.3-20.2
		c1.9-1.7,3.5-3.6,4.7-5.5c0.9-1.1,1.7-2.3,2.5-3.5c0.5-0.7,0.6-1.5,0.6-2.2C464.1,156.7,464.1,155.9,463.7,155.3z"/>
	<path fill="#E192E5" d="M451.6,122.1c-2-1.4-6.4-3-8.1-3.8c-21.3-8.3-38.2-11.8-57.8-12.1c-14.5-0.2-32.3,3.4-40.5,16.5
		c-8.9,13.8-2.5,33.2,8.6,44.3c4.1,4.1,9.2,7.5,14.7,10.1c-13.9-11.5-22.7-38.3-8.8-51.3c11.6-15.4,45.8-15.8,59-13.4
		c18.5,3.5,29,10.3,31.7,11.4c0.8,0.5,1.9,1,2.4-0.1C453,123,452.4,122.5,451.6,122.1z"/>
	<path fill="#E192E5" d="M366.1,129.6c-3.3-3.2-7.5-5.4-11.7-6.6c-3.1-0.9-7.3-1-10,1.8c-2.9,2.9-2.8,8.2-1.1,11.6
		c1.9,3.8,6,6.4,9.7,7.5c4,1.1,8.6,0.5,12.3-1.8C370,139.2,369.3,132.9,366.1,129.6z"/>
	<path fill="#674089" d="M365.3,128.7c-2.7-2.4-6.1-4-9.6-5c-2.6-0.7-5.9-0.9-8,1c-2.2,2-2,5.8-0.6,8.3c1.6,2.8,5,4.8,8,5.6
		c3.2,0.9,6.9,0.6,9.9-1C368.8,135.7,368,131.1,365.3,128.7z"/>
	<path fill="#A775D3" d="M361.5,130.1c-1.5-1.3-3.3-2.2-5.2-2.7c-1.4-0.4-3.2-0.5-4.3,0.5c-1.2,1.1-1.1,3.1-0.3,4.5
		c0.9,1.5,2.7,2.6,4.3,3c1.8,0.5,3.8,0.3,5.4-0.5C363.3,133.9,362.9,131.4,361.5,130.1z"/>
	<path fill="#E192E5" d="M418.1,139.2c3.6-2,7.8-2.8,11.9-2.9c3,0,6.6,0.8,8.3,3.7c1.8,3.1,0.5,7.5-1.8,10c-2.5,2.8-6.8,4-10.3,4.1
		c-3.8,0-7.7-1.5-10.4-4.2C412.4,146.4,414.5,141.2,418.1,139.2z"/>
	<path fill="#674089" d="M419.4,136.6c3-1.6,6.4-2.3,9.7-2.4c2.4,0,5.4,0.6,6.8,3c1.5,2.5,0.4,6.1-1.4,8.1c-2.1,2.3-5.6,3.3-8.4,3.3
		c-3.1,0-6.3-1.2-8.5-3.5C414.7,142.5,416.5,138.2,419.4,136.6z"/>
	<g>
		<g>
			<g>
				<path fill="#A775D3" d="M422.9,139.1c1.6-0.9,3.5-1.2,5.2-1.3c1.3,0,2.9,0.3,3.7,1.6c0.8,1.4,0.2,3.3-0.8,4.4
					c-1.1,1.2-3,1.8-4.5,1.8c-1.7,0-3.4-0.7-4.6-1.9C420.4,142.3,421.3,140,422.9,139.1z"/>
			</g>
		</g>
	</g>
</g>
<g>
	<path fill="#674089" d="M482.8,116.9c-1.4-6.5-9-9.5-14.4-5.4c-1.6,1.2,0,3.8,1.5,2.6c3.8-2.9,8.8-1.1,9.9,3.6
		C480.3,119.7,483.2,118.9,482.8,116.9z"/>
	<path fill="#674089" d="M449.2,104.9c-1.3-5.9-8.1-8.5-12.9-4.9c-1.4,1,0,3.4,1.4,2.4c3.5-2.6,8-1,8.9,3.3
		C446.9,107.4,449.5,106.7,449.2,104.9z"/>
</g>
<g>
	<path fill="#674089" d="M475.3,157.5c-0.7-5.3-3.9-9.7-8.6-12.2c-1.9-1-3.2,2.1-1.3,3.1c3.6,1.9,6,5.5,6.5,9.6
		C472.2,160.2,475.6,159.7,475.3,157.5z"/>
	<path fill="#674089" d="M445.5,203.8c-7,4.7-15.7,4.7-22.8,0c-1.8-1.2-3.5,1.7-1.7,2.9c8,5.4,18.2,5.4,26.2,0
		C449,205.5,447.3,202.6,445.5,203.8z"/>
</g>
<g>
	<g>
		<path fill="#674089" d="M433.1,243c-5,3.1-12.2,5.5-12.8-3.4c0-4.1,1.5-7.2,6-5.7c2,0.6,3.7,1.5,5.8,1.8c0.2,0.1,0.4,0.1,0.5,0.1
			c0.2,0.1,0.4,0.1,0.6,0.1c0.7,0.1,1.2-0.5,1.4-1.1c0,0,0,0,0,0c0.1-0.2,0.1-0.5,0.1-0.8c-0.4-2.2-2.1-3.8-3.1-4.8
			c-1.1-1.1-2.9-2.6-4.4-3.4c-2.5-1.4-5.1-2.1-7.8-2.6c-4.6,0.1-8.5-0.4-11.3,3.8c-3.2,4.7-2.7,18.9-1.3,22.2c0.8,2,2.1,4.9,4.9,6.1
			c3.6,1.6,7.5,0.2,9.9-0.4c4.8-1.2,13.4-5,13.3-10.9C434.9,243.1,433.9,242.5,433.1,243z"/>
		<path fill="#674089" d="M443.1,232.9h-2.2c-2.5,0-4.5,2-4.5,4.5v4.4c0,2.5,2,4.5,4.5,4.5h2.2c2.5,0,4.5-2,4.5-4.5v-4.4
			C447.6,234.9,445.6,232.9,443.1,232.9z"/>
		<path fill="#674089" d="M476,226.9c-2.8-4.2-6.7-3.7-11.3-3.8c-2.7,0.4-5.2,1.1-7.8,2.6c-1.5,0.9-3.3,2.3-4.4,3.4
			c-1,1-2.8,2.6-3.1,4.8c0,0.3,0,0.5,0.1,0.8c0,0,0,0,0,0c0.2,0.6,0.7,1.2,1.4,1.1c0.2,0,0.4-0.1,0.6-0.1c0.2,0,0.4-0.1,0.5-0.1
			c2.1-0.3,3.8-1.2,5.7-1.8c4.5-1.4,6,1.6,6,5.7c-0.6,8.9-7.8,6.5-12.8,3.4c-0.8-0.5-1.7,0.1-1.8,1c-0.2,5.8,8.5,9.7,13.2,10.9
			c2.4,0.6,6.3,1.9,9.9,0.4c2.8-1.2,4.1-4.1,4.9-6.1C478.6,245.9,479.2,231.6,476,226.9z"/>
	</g>
	<g>
		<path fill="#A7C3FE" d="M431.2,239.4c-5,3.1-12.2,5.5-12.8-3.4c0-4.1,1.5-7.2,6-5.7c2,0.6,3.7,1.5,5.8,1.8
			c0.2,0.1,0.4,0.1,0.5,0.1c0.2,0.1,0.4,0.1,0.6,0.1c0.7,0.1,1.2-0.5,1.4-1.1c0,0,0,0,0,0c0.1-0.2,0.1-0.5,0.1-0.8
			c-0.4-2.2-2.1-3.8-3.1-4.8c-1.1-1.1-2.9-2.6-4.4-3.4c-2.5-1.4-5.1-2.1-7.8-2.6c-4.6,0.1-8.5-0.4-11.3,3.8
			c-3.2,4.7-2.7,18.9-1.3,22.2c0.8,2,2.1,4.9,4.9,6.1c3.6,1.6,7.5,0.2,9.9-0.4c4.8-1.2,13.4-5,13.3-10.9
			C432.9,239.5,432,238.9,431.2,239.4z"/>
		<path fill="#A7C3FE" d="M441.2,229.3H439c-2.5,0-4.5,2-4.5,4.5v4.4c0,2.5,2,4.5,4.5,4.5h2.2c2.5,0,4.5-2,4.5-4.5v-4.4
			C445.7,231.3,443.7,229.3,441.2,229.3z"/>
		<path fill="#A7C3FE" d="M474,223.3c-2.8-4.2-6.7-3.7-11.3-3.8c-2.7,0.4-5.2,1.1-7.8,2.6c-1.5,0.9-3.3,2.3-4.4,3.4
			c-1,1-2.8,2.6-3.1,4.8c0,0.3,0,0.5,0.1,0.8c0,0,0,0,0,0c0.2,0.6,0.7,1.2,1.4,1.1c0.2,0,0.4-0.1,0.6-0.1c0.2,0,0.4-0.1,0.5-0.1
			c2.1-0.3,3.8-1.2,5.7-1.8c4.5-1.4,6,1.6,6,5.7c-0.6,8.9-7.8,6.5-12.8,3.4c-0.8-0.5-1.7,0.1-1.8,1c-0.2,5.8,8.5,9.7,13.2,10.9
			c2.4,0.6,6.3,1.9,9.9,0.4c2.8-1.2,4.1-4.1,4.9-6.1C476.7,242.3,477.2,228,474,223.3z"/>
	</g>
</g>
</svg>
