<?xml version="1.0" encoding="utf-8"?>
<!-- Generator: Adobe Illustrator 18.0.0, SVG Export Plug-In . SVG Version: 6.00 Build 0)  -->
<!DOCTYPE svg PUBLIC "-//W3C//DTD SVG 1.1//EN" "http://www.w3.org/Graphics/SVG/1.1/DTD/svg11.dtd">
<svg version="1.1" id="Layer_1" xmlns="http://www.w3.org/2000/svg" xmlns:xlink="http://www.w3.org/1999/xlink" x="0px" y="0px"
	 viewBox="0 0 960 560" enable-background="new 0 0 960 560" xml:space="preserve">
<path fill="#8E5BB4" d="M453.8,158.4C453.8,158.4,453.8,158.4,453.8,158.4c6.6-15.4-3.1-33.6-18-41.3c-18.2-9.5-39.1-13.5-59.2-13.8
	c-14.9-0.2-33.2,3.6-41.7,17.7c-9.2,14.8-2.6,35.6,8.9,47.6c12.7,13.3,34.1,19.3,51.4,19.5c18.9,0.2,38.3-7.1,52-20.3
	c2.4-2.3,4.3-4.8,5.7-7.4C453,159.7,453.3,159,453.8,158.4z"/>
<path fill="#674089" d="M354,201.8c-2.1-0.7-5.6-1-6.6,1.5c-1.1,2.6,2.3,4.8,4.1,5.8c0.2,0.1,0.5,0.2,0.7,0.3
	c-1.2,1-2.1,2.5-2.3,4.4c-0.1,1.3,1,2.9,2.4,2.6c2.8-0.7,5.2-2.1,7-4.4c5.3,7.2,10.4,15.2,17.6,20.4c5.7,4.2,15.2,3.6,19.3-2.8
	c4.4-6.9,2.5-15.1-4.4-19.1c-3.5-2.1-8.1-2.1-12-2.5l-18.5-2.1c0.5-1.9,0.6-3.8-0.1-5.8c-0.7-1.9-2.6-3.5-4.6-3.2
	C354.2,197.5,354,199.9,354,201.8z"/>
<path fill="#674089" d="M621.2,388.1c-0.8-6.7-6.4-10.4-12.1-10.3c-2.2-1.4-5-2.3-6.5-3c-8.2-4-15.4-10.2-21.6-17.2
	c-2.2-2.4-4.1-5.1-5.9-7.8c-6-10.3-8.6-22.3-11.4-34.1c-0.4-4.6-2.2-8.9-4.5-12.9c-1.6-2.8-3.9-5.1-6.2-7.3l0-0.1
	c-0.2-0.2-0.4-0.3-0.6-0.5c-0.4-0.4-0.8-0.7-1.2-1.1c-0.7-0.6-1.4-1.1-2.1-1.6c-20.4-14.5-49.5-3.9-59.5,21.4
	c-2.5,6.2-3.5,12.4-3.3,18.4c-0.9,10.8,1.5,21.6,7.2,31.3c0.2,0.3,0.3,0.5,0.5,0.8c7.4,15,22.6,26.7,38.6,28.5
	c12.9,3.1,27.2,3,39.6,2.5c10-0.4,20-2.1,29.8-4.5c2.8-0.7,5.5-1.4,7.4-3c1.2,3.1,2.8,6.3,5.7,7.2
	C619.5,396.3,621.7,392.1,621.2,388.1z"/>
<path fill="#674089" d="M495,451c-0.1-0.3-0.3-0.6-0.4-0.9c0.1-0.1,0.2-0.1,0.2-0.2c-1.5-5.3-2.6-10.7-3.5-16.2
	c-1.9-7.2-3.6-14.3-5-21.6c-2.7-14-3-28.3-4.7-42.4c-2.3-18.8-8.2-40.4-26.5-48.2c-1.1-0.5-2.2-0.8-3.3-1.1
	c-9.9-3.8-21.2-3-31.3,3.4c-3.7,2.3-6.5,5.2-8.5,8.4c-5.5,5.8-8.1,14.2-7.8,22.5c0.2,4.2,1.2,8.1,2.8,11.7c1.4,4.4,3.5,8.7,6,12.5
	c4.9,8.5,11.8,15.9,18.1,23.2c17,19.3,36.2,36.4,56.8,51.4c-2.5,5.6-5.8,14.3,1.4,16.3C497.7,472.1,496.4,455.3,495,451z"/>
<path fill="#8E5BB4" d="M550.7,263.8c-13.6-12.6-26.6-23-36-39.7c-9.8-17.6-19.5-36.9-21.5-57.4c-2.1-21.3,0-42.8-6-63.6
	c-3.5-12.1-13.8-22.5-25-24.6c-0.9-0.2-1.9-0.4-2.9-0.4c-59.5-3.1-69.1,77.5-74.9,122.4c-3.9,29.8-4.7,59.1-0.8,89
	c3.5,26.9,12.2,56.4,27.3,78.7c14.8,21.8,40.8,34.2,65.2,39.8c24.8,5.7,51.7,2.2,72.4-13.8c19.7-15.3,31-37.9,32.3-63.5
	C582.3,304,569,280.7,550.7,263.8z"/>
<path fill="#674089" d="M533.7,177.7c1.1-2.5,2.2-6.8-0.5-8.5c-2.8-1.8-6,2-7.4,4.1c-0.2,0.3-0.3,0.5-0.5,0.8
	c-1-1.7-2.5-3.1-4.7-3.7c-1.5-0.4-3.5,0.7-3.4,2.5c0.3,3.6,1.5,6.9,3.8,9.5c-9.2,5.4-19.2,10.4-26.5,18.4
	c-5.8,6.4-6.7,18.3-0.1,24.6c7.1,6.7,16.9,5.7,22.7-2.2c3-4,3.8-9.7,5-14.5l5.6-22.8c2.1,0.9,4.3,1.4,6.6,0.8
	c2.3-0.5,4.4-2.7,4.4-5.2C538.7,178.8,535.9,178.1,533.7,177.7z"/>
<path fill="#674089" d="M457.7,51.5c-0.7-0.8-1.8-1.1-2.9-0.6c-11,4.9-9.6,19-1.4,25.8c1.7,1.4,8.9,5.4,8.9,0.1c0-3.3-1-6.7-1.5-10
	c-0.8-4.6-1.6-9.2-2.4-13.9C458.3,52.2,458.1,51.8,457.7,51.5z"/>
<path fill="#674089" d="M490.5,61.4c1.1-0.3,2.3,0.2,2.9,1.2c6.3,10.9-4,22.1-15.4,23c-2.3,0.2-11-0.8-7.7-5.3
	c2.1-2.8,5.2-5.2,7.7-7.6c3.6-3.5,7.3-7,10.9-10.5C489.5,61.7,490,61.5,490.5,61.4z"/>
<g>
	<path fill="#674089" d="M471.4,117.4c-1.4-6.5-8.6-9.5-13.8-5.4c-1.5,1.2,0,3.8,1.5,2.6c3.7-2.9,8.5-1.1,9.5,3.6
		C469,120.2,471.8,119.4,471.4,117.4z"/>
	<path fill="#674089" d="M439.2,105.4c-1.2-5.9-7.7-8.5-12.4-4.9c-1.3,1,0,3.4,1.3,2.4c3.3-2.6,7.6-1,8.5,3.3
		C437,107.9,439.5,107.2,439.2,105.4z"/>
</g>
<g>
	<path fill="#674089" d="M549.2,265.7c-13.6-12.6-26.6-23-36-39.7c-9.8-17.6-19.5-36.9-21.5-57.4c-2.1-21.3,0-42.8-6-63.6
		c-3.5-12.1-13.8-22.5-25-24.6c-0.9-0.2-1.9-0.4-2.9-0.4c-59.5-3.1-69.1,77.5-74.9,122.4c-3.9,29.8-4.7,59.1-0.8,89
		c3.5,26.9,12.2,56.4,27.3,78.7c14.8,21.8,40.8,34.2,65.2,39.8c24.8,5.7,51.7,2.2,72.4-13.8c19.7-15.3,31-37.9,32.3-63.5
		C580.7,306,567.5,282.7,549.2,265.7z"/>
	<path fill="#674089" d="M551.6,266c-13.8-12.8-27-23.3-36.4-40.2c-9.9-17.9-19.7-37.3-21.8-58.2c-2.1-21.6,0-43.3-6-64.4
		c-3.5-12.3-14-22.8-25.3-24.9c-0.9-0.2-1.9-0.4-2.9-0.4c-11-0.6-20.3,1.7-28.3,6c0.3,0,0.6-0.1,0.9-0.1
		c-9.9,5.2-17.9,13.5-23.9,23.6c7.7,1.8,27.4,9.9,35.3,15.4c-15.9-11-21.9-15-20.6-22.5C424.5,90,432.6,85,443.2,82
		c5.9-0.8,11.8-0.6,19.9,4.2c20,11.9,23.8,34.6,22,55.2c-1.7,19.7-9.2,39.1-8.9,58.9c0.3,21,16.5,32,32.4,41.4
		c18.4,10.8,35,22,42.2,43.9c10.9,33,2.1,77.3-31.2,92.2c-22.7,10.2-47.9,11.2-70.7,3.3c-17.8-8.4-29-20.3-37.9-32.7
		c-9.6-13.4-14.4-28.3-19.2-45.4c-2.3-7.7-4.2-15.4-5.3-23.4c-1.7-7.9-2.3-16-2.9-24.2c-0.4-6.4-0.9-12.6-0.7-18.8
		c-1.5-16.7,0.5-34,3.3-50.3l-1.3-0.1c0,0.2-0.4,4.4-0.4,4.6c-0.3,3.6-1.4,9.2-2,13.7c-3.9,30.2-4,58.1-0.1,88.3
		c3.5,27.2,12.4,57.1,27.7,79.7c8.1,11.9,19.5,21.1,32.2,27.9c0.1-0.3,0.1-0.6,0.2-0.8c10.7,5.7,22.4,9.8,33.7,12.4
		c25.1,5.7,52.4,2.2,73.3-14c19.9-15.5,31.4-38.4,32.7-64.3C583.5,306.8,570.1,283.2,551.6,266z"/>
</g>
<path fill="#674089" d="M384.8,186.1"/>
<path fill="#674089" d="M590.1,292.7c-0.4-1-1.5-1.1-2.4-0.6c-0.4,4.6-1.9,9.1-4.4,13.2c-3.1,5.2-9.3,7.5-14.7,5.2
	c0,0-0.1,0.1-0.1,0.1c-0.4,0-0.8,0.1-1.1,0.5c-5.9,5.6,5.9,40.8,11.6,37C592.8,338.9,596.6,306.8,590.1,292.7z"/>
</svg>
