<?xml version="1.0" encoding="utf-8"?>
<!-- Generator: Adobe Illustrator 18.0.0, SVG Export Plug-In . SVG Version: 6.00 Build 0)  -->
<!DOCTYPE svg PUBLIC "-//W3C//DTD SVG 1.1//EN" "http://www.w3.org/Graphics/SVG/1.1/DTD/svg11.dtd">
<svg version="1.1" id="Layer_1" xmlns="http://www.w3.org/2000/svg" xmlns:xlink="http://www.w3.org/1999/xlink" x="0px" y="0px"
	 viewBox="0 0 960 560" enable-background="new 0 0 960 560" xml:space="preserve">
<path fill="#8E5BB4" d="M509.5,112.7c-21.1-8-44.6-9.9-66.9-7.9c-16.4,1.4-36.3,7.6-44.1,23.5c-8.5,16.7,1,38,14.9,49.3
	c15.5,12.6,39.7,16.6,58.8,14.8c20.9-1.9,41.5-11.9,55.3-27.3C544.9,145.7,530.5,120.6,509.5,112.7z"/>
<path fill="#674089" d="M533,200c-5.1-40.5-12.3-109.1-48.9-120.4c0,0,0.1,0,0.1,0c-0.2,0-0.4-0.1-0.6-0.1c-4.5-2-9.5-2-14.4-2
	c-4.1,0-9.6,0-13.9,1.5c-5.5,1.2-10.4,3.5-14.8,6.7c-0.7,0.5-1.3,0.9-1.9,1.4c-0.3,0.2-0.5,0.4-0.8,0.7c-0.8,0.7-1.7,1.4-2.5,2.2
	c0,0-0.1,0.1-0.1,0.1c-6.5,6.2-11.7,14.6-15.9,24.1c-0.1,0.2-0.2,0.4-0.3,0.6c-0.4,1-0.9,2.1-1.3,3.1c-0.3,0.7-0.5,1.3-0.8,2l0,0
	c-9.9,25.4-13.8,57.3-16.9,80.2c-0.4,6.2-1.4,11.9-2.7,17.3c-6,22.3-18.7,39.6-25.4,62c-3.1,9.5-5.1,19.9-5.1,32
	c0,29.7,17.3,66.9,41.2,83.5c15,10.9,31.4,16.8,50.5,19.3l5.4,0.1l5.2,0l4.8,0l5-0.1c17.7-2.5,32.9-8.4,46.8-19.3
	c22.2-16.6,38.2-53.8,38.2-83.5C563.8,264.6,535.5,242.9,533,200z"/>
<path fill="#674089" d="M484.6,51.2c1-0.7,2.3-0.8,3.3,0c10.2,7.6,4.5,21.9-6.2,27.2c-2.2,1.1-10.9,3.6-9.4-1.9
	c0.9-3.4,3-6.8,4.5-10.1c2.2-4.7,4.4-9.3,6.6-14C483.7,51.9,484.1,51.5,484.6,51.2z"/>
<path fill="#674089" d="M452.2,52c-0.9-0.8-2.2-0.9-3.2-0.2c-10.4,7-5.4,21.5,4.9,27.4c2.1,1.2,10.7,4.2,9.4-1.3
	c-0.8-3.5-2.7-7-4-10.3c-2-4.8-3.9-9.5-5.9-14.3C453,52.8,452.6,52.3,452.2,52z"/>
<path fill="#674089" d="M563.6,183.2c1.4-2.3,2.8-6.5,0.1-8.5c-2.8-2-6.3,1.6-8,3.5c-0.2,0.3-0.4,0.5-0.6,0.8
	c-0.9-1.8-2.3-3.2-4.6-4c-1.5-0.5-3.7,0.4-3.7,2.2c0,3.6,1,6.9,3.2,9.7c-10,4.6-20.7,8.8-28.9,16.1c-6.5,5.9-8.4,17.7-2,24.4
	c6.9,7.2,17,7,23.7-0.3c3.4-3.8,4.7-9.4,6.3-14l7.6-22.2c2.1,1.1,4.3,1.8,6.8,1.4c2.4-0.4,4.8-2.3,5-4.8
	C568.7,184.7,565.9,183.8,563.6,183.2z"/>
<path fill="#674089" d="M375.4,175.3c-0.6-2.6-0.7-6.9,2.4-7.9c3.2-1,5.6,3.4,6.6,5.7c0.1,0.3,0.2,0.6,0.3,0.9
	c1.4-1.4,3.1-2.3,5.5-2.3c1.6,0,3.4,1.5,2.9,3.2c-1,3.3-3,6.1-5.9,8c8.1,7.3,17.1,14.5,22.7,23.8c4.5,7.5,2.9,18.9-5.2,23.2
	c-8.6,4.6-18.2,1.2-22.4-7.6c-2.1-4.5-1.8-10.1-1.9-14.9l-0.7-22.8c-2.4,0.3-4.6,0.3-6.9-0.8c-2.2-1.1-3.9-3.6-3.3-6
	C370.1,175.1,373.1,175.1,375.4,175.3z"/>
<path fill="#674089" d="M484.6,452.2c0-0.4,0.1-0.7,0.2-0.9c-0.1-0.1-0.2-0.1-0.3-0.2c0-5.5-0.5-11-1-16.5
	c-0.2-7.4-0.5-14.7-1.1-22.1c-1.3-14.1-4.9-27.9-7.1-41.9c-2.9-18.6-3.1-41,12.5-53.5c0.9-0.7,1.9-1.4,2.9-2
	c8.6-6.5,19.8-8.7,31.3-5.5c4.2,1.2,7.7,3.2,10.6,5.7c6.9,4,11.7,11.3,13.7,19.4c1,4,1.1,8,0.5,12c-0.1,4.6-1,9.3-2.4,13.6
	c-2.4,9.5-7,18.5-11.2,27.3c-11.2,23.2-25.2,44.9-41,65c4,4.7,9.5,12.1,3.1,16C487.7,473.2,484.4,456.7,484.6,452.2z"/>
<path fill="#674089" d="M369,424.5c0.3-0.2,0.6-0.4,0.8-0.7c0.1,0,0.2,0.1,0.3,0.1c5-2.9,10.2-5.4,15.6-7.8
	c6.8-3.8,13.7-7.4,20.7-10.8c13.5-6.4,28-10.6,41.9-16.2c18.5-7.4,39-19.1,42.1-39.2c0.2-1.2,0.2-2.4,0.2-3.6
	c1.3-10.9-2.6-21.8-11.7-30c-3.3-3-7-5-10.8-6.2c-7.3-3.9-16.6-4.1-25-1.6c-4.2,1.3-7.9,3.4-11.2,5.9c-4.2,2.6-8,5.8-11.1,9.3
	c-7.4,7.2-13.1,15.9-18.9,24.2c-15.2,22-27.5,45.7-37.4,70.1c-6.4-1-16.1-1.8-16.2,5.8C348.2,432.9,364.9,427,369,424.5z"/>
<path fill="#E192E5" d="M438.8,289.5c9.7,6.3,15.4-2.3,34.9-1.7c14.3,0,29.4,10,35,1.1c9.9-8.4,4.8-22.3-2.8-29.9
	c-8.4-8.5-25.6-12.6-37.1-12.8c-12.6-0.2-25.5,4.4-34.7,12.6C422.5,269.3,426.7,283.4,438.8,289.5z"/>
<path fill="#674089" d="M485.6,279.6c-0.4-0.9-1.4-1.1-2.3-0.8c-0.7,4.3-2.5,8.4-5.2,12.1c-3.5,4.7-9.7,6.4-14.8,3.8
	c0,0-0.1,0.1-0.1,0.1c-0.4,0-0.8,0.1-1.1,0.4c-6.2,4.8,2.8,38.8,8.8,35.6C485,323.2,491.1,293.3,485.6,279.6z"/>
<g>
	<path fill="#8E5BB4" d="M484.7,275.3c-0.5-0.9-1.6-1.1-2.5-0.6c-0.4,4.6-2,9.1-4.5,13.2c-3.3,5.2-9.7,7.5-15.3,5.2
		c0,0,0,0.1-0.1,0.1c0.3,0.3,0.5,0.5,0.8,0.8c0.3,0.2,1.8,1.4,1.7,1.4c0.4,0.3,0.8,0.5,1.1,0.8c0.1,0,0.1,0.1,0.2,0.2
		c0.6,0.1,1.3,0.4,1.8,0.6c3.3,0.2,6.7-1.2,9-3.9c2.7-3.2,4.6-6.8,5.6-10.7c0.8-0.3,1.8,0,2,0.9c3.9,12.6-3.2,38.3-15.9,45.2
		c1.6,2,3.2,3,4.4,2.2C487.5,321.3,491.5,289.3,484.7,275.3z"/>
</g>
</svg>
