<?xml version="1.0" encoding="utf-8"?>
<!-- Generator: Adobe Illustrator 18.0.0, SVG Export Plug-In . SVG Version: 6.00 Build 0)  -->
<!DOCTYPE svg PUBLIC "-//W3C//DTD SVG 1.1//EN" "http://www.w3.org/Graphics/SVG/1.1/DTD/svg11.dtd">
<svg version="1.1" id="Layer_1" xmlns="http://www.w3.org/2000/svg" xmlns:xlink="http://www.w3.org/1999/xlink" x="0px" y="0px"
	 viewBox="0 0 960 560" enable-background="new 0 0 960 560" xml:space="preserve">
<path fill="#8E5BB4" d="M473.4,158.4C473.4,158.4,473.4,158.4,473.4,158.4c-6.6-15.4,3.1-33.6,17.8-41.3
	c17.9-9.5,38.5-13.5,58.4-13.8c14.7-0.2,32.8,3.6,41.1,17.7c9,14.8,2.5,35.6-8.7,47.6c-12.5,13.3-33.6,19.3-50.7,19.5
	c-18.6,0.2-37.8-7.1-51.3-20.3c-2.4-2.3-4.2-4.8-5.6-7.4C474.1,159.7,473.8,159,473.4,158.4z"/>
<path fill="#674089" d="M571.8,201.8c2-0.7,5.5-1,6.5,1.5c1.1,2.6-2.3,4.8-4.1,5.8c-0.2,0.1-0.5,0.2-0.7,0.3c1.2,1,2.1,2.5,2.3,4.4
	c0.1,1.3-0.9,2.9-2.4,2.6c-2.8-0.7-5.1-2.1-6.9-4.4c-5.2,7.2-10.3,15.2-17.3,20.4c-5.6,4.2-15,3.6-19-2.8
	c-4.4-6.9-2.4-15.1,4.3-19.1c3.5-2.1,8-2.1,11.8-2.5l18.3-2.1c-0.4-1.9-0.6-3.8,0.1-5.8c0.7-1.9,2.6-3.5,4.5-3.2
	C571.6,197.5,571.8,199.9,571.8,201.8z"/>
<path fill="#674089" d="M308.2,388.1c0.8-6.7,6.4-10.4,11.9-10.3c2.2-1.4,5-2.3,6.4-3c8.1-4,15.2-10.2,21.3-17.2
	c2.1-2.4,4.1-5.1,5.8-7.8c5.9-10.3,8.5-22.3,11.3-34.1c0.4-4.6,2.1-8.9,4.4-12.9c1.6-2.8,3.8-5.1,6.2-7.3l0-0.1
	c0.2-0.2,0.4-0.3,0.6-0.5c0.4-0.4,0.8-0.7,1.1-1.1c0.7-0.6,1.4-1.1,2.1-1.6c20.1-14.5,48.9-3.9,58.7,21.4c2.4,6.2,3.4,12.4,3.2,18.4
	c0.9,10.8-1.5,21.6-7.1,31.3c-0.2,0.3-0.3,0.5-0.5,0.8c-7.3,15-22.3,26.7-38.1,28.5c-12.7,3.1-26.9,3-39,2.5
	c-9.9-0.4-19.7-2.1-29.4-4.5c-2.8-0.7-5.4-1.4-7.3-3c-1.2,3.1-2.7,6.3-5.6,7.2C309.9,396.3,307.7,392.1,308.2,388.1z"/>
<path fill="#674089" d="M432.7,451c0.1-0.3,0.3-0.6,0.4-0.9c-0.1-0.1-0.1-0.1-0.2-0.2c1.4-5.3,2.5-10.7,3.5-16.2
	c1.8-7.2,3.5-14.3,4.9-21.6c2.6-14,2.9-28.3,4.7-42.4c2.3-18.8,8.1-40.4,26.1-48.2c1.1-0.5,2.2-0.8,3.3-1.1c9.8-3.8,20.9-3,30.8,3.4
	c3.6,2.3,6.4,5.2,8.4,8.4c5.4,5.8,8,14.2,7.7,22.5c-0.2,4.2-1.2,8.1-2.7,11.7c-1.4,4.4-3.4,8.7-5.9,12.5
	c-4.8,8.5-11.6,15.9-17.9,23.2c-16.7,19.3-35.8,36.4-56,51.4c2.5,5.6,5.7,14.3-1.4,16.3C430,472.1,431.4,455.3,432.7,451z"/>
<path fill="#8E5BB4" d="M377.8,263.8c13.4-12.6,26.3-23,35.5-39.7c9.7-17.6,19.2-36.9,21.2-57.4c2.1-21.3,0-42.8,5.9-63.6
	c3.4-12.1,13.6-22.5,24.7-24.6c0.9-0.2,1.8-0.4,2.8-0.4c58.7-3.1,68.2,77.5,73.9,122.4c3.8,29.8,4.6,59.1,0.8,89
	c-3.4,26.9-12,56.4-27,78.7c-14.6,21.8-40.3,34.2-64.3,39.8c-24.4,5.7-51,2.2-71.4-13.8c-19.4-15.3-30.6-37.9-31.9-63.5
	C346.6,304,359.7,280.7,377.8,263.8z"/>
<path fill="#674089" d="M394.5,177.7c-1.1-2.5-2.1-6.8,0.5-8.5c2.8-1.8,5.9,2,7.3,4.1c0.2,0.3,0.3,0.5,0.5,0.8
	c1-1.7,2.4-3.1,4.6-3.7c1.5-0.4,3.5,0.7,3.4,2.5c-0.3,3.6-1.5,6.9-3.8,9.5c9.1,5.4,19,10.4,26.1,18.4c5.8,6.4,6.7,18.3,0.1,24.6
	c-7,6.7-16.6,5.7-22.4-2.2c-2.9-4-3.8-9.7-4.9-14.5l-5.5-22.8c-2.1,0.9-4.2,1.4-6.5,0.8c-2.2-0.5-4.4-2.7-4.4-5.2
	C389.6,178.8,392.3,178.1,394.5,177.7z"/>
<path fill="#674089" d="M469.5,51.5c0.7-0.8,1.8-1.1,2.9-0.6c10.9,4.9,9.4,19,1.4,25.8c-1.6,1.4-8.7,5.4-8.8,0.1
	c0-3.3,0.9-6.7,1.5-10c0.8-4.6,1.6-9.2,2.3-13.9C468.9,52.2,469.2,51.8,469.5,51.5z"/>
<path fill="#674089" d="M437.1,61.4c-1.1-0.3-2.3,0.2-2.9,1.2c-6.2,10.9,3.9,22.1,15.2,23c2.3,0.2,10.9-0.8,7.6-5.3
	c-2.1-2.8-5.1-5.2-7.6-7.6c-3.6-3.5-7.2-7-10.8-10.5C438.2,61.7,437.6,61.5,437.1,61.4z"/>
<g>
	<path fill="#674089" d="M456,117.4c1.4-6.5,8.5-9.5,13.6-5.4c1.5,1.2,0,3.8-1.5,2.6c-3.6-2.9-8.4-1.1-9.3,3.6
		C458.4,120.2,455.6,119.4,456,117.4z"/>
	<path fill="#674089" d="M487.8,105.4c1.2-5.9,7.6-8.5,12.2-4.9c1.3,1,0,3.4-1.3,2.4c-3.3-2.6-7.5-1-8.4,3.3
		C489.9,107.9,487.4,107.2,487.8,105.4z"/>
</g>
<g>
	<path fill="#674089" d="M379.3,265.7c13.4-12.6,26.3-23,35.5-39.7c9.7-17.6,19.2-36.9,21.2-57.4c2.1-21.3,0-42.8,5.9-63.6
		c3.4-12.1,13.6-22.5,24.7-24.6c0.9-0.2,1.8-0.4,2.8-0.4c58.7-3.1,68.2,77.5,73.9,122.4c3.8,29.8,4.6,59.1,0.8,89
		c-3.4,26.9-12,56.4-27,78.7c-14.6,21.8-40.3,34.2-64.3,39.8c-24.4,5.7-51,2.2-71.4-13.8c-19.4-15.3-30.6-37.9-31.9-63.5
		C348.1,306,361.2,282.7,379.3,265.7z"/>
	<path fill="#674089" d="M376.9,266c13.6-12.8,26.6-23.3,35.9-40.2c9.8-17.9,19.4-37.3,21.5-58.2c2.1-21.6,0-43.3,6-64.4
		c3.5-12.3,13.8-22.8,25-24.9c0.9-0.2,1.9-0.4,2.9-0.4c10.9-0.6,20.1,1.7,27.9,6c-0.3,0-0.6-0.1-0.9-0.1
		c9.8,5.2,17.6,13.5,23.5,23.6c-7.6,1.8-27,9.9-34.8,15.4c15.7-11,21.6-15,20.3-22.5C502.3,90,494.3,85,483.8,82
		c-5.8-0.8-11.6-0.6-19.6,4.2c-19.7,11.9-23.5,34.6-21.7,55.2c1.7,19.7,9,39.1,8.8,58.9c-0.3,21-16.3,32-32,41.4
		c-18.2,10.8-34.5,22-41.6,43.9c-10.8,33-2.1,77.3,30.8,92.2c22.4,10.2,47.3,11.2,69.7,3.3c17.6-8.4,28.6-20.3,37.4-32.7
		c9.5-13.4,14.2-28.3,19-45.4c2.3-7.7,4.2-15.4,5.3-23.4c1.7-7.9,2.3-16,2.8-24.2c0.4-6.4,0.9-12.6,0.7-18.8
		c1.5-16.7-0.5-34-3.3-50.3l1.3-0.1c0,0.2,0.4,4.4,0.4,4.6c0.3,3.6,1.4,9.2,2,13.7c3.9,30.2,3.9,58.1,0.1,88.3
		c-3.5,27.2-12.2,57.1-27.3,79.7c-8,11.9-19.2,21.1-31.7,27.9c-0.1-0.3-0.1-0.6-0.2-0.8c-10.6,5.7-22.1,9.8-33.2,12.4
		c-24.7,5.7-51.7,2.2-72.3-14c-19.7-15.5-31-38.4-32.3-64.3C345.4,306.8,358.6,283.2,376.9,266z"/>
</g>
<path fill="#674089" d="M541.4,186.1"/>
<path fill="#674089" d="M338.9,292.7c0.4-1,1.5-1.1,2.3-0.6c0.4,4.6,1.9,9.1,4.3,13.2c3.1,5.2,9.2,7.5,14.5,5.2c0,0,0.1,0.1,0.1,0.1
	c0.4,0,0.7,0.1,1.1,0.5c5.8,5.6-5.8,40.8-11.5,37C336.3,338.9,332.5,306.8,338.9,292.7z"/>
</svg>
