<?xml version="1.0" encoding="utf-8"?>
<!-- Generator: Adobe Illustrator 18.0.0, SVG Export Plug-In . SVG Version: 6.00 Build 0)  -->
<!DOCTYPE svg PUBLIC "-//W3C//DTD SVG 1.1//EN" "http://www.w3.org/Graphics/SVG/1.1/DTD/svg11.dtd">
<svg version="1.1" id="Layer_1" xmlns="http://www.w3.org/2000/svg" xmlns:xlink="http://www.w3.org/1999/xlink" x="0px" y="0px"
	 viewBox="0 0 960 560" enable-background="new 0 0 960 560" xml:space="preserve">
<path fill="#8E5BB4" d="M424.3,449.8c0.1-0.3,0.3-0.6,0.5-0.9c-0.1-0.1-0.2-0.1-0.2-0.2c1.6-5.3,2.8-10.7,3.8-16.2
	c2-7.2,3.8-14.3,5.3-21.6c2.8-14,3.2-28.3,5.1-42.4c2.5-18.7,8.8-40.4,28.4-48.2c1.2-0.5,2.4-0.8,3.6-1.1c10.6-3.8,22.7-3,33.5,3.4
	c3.9,2.3,6.9,5.2,9.2,8.4c5.9,5.8,8.7,14.2,8.3,22.5c-0.2,4.2-1.3,8-3,11.7c-1.5,4.4-3.7,8.7-6.4,12.5c-5.3,8.5-12.6,15.9-19.4,23.2
	c-18.2,19.3-38.8,36.4-60.9,51.4c2.7,5.6,6.2,14.3-1.5,16.3C421.4,470.9,422.8,454.1,424.3,449.8z"/>
<path fill="#674089" d="M323.4,430.1c-0.8-6.7,4.3-11.6,10.2-12.9c2-1.9,4.7-3.4,6-4.5c7.7-5.9,13.7-13.7,18.5-21.9
	c1.7-2.9,3.1-5.9,4.3-9c3.8-11.5,3.7-23.7,3.9-35.8c-0.6-4.5,0.1-9.1,1.6-13.6c1-3.1,2.9-5.9,4.8-8.6l0-0.1c0.2-0.2,0.3-0.4,0.5-0.7
	c0.3-0.4,0.6-0.9,1-1.3c0.5-0.7,1.2-1.4,1.8-2c17.9-19,50.9-15.9,67.4,6.1c4,5.4,6.6,11.1,7.8,17c3.5,10.3,3.5,21.3-0.1,32.1
	c-0.1,0.3-0.2,0.6-0.3,0.9c-4.2,16.3-17.3,31.4-33.6,37c-12.8,6.1-27.8,9.6-40.8,12.1c-10.6,2.1-21.4,2.8-32.2,2.9
	c-3.1,0-6.1-0.1-8.4-1.1c-0.5,3.3-1.4,6.7-4.2,8.3C327.2,437.7,323.9,434.1,323.4,430.1z"/>
<path fill="#8E5BB4" d="M367.8,263.5c14.6-12.6,28.6-23,38.5-39.7c10.5-17.6,20.9-36.9,23.1-57.4c2.3-21.3,0-42.8,6.4-63.6
	c3.7-12.1,14.8-22.5,26.8-24.6c1-0.2,2-0.4,3.1-0.4c26-1.3,43.1,11.4,54.6,29.8c3.5,19.2,3.7,38.8,2.6,58.2
	c-0.5,9.9-0.9,20.4,2.2,30c2.9,8.6,6,17.2,8.6,25.9c3.6,12.1,6.4,24.3,8.7,36.6c3.1,22.4,2.4,39.1-2.2,59.3
	c-0.7,3.1-1.5,6.3-2.3,9.4c-4.9,14.6-11.6,28.6-20.3,40.6c-15.9,21.8-43.8,34.2-69.9,39.8c-26.5,5.7-55.5,2.2-77.6-13.8
	c-21.1-15.3-33.2-37.9-34.7-63.4C333.9,303.8,348.1,280.5,367.8,263.5z"/>
<path fill="#8E5BB4" d="M462.4,54.2c0.6-0.9,1.8-1.3,3-1c12.3,3.7,12.2,17.8,4.2,25.5c-1.6,1.6-8.9,6.3-9.5,1.1
	c-0.4-3.3,0.3-6.8,0.6-10.1c0.4-4.7,0.7-9.4,1.1-14C461.9,55,462.1,54.6,462.4,54.2z"/>
<path fill="#674089" d="M442.9,59.2c-1.1-0.5-2.5-0.2-3.3,0.8c-8.3,9.8,1,22.4,13,25c2.4,0.5,11.8,0.9,9-4.1
	c-1.8-3.1-4.7-5.9-7.1-8.7c-3.4-4-6.7-8-10.1-12C443.9,59.6,443.4,59.3,442.9,59.2z"/>
<path fill="#674089" d="M545.6,185.9"/>
<path fill="#A775D3" d="M543.4,295.5c-1-10.2-4.7-15.6-9.4-17.6c-3.5-1.5-9.2,0.4-16.1,12.5c-7.3,12.7-13,32.1-14.4,44
	c-1.6,13.2,1.4,20.5,5.5,22.1c4.4,1.8,11.6-3.2,19.5-13.9C538.4,329.1,544.5,305.7,543.4,295.5z"/>
<path fill="#674089" d="M540.6,304.8c-1.3-1-2.9-1.4-4.3-1.4c-1.1,0-2.4,0.4-3,1.8c-0.7,1.5-0.2,3.6,0.6,4.9c0.9,1.4,2.5,2,3.8,2
	c1.4,0,2.8-0.7,3.8-2.1C542.7,308.3,541.9,305.8,540.6,304.8z"/>
<path fill="#674089" d="M332,272.9c0.5-0.9,1.7-1.1,2.5-0.6c0.4,4.6,2,9.1,4.7,13.2c3.4,5.2,10,7.5,15.8,5.2c0,0,0.1,0.1,0.1,0.1
	c0.4,0,0.8,0.1,1.2,0.5c6.3,5.6-6.3,40.8-12.5,36.9C329.1,319.1,324.9,287,332,272.9z"/>
<g>
	<path fill="#674089" d="M478.6,143.2c1.1-0.6,2.8-0.4,3.7,0.6c0.1,0.1,0.1,0.1,0.2,0.2c0.5,0.6,0.7,1.3,0.7,2
		c0.9,0,1.8,0.4,2.5,0.9c3.8,3.1,5.5,7.4,7.6,11.6c3,5.9,7.3,10.5,11.3,15.7c6.4,8.3-4.2,11.5-10.7,12.1c-11.3,1-16.9-7.6-19.6-17
		c-1.4-4.7-1.5-10.1-0.6-14.9C474.2,150.9,475.1,145,478.6,143.2z"/>
	<path fill="#E192E5" d="M481.4,144.4c1-0.5,2.6-0.4,3.4,0.6c0.1,0.1,0.1,0.1,0.2,0.2c0.5,0.6,0.6,1.2,0.6,1.8
		c0.8,0,1.7,0.4,2.3,0.9c3.5,2.8,5,6.7,7,10.5c2.7,5.3,6.7,9.5,10.4,14.2c6,7.6-3.8,10.4-9.7,10.8c-10.4,0.8-15.6-7-18.1-15.4
		c-1.3-4.3-1.4-9.2-0.6-13.5C477.4,151.4,478.2,146,481.4,144.4z"/>
</g>
<g>
	<path fill="#8E5BB4" d="M501.3,112.1c18.6-6.1,38.7-6.4,57.4-3.2c13.8,2.4,30,9.4,35,24.7c5.5,16.1-4.6,35.4-17.5,45.1
		c-14.4,10.8-35.2,13-51.2,10.1c-17.5-3.1-34-13.7-44.1-29C468.1,140.7,482.7,118.2,501.3,112.1z"/>
	<path fill="#674089" d="M476.6,146c0.5-0.6,1.7-0.8,2.1,0c1,2.3,0.9,5.3,1.5,7.8c1,3.9,3,7.4,5.5,10.4c11.4,13.3,28.5,21.4,45,22.7
		c13.2,1,24.2,0.2,41.2-11.2c19.7-16.1,18.7-35.2,12.9-45.4c-10.1-16.8-40.5-21.7-58.6-20.9c-11.3,0.5-22.3,2.7-33.2,6.4
		c2.6-1.7,5.4-3,8.3-4c18.6-6.1,38.7-6.4,57.4-3.2c13.8,2.4,30,9.4,35,24.7c1.8,5.2,1.9,10.8,0.9,16.3c-2,11.7-9.6,22.9-18.5,29.7
		c-14.4,10.8-35.2,13-51.2,10.1c-17.5-3.1-34-13.7-44.1-29c-1.9-2.8-3.1-5.7-3.9-8.6c-0.2,0-0.4-0.1-0.4-0.4
		C476.1,149.9,475.5,147.4,476.6,146z"/>
	<path fill="#E192E5" d="M493.9,115.5c2.1-1,6.2-1.9,7.9-2.3c20.5-4.6,36.1-5.2,53.5-2.2c12.8,2.2,27.9,8.8,32.6,23
		c5.2,15.1-4.3,33-16.3,42.1c-4.5,3.4-9.6,5.8-15,7.5c14.6-9,27.6-33.8,17.9-48.9c-7.2-17.1-37.4-23.2-49.6-23
		c-17,0.4-27.7,5.2-30.3,5.9c-0.8,0.4-1.9,0.6-2.1-0.5C492.4,116.1,493.1,115.6,493.9,115.5z"/>
</g>
<g>
	<path fill="#E192E5" d="M558.8,131.6c4.7-0.7,9.4,0.1,13.7,1.7c3.1,1.1,6.7,3.5,7.2,7.3c0.6,4.1-2.7,8.2-6.2,10
		c-3.9,2-8.9,1.6-12.6,0.3c-4-1.5-7.4-4.7-9.1-8.7C549.7,137,554.2,132.3,558.8,131.6z"/>
	<path fill="#674089" d="M560,131.3c3.7-0.3,7.5,0.4,11,1.7c2.6,0.9,5.4,2.7,6,5.5c0.6,3-1.8,5.8-4.6,7c-3,1.3-7.1,0.9-10-0.2
		c-3.2-1.2-6.1-3.6-7.6-6.6C552.9,134.9,556.3,131.6,560,131.3z"/>
	<path fill="#A775D3" d="M562.4,134.7c2-0.2,4.1,0.2,6,0.9c1.4,0.5,3,1.5,3.2,3c0.3,1.6-1,3.2-2.5,3.8c-1.6,0.7-3.8,0.5-5.4-0.1
		c-1.8-0.6-3.3-2-4.1-3.6C558.5,136.7,560.4,134.9,562.4,134.7z"/>
</g>
<path fill="#674089" d="M462.7,148.3c0.6-4.7,3.5-8.5,7.8-10.7c1.7-0.9,2.9,1.9,1.1,2.8c-3.3,1.7-5.4,4.9-5.9,8.4
	C465.5,150.7,462.5,150.2,462.7,148.3z"/>
<path fill="#674089" d="M481.7,194.9c6.4,4.2,14.2,4.2,20.6,0c1.6-1.1,3.2,1.5,1.5,2.6c-7.2,4.7-16.5,4.7-23.7,0
	C478.5,196.4,480,193.9,481.7,194.9z"/>
<path fill="#674089" d="M450.6,171.9c-0.1-2.7,0.7-7.1,4-7.6c3.5-0.5,5,4.4,5.5,6.9c0.1,0.3,0.1,0.6,0.2,1c1.7-1.2,3.7-1.8,6.1-1.4
	c1.6,0.2,3.2,2.1,2.3,3.7c-1.7,3.2-4.3,5.7-7.6,7.1c6.8,8.7,14.6,17.5,18.4,27.9c3.1,8.3-0.9,19.6-10,22.6
	c-9.8,3.2-18.9-1.8-21.4-11.4c-1.3-4.9,0.3-10.5,1.1-15.4l3.9-23.2c-2.5-0.1-4.8-0.5-6.9-2c-2-1.4-3.3-4.3-2.2-6.6
	C445.3,170.8,448.3,171.3,450.6,171.9z"/>
<path fill="#674089" d="M366.9,265.7c14.8-12.8,28.9-23.3,39-40.2c10.7-17.8,21.1-37.3,23.3-58.1c2.3-21.5,0-43.3,6.5-64.4
	c3.8-12.3,15-22.8,27.1-24.9c1-0.2,2-0.4,3.1-0.4c11.8-0.6,21.8,1.7,30.3,6c-0.3,0-0.6-0.1-1-0.1c10.2,5,18.4,12.8,24.7,22.3
	c0.1,0.5,0.2,1,0.3,1.4c-2.9,0.7-7,2-11.6,3.6c1.3-7.4-1.8-15.7-8.1-19.9c-4-4.5-10.2-7.3-17.6-9.3c-6.3-0.8-12.6-0.6-21.3,4.2
	c-21.5,11.9-25.5,34.6-23.6,55.2c1.8,19.7,9.8,39.1,9.5,58.9c-0.3,21-17.7,31.9-34.8,41.3c-19.7,10.8-39,26.7-46.8,48.6
	c-11.7,33-4.7,73.1,29.6,90.9c25.7,13.4,55.6,13.1,79.9,5.3c19.1-8.4,32.4-18.8,42-31.1c10.3-13.4,14.9-25.7,20-42.9
	c2.1-6.6,5.5-22.6,6.7-29.4c0.2,11.6-1.4,23-4.1,35c-3.2,14.1-7.6,28.4-13.7,41.9c-2.5,4.4-5.1,8.6-8,12.6
	c-8.7,11.9-20.9,21.1-34.5,27.8c-0.1-0.3-0.1-0.6-0.2-0.8c-11.5,5.7-24,9.8-36.1,12.4c-26.9,5.7-56.1,2.2-78.6-14
	c-21.4-15.5-33.7-38.4-35.1-64.2C332.6,306.5,347,282.9,366.9,265.7z"/>
<path fill="#674089" d="M523.7,223.4l0.1,0c2.8-0.4,4.8-3,4.4-5.8l-3.3-20.7c-0.4-2.8-3.1-4.7-6-4.2l-0.1,0c-2.8,0.4-4.8,3-4.4,5.8
	l3.3,20.7C518.2,221.9,520.9,223.8,523.7,223.4z"/>
<path fill="#A7C3FE" d="M532.1,219.5l0.1,0c2.7-1,4.1-3.9,3.1-6.5l-7.5-19.6c-1-2.6-4-4-6.7-3l-0.1,0c-2.7,1-4.1,3.9-3.1,6.5
	l7.5,19.6C526.4,219.1,529.4,220.4,532.1,219.5z"/>
<path fill="#674089" d="M479.6,109.3c1.5-6.5,9.3-9.5,14.9-5.5c1.6,1.2,0,3.8-1.6,2.6c-4-2.9-9.1-1.1-10.2,3.6
	C482.2,112.1,479.2,111.3,479.6,109.3z"/>
</svg>
