<?xml version="1.0" encoding="utf-8"?>
<!-- Generator: Adobe Illustrator 18.0.0, SVG Export Plug-In . SVG Version: 6.00 Build 0)  -->
<!DOCTYPE svg PUBLIC "-//W3C//DTD SVG 1.1//EN" "http://www.w3.org/Graphics/SVG/1.1/DTD/svg11.dtd">
<svg version="1.1" id="Layer_1" xmlns="http://www.w3.org/2000/svg" xmlns:xlink="http://www.w3.org/1999/xlink" x="0px" y="0px"
	 viewBox="0 0 960 560" enable-background="new 0 0 960 560" xml:space="preserve">
<path fill="#674089" d="M571.2,202.2c2.2-0.7,5.8-1,6.9,1.4c1.1,2.6-2.4,4.8-4.3,5.8c-0.2,0.1-0.5,0.2-0.7,0.3
	c1.3,1,2.2,2.5,2.4,4.4c0.2,1.3-1,2.9-2.5,2.6c-2.9-0.7-5.4-2.1-7.3-4.4c-5.5,7.2-10.9,15.1-18.4,20.4c-6,4.2-15.9,3.6-20.2-2.8
	c-4.6-6.9-2.6-15,4.6-19c3.7-2.1,8.5-2.1,12.5-2.5l19.4-2.1c-0.5-1.9-0.6-3.8,0.1-5.7c0.7-1.9,2.8-3.5,4.8-3.2
	C570.9,197.8,571.2,200.3,571.2,202.2z"/>
<path fill="#674089" d="M291.7,387.9c0.8-6.7,6.7-10.4,12.7-10.2c2.3-1.4,5.3-2.3,6.7-3c8.6-4,16.1-10.2,22.5-17.1
	c2.3-2.4,4.3-5,6.2-7.8c6.2-10.3,9-22.2,12-34c0.5-4.5,2.3-8.8,4.7-12.8c1.7-2.8,4.1-5.1,6.5-7.2l0-0.1c0.2-0.2,0.4-0.3,0.6-0.5
	c0.4-0.4,0.8-0.7,1.2-1.1c0.7-0.6,1.4-1.1,2.2-1.6c21.3-14.5,51.8-3.8,62.3,21.3c2.6,6.2,3.6,12.3,3.4,18.3
	c0.9,10.8-1.6,21.5-7.6,31.2c-0.2,0.3-0.3,0.5-0.5,0.8c-7.7,14.9-23.7,26.6-40.4,28.4c-13.5,3.1-28.5,3-41.4,2.5
	c-10.5-0.4-20.9-2.1-31.1-4.5c-3-0.7-5.7-1.4-7.7-3c-1.3,3.1-2.9,6.2-5.9,7.1C293.5,396.1,291.2,391.9,291.7,387.9z"/>
<path fill="#674089" d="M423.7,450.7c0.1-0.3,0.3-0.6,0.4-0.9c-0.1-0.1-0.2-0.1-0.2-0.2c1.5-5.3,2.7-10.7,3.7-16.1
	c1.9-7.1,3.7-14.3,5.2-21.6c2.8-13.9,3.1-28.2,4.9-42.3c2.4-18.7,8.6-40.3,27.7-48c1.1-0.5,2.3-0.8,3.5-1.1
	c10.4-3.8,22.2-3,32.7,3.4c3.8,2.3,6.8,5.2,8.9,8.4c5.8,5.8,8.4,14.1,8.1,22.4c-0.2,4.2-1.2,8-2.9,11.6c-1.4,4.4-3.6,8.7-6.3,12.4
	c-5.1,8.5-12.3,15.9-19,23.1c-17.7,19.3-37.9,36.3-59.4,51.2c2.6,5.6,6,14.3-1.5,16.3C420.9,471.7,422.3,455,423.7,450.7z"/>
<path fill="#8E5BB4" d="M365.5,264c14.2-12.6,27.9-22.9,37.6-39.6c10.3-17.6,20.4-36.8,22.5-57.3c2.2-21.2,0-42.7,6.2-63.4
	c3.6-12.1,14.4-22.4,26.1-24.6c1-0.2,2-0.4,3-0.4c62.2-3.1,72.3,77.3,78.4,122c4,29.7,4.9,59,0.8,88.7
	c-3.6,26.8-12.8,56.2-28.6,78.5c-15.5,21.8-42.7,34.1-68.2,39.7c-25.9,5.7-54.1,2.2-75.7-13.8c-20.6-15.3-32.4-37.8-33.8-63.3
	C332.4,304.1,346.3,280.9,365.5,264z"/>
<path fill="#674089" d="M383.2,178.1c-1.2-2.4-2.3-6.7,0.5-8.5c2.9-1.8,6.2,2,7.7,4.1c0.2,0.3,0.4,0.5,0.5,0.8
	c1-1.7,2.6-3.1,4.9-3.7c1.6-0.4,3.7,0.7,3.6,2.5c-0.3,3.6-1.5,6.8-4,9.4c9.6,5.3,20.1,10.4,27.7,18.3c6.1,6.4,7.1,18.3,0.1,24.5
	c-7.4,6.7-17.6,5.7-23.7-2.2c-3.1-4-4-9.7-5.2-14.5l-5.8-22.7c-2.2,0.9-4.5,1.4-6.9,0.8c-2.4-0.5-4.6-2.7-4.6-5.2
	C378,179.2,380.9,178.5,383.2,178.1z"/>
<path fill="#674089" d="M462.7,52.3c0.7-0.8,1.9-1.1,3-0.6c11.5,4.9,10,18.9,1.4,25.7c-1.7,1.4-9.3,5.3-9.3,0.1c0-3.3,1-6.7,1.6-9.9
	c0.8-4.6,1.6-9.2,2.5-13.8C462,53.1,462.3,52.6,462.7,52.3z"/>
<path fill="#674089" d="M428.4,62.2c-1.2-0.3-2.4,0.1-3,1.2c-6.6,10.9,4.2,22,16.1,22.9c2.4,0.2,11.5-0.8,8.1-5.3
	c-2.2-2.8-5.4-5.2-8.1-7.6c-3.8-3.5-7.6-7-11.4-10.4C429.5,62.5,428.9,62.3,428.4,62.2z"/>
<g>
	<path fill="#674089" d="M448.4,118.1c1.4-6.5,9-9.4,14.4-5.4c1.6,1.2,0,3.8-1.5,2.6c-3.9-2.9-8.9-1.1-9.9,3.6
		C450.9,120.8,447.9,120,448.4,118.1z"/>
	<path fill="#674089" d="M482.1,106.1c1.3-5.9,8.1-8.5,13-4.9c1.4,1,0,3.4-1.4,2.4c-3.5-2.6-8-1-8.9,3.2
		C484.4,108.5,481.7,107.8,482.1,106.1z"/>
</g>
<g>
	<path fill="#8E5BB4" d="M367.1,265.9c14.2-12.6,27.9-22.9,37.6-39.6c10.3-17.6,20.4-36.8,22.5-57.3c2.2-21.2,0-42.7,6.2-63.4
		c3.6-12.1,14.4-22.4,26.1-24.6c1-0.2,2-0.4,3-0.4c62.2-3.1,72.3,77.3,78.4,122c4,29.7,4.9,59,0.8,88.7
		c-3.6,26.8-12.8,56.2-28.6,78.5c-15.5,21.8-42.7,34.1-68.2,39.7c-25.9,5.7-54.1,2.2-75.7-13.8c-20.6-15.3-32.4-37.8-33.8-63.3
		C334,306.1,347.9,282.9,367.1,265.9z"/>
	<path fill="#674089" d="M364.5,266.2c14.4-12.7,28.2-23.2,38.1-40.1c10.4-17.8,20.6-37.2,22.8-58c2.2-21.5,0-43.2,6.3-64.2
		c3.7-12.2,14.6-22.7,26.5-24.9c1-0.2,2-0.4,3.1-0.4c11.5-0.6,21.3,1.7,29.5,6c-0.3,0-0.6-0.1-0.9-0.1c10.4,5.2,18.7,13.5,25,23.5
		c-8.1,1.8-28.7,9.9-36.9,15.3c16.6-11,22.9-15,21.5-22.4c-2-10.2-10.4-15.2-21.5-18.3c-6.1-0.8-12.3-0.6-20.8,4.2
		c-20.9,11.9-24.9,34.5-23,55c1.8,19.6,9.6,39,9.3,58.7c-0.3,20.9-17.3,31.9-33.9,41.2c-19.2,10.8-36.5,21.9-44.2,43.8
		c-11.4,32.9-2.2,77.1,32.6,91.9c23.7,10.1,50.1,11.1,73.9,3.3c18.7-8.3,30.3-20.3,39.6-32.6c10.1-13.3,15.1-28.2,20.1-45.3
		c2.4-7.7,4.4-15.4,5.6-23.3c1.8-7.9,2.4-15.9,3-24.1c0.5-6.4,0.9-12.5,0.7-18.7c1.5-16.7-0.5-33.9-3.5-50.1l1.4-0.1
		c0,0.2,0.4,4.4,0.4,4.6c0.3,3.6,1.5,9.2,2.1,13.7c4.1,30.1,4.2,57.9,0.1,88.1c-3.7,27.1-12.9,56.9-28.9,79.4
		c-8.5,11.9-20.4,21-33.6,27.8c-0.1-0.3-0.1-0.6-0.2-0.8c-11.2,5.7-23.4,9.8-35.2,12.3c-26.2,5.7-54.8,2.2-76.7-14
		c-20.9-15.4-32.8-38.3-34.2-64.1C331.1,306.8,345.1,283.3,364.5,266.2z"/>
</g>
<path fill="#674089" d="M538.9,186.5"/>
<path fill="#A775D3" d="M499.6,292.5c-15-9.2-32.2-13-48.8-13.3c-12.3-0.2-27.4,3.5-34.3,17.1c-7.5,14.3-2.1,34.4,7.3,46
	c10.5,12.9,28.1,18.7,42.3,18.8c15.6,0.2,31.6-6.9,42.9-19.6C523.2,325.6,514.6,301.6,499.6,292.5z"/>
<path fill="#674089" d="M480.3,305.2c-1.8-1-3.8-1.4-5.8-1.4c-1.5,0-3.3,0.4-4.1,1.8c-0.9,1.5-0.3,3.6,0.9,4.9c1.2,1.4,3.3,2,5,2
	c1.8,0,3.7-0.7,5.1-2.1C483.1,308.7,482,306.1,480.3,305.2z"/>
<path fill="#674089" d="M324.3,292.8c0.5-0.9,1.6-1.1,2.5-0.6c0.4,4.6,2,9.1,4.6,13.2c3.3,5.2,9.7,7.5,15.4,5.2c0,0,0.1,0.1,0.1,0.1
	c0.4,0,0.8,0.1,1.2,0.5c6.2,5.6-6.1,40.7-12.2,36.8C321.5,338.8,317.4,306.9,324.3,292.8z"/>
<g>
	<path fill="#674089" d="M467.1,154.5c1-1.2,3.1-1.8,4.6-1c0.1,0.1,0.2,0.1,0.3,0.2c0.9,0.5,1.4,1.3,1.7,2.1c1.1-0.4,2.4-0.4,3.4,0
		c5.9,2,10,6.4,14.5,10.5c6.3,5.7,13.6,9.3,20.8,13.6c11.6,7,0.6,15.8-6.8,19.5c-12.9,6.4-23.6-1.3-31.2-11.3
		c-3.9-5-6.7-11.5-7.9-17.7C465.7,165.9,463.9,158.3,467.1,154.5z"/>
	<path fill="#E192E5" d="M471,154.6c1-1.1,2.9-1.7,4.2-0.9c0.1,0.1,0.2,0.1,0.3,0.2c0.8,0.5,1.3,1.1,1.6,1.8c1-0.4,2.2-0.4,3.1,0
		c5.4,1.8,9.2,5.7,13.3,9.4c5.8,5.1,12.5,8.3,19.1,12.2c10.7,6.3,0.5,14.3-6.2,17.6c-11.8,5.8-21.7-1.2-28.7-10.2
		c-3.5-4.5-6.1-10.3-7.2-15.9C469.7,164.9,468,158,471,154.6z"/>
</g>
<g>
	<path fill="#8E5BB4" d="M466.8,158.9C466.8,158.9,466.8,158.9,466.8,158.9c-7-15.4,3.3-33.5,18.8-41.2c19-9.5,40.9-13.5,62-13.7
		c15.5-0.2,34.8,3.6,43.6,17.7c9.6,14.8,2.7,35.5-9.3,47.4c-13.3,13.3-35.6,19.2-53.7,19.4c-19.7,0.2-40.1-7.1-54.4-20.2
		c-2.5-2.3-4.5-4.8-5.9-7.3C467.6,160.2,467.3,159.5,466.8,158.9z"/>
	<path fill="#674089" d="M466.1,155.4c0.4-0.7,1.7-1.1,2.3-0.4c1.6,2.1,2.1,5,3.3,7.3c2,3.6,4.9,6.7,8.2,9.1
		c15.3,10.9,35.8,15.7,54.1,13.8c14.6-1.5,26.5-4.3,42.5-18.6c17.9-19.4,12.7-37.9,4.2-46.8c-14.7-14.6-48.9-13.8-68.5-9.6
		c-12.2,2.6-23.8,6.8-34.8,12.4c2.5-2.1,5.3-4,8.2-5.5c19-9.5,40.9-13.5,62-13.7c15.5-0.2,34.8,3.6,43.6,17.7
		c3.1,4.8,4.5,10.2,4.5,15.8c0.3,11.8-5.5,24.2-13.8,32.5c-13.3,13.3-35.6,19.2-53.7,19.4c-19.7,0.2-40.1-7.1-54.4-20.2
		c-1.9-1.7-3.5-3.6-4.7-5.5c-0.9-1.1-1.7-2.3-2.5-3.5c-0.5-0.7-0.7-1.5-0.6-2.2C465.8,156.8,465.8,156.1,466.1,155.4z"/>
	<path fill="#E192E5" d="M478.3,122.3c2-1.4,6.4-3,8.1-3.7c21.3-8.3,38.3-11.8,58-12.1c14.5-0.2,32.4,3.4,40.6,16.5
		c8.9,13.8,2.5,33.1-8.6,44.2c-4.1,4.1-9.2,7.5-14.7,10.1c14-11.5,22.8-38.2,8.9-51.2c-11.6-15.4-45.9-15.8-59.1-13.4
		c-18.5,3.5-29.1,10.3-31.8,11.4c-0.8,0.5-1.9,1-2.4-0.1C476.9,123.2,477.5,122.6,478.3,122.3z"/>
	<path fill="#E192E5" d="M564.1,129.8c3.3-3.2,7.5-5.4,11.8-6.6c3.2-0.9,7.3-1,10,1.8c2.9,2.9,2.8,8.1,1.1,11.6
		c-1.9,3.8-6.1,6.4-9.7,7.4c-4,1.1-8.6,0.5-12.4-1.8C560.1,139.4,560.8,133,564.1,129.8z"/>
	<path fill="#674089" d="M564.8,128.9c2.7-2.4,6.2-4,9.6-5c2.6-0.7,5.9-0.9,8,1c2.2,2,2,5.8,0.6,8.3c-1.6,2.8-5,4.7-8,5.6
		c-3.3,0.9-6.9,0.6-9.9-1C561.3,135.8,562.1,131.2,564.8,128.9z"/>
	<path fill="#A775D3" d="M568.7,130.3c1.5-1.3,3.3-2.2,5.2-2.7c1.4-0.4,3.2-0.5,4.3,0.5c1.2,1.1,1.1,3.1,0.3,4.5
		c-0.9,1.5-2.7,2.6-4.3,3c-1.8,0.5-3.8,0.3-5.4-0.5C566.8,134.1,567.2,131.6,568.7,130.3z"/>
	<path fill="#E192E5" d="M511.8,139.3c-3.6-2-7.8-2.8-11.9-2.9c-3,0-6.7,0.8-8.4,3.7c-1.8,3.1-0.5,7.4,1.8,9.9
		c2.6,2.8,6.8,4,10.3,4.1c3.8,0,7.7-1.5,10.4-4.2C517.6,146.5,515.5,141.3,511.8,139.3z"/>
	<path fill="#674089" d="M510.6,136.8c-3-1.6-6.4-2.3-9.7-2.4c-2.4,0-5.4,0.6-6.8,3c-1.5,2.5-0.4,6.1,1.5,8.1
		c2.1,2.3,5.6,3.3,8.4,3.3c3.1,0,6.3-1.2,8.5-3.5C515.2,142.6,513.5,138.4,510.6,136.8z"/>
	<g>
		<g>
			<g>
				<path fill="#A775D3" d="M507.1,139.3c-1.6-0.9-3.5-1.2-5.2-1.3c-1.3,0-2.9,0.3-3.7,1.6c-0.8,1.4-0.2,3.3,0.8,4.4
					c1.1,1.2,3,1.8,4.5,1.8c1.7,0,3.4-0.7,4.6-1.9C509.6,142.4,508.7,140.2,507.1,139.3z"/>
			</g>
		</g>
	</g>
</g>
<g>
	<path fill="#674089" d="M447,117.1c1.4-6.5,9-9.4,14.4-5.4c1.6,1.2,0,3.8-1.5,2.6c-3.9-2.9-8.9-1.1-9.9,3.6
		C449.5,119.9,446.6,119.1,447,117.1z"/>
	<path fill="#674089" d="M480.7,105.2c1.3-5.9,8.1-8.5,13-4.9c1.4,1,0,3.4-1.4,2.4c-3.5-2.6-8-1-8.9,3.2
		C483,107.6,480.4,106.9,480.7,105.2z"/>
</g>
<g>
	<path fill="#674089" d="M454.5,157.6c0.7-5.3,3.9-9.7,8.6-12.2c1.9-1,3.2,2.1,1.3,3.1c-3.6,1.9-6,5.5-6.5,9.6
		C457.6,160.3,454.2,159.8,454.5,157.6z"/>
	<path fill="#674089" d="M484.4,203.8c7.1,4.7,15.8,4.7,22.8,0c1.8-1.2,3.5,1.7,1.7,2.9c-8,5.4-18.3,5.4-26.3,0
		C480.9,205.5,482.6,202.6,484.4,203.8z"/>
</g>
<g>
	<g>
		<path fill="#674089" d="M496.8,242.9c5,3.1,12.2,5.5,12.8-3.4c0-4.1-1.5-7.2-6-5.7c-2,0.6-3.7,1.5-5.8,1.8
			c-0.2,0.1-0.4,0.1-0.5,0.1c-0.2,0.1-0.4,0.1-0.6,0.1c-0.7,0.1-1.2-0.5-1.4-1.1c0,0,0,0,0,0c-0.1-0.2-0.1-0.5-0.1-0.8
			c0.4-2.2,2.1-3.8,3.1-4.8c1.1-1.1,2.9-2.6,4.4-3.4c2.5-1.4,5.1-2.1,7.8-2.6c4.7,0.1,8.5-0.4,11.3,3.8c3.2,4.7,2.7,18.9,1.3,22.2
			c-0.8,2-2.1,4.9-4.9,6.1c-3.6,1.6-7.6,0.2-10-0.4c-4.8-1.2-13.5-5-13.3-10.8C495.1,243,496,242.4,496.8,242.9z"/>
		<path fill="#674089" d="M486.8,232.8h2.2c2.5,0,4.5,2,4.5,4.5v4.4c0,2.5-2,4.5-4.5,4.5h-2.2c-2.5,0-4.5-2-4.5-4.5v-4.4
			C482.3,234.8,484.3,232.8,486.8,232.8z"/>
		<path fill="#674089" d="M453.8,226.9c2.9-4.2,6.7-3.7,11.3-3.8c2.7,0.4,5.3,1.1,7.8,2.6c1.5,0.9,3.3,2.3,4.4,3.4
			c1,1,2.8,2.6,3.1,4.8c0,0.3,0,0.5-0.1,0.8c0,0,0,0,0,0c-0.2,0.6-0.7,1.1-1.4,1.1c-0.2,0-0.4-0.1-0.6-0.1c-0.2,0-0.4-0.1-0.5-0.1
			c-2.1-0.3-3.8-1.2-5.8-1.8c-4.5-1.4-6,1.6-6,5.7c0.6,8.9,7.8,6.5,12.8,3.4c0.8-0.5,1.7,0.1,1.8,1c0.2,5.8-8.5,9.7-13.3,10.8
			c-2.4,0.6-6.4,1.9-9.9,0.4c-2.8-1.2-4.1-4.1-4.9-6.1C451.2,245.8,450.6,231.6,453.8,226.9z"/>
	</g>
	<g>
		<path fill="#A7C3FE" d="M498.8,239.3c5,3.1,12.2,5.5,12.8-3.4c0-4.1-1.5-7.2-6-5.7c-2,0.6-3.7,1.5-5.8,1.8
			c-0.2,0.1-0.4,0.1-0.5,0.1c-0.2,0.1-0.4,0.1-0.6,0.1c-0.7,0.1-1.2-0.5-1.4-1.1c0,0,0,0,0,0c-0.1-0.2-0.1-0.5-0.1-0.8
			c0.4-2.2,2.1-3.8,3.1-4.8c1.1-1.1,2.9-2.6,4.4-3.4c2.5-1.4,5.1-2.1,7.8-2.6c4.7,0.1,8.5-0.4,11.3,3.8c3.2,4.7,2.7,18.9,1.3,22.2
			c-0.8,2-2.1,4.9-4.9,6.1c-3.6,1.6-7.6,0.2-10-0.4c-4.8-1.2-13.5-5-13.3-10.8C497,239.5,498,238.8,498.8,239.3z"/>
		<path fill="#A7C3FE" d="M488.7,229.2h2.2c2.5,0,4.5,2,4.5,4.5v4.4c0,2.5-2,4.5-4.5,4.5h-2.2c-2.5,0-4.5-2-4.5-4.5v-4.4
			C484.2,231.2,486.3,229.2,488.7,229.2z"/>
		<path fill="#A7C3FE" d="M455.8,223.3c2.9-4.2,6.7-3.7,11.3-3.8c2.7,0.4,5.3,1.1,7.8,2.6c1.5,0.9,3.3,2.3,4.4,3.4
			c1,1,2.8,2.6,3.1,4.8c0,0.3,0,0.5-0.1,0.8c0,0,0,0,0,0c-0.2,0.6-0.7,1.1-1.4,1.1c-0.2,0-0.4-0.1-0.6-0.1c-0.2,0-0.4-0.1-0.5-0.1
			c-2.1-0.3-3.8-1.2-5.8-1.8c-4.5-1.4-6,1.6-6,5.7c0.6,8.9,7.8,6.5,12.8,3.4c0.8-0.5,1.7,0.1,1.8,1c0.2,5.8-8.5,9.7-13.3,10.8
			c-2.4,0.6-6.4,1.9-9.9,0.4c-2.8-1.2-4.1-4.1-4.9-6.1C453.1,242.2,452.6,228,455.8,223.3z"/>
	</g>
</g>
</svg>
