<?xml version="1.0" encoding="UTF-8" standalone="no"?>
<svg width="84px" height="155px" viewBox="0 0 84 155" version="1.1" xmlns="http://www.w3.org/2000/svg" xmlns:xlink="http://www.w3.org/1999/xlink" xmlns:sketch="http://www.bohemiancoding.com/sketch/ns">
    <!-- Generator: Sketch 3.3.2 (12043) - http://www.bohemiancoding.com/sketch -->
    <title>Imported Layers</title>
    <desc>Created with Sketch.</desc>
    <defs></defs>
    <g id="Page-1" stroke="none" stroke-width="1" fill="none" fill-rule="evenodd" sketch:type="MSPage">
        <g id="Imported-Layers" sketch:type="MSLayerGroup" transform="translate(0.000000, -1.000000)">
            <path d="M55.873,154.797 C58.193,153.548 58.703,150.857 57.805,148.721 C57.983,147.687 57.883,146.483 57.924,145.839 C58.156,142.129 59.354,138.498 60.964,135.175 C61.534,134 62.195,132.881 62.915,131.806 C65.799,128.051 69.749,125.335 73.63,122.57 C75.226,121.752 76.546,120.479 77.651,119.021 C78.418,118.008 78.925,116.806 79.37,115.605 L79.388,115.58 C79.426,115.479 79.454,115.378 79.489,115.276 C79.561,115.077 79.636,114.877 79.706,114.68 C79.827,114.342 79.905,113.999 79.96,113.654 C82.201,103.804 73.967,94.241 63.269,94.037 C60.645,93.987 58.24,94.492 56.068,95.417 C51.987,96.623 48.433,99.087 45.727,102.655 C45.653,102.753 45.59,102.853 45.52,102.951 C41.16,107.909 39.174,115.385 40.906,121.737 C41.709,127.091 43.884,132.535 45.906,137.165 C47.552,140.932 49.669,144.475 51.999,147.852 C52.673,148.829 53.343,149.729 54.194,150.232 C53.235,151.138 52.326,152.189 52.434,153.419 C52.599,155.318 54.469,155.553 55.873,154.797" id="Fill-1" fill="#674089" sketch:type="MSShapeGroup"></path>
            <path d="M48.16,147.277 C48.117,147.145 48.055,147.036 47.986,146.937 C48.011,146.904 48.047,146.88 48.069,146.844 C47.471,144.766 47.02,142.648 46.636,140.503 C45.877,137.699 45.177,134.88 44.61,132.024 C43.523,126.552 43.388,120.934 42.677,115.41 C41.731,108.058 39.324,99.575 31.85,96.524 C31.408,96.343 30.952,96.208 30.488,96.097 C26.424,94.588 21.81,94.937 17.699,97.418 C16.197,98.325 15.051,99.446 14.204,100.707 C11.951,102.97 10.898,106.268 11.029,109.525 C11.094,111.159 11.514,112.681 12.168,114.103 C12.732,115.844 13.582,117.513 14.619,118.986 C16.623,122.33 19.431,125.229 22.04,128.076 C28.983,135.653 36.865,142.336 45.278,148.221 C44.252,150.416 42.92,153.827 45.849,154.613 C49.264,155.529 48.711,148.964 48.16,147.277" id="Fill-2" fill="#674089" sketch:type="MSShapeGroup"></path>
            <path d="M70.94,73.886 C65.366,68.939 60.041,64.875 56.231,58.32 C52.214,51.407 48.266,43.867 47.433,35.806 C46.572,27.461 47.425,19.028 44.995,10.873 C43.579,6.124 39.343,2.06 34.767,1.218 C34.393,1.137 34.003,1.077 33.586,1.056 C9.257,-0.164 5.31,31.434 2.934,49.011 C1.356,60.689 1.03,72.183 2.605,83.878 C4.024,94.416 7.597,105.966 13.785,114.715 C19.835,123.269 30.489,128.139 40.465,130.33 C50.594,132.555 61.63,131.198 70.08,124.909 C78.14,118.911 82.768,110.04 83.304,100.035 C83.86,89.673 78.438,80.542 70.94,73.886" id="Fill-3" fill="#8E5BB4" sketch:type="MSShapeGroup"></path>
            <path d="M38.51,16.536 C37.948,13.977 34.994,12.825 32.874,14.401 C32.261,14.857 32.858,15.899 33.48,15.437 C34.989,14.315 36.945,14.997 37.354,16.855 C37.52,17.61 38.676,17.29 38.51,16.536" id="Fill-4" fill="#674089" sketch:type="MSShapeGroup"></path>
            <path d="M25.319,11.83 C24.812,9.526 22.154,8.49 20.246,9.909 C19.694,10.319 20.231,11.257 20.79,10.841 C22.149,9.831 23.91,10.445 24.278,12.117 C24.427,12.797 25.468,12.508 25.319,11.83" id="Fill-5" fill="#674089" sketch:type="MSShapeGroup"></path>
            <path d="M70.31,74.666 C64.736,69.719 59.412,65.655 55.602,59.099 C51.584,52.187 47.636,44.647 46.804,36.586 C45.942,28.241 46.796,19.807 44.365,11.652 C42.95,6.904 38.713,2.839 34.138,1.997 C33.763,1.917 33.373,1.856 32.956,1.836 C8.627,0.616 4.68,32.214 2.305,49.79 C0.726,61.469 0.4,72.963 1.975,84.657 C3.394,95.196 6.967,106.746 13.155,115.495 C19.205,124.049 29.859,128.919 39.835,131.11 C49.964,133.334 61.001,131.977 69.45,125.689 C77.51,119.691 82.138,110.819 82.675,100.814 C83.23,90.453 77.808,81.322 70.31,74.666" id="Fill-6" fill="#8E5BB4" sketch:type="MSShapeGroup"></path>
            <path d="M71.295,74.762 C65.652,69.753 60.262,65.639 56.404,59.002 C52.337,52.003 48.339,44.369 47.497,36.208 C46.625,27.759 47.489,19.221 45.028,10.965 C43.595,6.157 39.306,2.042 34.674,1.19 C34.294,1.108 33.899,1.048 33.478,1.026 C28.973,0.801 25.161,1.69 21.92,3.396 C22.043,3.386 22.162,3.37 22.283,3.358 C18.226,5.407 14.976,8.652 12.521,12.601 C15.68,13.318 23.738,16.487 26.957,18.622 C20.452,14.307 17.984,12.736 18.544,9.807 C19.31,5.801 22.614,3.814 26.954,2.629 C29.355,2.305 31.779,2.379 35.087,4.266 C43.274,8.935 44.827,17.842 44.096,25.895 C43.396,33.607 40.345,41.223 40.462,48.984 C40.586,57.203 47.211,61.513 53.73,65.193 C61.258,69.443 68.026,73.801 71.001,82.392 C75.479,95.326 71.857,112.68 58.237,118.527 C48.966,122.508 38.625,122.901 29.314,119.818 C22.017,116.538 17.452,111.843 13.808,106.991 C9.869,101.745 7.907,95.911 5.934,89.193 C4.999,86.171 4.212,83.141 3.757,80.024 C3.06,76.933 2.819,73.757 2.59,70.558 C2.411,68.056 2.228,65.637 2.298,63.194 C1.693,56.639 2.502,49.862 3.648,43.482 L3.098,43.449 C3.108,43.529 2.939,45.181 2.949,45.261 C2.828,46.667 2.374,48.883 2.137,50.634 C0.539,62.458 0.513,73.409 2.108,85.249 C3.544,95.918 7.162,107.612 13.427,116.47 C16.734,121.146 21.405,124.726 26.588,127.387 C26.616,127.27 26.642,127.166 26.669,127.056 C31.064,129.302 35.822,130.892 40.442,131.907 C50.697,134.159 61.87,132.785 70.425,126.419 C78.585,120.346 83.27,111.364 83.814,101.235 C84.376,90.745 78.887,81.5 71.295,74.762" id="Fill-7" fill="#674089" sketch:type="MSShapeGroup"></path>
            <path id="Fill-8" fill="#674089" sketch:type="MSShapeGroup"></path>
            <path d="M18.452,85.087 C24.311,81.482 31.054,79.959 37.559,79.848 C42.352,79.767 48.278,81.234 50.993,86.585 C53.946,92.216 51.825,100.117 48.135,104.664 C44.033,109.718 37.146,111.996 31.575,112.07 C25.491,112.15 19.222,109.359 14.792,104.373 C9.215,98.099 12.618,88.677 18.452,85.087" id="Fill-9" fill="#A775D3" sketch:type="MSShapeGroup"></path>
            <path d="M24.506,90.087 C25.202,89.707 26.002,89.546 26.774,89.535 C27.343,89.526 28.046,89.681 28.368,90.245 C28.719,90.839 28.467,91.672 28.029,92.151 C27.542,92.684 26.725,92.925 26.064,92.932 C25.342,92.941 24.598,92.646 24.072,92.121 C23.41,91.459 23.814,90.466 24.506,90.087" id="Fill-10" fill="#674089" sketch:type="MSShapeGroup"></path>
        </g>
    </g>
</svg>