<?xml version="1.0" encoding="UTF-8" standalone="no"?>
<svg width="20px" height="14px" viewBox="0 0 20 14" version="1.1" xmlns="http://www.w3.org/2000/svg" xmlns:xlink="http://www.w3.org/1999/xlink" xmlns:sketch="http://www.bohemiancoding.com/sketch/ns">
    <!-- Generator: Sketch 3.3.2 (12043) - http://www.bohemiancoding.com/sketch -->
    <title>Imported Layers</title>
    <desc>Created with Sketch.</desc>
    <defs></defs>
    <g id="Page-1" stroke="none" stroke-width="1" fill="none" fill-rule="evenodd" sketch:type="MSPage">
        <g id="Imported-Layers" sketch:type="MSLayerGroup">
            <path d="M18.51,9.536 C17.948,6.977 14.994,5.825 12.874,7.401 C12.261,7.857 12.858,8.899 13.48,8.437 C14.989,7.315 16.946,7.997 17.354,9.855 C17.52,10.61 18.676,10.29 18.51,9.536" id="Fill-1" fill="#674089" sketch:type="MSShapeGroup"></path>
            <path d="M5.319,4.83 C4.812,2.526 2.154,1.49 0.246,2.908 C-0.306,3.319 0.231,4.257 0.79,3.841 C2.149,2.831 3.91,3.445 4.278,5.117 C4.427,5.797 5.468,5.508 5.319,4.83" id="Fill-2" fill="#674089" sketch:type="MSShapeGroup"></path>
            <path d="M19.035,9.171 C18.472,6.612 15.519,5.46 13.399,7.036 C12.786,7.492 13.383,8.534 14.004,8.072 C15.513,6.95 17.47,7.632 17.878,9.49 C18.044,10.245 19.2,9.925 19.035,9.171" id="Fill-3" fill="#674089" sketch:type="MSShapeGroup"></path>
            <path d="M5.843,4.465 C5.337,2.161 2.678,1.124 0.77,2.543 C0.218,2.954 0.755,3.891 1.315,3.475 C2.673,2.466 4.434,3.079 4.802,4.752 C4.952,5.432 5.992,5.143 5.843,4.465" id="Fill-4" fill="#674089" sketch:type="MSShapeGroup"></path>
            <path d="M6.351,2.326 C6.383,3.656 6.006,4.974 5.429,6.135 C5.004,6.99 4.231,7.921 3.141,7.967 C1.985,8.033 0.936,7.016 0.558,5.993 C0.138,4.856 0.408,3.452 0.906,2.459 C1.449,1.375 2.462,0.491 3.651,0.112 C5.148,-0.366 6.319,1.001 6.351,2.326" id="Fill-5" fill="#674089" sketch:type="MSShapeGroup"></path>
            <path d="M4.847,3.089 C4.864,3.807 4.661,4.519 4.349,5.147 C4.119,5.609 3.702,6.112 3.113,6.137 C2.488,6.172 1.921,5.623 1.717,5.07 C1.49,4.456 1.636,3.697 1.905,3.161 C2.199,2.575 2.746,2.097 3.388,1.892 C4.197,1.634 4.83,2.373 4.847,3.089" id="Fill-6" fill="#FFFFFF" sketch:type="MSShapeGroup"></path>
            <path d="M12.971,11.074 C12.778,9.63 13.031,8.152 13.521,6.82 C13.881,5.839 14.611,4.735 15.791,4.555 C17.041,4.346 18.304,5.328 18.836,6.396 C19.429,7.582 19.301,9.143 18.878,10.281 C18.416,11.525 17.42,12.607 16.171,13.161 C14.6,13.859 13.163,12.511 12.971,11.074" id="Fill-7" fill="#674089" sketch:type="MSShapeGroup"></path>
            <path d="M14.516,10.065 C14.412,9.285 14.548,8.487 14.813,7.767 C15.008,7.237 15.402,6.641 16.04,6.543 C16.715,6.43 17.397,6.961 17.685,7.538 C18.005,8.179 17.936,9.022 17.708,9.637 C17.458,10.309 16.92,10.893 16.245,11.193 C15.396,11.57 14.62,10.842 14.516,10.065" id="Fill-8" fill="#FFFFFF" sketch:type="MSShapeGroup"></path>
            <path d="M14.578,9.099 C14.578,8.666 14.735,8.289 15.05,7.967 C15.365,7.646 15.746,7.485 16.192,7.485 C16.401,7.485 16.605,7.528 16.802,7.613 C16.999,7.699 17.172,7.817 17.323,7.967 C17.474,8.118 17.592,8.292 17.678,8.489 C17.763,8.686 17.805,8.89 17.805,9.099 C17.805,9.545 17.645,9.926 17.323,10.241 C17.002,10.555 16.625,10.713 16.192,10.713 C15.746,10.713 15.365,10.555 15.05,10.241 C14.735,9.926 14.578,9.545 14.578,9.099" id="Fill-9" fill="#674089" sketch:type="MSShapeGroup"></path>
            <path d="M1.834,4.247 C1.834,3.839 1.982,3.485 2.278,3.182 C2.574,2.88 2.932,2.729 3.352,2.729 C3.549,2.729 3.74,2.769 3.926,2.849 C4.111,2.929 4.274,3.041 4.416,3.182 C4.558,3.324 4.669,3.488 4.749,3.673 C4.83,3.858 4.87,4.05 4.87,4.247 C4.87,4.667 4.719,5.024 4.416,5.321 C4.114,5.617 3.759,5.765 3.352,5.765 C2.932,5.765 2.574,5.617 2.278,5.321 C1.982,5.024 1.834,4.667 1.834,4.247" id="Fill-10" fill="#674089" sketch:type="MSShapeGroup"></path>
        </g>
    </g>
</svg>