<?xml version="1.0" encoding="UTF-8" standalone="no"?>
<svg width="19px" height="19px" viewBox="0 0 19 19" version="1.1" xmlns="http://www.w3.org/2000/svg" xmlns:xlink="http://www.w3.org/1999/xlink" xmlns:sketch="http://www.bohemiancoding.com/sketch/ns">
    <!-- Generator: Sketch 3.3.2 (12043) - http://www.bohemiancoding.com/sketch -->
    <title>Imported Layers</title>
    <desc>Created with Sketch.</desc>
    <defs></defs>
    <g id="Page-1" stroke="none" stroke-width="1" fill="none" fill-rule="evenodd" sketch:type="MSPage">
        <path d="M1.45238822,14.9706374 C0.930388223,15.6846374 0.341388223,16.9956374 1.13238822,17.7066374 C1.96038822,18.4506374 3.23338822,17.4146374 3.82838822,16.8396374 C3.90538822,16.7646374 3.97438822,16.6856374 4.04338822,16.6056374 C4.26838822,17.2126374 4.68338822,17.7316374 5.38938822,18.0656374 C5.86238822,18.2886374 6.60738822,18.0606374 6.66938822,17.4636374 C6.79238822,16.2986374 6.57838822,15.1896374 5.95138822,14.2176374 C9.32538822,13.0706374 12.9533882,12.0706374 15.8333882,9.9626374 C18.1463882,8.2696374 19.1433882,4.5276374 17.3003882,2.1316374 C15.3233882,-0.438362596 12.0243882,-0.706362596 9.63438822,1.4466374 C8.41138822,2.5486374 7.79838822,4.3196374 7.12738822,5.7776374 L3.94738822,12.6956374 C3.28738822,12.2786374 2.60638822,11.9836374 1.79338822,12.0236374 C1.01138822,12.0616374 0.158388223,12.6086374 0.0183882231,13.4126374 C-0.138611777,14.3196374 0.741388223,14.7136374 1.45238822,14.9706374" id="Imported-Layers" fill="#674089" sketch:type="MSShapeGroup"></path>
    </g>
</svg>