<?xml version="1.0" encoding="UTF-8" standalone="no"?>
<svg width="14px" height="27px" viewBox="0 0 14 27" version="1.1" xmlns="http://www.w3.org/2000/svg" xmlns:xlink="http://www.w3.org/1999/xlink" xmlns:sketch="http://www.bohemiancoding.com/sketch/ns">
    <!-- Generator: Sketch 3.3.2 (12043) - http://www.bohemiancoding.com/sketch -->
    <title>Imported Layers</title>
    <desc>Created with Sketch.</desc>
    <defs></defs>
    <g id="Page-1" stroke="none" stroke-width="1" fill="none" fill-rule="evenodd" sketch:type="MSPage">
        <path d="M2.66110798,24.0516797 C2.63810798,25.1216797 2.96510798,26.8286797 4.24210798,26.9846797 C5.57810798,27.1466797 6.12110798,25.2366797 6.31110798,24.2536797 C6.33510798,24.1266797 6.34910798,23.9996797 6.36210798,23.8726797 C7.00610798,24.3176797 7.77810798,24.5446797 8.70810798,24.3846797 C9.33210798,24.2786797 9.91210798,23.5356797 9.55910798,22.8996797 C8.87210798,21.6606797 7.89010798,20.7106797 6.59510798,20.1826797 C9.14110798,16.7036797 12.041108,13.1966797 13.431108,9.10867966 C14.547108,5.82567966 12.938108,1.42667966 9.44910798,0.332679662 C5.70610798,-0.841320338 2.25310798,1.18267966 1.37910798,4.97367966 C0.932107979,6.91567966 1.55310798,9.09467966 1.90210798,11.0046797 L3.55310798,20.0656797 C2.61010798,20.1106797 1.73010798,20.2906797 0.952107979,20.8946797 C0.204107979,21.4756797 -0.260892021,22.6096797 0.158107979,23.5026797 C0.632107979,24.5106797 1.77810798,24.2906797 2.66110798,24.0516797" id="Imported-Layers" fill="#674089" sketch:type="MSShapeGroup"></path>
    </g>
</svg>