<?xml version="1.0" encoding="UTF-8" standalone="no"?>
<svg width="57px" height="39px" viewBox="0 0 57 39" version="1.1" xmlns="http://www.w3.org/2000/svg" xmlns:xlink="http://www.w3.org/1999/xlink" xmlns:sketch="http://www.bohemiancoding.com/sketch/ns">
    <!-- Generator: Sketch 3.3.2 (12043) - http://www.bohemiancoding.com/sketch -->
    <title>Imported Layers</title>
    <desc>Created with Sketch.</desc>
    <defs></defs>
    <g id="Page-1" stroke="none" stroke-width="1" fill="none" fill-rule="evenodd" sketch:type="MSPage">
        <g id="Imported-Layers" sketch:type="MSLayerGroup">
            <path id="Fill-1" fill="#674089" sketch:type="MSShapeGroup"></path>
            <path d="M51.797,21.438 C51.604,20.992 51.064,20.626 50.563,20.747 C50.527,20.755 50.492,20.764 50.457,20.772 C50.153,20.845 49.932,21.008 49.779,21.212 C49.514,20.991 49.137,20.885 48.8,20.895 C46.914,20.952 45.361,21.842 43.684,22.62 C41.364,23.695 38.93,24.077 36.481,24.693 C32.51,25.692 34.884,29.21 36.672,30.93 C39.796,33.934 43.576,32.653 46.677,30.443 C48.24,29.329 49.625,27.718 50.536,26.038 C51.18,24.852 52.394,22.823 51.797,21.438" id="Fill-2" fill="#674089" sketch:type="MSShapeGroup"></path>
            <path d="M50.683,21.135 C50.504,20.73 50.006,20.396 49.547,20.502 C49.515,20.509 49.483,20.517 49.451,20.524 C49.172,20.588 48.97,20.734 48.831,20.918 C48.587,20.716 48.24,20.618 47.932,20.625 C46.202,20.664 44.783,21.46 43.249,22.152 C41.129,23.11 38.899,23.44 36.656,23.982 C33.02,24.86 35.219,28.056 36.871,29.622 C39.755,32.358 43.213,31.223 46.044,29.244 C47.471,28.247 48.73,26.799 49.556,25.286 C50.139,24.217 51.24,22.39 50.683,21.135" id="Fill-3" fill="#E192E5" sketch:type="MSShapeGroup"></path>
            <path d="M43.93,6.386 C36.499,2.668 27.945,1.097 19.694,0.983 C13.613,0.899 6.095,2.412 2.651,7.93 C-1.095,13.738 1.595,21.887 6.277,26.576 C11.481,31.788 20.217,34.138 27.284,34.214 C35.001,34.297 42.954,31.418 48.575,26.276 C55.648,19.805 51.332,10.088 43.93,6.386" id="Fill-4" fill="#8E5BB4" sketch:type="MSShapeGroup"></path>
            <path d="M51.559,21.224 C51.406,20.962 50.894,20.789 50.667,21.081 C50.034,21.893 49.85,23.041 49.358,23.956 C48.589,25.388 47.443,26.591 46.142,27.55 C40.152,31.825 32.135,33.717 24.996,32.992 C19.291,32.412 14.645,31.293 8.369,25.681 C1.352,18.04 3.4,10.783 6.728,7.275 C12.493,1.55 25.875,1.869 33.525,3.501 C38.29,4.517 42.834,6.188 47.145,8.383 C46.169,7.544 45.086,6.817 43.927,6.237 C36.495,2.519 27.942,0.948 19.69,0.834 C13.61,0.75 6.092,2.263 2.648,7.781 C1.43,9.668 0.902,11.803 0.891,13.985 C0.755,18.618 3.036,23.514 6.273,26.756 C11.477,31.969 20.213,34.319 27.28,34.394 C34.998,34.477 42.951,31.599 48.571,26.457 C49.605,25.511 50.389,24.494 50.96,23.437 C51.046,23.445 51.132,23.42 51.179,23.312 C51.43,22.747 51.923,21.844 51.559,21.224" id="Fill-5" fill="#674089" sketch:type="MSShapeGroup"></path>
            <path d="M46.79,8.204 C45.992,7.657 44.287,7.01 43.622,6.73 C35.271,3.482 28.647,2.099 20.95,1.993 C15.279,1.914 8.267,3.325 5.055,8.472 C1.561,13.889 4.071,21.49 8.437,25.863 C10.05,27.479 12.032,28.794 14.195,29.84 C8.737,25.328 5.286,14.823 10.727,9.729 C15.262,3.675 28.674,3.512 33.854,4.48 C41.094,5.87 45.228,8.521 46.307,8.964 C46.607,9.175 47.068,9.341 47.233,8.909 C47.365,8.563 47.097,8.334 46.79,8.204" id="Fill-6" fill="#E192E5" sketch:type="MSShapeGroup"></path>
            <path d="M13.255,11.147 C11.971,9.875 10.325,9.044 8.65,8.569 C7.415,8.218 5.788,8.163 4.743,9.263 C3.618,10.415 3.659,12.463 4.321,13.812 C5.058,15.312 6.693,16.335 8.129,16.737 C9.697,17.176 11.498,16.937 12.963,16.042 C14.808,14.916 14.533,12.414 13.255,11.147" id="Fill-7" fill="#E192E5" sketch:type="MSShapeGroup"></path>
            <path d="M12.969,10.779 C11.903,9.836 10.557,9.199 9.197,8.816 C8.195,8.533 6.884,8.452 6.071,9.213 C5.194,10.009 5.28,11.476 5.848,12.458 C6.479,13.55 7.821,14.325 8.987,14.649 C10.26,15.003 11.703,14.878 12.86,14.275 C14.316,13.517 14.03,11.718 12.969,10.779" id="Fill-8" fill="#674089" sketch:type="MSShapeGroup"></path>
            <path d="M11.443,11.339 C10.866,10.828 10.136,10.483 9.399,10.275 C8.856,10.122 8.146,10.078 7.705,10.491 C7.23,10.922 7.276,11.717 7.584,12.249 C7.926,12.841 8.653,13.261 9.285,13.437 C9.975,13.628 10.757,13.561 11.384,13.234 C12.173,12.823 12.018,11.848 11.443,11.339" id="Fill-9" fill="#A775D3" sketch:type="MSShapeGroup"></path>
            <path d="M33.681,14.903 C35.107,14.124 36.747,13.795 38.33,13.771 C39.496,13.753 40.938,14.07 41.598,15.227 C42.316,16.444 41.801,18.152 40.903,19.134 C39.905,20.227 38.229,20.719 36.874,20.735 C35.394,20.753 33.869,20.149 32.791,19.072 C31.434,17.715 32.262,15.679 33.681,14.903" id="Fill-10" fill="#E192E5" sketch:type="MSShapeGroup"></path>
            <path d="M34.181,13.893 C35.346,13.257 36.686,12.988 37.979,12.968 C38.932,12.954 40.11,13.213 40.65,14.158 C41.237,15.152 40.815,16.548 40.082,17.351 C39.266,18.244 37.897,18.646 36.79,18.659 C35.581,18.673 34.334,18.18 33.454,17.3 C32.345,16.191 33.021,14.527 34.181,13.893" id="Fill-11" fill="#674089" sketch:type="MSShapeGroup"></path>
            <path d="M35.545,14.878 C36.174,14.534 36.899,14.388 37.597,14.378 C38.112,14.37 38.749,14.51 39.04,15.02 C39.357,15.558 39.13,16.312 38.733,16.746 C38.293,17.228 37.553,17.445 36.955,17.452 C36.301,17.46 35.628,17.194 35.152,16.718 C34.553,16.119 34.919,15.22 35.545,14.878" id="Fill-12" fill="#A775D3" sketch:type="MSShapeGroup"></path>
            <path d="M56.906,21.581 C56.68,19.886 55.653,18.476 54.153,17.678 C53.538,17.351 53.141,18.356 53.748,18.679 C54.913,19.299 55.666,20.45 55.839,21.747 C55.932,22.436 56.999,22.272 56.906,21.581" id="Fill-13" fill="#674089" sketch:type="MSShapeGroup"></path>
            <path d="M47.379,36.407 C45.123,37.926 42.34,37.926 40.084,36.406 C39.505,36.016 38.965,36.951 39.539,37.338 C42.091,39.057 45.372,39.057 47.924,37.339 C48.498,36.952 47.958,36.017 47.379,36.407" id="Fill-14" fill="#674089" sketch:type="MSShapeGroup"></path>
        </g>
    </g>
</svg>